%TF.GenerationSoftware,KiCad,Pcbnew,9.0.3*%
%TF.CreationDate,2025-08-05T15:46:53-07:00*%
%TF.ProjectId,Joule Thief,4a6f756c-6520-4546-9869-65662e6b6963,R1*%
%TF.SameCoordinates,Original*%
%TF.FileFunction,Soldermask,Top*%
%TF.FilePolarity,Negative*%
%FSLAX46Y46*%
G04 Gerber Fmt 4.6, Leading zero omitted, Abs format (unit mm)*
G04 Created by KiCad (PCBNEW 9.0.3) date 2025-08-05 15:46:53*
%MOMM*%
%LPD*%
G01*
G04 APERTURE LIST*
G04 Aperture macros list*
%AMRoundRect*
0 Rectangle with rounded corners*
0 $1 Rounding radius*
0 $2 $3 $4 $5 $6 $7 $8 $9 X,Y pos of 4 corners*
0 Add a 4 corners polygon primitive as box body*
4,1,4,$2,$3,$4,$5,$6,$7,$8,$9,$2,$3,0*
0 Add four circle primitives for the rounded corners*
1,1,$1+$1,$2,$3*
1,1,$1+$1,$4,$5*
1,1,$1+$1,$6,$7*
1,1,$1+$1,$8,$9*
0 Add four rect primitives between the rounded corners*
20,1,$1+$1,$2,$3,$4,$5,0*
20,1,$1+$1,$4,$5,$6,$7,0*
20,1,$1+$1,$6,$7,$8,$9,0*
20,1,$1+$1,$8,$9,$2,$3,0*%
%AMFreePoly0*
4,1,23,0.500000,-0.750000,0.000000,-0.750000,0.000000,-0.745722,-0.065263,-0.745722,-0.191342,-0.711940,-0.304381,-0.646677,-0.396677,-0.554381,-0.461940,-0.441342,-0.495722,-0.315263,-0.495722,-0.250000,-0.500000,-0.250000,-0.500000,0.250000,-0.495722,0.250000,-0.495722,0.315263,-0.461940,0.441342,-0.396677,0.554381,-0.304381,0.646677,-0.191342,0.711940,-0.065263,0.745722,0.000000,0.745722,
0.000000,0.750000,0.500000,0.750000,0.500000,-0.750000,0.500000,-0.750000,$1*%
%AMFreePoly1*
4,1,23,0.000000,0.745722,0.065263,0.745722,0.191342,0.711940,0.304381,0.646677,0.396677,0.554381,0.461940,0.441342,0.495722,0.315263,0.495722,0.250000,0.500000,0.250000,0.500000,-0.250000,0.495722,-0.250000,0.495722,-0.315263,0.461940,-0.441342,0.396677,-0.554381,0.304381,-0.646677,0.191342,-0.711940,0.065263,-0.745722,0.000000,-0.745722,0.000000,-0.750000,-0.500000,-0.750000,
-0.500000,0.750000,0.000000,0.750000,0.000000,0.745722,0.000000,0.745722,$1*%
G04 Aperture macros list end*
%ADD10RoundRect,0.100000X-0.900000X-0.100000X0.900000X-0.100000X0.900000X0.100000X-0.900000X0.100000X0*%
%ADD11RoundRect,0.285714X0.514286X-1.214286X0.514286X1.214286X-0.514286X1.214286X-0.514286X-1.214286X0*%
%ADD12RoundRect,0.243600X0.901400X0.771400X-0.901400X0.771400X-0.901400X-0.771400X0.901400X-0.771400X0*%
%ADD13RoundRect,0.091200X0.608800X0.288800X-0.608800X0.288800X-0.608800X-0.288800X0.608800X-0.288800X0*%
%ADD14RoundRect,0.190000X0.510000X0.190000X-0.510000X0.190000X-0.510000X-0.190000X0.510000X-0.190000X0*%
%ADD15C,3.600000*%
%ADD16RoundRect,0.525000X1.475000X-1.225000X1.475000X1.225000X-1.475000X1.225000X-1.475000X-1.225000X0*%
%ADD17C,3.000000*%
%ADD18RoundRect,0.250000X-0.450000X0.350000X-0.450000X-0.350000X0.450000X-0.350000X0.450000X0.350000X0*%
%ADD19RoundRect,0.100000X-0.100000X0.637500X-0.100000X-0.637500X0.100000X-0.637500X0.100000X0.637500X0*%
%ADD20RoundRect,0.100000X-0.100000X0.625000X-0.100000X-0.625000X0.100000X-0.625000X0.100000X0.625000X0*%
%ADD21FreePoly0,180.000000*%
%ADD22FreePoly1,180.000000*%
%ADD23RoundRect,0.250000X0.450000X-0.350000X0.450000X0.350000X-0.450000X0.350000X-0.450000X-0.350000X0*%
%ADD24RoundRect,0.150000X-0.150000X0.825000X-0.150000X-0.825000X0.150000X-0.825000X0.150000X0.825000X0*%
%ADD25RoundRect,0.250000X-0.337500X-0.475000X0.337500X-0.475000X0.337500X0.475000X-0.337500X0.475000X0*%
%ADD26RoundRect,0.250000X0.475000X-0.337500X0.475000X0.337500X-0.475000X0.337500X-0.475000X-0.337500X0*%
%ADD27FreePoly0,0.000000*%
%ADD28FreePoly1,0.000000*%
%ADD29RoundRect,0.250000X-0.475000X0.337500X-0.475000X-0.337500X0.475000X-0.337500X0.475000X0.337500X0*%
%ADD30RoundRect,0.250000X0.625000X-0.350000X0.625000X0.350000X-0.625000X0.350000X-0.625000X-0.350000X0*%
%ADD31O,1.750000X1.200000*%
%ADD32RoundRect,0.250000X-0.350000X-0.450000X0.350000X-0.450000X0.350000X0.450000X-0.350000X0.450000X0*%
%ADD33RoundRect,0.250000X0.337500X0.475000X-0.337500X0.475000X-0.337500X-0.475000X0.337500X-0.475000X0*%
%ADD34RoundRect,0.162500X0.162500X-0.617500X0.162500X0.617500X-0.162500X0.617500X-0.162500X-0.617500X0*%
%ADD35RoundRect,0.250000X0.550000X-0.550000X0.550000X0.550000X-0.550000X0.550000X-0.550000X-0.550000X0*%
%ADD36C,1.600000*%
%ADD37RoundRect,0.249999X-0.850001X0.850001X-0.850001X-0.850001X0.850001X-0.850001X0.850001X0.850001X0*%
%ADD38C,2.200000*%
G04 APERTURE END LIST*
%TO.C,J10*%
G36*
X138619826Y-39950000D02*
G01*
X138319826Y-39950000D01*
X138319826Y-38450000D01*
X138619826Y-38450000D01*
X138619826Y-39950000D01*
G37*
%TO.C,J5*%
G36*
X131210710Y-39950000D02*
G01*
X130910710Y-39950000D01*
X130910710Y-38450000D01*
X131210710Y-38450000D01*
X131210710Y-39950000D01*
G37*
%TO.C,J13*%
G36*
X146369826Y-39950000D02*
G01*
X146069826Y-39950000D01*
X146069826Y-38450000D01*
X146369826Y-38450000D01*
X146369826Y-39950000D01*
G37*
%TO.C,J6*%
G36*
X131210710Y-42750000D02*
G01*
X130910710Y-42750000D01*
X130910710Y-41250000D01*
X131210710Y-41250000D01*
X131210710Y-42750000D01*
G37*
%TO.C,J16*%
G36*
X149569826Y-41250000D02*
G01*
X149869826Y-41250000D01*
X149869826Y-42750000D01*
X149569826Y-42750000D01*
X149569826Y-41250000D01*
G37*
%TO.C,J9*%
G36*
X138619826Y-42750000D02*
G01*
X138319826Y-42750000D01*
X138319826Y-41250000D01*
X138619826Y-41250000D01*
X138619826Y-42750000D01*
G37*
%TO.C,J4*%
G36*
X123950000Y-42750000D02*
G01*
X123650000Y-42750000D01*
X123650000Y-41250000D01*
X123950000Y-41250000D01*
X123950000Y-42750000D01*
G37*
%TO.C,J8*%
G36*
X134519826Y-41250000D02*
G01*
X134819826Y-41250000D01*
X134819826Y-42750000D01*
X134519826Y-42750000D01*
X134519826Y-41250000D01*
G37*
%TO.C,J14*%
G36*
X146369826Y-42750000D02*
G01*
X146069826Y-42750000D01*
X146069826Y-41250000D01*
X146369826Y-41250000D01*
X146369826Y-42750000D01*
G37*
%TO.C,J18*%
G36*
X153469826Y-42750000D02*
G01*
X153169826Y-42750000D01*
X153169826Y-41250000D01*
X153469826Y-41250000D01*
X153469826Y-42750000D01*
G37*
%TO.C,J3*%
G36*
X123950000Y-39950000D02*
G01*
X123650000Y-39950000D01*
X123650000Y-38450000D01*
X123950000Y-38450000D01*
X123950000Y-39950000D01*
G37*
%TO.C,J19*%
G36*
X156619826Y-38450000D02*
G01*
X156919826Y-38450000D01*
X156919826Y-39950000D01*
X156619826Y-39950000D01*
X156619826Y-38450000D01*
G37*
%TO.C,J17*%
G36*
X153469826Y-39950000D02*
G01*
X153169826Y-39950000D01*
X153169826Y-38450000D01*
X153469826Y-38450000D01*
X153469826Y-39950000D01*
G37*
%TO.C,J1*%
G36*
X127176934Y-38450000D02*
G01*
X127476934Y-38450000D01*
X127476934Y-39950000D01*
X127176934Y-39950000D01*
X127176934Y-38450000D01*
G37*
%TO.C,J15*%
G36*
X149569826Y-38450000D02*
G01*
X149869826Y-38450000D01*
X149869826Y-39950000D01*
X149569826Y-39950000D01*
X149569826Y-38450000D01*
G37*
%TO.C,J20*%
G36*
X156619826Y-41250000D02*
G01*
X156919826Y-41250000D01*
X156919826Y-42750000D01*
X156619826Y-42750000D01*
X156619826Y-41250000D01*
G37*
%TO.C,J12*%
G36*
X142019826Y-38450000D02*
G01*
X142319826Y-38450000D01*
X142319826Y-39950000D01*
X142019826Y-39950000D01*
X142019826Y-38450000D01*
G37*
%TO.C,J7*%
G36*
X134519826Y-38450000D02*
G01*
X134819826Y-38450000D01*
X134819826Y-39950000D01*
X134519826Y-39950000D01*
X134519826Y-38450000D01*
G37*
%TO.C,J11*%
G36*
X142019826Y-41250000D02*
G01*
X142319826Y-41250000D01*
X142319826Y-42750000D01*
X142019826Y-42750000D01*
X142019826Y-41250000D01*
G37*
%TO.C,J2*%
G36*
X127176934Y-41250000D02*
G01*
X127476934Y-41250000D01*
X127476934Y-42750000D01*
X127176934Y-42750000D01*
X127176934Y-41250000D01*
G37*
%TD*%
D10*
%TO.C,U7*%
X143950000Y-79040349D03*
X143950000Y-79680349D03*
X143950000Y-80340349D03*
X143950000Y-80980349D03*
X149550000Y-80980349D03*
X149550000Y-80340349D03*
X149550000Y-79680349D03*
X149550000Y-79040349D03*
%TD*%
D11*
%TO.C,SW1*%
X159500000Y-74100000D03*
X159500000Y-70100000D03*
X159500000Y-66100000D03*
X162100000Y-74100000D03*
X162100000Y-70100000D03*
X162100000Y-66100000D03*
%TD*%
D12*
%TO.C,R6*%
X152674580Y-59925000D03*
D13*
X153119580Y-58020000D03*
D14*
X146259580Y-58020000D03*
D12*
X146704580Y-59925000D03*
%TD*%
%TO.C,R1*%
X132194826Y-65660000D03*
D13*
X132639826Y-63755000D03*
D14*
X125779826Y-63755000D03*
D12*
X126224826Y-65660000D03*
%TD*%
D15*
%TO.C,LITH1*%
X117419826Y-49000000D03*
X44519826Y-49000000D03*
%TD*%
D16*
%TO.C,L1*%
X126819826Y-74000000D03*
X136319826Y-74000000D03*
%TD*%
D17*
%TO.C,BATT_1*%
X118069826Y-70900000D03*
X63009826Y-70900000D03*
%TD*%
D18*
%TO.C,R7*%
X146258496Y-53792436D03*
X146258496Y-55792436D03*
%TD*%
D19*
%TO.C,U3*%
X136319826Y-50900000D03*
X135669826Y-50900000D03*
X135019826Y-50900000D03*
X134369826Y-50900000D03*
X133719826Y-50900000D03*
X133069826Y-50900000D03*
X132419826Y-50900000D03*
X132419826Y-56625000D03*
X133069826Y-56625000D03*
X133719826Y-56625000D03*
X134369826Y-56625000D03*
X135019826Y-56625000D03*
X135669826Y-56625000D03*
X136319826Y-56625000D03*
%TD*%
D20*
%TO.C,U2*%
X140453580Y-59401000D03*
X139803580Y-59401000D03*
X139153580Y-59401000D03*
X138503580Y-59401000D03*
X137853580Y-59401000D03*
X137203580Y-59401000D03*
X137203580Y-63701000D03*
X137853580Y-63701000D03*
X138503580Y-63701000D03*
X139153580Y-63701000D03*
X139803580Y-63701000D03*
X140453580Y-63701000D03*
%TD*%
D21*
%TO.C,J10*%
X139119826Y-39200000D03*
D22*
X137819826Y-39200000D03*
%TD*%
D21*
%TO.C,J5*%
X131710710Y-39200000D03*
D22*
X130410710Y-39200000D03*
%TD*%
D18*
%TO.C,R9*%
X143065743Y-70110349D03*
X143065743Y-72110349D03*
%TD*%
D23*
%TO.C,R4*%
X142704580Y-62525000D03*
X142704580Y-60525000D03*
%TD*%
D21*
%TO.C,J13*%
X146869826Y-39200000D03*
D22*
X145569826Y-39200000D03*
%TD*%
D24*
%TO.C,U4*%
X150200000Y-46250000D03*
X148930000Y-46250000D03*
X147660000Y-46250000D03*
X146390000Y-46250000D03*
X146390000Y-51200000D03*
X147660000Y-51200000D03*
X148930000Y-51200000D03*
X150200000Y-51200000D03*
%TD*%
D21*
%TO.C,J6*%
X131710710Y-42000000D03*
D22*
X130410710Y-42000000D03*
%TD*%
D25*
%TO.C,C5*%
X140449882Y-66525000D03*
X142524882Y-66525000D03*
%TD*%
D26*
%TO.C,C10*%
X150465743Y-72147849D03*
X150465743Y-70072849D03*
%TD*%
D27*
%TO.C,J16*%
X149069826Y-42000000D03*
D28*
X150369826Y-42000000D03*
%TD*%
D21*
%TO.C,J9*%
X139119826Y-42000000D03*
D22*
X137819826Y-42000000D03*
%TD*%
D21*
%TO.C,J4*%
X124450000Y-42000000D03*
D22*
X123150000Y-42000000D03*
%TD*%
D27*
%TO.C,J8*%
X134019826Y-42000000D03*
D28*
X135319826Y-42000000D03*
%TD*%
D29*
%TO.C,C9*%
X143901125Y-51533089D03*
X143901125Y-53608089D03*
%TD*%
D18*
%TO.C,R8*%
X153118175Y-53787510D03*
X153118175Y-55787510D03*
%TD*%
D26*
%TO.C,C4*%
X135169826Y-65675000D03*
X135169826Y-63600000D03*
%TD*%
D21*
%TO.C,J14*%
X146869826Y-42000000D03*
D22*
X145569826Y-42000000D03*
%TD*%
D26*
%TO.C,C6*%
X139796709Y-57037500D03*
X139796709Y-54962500D03*
%TD*%
D21*
%TO.C,J18*%
X153969826Y-42000000D03*
D22*
X152669826Y-42000000D03*
%TD*%
D25*
%TO.C,C7*%
X134494826Y-46700000D03*
X136569826Y-46700000D03*
%TD*%
D18*
%TO.C,R3*%
X132646915Y-59450000D03*
X132646915Y-61450000D03*
%TD*%
D21*
%TO.C,J3*%
X124450000Y-39200000D03*
D22*
X123150000Y-39200000D03*
%TD*%
D30*
%TO.C,J_OUT1*%
X161469826Y-50400000D03*
D31*
X161469826Y-48400000D03*
X161469826Y-46400000D03*
X161469826Y-44400000D03*
X161469826Y-42400000D03*
X161469826Y-40400000D03*
%TD*%
D27*
%TO.C,J19*%
X156119826Y-39200000D03*
D28*
X157419826Y-39200000D03*
%TD*%
D23*
%TO.C,R5*%
X142704580Y-58225000D03*
X142704580Y-56225000D03*
%TD*%
D21*
%TO.C,J17*%
X153969826Y-39200000D03*
D22*
X152669826Y-39200000D03*
%TD*%
D27*
%TO.C,J1*%
X126676934Y-39200000D03*
D28*
X127976934Y-39200000D03*
%TD*%
D27*
%TO.C,J15*%
X149069826Y-39200000D03*
D28*
X150369826Y-39200000D03*
%TD*%
D32*
%TO.C,R10*%
X145665743Y-76710349D03*
X147665743Y-76710349D03*
%TD*%
D33*
%TO.C,C1*%
X130247326Y-61450000D03*
X128172326Y-61450000D03*
%TD*%
D24*
%TO.C,U1*%
X129974826Y-51025000D03*
X128704826Y-51025000D03*
X127434826Y-51025000D03*
X126164826Y-51025000D03*
X126164826Y-55975000D03*
X127434826Y-55975000D03*
X128704826Y-55975000D03*
X129974826Y-55975000D03*
%TD*%
D34*
%TO.C,U5*%
X145800000Y-73600000D03*
X146750000Y-73600000D03*
X147700000Y-73600000D03*
X147700000Y-70900000D03*
X146750000Y-70900000D03*
X145800000Y-70900000D03*
%TD*%
D26*
%TO.C,C2*%
X123869826Y-53875000D03*
X123869826Y-51800000D03*
%TD*%
D35*
%TO.C,C3*%
X146704580Y-65825000D03*
D36*
X146704580Y-63825000D03*
%TD*%
D18*
%TO.C,R2*%
X125784826Y-59450000D03*
X125784826Y-61450000D03*
%TD*%
D27*
%TO.C,J20*%
X156119826Y-42000000D03*
D28*
X157419826Y-42000000D03*
%TD*%
D27*
%TO.C,J12*%
X141519826Y-39200000D03*
D28*
X142819826Y-39200000D03*
%TD*%
D27*
%TO.C,J7*%
X134019826Y-39200000D03*
D28*
X135319826Y-39200000D03*
%TD*%
D27*
%TO.C,J11*%
X141519826Y-42000000D03*
D28*
X142819826Y-42000000D03*
%TD*%
D37*
%TO.C,D1*%
X156769826Y-46020000D03*
D38*
X156769826Y-56180000D03*
%TD*%
D33*
%TO.C,C8*%
X150727080Y-55790000D03*
X148652080Y-55790000D03*
%TD*%
D27*
%TO.C,J2*%
X126676934Y-42000000D03*
D28*
X127976934Y-42000000D03*
%TD*%
M02*
