M48
; DRILL file {KiCad 9.0.3} date 2025-08-05T15:46:51-0700
; FORMAT={-:-/ absolute / metric / decimal}
; #@! TF.CreationDate,2025-08-05T15:46:51-07:00
; #@! TF.GenerationSoftware,Kicad,Pcbnew,9.0.3
; #@! TF.FileFunction,Plated,1,2,PTH
FMAT,2
METRIC
; #@! TA.AperFunction,Plated,PTH,ViaDrill
T1C0.300
; #@! TA.AperFunction,Plated,PTH,ComponentDrill
T2C0.750
; #@! TA.AperFunction,Plated,PTH,ComponentDrill
T3C0.800
; #@! TA.AperFunction,Plated,PTH,ComponentDrill
T4C1.100
; #@! TA.AperFunction,Plated,PTH,ComponentDrill
T5C1.500
; #@! TA.AperFunction,Plated,PTH,ComponentDrill
T6C1.800
%
G90
G05
T1
X123.17Y-40.6
X123.87Y-50.4
X127.47Y-57.8
X129.17Y-39.2
X130.87Y-55.3
X131.52Y-54.65
X131.67Y-43.6
X131.67Y-46.8
X133.67Y-48.4
X133.67Y-49.249
X134.295Y-55.087
X135.07Y-49.7
X135.17Y-62.0
X135.37Y-40.6
X136.57Y-39.2
X137.204Y-61.551
X138.0Y-46.7
X139.01Y-43.55
X140.37Y-42.1
X142.505Y-64.525
X142.7Y-54.962
X143.2Y-49.8
X144.27Y-39.2
X144.601Y-49.8
X146.4Y-49.1
X146.75Y-79.61
X147.7Y-48.4
X148.0Y-42.0
X148.9Y-44.6
X150.27Y-40.6
X151.57Y-39.2
X157.47Y-40.6
T2
X161.47Y-40.4
X161.47Y-42.4
X161.47Y-44.4
X161.47Y-46.4
X161.47Y-48.4
X161.47Y-50.4
T3
X146.705Y-63.825
X146.705Y-65.825
T4
X156.77Y-46.02
X156.77Y-56.18
T5
X63.01Y-70.9
X118.07Y-70.9
T6
X44.52Y-49.0
X117.42Y-49.0
T3
G00X159.5Y-66.75
M15
G01X159.5Y-65.45
M16
G05
G00X159.5Y-70.75
M15
G01X159.5Y-69.45
M16
G05
G00X159.5Y-74.75
M15
G01X159.5Y-73.45
M16
G05
G00X162.1Y-66.75
M15
G01X162.1Y-65.45
M16
G05
G00X162.1Y-70.75
M15
G01X162.1Y-69.45
M16
G05
G00X162.1Y-74.75
M15
G01X162.1Y-73.45
M16
G05
M30
