%TF.GenerationSoftware,KiCad,Pcbnew,9.0.3*%
%TF.CreationDate,2025-08-05T15:46:52-07:00*%
%TF.ProjectId,Joule Thief,4a6f756c-6520-4546-9869-65662e6b6963,R1*%
%TF.SameCoordinates,Original*%
%TF.FileFunction,Paste,Top*%
%TF.FilePolarity,Positive*%
%FSLAX46Y46*%
G04 Gerber Fmt 4.6, Leading zero omitted, Abs format (unit mm)*
G04 Created by KiCad (PCBNEW 9.0.3) date 2025-08-05 15:46:52*
%MOMM*%
%LPD*%
G01*
G04 APERTURE LIST*
G04 Aperture macros list*
%AMRoundRect*
0 Rectangle with rounded corners*
0 $1 Rounding radius*
0 $2 $3 $4 $5 $6 $7 $8 $9 X,Y pos of 4 corners*
0 Add a 4 corners polygon primitive as box body*
4,1,4,$2,$3,$4,$5,$6,$7,$8,$9,$2,$3,0*
0 Add four circle primitives for the rounded corners*
1,1,$1+$1,$2,$3*
1,1,$1+$1,$4,$5*
1,1,$1+$1,$6,$7*
1,1,$1+$1,$8,$9*
0 Add four rect primitives between the rounded corners*
20,1,$1+$1,$2,$3,$4,$5,0*
20,1,$1+$1,$4,$5,$6,$7,0*
20,1,$1+$1,$6,$7,$8,$9,0*
20,1,$1+$1,$8,$9,$2,$3,0*%
G04 Aperture macros list end*
%ADD10RoundRect,0.100000X-0.900000X-0.100000X0.900000X-0.100000X0.900000X0.100000X-0.900000X0.100000X0*%
%ADD11RoundRect,0.243600X0.901400X0.771400X-0.901400X0.771400X-0.901400X-0.771400X0.901400X-0.771400X0*%
%ADD12RoundRect,0.091200X0.608800X0.288800X-0.608800X0.288800X-0.608800X-0.288800X0.608800X-0.288800X0*%
%ADD13RoundRect,0.190000X0.510000X0.190000X-0.510000X0.190000X-0.510000X-0.190000X0.510000X-0.190000X0*%
%ADD14RoundRect,0.525000X1.475000X-1.225000X1.475000X1.225000X-1.475000X1.225000X-1.475000X-1.225000X0*%
%ADD15RoundRect,0.250000X-0.450000X0.350000X-0.450000X-0.350000X0.450000X-0.350000X0.450000X0.350000X0*%
%ADD16RoundRect,0.100000X-0.100000X0.637500X-0.100000X-0.637500X0.100000X-0.637500X0.100000X0.637500X0*%
%ADD17RoundRect,0.100000X-0.100000X0.625000X-0.100000X-0.625000X0.100000X-0.625000X0.100000X0.625000X0*%
%ADD18RoundRect,0.250000X0.450000X-0.350000X0.450000X0.350000X-0.450000X0.350000X-0.450000X-0.350000X0*%
%ADD19RoundRect,0.150000X-0.150000X0.825000X-0.150000X-0.825000X0.150000X-0.825000X0.150000X0.825000X0*%
%ADD20RoundRect,0.250000X-0.337500X-0.475000X0.337500X-0.475000X0.337500X0.475000X-0.337500X0.475000X0*%
%ADD21RoundRect,0.250000X0.475000X-0.337500X0.475000X0.337500X-0.475000X0.337500X-0.475000X-0.337500X0*%
%ADD22RoundRect,0.250000X-0.475000X0.337500X-0.475000X-0.337500X0.475000X-0.337500X0.475000X0.337500X0*%
%ADD23RoundRect,0.250000X-0.350000X-0.450000X0.350000X-0.450000X0.350000X0.450000X-0.350000X0.450000X0*%
%ADD24RoundRect,0.250000X0.337500X0.475000X-0.337500X0.475000X-0.337500X-0.475000X0.337500X-0.475000X0*%
%ADD25RoundRect,0.162500X0.162500X-0.617500X0.162500X0.617500X-0.162500X0.617500X-0.162500X-0.617500X0*%
G04 APERTURE END LIST*
D10*
%TO.C,U7*%
X143950000Y-79040349D03*
X143950000Y-79680349D03*
X143950000Y-80340349D03*
X143950000Y-80980349D03*
X149550000Y-80980349D03*
X149550000Y-80340349D03*
X149550000Y-79680349D03*
X149550000Y-79040349D03*
%TD*%
D11*
%TO.C,R6*%
X152674580Y-59925000D03*
D12*
X153119580Y-58020000D03*
D13*
X146259580Y-58020000D03*
D11*
X146704580Y-59925000D03*
%TD*%
%TO.C,R1*%
X132194826Y-65660000D03*
D12*
X132639826Y-63755000D03*
D13*
X125779826Y-63755000D03*
D11*
X126224826Y-65660000D03*
%TD*%
D14*
%TO.C,L1*%
X126819826Y-74000000D03*
X136319826Y-74000000D03*
%TD*%
D15*
%TO.C,R7*%
X146258496Y-53792436D03*
X146258496Y-55792436D03*
%TD*%
D16*
%TO.C,U3*%
X136319826Y-50900000D03*
X135669826Y-50900000D03*
X135019826Y-50900000D03*
X134369826Y-50900000D03*
X133719826Y-50900000D03*
X133069826Y-50900000D03*
X132419826Y-50900000D03*
X132419826Y-56625000D03*
X133069826Y-56625000D03*
X133719826Y-56625000D03*
X134369826Y-56625000D03*
X135019826Y-56625000D03*
X135669826Y-56625000D03*
X136319826Y-56625000D03*
%TD*%
D17*
%TO.C,U2*%
X140453580Y-59401000D03*
X139803580Y-59401000D03*
X139153580Y-59401000D03*
X138503580Y-59401000D03*
X137853580Y-59401000D03*
X137203580Y-59401000D03*
X137203580Y-63701000D03*
X137853580Y-63701000D03*
X138503580Y-63701000D03*
X139153580Y-63701000D03*
X139803580Y-63701000D03*
X140453580Y-63701000D03*
%TD*%
D15*
%TO.C,R9*%
X143065743Y-70110349D03*
X143065743Y-72110349D03*
%TD*%
D18*
%TO.C,R4*%
X142704580Y-62525000D03*
X142704580Y-60525000D03*
%TD*%
D19*
%TO.C,U4*%
X150200000Y-46250000D03*
X148930000Y-46250000D03*
X147660000Y-46250000D03*
X146390000Y-46250000D03*
X146390000Y-51200000D03*
X147660000Y-51200000D03*
X148930000Y-51200000D03*
X150200000Y-51200000D03*
%TD*%
D20*
%TO.C,C5*%
X140449882Y-66525000D03*
X142524882Y-66525000D03*
%TD*%
D21*
%TO.C,C10*%
X150465743Y-72147849D03*
X150465743Y-70072849D03*
%TD*%
D22*
%TO.C,C9*%
X143901125Y-51533089D03*
X143901125Y-53608089D03*
%TD*%
D15*
%TO.C,R8*%
X153118175Y-53787510D03*
X153118175Y-55787510D03*
%TD*%
D21*
%TO.C,C4*%
X135169826Y-65675000D03*
X135169826Y-63600000D03*
%TD*%
%TO.C,C6*%
X139796709Y-57037500D03*
X139796709Y-54962500D03*
%TD*%
D20*
%TO.C,C7*%
X134494826Y-46700000D03*
X136569826Y-46700000D03*
%TD*%
D15*
%TO.C,R3*%
X132646915Y-59450000D03*
X132646915Y-61450000D03*
%TD*%
D18*
%TO.C,R5*%
X142704580Y-58225000D03*
X142704580Y-56225000D03*
%TD*%
D23*
%TO.C,R10*%
X145665743Y-76710349D03*
X147665743Y-76710349D03*
%TD*%
D24*
%TO.C,C1*%
X130247326Y-61450000D03*
X128172326Y-61450000D03*
%TD*%
D19*
%TO.C,U1*%
X129974826Y-51025000D03*
X128704826Y-51025000D03*
X127434826Y-51025000D03*
X126164826Y-51025000D03*
X126164826Y-55975000D03*
X127434826Y-55975000D03*
X128704826Y-55975000D03*
X129974826Y-55975000D03*
%TD*%
D25*
%TO.C,U5*%
X145800000Y-73600000D03*
X146750000Y-73600000D03*
X147700000Y-73600000D03*
X147700000Y-70900000D03*
X146750000Y-70900000D03*
X145800000Y-70900000D03*
%TD*%
D21*
%TO.C,C2*%
X123869826Y-53875000D03*
X123869826Y-51800000D03*
%TD*%
D15*
%TO.C,R2*%
X125784826Y-59450000D03*
X125784826Y-61450000D03*
%TD*%
D24*
%TO.C,C8*%
X150727080Y-55790000D03*
X148652080Y-55790000D03*
%TD*%
M02*
