%TF.GenerationSoftware,KiCad,Pcbnew,9.0.3*%
%TF.CreationDate,2025-08-05T15:46:52-07:00*%
%TF.ProjectId,Joule Thief,4a6f756c-6520-4546-9869-65662e6b6963,R1*%
%TF.SameCoordinates,Original*%
%TF.FileFunction,Copper,L2,Bot*%
%TF.FilePolarity,Positive*%
%FSLAX46Y46*%
G04 Gerber Fmt 4.6, Leading zero omitted, Abs format (unit mm)*
G04 Created by KiCad (PCBNEW 9.0.3) date 2025-08-05 15:46:52*
%MOMM*%
%LPD*%
G01*
G04 APERTURE LIST*
G04 Aperture macros list*
%AMRoundRect*
0 Rectangle with rounded corners*
0 $1 Rounding radius*
0 $2 $3 $4 $5 $6 $7 $8 $9 X,Y pos of 4 corners*
0 Add a 4 corners polygon primitive as box body*
4,1,4,$2,$3,$4,$5,$6,$7,$8,$9,$2,$3,0*
0 Add four circle primitives for the rounded corners*
1,1,$1+$1,$2,$3*
1,1,$1+$1,$4,$5*
1,1,$1+$1,$6,$7*
1,1,$1+$1,$8,$9*
0 Add four rect primitives between the rounded corners*
20,1,$1+$1,$2,$3,$4,$5,0*
20,1,$1+$1,$4,$5,$6,$7,0*
20,1,$1+$1,$6,$7,$8,$9,0*
20,1,$1+$1,$8,$9,$2,$3,0*%
G04 Aperture macros list end*
%TA.AperFunction,ComponentPad*%
%ADD10RoundRect,0.285714X0.514286X-1.214286X0.514286X1.214286X-0.514286X1.214286X-0.514286X-1.214286X0*%
%TD*%
%TA.AperFunction,ComponentPad*%
%ADD11C,3.600000*%
%TD*%
%TA.AperFunction,ComponentPad*%
%ADD12C,3.000000*%
%TD*%
%TA.AperFunction,ComponentPad*%
%ADD13RoundRect,0.250000X0.625000X-0.350000X0.625000X0.350000X-0.625000X0.350000X-0.625000X-0.350000X0*%
%TD*%
%TA.AperFunction,ComponentPad*%
%ADD14O,1.750000X1.200000*%
%TD*%
%TA.AperFunction,ComponentPad*%
%ADD15RoundRect,0.250000X0.550000X-0.550000X0.550000X0.550000X-0.550000X0.550000X-0.550000X-0.550000X0*%
%TD*%
%TA.AperFunction,ComponentPad*%
%ADD16C,1.600000*%
%TD*%
%TA.AperFunction,ComponentPad*%
%ADD17RoundRect,0.249999X-0.850001X0.850001X-0.850001X-0.850001X0.850001X-0.850001X0.850001X0.850001X0*%
%TD*%
%TA.AperFunction,ComponentPad*%
%ADD18C,2.200000*%
%TD*%
%TA.AperFunction,ViaPad*%
%ADD19C,0.600000*%
%TD*%
%TA.AperFunction,Conductor*%
%ADD20C,0.200000*%
%TD*%
%TA.AperFunction,Conductor*%
%ADD21C,0.300000*%
%TD*%
G04 APERTURE END LIST*
D10*
%TO.P,SW1,1,A*%
%TO.N,Net-(SW1A-A)*%
X159500000Y-74100000D03*
%TO.P,SW1,2,B*%
%TO.N,VBOOST*%
X159500000Y-70100000D03*
%TO.P,SW1,3,C*%
%TO.N,Net-(D1-A)*%
X159500000Y-66100000D03*
%TO.P,SW1,4,A*%
%TO.N,VBOOST*%
X162100000Y-74100000D03*
%TO.P,SW1,5,B*%
%TO.N,VBUS*%
X162100000Y-70100000D03*
%TO.P,SW1,6,C*%
%TO.N,VCC*%
X162100000Y-66100000D03*
%TD*%
D11*
%TO.P,LITH1,1,+*%
%TO.N,BAT+*%
X117419826Y-49000000D03*
%TO.P,LITH1,2,-*%
%TO.N,BAT-*%
X44519826Y-49000000D03*
%TD*%
D12*
%TO.P,BATT_1,1,+*%
%TO.N,ALK*%
X118069826Y-70900000D03*
%TO.P,BATT_1,2,-*%
%TO.N,GND*%
X63009826Y-70900000D03*
%TD*%
D13*
%TO.P,J_OUT1,1,Pin_1*%
%TO.N,SHDN*%
X161469826Y-50400000D03*
D14*
%TO.P,J_OUT1,2,Pin_2*%
%TO.N,VOUT*%
X161469826Y-48400000D03*
%TO.P,J_OUT1,3,Pin_3*%
%TO.N,SDA*%
X161469826Y-46400000D03*
%TO.P,J_OUT1,4,Pin_4*%
%TO.N,SCL*%
X161469826Y-44400000D03*
%TO.P,J_OUT1,5,Pin_5*%
%TO.N,GND*%
X161469826Y-42400000D03*
%TO.P,J_OUT1,6,Pin_6*%
%TO.N,VCC*%
X161469826Y-40400000D03*
%TD*%
D15*
%TO.P,C3,1*%
%TO.N,GND*%
X146704580Y-65825000D03*
D16*
%TO.P,C3,2*%
%TO.N,Net-(U2-VOUT)*%
X146704580Y-63825000D03*
%TD*%
D17*
%TO.P,D1,1,K*%
%TO.N,VOUT*%
X156769826Y-46020000D03*
D18*
%TO.P,D1,2,A*%
%TO.N,Net-(D1-A)*%
X156769826Y-56180000D03*
%TD*%
D19*
%TO.N,GND*%
X138000000Y-46700000D03*
X146750000Y-79610349D03*
X127469826Y-57800000D03*
X135069826Y-49700000D03*
X144269826Y-39200000D03*
X136569826Y-39200000D03*
X134294826Y-55087500D03*
X135169826Y-62000000D03*
X142700000Y-54962500D03*
X129169826Y-39200000D03*
X151569826Y-39200000D03*
X123869826Y-50400000D03*
X142504580Y-64525000D03*
X137203580Y-61551000D03*
%TO.N,SDA*%
X150269826Y-40600000D03*
X123169826Y-40600000D03*
X133669826Y-48400000D03*
X135369826Y-40600000D03*
X147700000Y-48400000D03*
X157469826Y-40600000D03*
%TO.N,SHDN*%
X144601125Y-49800000D03*
X143200000Y-49800000D03*
%TO.N,SCL*%
X133669826Y-49248528D03*
X146400000Y-49100000D03*
%TO.N,Net-(J5-A)*%
X131669826Y-43600000D03*
X131669826Y-46800000D03*
%TO.N,Net-(J10-A)*%
X139010206Y-43550000D03*
X130869826Y-55300000D03*
%TO.N,Net-(J11-A)*%
X140369826Y-42100000D03*
X131519826Y-54650000D03*
%TO.N,Net-(J13-A)*%
X148900000Y-44600000D03*
X148000000Y-42000000D03*
%TD*%
D20*
%TO.N,SDA*%
X157469826Y-40600000D02*
X150269826Y-40600000D01*
X150269826Y-40600000D02*
X135369826Y-40600000D01*
X123169826Y-40600000D02*
X135369826Y-40600000D01*
X133669826Y-48400000D02*
X147700000Y-48400000D01*
%TO.N,SHDN*%
X144601125Y-49800000D02*
X143200000Y-49800000D01*
%TO.N,SCL*%
X133669826Y-49248528D02*
X133819354Y-49099000D01*
X146399000Y-49099000D02*
X146400000Y-49100000D01*
X133819354Y-49099000D02*
X146399000Y-49099000D01*
D21*
%TO.N,Net-(J5-A)*%
X131669826Y-46800000D02*
X131669826Y-43600000D01*
%TO.N,Net-(J10-A)*%
X130869826Y-55300000D02*
X130869826Y-49200000D01*
X138819826Y-43550000D02*
X139010206Y-43550000D01*
X133069826Y-43600000D02*
X138769826Y-43600000D01*
X132569826Y-47500000D02*
X132569826Y-44100000D01*
X130869826Y-49200000D02*
X132569826Y-47500000D01*
X138769826Y-43600000D02*
X138819826Y-43550000D01*
X132569826Y-44100000D02*
X133069826Y-43600000D01*
%TO.N,Net-(J11-A)*%
X133269826Y-44500000D02*
X133269826Y-47700000D01*
X139369826Y-44200000D02*
X133569826Y-44200000D01*
X140369826Y-43200000D02*
X139369826Y-44200000D01*
X131469826Y-54600000D02*
X131519826Y-54650000D01*
X131469826Y-49500000D02*
X131469826Y-54600000D01*
X133269826Y-47700000D02*
X131469826Y-49500000D01*
X133569826Y-44200000D02*
X133269826Y-44500000D01*
X140369826Y-42100000D02*
X140369826Y-43200000D01*
D20*
%TO.N,Net-(J13-A)*%
X148900000Y-44600000D02*
X148900000Y-43500000D01*
X148900000Y-43500000D02*
X148000000Y-42600000D01*
X148000000Y-42600000D02*
X148000000Y-42000000D01*
%TD*%
%TA.AperFunction,Conductor*%
%TO.N,GND*%
G36*
X168312365Y-35125185D02*
G01*
X168358120Y-35177989D01*
X168369326Y-35229500D01*
X168369326Y-84775500D01*
X168349641Y-84842539D01*
X168296837Y-84888294D01*
X168245326Y-84899500D01*
X39694326Y-84899500D01*
X39627287Y-84879815D01*
X39581532Y-84827011D01*
X39570326Y-84775500D01*
X39570326Y-78251902D01*
X116569326Y-78251902D01*
X116569326Y-78488097D01*
X116606272Y-78721368D01*
X116679259Y-78945996D01*
X116786483Y-79156433D01*
X116925309Y-79347510D01*
X117092316Y-79514517D01*
X117283393Y-79653343D01*
X117382817Y-79704002D01*
X117493829Y-79760566D01*
X117493831Y-79760566D01*
X117493834Y-79760568D01*
X117614238Y-79799689D01*
X117718457Y-79833553D01*
X117951729Y-79870500D01*
X117951734Y-79870500D01*
X118187923Y-79870500D01*
X118421194Y-79833553D01*
X118645818Y-79760568D01*
X118856259Y-79653343D01*
X119047336Y-79514517D01*
X119214343Y-79347510D01*
X119353169Y-79156433D01*
X119460394Y-78945992D01*
X119533379Y-78721368D01*
X119558755Y-78561150D01*
X119570326Y-78488097D01*
X119570326Y-78251902D01*
X119533379Y-78018631D01*
X119460392Y-77794003D01*
X119353168Y-77583566D01*
X119214343Y-77392490D01*
X119047336Y-77225483D01*
X118856259Y-77086657D01*
X118645822Y-76979433D01*
X118421194Y-76906446D01*
X118187923Y-76869500D01*
X118187918Y-76869500D01*
X117951734Y-76869500D01*
X117951729Y-76869500D01*
X117718457Y-76906446D01*
X117493829Y-76979433D01*
X117283392Y-77086657D01*
X117174376Y-77165862D01*
X117092316Y-77225483D01*
X117092314Y-77225485D01*
X117092313Y-77225485D01*
X116925311Y-77392487D01*
X116925311Y-77392488D01*
X116925309Y-77392490D01*
X116865688Y-77474550D01*
X116786483Y-77583566D01*
X116679259Y-77794003D01*
X116606272Y-78018631D01*
X116569326Y-78251902D01*
X39570326Y-78251902D01*
X39570326Y-70725875D01*
X70239326Y-70725875D01*
X70239326Y-71074124D01*
X70278315Y-71420158D01*
X70278317Y-71420170D01*
X70355808Y-71759684D01*
X70355811Y-71759692D01*
X70470825Y-72088382D01*
X70621918Y-72402130D01*
X70807197Y-72696999D01*
X70807198Y-72697001D01*
X71024313Y-72969256D01*
X71270569Y-73215512D01*
X71542824Y-73432627D01*
X71542827Y-73432628D01*
X71542829Y-73432630D01*
X71837693Y-73617906D01*
X72151447Y-73769002D01*
X72398314Y-73855384D01*
X72480133Y-73884014D01*
X72480141Y-73884017D01*
X72480144Y-73884017D01*
X72480145Y-73884018D01*
X72819655Y-73961509D01*
X73165702Y-74000499D01*
X73165703Y-74000500D01*
X73165706Y-74000500D01*
X73513949Y-74000500D01*
X73513949Y-74000499D01*
X73859997Y-73961509D01*
X74199507Y-73884018D01*
X74528205Y-73769002D01*
X74841959Y-73617906D01*
X75136823Y-73432630D01*
X75136827Y-73432627D01*
X75409082Y-73215512D01*
X75409084Y-73215509D01*
X75409089Y-73215506D01*
X75655332Y-72969263D01*
X75710169Y-72900500D01*
X75872453Y-72697001D01*
X75872454Y-72696999D01*
X75872456Y-72696997D01*
X76057732Y-72402133D01*
X76208828Y-72088379D01*
X76323844Y-71759681D01*
X76401335Y-71420171D01*
X76440326Y-71074120D01*
X76440326Y-70725880D01*
X76440325Y-70725875D01*
X104779326Y-70725875D01*
X104779326Y-71074124D01*
X104818315Y-71420158D01*
X104818317Y-71420170D01*
X104895808Y-71759684D01*
X104895811Y-71759692D01*
X105010825Y-72088382D01*
X105161918Y-72402130D01*
X105347197Y-72696999D01*
X105347198Y-72697001D01*
X105564313Y-72969256D01*
X105810569Y-73215512D01*
X106082824Y-73432627D01*
X106082827Y-73432628D01*
X106082829Y-73432630D01*
X106377693Y-73617906D01*
X106691447Y-73769002D01*
X106938314Y-73855384D01*
X107020133Y-73884014D01*
X107020141Y-73884017D01*
X107020144Y-73884017D01*
X107020145Y-73884018D01*
X107359655Y-73961509D01*
X107705702Y-74000499D01*
X107705703Y-74000500D01*
X107705706Y-74000500D01*
X108053949Y-74000500D01*
X108053949Y-74000499D01*
X108399997Y-73961509D01*
X108739507Y-73884018D01*
X109068205Y-73769002D01*
X109381959Y-73617906D01*
X109676823Y-73432630D01*
X109676827Y-73432627D01*
X109949082Y-73215512D01*
X109949084Y-73215509D01*
X109949089Y-73215506D01*
X110195332Y-72969263D01*
X110250169Y-72900500D01*
X110412453Y-72697001D01*
X110412454Y-72696999D01*
X110412456Y-72696997D01*
X110597732Y-72402133D01*
X110748828Y-72088379D01*
X110863844Y-71759681D01*
X110941335Y-71420171D01*
X110980326Y-71074120D01*
X110980326Y-70768872D01*
X116069326Y-70768872D01*
X116069326Y-71031127D01*
X116095949Y-71233339D01*
X116103556Y-71291116D01*
X116171428Y-71544418D01*
X116171431Y-71544428D01*
X116271779Y-71786690D01*
X116271784Y-71786700D01*
X116402901Y-72013803D01*
X116562544Y-72221851D01*
X116562552Y-72221860D01*
X116747966Y-72407274D01*
X116747974Y-72407281D01*
X116956022Y-72566924D01*
X117183125Y-72698041D01*
X117183135Y-72698046D01*
X117388194Y-72782984D01*
X117425407Y-72798398D01*
X117678710Y-72866270D01*
X117938706Y-72900500D01*
X117938713Y-72900500D01*
X118200939Y-72900500D01*
X118200946Y-72900500D01*
X118460942Y-72866270D01*
X118714245Y-72798398D01*
X118956523Y-72698043D01*
X119183629Y-72566924D01*
X119391677Y-72407282D01*
X119391681Y-72407277D01*
X119391686Y-72407274D01*
X119577100Y-72221860D01*
X119577103Y-72221855D01*
X119577108Y-72221851D01*
X119736750Y-72013803D01*
X119867869Y-71786697D01*
X119968224Y-71544419D01*
X120036096Y-71291116D01*
X120070326Y-71031120D01*
X120070326Y-70768880D01*
X120036096Y-70508884D01*
X119968224Y-70255581D01*
X119955614Y-70225138D01*
X119867872Y-70013309D01*
X119867867Y-70013299D01*
X119736750Y-69786196D01*
X119577107Y-69578148D01*
X119577100Y-69578140D01*
X119391686Y-69392726D01*
X119391677Y-69392718D01*
X119183629Y-69233075D01*
X118956526Y-69101958D01*
X118956516Y-69101953D01*
X118714254Y-69001605D01*
X118714247Y-69001603D01*
X118714245Y-69001602D01*
X118460942Y-68933730D01*
X118403165Y-68926123D01*
X118200953Y-68899500D01*
X118200946Y-68899500D01*
X117938706Y-68899500D01*
X117938698Y-68899500D01*
X117707598Y-68929926D01*
X117678710Y-68933730D01*
X117425407Y-69001602D01*
X117425397Y-69001605D01*
X117183135Y-69101953D01*
X117183125Y-69101958D01*
X116956022Y-69233075D01*
X116747974Y-69392718D01*
X116562544Y-69578148D01*
X116402901Y-69786196D01*
X116271784Y-70013299D01*
X116271779Y-70013309D01*
X116171431Y-70255571D01*
X116171428Y-70255581D01*
X116103556Y-70508885D01*
X116069326Y-70768872D01*
X110980326Y-70768872D01*
X110980326Y-70725880D01*
X110941335Y-70379829D01*
X110863844Y-70040319D01*
X110748828Y-69711621D01*
X110597732Y-69397867D01*
X110412456Y-69103003D01*
X110412454Y-69103000D01*
X110412453Y-69102998D01*
X110195338Y-68830743D01*
X109949082Y-68584487D01*
X109676827Y-68367372D01*
X109676825Y-68367371D01*
X109381956Y-68182092D01*
X109068208Y-68030999D01*
X108739518Y-67915985D01*
X108739510Y-67915982D01*
X108484874Y-67857863D01*
X108399997Y-67838491D01*
X108399993Y-67838490D01*
X108399984Y-67838489D01*
X108053950Y-67799500D01*
X108053946Y-67799500D01*
X107705706Y-67799500D01*
X107705701Y-67799500D01*
X107359667Y-67838489D01*
X107359655Y-67838491D01*
X107020141Y-67915982D01*
X107020133Y-67915985D01*
X106691443Y-68030999D01*
X106377695Y-68182092D01*
X106082826Y-68367371D01*
X106082824Y-68367372D01*
X105810569Y-68584487D01*
X105564313Y-68830743D01*
X105347198Y-69102998D01*
X105347197Y-69103000D01*
X105161918Y-69397869D01*
X105010825Y-69711617D01*
X104895811Y-70040307D01*
X104895808Y-70040315D01*
X104818317Y-70379829D01*
X104818315Y-70379841D01*
X104779326Y-70725875D01*
X76440325Y-70725875D01*
X76401335Y-70379829D01*
X76323844Y-70040319D01*
X76208828Y-69711621D01*
X76057732Y-69397867D01*
X75872456Y-69103003D01*
X75872454Y-69103000D01*
X75872453Y-69102998D01*
X75655338Y-68830743D01*
X75409082Y-68584487D01*
X75136827Y-68367372D01*
X75136825Y-68367371D01*
X74841956Y-68182092D01*
X74528208Y-68030999D01*
X74199518Y-67915985D01*
X74199510Y-67915982D01*
X73944874Y-67857863D01*
X73859997Y-67838491D01*
X73859993Y-67838490D01*
X73859984Y-67838489D01*
X73513950Y-67799500D01*
X73513946Y-67799500D01*
X73165706Y-67799500D01*
X73165701Y-67799500D01*
X72819667Y-67838489D01*
X72819655Y-67838491D01*
X72480141Y-67915982D01*
X72480133Y-67915985D01*
X72151443Y-68030999D01*
X71837695Y-68182092D01*
X71542826Y-68367371D01*
X71542824Y-68367372D01*
X71270569Y-68584487D01*
X71024313Y-68830743D01*
X70807198Y-69102998D01*
X70807197Y-69103000D01*
X70621918Y-69397869D01*
X70470825Y-69711617D01*
X70355811Y-70040307D01*
X70355808Y-70040315D01*
X70278317Y-70379829D01*
X70278315Y-70379841D01*
X70239326Y-70725875D01*
X39570326Y-70725875D01*
X39570326Y-63722648D01*
X145404080Y-63722648D01*
X145404080Y-63927351D01*
X145436102Y-64129534D01*
X145499361Y-64324223D01*
X145534111Y-64392422D01*
X145584500Y-64491316D01*
X145592295Y-64506613D01*
X145712608Y-64672213D01*
X145857366Y-64816971D01*
X146012329Y-64929556D01*
X146022970Y-64937287D01*
X146139187Y-64996503D01*
X146205356Y-65030218D01*
X146205358Y-65030218D01*
X146205361Y-65030220D01*
X146309717Y-65064127D01*
X146400045Y-65093477D01*
X146501137Y-65109488D01*
X146602228Y-65125500D01*
X146602229Y-65125500D01*
X146806931Y-65125500D01*
X146806932Y-65125500D01*
X147009114Y-65093477D01*
X147203799Y-65030220D01*
X147386190Y-64937287D01*
X147517948Y-64841560D01*
X147517955Y-64841555D01*
X158199500Y-64841555D01*
X158199500Y-67358444D01*
X158214360Y-67490337D01*
X158214361Y-67490340D01*
X158272877Y-67657571D01*
X158367137Y-67807583D01*
X158492417Y-67932863D01*
X158492422Y-67932867D01*
X158591316Y-67995007D01*
X158637607Y-68047341D01*
X158648255Y-68116395D01*
X158619880Y-68180243D01*
X158591316Y-68204993D01*
X158492422Y-68267132D01*
X158492417Y-68267136D01*
X158367137Y-68392416D01*
X158272877Y-68542428D01*
X158214361Y-68709659D01*
X158214360Y-68709662D01*
X158199500Y-68841555D01*
X158199500Y-71358444D01*
X158214360Y-71490337D01*
X158214361Y-71490340D01*
X158272877Y-71657571D01*
X158367137Y-71807583D01*
X158492417Y-71932863D01*
X158492422Y-71932867D01*
X158591316Y-71995007D01*
X158637607Y-72047341D01*
X158648255Y-72116395D01*
X158619880Y-72180243D01*
X158591316Y-72204993D01*
X158492422Y-72267132D01*
X158492417Y-72267136D01*
X158367137Y-72392416D01*
X158272877Y-72542428D01*
X158214361Y-72709659D01*
X158214360Y-72709662D01*
X158199500Y-72841555D01*
X158199500Y-75358444D01*
X158214360Y-75490337D01*
X158214361Y-75490340D01*
X158272877Y-75657571D01*
X158367137Y-75807583D01*
X158367138Y-75807584D01*
X158492416Y-75932862D01*
X158642430Y-76027123D01*
X158809658Y-76085638D01*
X158809659Y-76085638D01*
X158809662Y-76085639D01*
X158883145Y-76093918D01*
X158941555Y-76100499D01*
X158941556Y-76100500D01*
X158941560Y-76100500D01*
X160058444Y-76100500D01*
X160058444Y-76100499D01*
X160131927Y-76092219D01*
X160190337Y-76085639D01*
X160190338Y-76085638D01*
X160190342Y-76085638D01*
X160357570Y-76027123D01*
X160507584Y-75932862D01*
X160632862Y-75807584D01*
X160695006Y-75708682D01*
X160747341Y-75662392D01*
X160816394Y-75651744D01*
X160880243Y-75680119D01*
X160904993Y-75708681D01*
X160967138Y-75807584D01*
X161092416Y-75932862D01*
X161242430Y-76027123D01*
X161409658Y-76085638D01*
X161409659Y-76085638D01*
X161409662Y-76085639D01*
X161483145Y-76093918D01*
X161541555Y-76100499D01*
X161541556Y-76100500D01*
X161541560Y-76100500D01*
X162658444Y-76100500D01*
X162658444Y-76100499D01*
X162731927Y-76092219D01*
X162790337Y-76085639D01*
X162790338Y-76085638D01*
X162790342Y-76085638D01*
X162957570Y-76027123D01*
X163107584Y-75932862D01*
X163232862Y-75807584D01*
X163327123Y-75657570D01*
X163385638Y-75490342D01*
X163400500Y-75358440D01*
X163400500Y-72841560D01*
X163393900Y-72782984D01*
X163385639Y-72709662D01*
X163385638Y-72709659D01*
X163381574Y-72698046D01*
X163327123Y-72542430D01*
X163324092Y-72537607D01*
X163232862Y-72392416D01*
X163107583Y-72267137D01*
X163008683Y-72204994D01*
X162962392Y-72152659D01*
X162951744Y-72083606D01*
X162980119Y-72019757D01*
X163008683Y-71995006D01*
X163107584Y-71932862D01*
X163232862Y-71807584D01*
X163327123Y-71657570D01*
X163385638Y-71490342D01*
X163400500Y-71358440D01*
X163400500Y-68841560D01*
X163393918Y-68783145D01*
X163385639Y-68709662D01*
X163385638Y-68709659D01*
X163341841Y-68584494D01*
X163327123Y-68542430D01*
X163324092Y-68537607D01*
X163232862Y-68392416D01*
X163107583Y-68267137D01*
X163008683Y-68204994D01*
X162962392Y-68152659D01*
X162951744Y-68083606D01*
X162980119Y-68019757D01*
X163008683Y-67995006D01*
X163107584Y-67932862D01*
X163232862Y-67807584D01*
X163327123Y-67657570D01*
X163385638Y-67490342D01*
X163400500Y-67358440D01*
X163400500Y-64841560D01*
X163390229Y-64750400D01*
X163385639Y-64709662D01*
X163385638Y-64709659D01*
X163372537Y-64672219D01*
X163327123Y-64542430D01*
X163324092Y-64537607D01*
X163232862Y-64392416D01*
X163107583Y-64267137D01*
X162957571Y-64172877D01*
X162790340Y-64114361D01*
X162790337Y-64114360D01*
X162658444Y-64099500D01*
X162658440Y-64099500D01*
X161541560Y-64099500D01*
X161541556Y-64099500D01*
X161409662Y-64114360D01*
X161409659Y-64114361D01*
X161242428Y-64172877D01*
X161092416Y-64267137D01*
X160967136Y-64392417D01*
X160967132Y-64392422D01*
X160904993Y-64491316D01*
X160852659Y-64537607D01*
X160783605Y-64548255D01*
X160719757Y-64519880D01*
X160695007Y-64491316D01*
X160632867Y-64392422D01*
X160632863Y-64392417D01*
X160507583Y-64267137D01*
X160357571Y-64172877D01*
X160190340Y-64114361D01*
X160190337Y-64114360D01*
X160058444Y-64099500D01*
X160058440Y-64099500D01*
X158941560Y-64099500D01*
X158941556Y-64099500D01*
X158809662Y-64114360D01*
X158809659Y-64114361D01*
X158642428Y-64172877D01*
X158492416Y-64267137D01*
X158367137Y-64392416D01*
X158272877Y-64542428D01*
X158214361Y-64709659D01*
X158214360Y-64709662D01*
X158199500Y-64841555D01*
X147517955Y-64841555D01*
X147551793Y-64816971D01*
X147551795Y-64816968D01*
X147551799Y-64816966D01*
X147696546Y-64672219D01*
X147696548Y-64672215D01*
X147696551Y-64672213D01*
X147790842Y-64542430D01*
X147816867Y-64506610D01*
X147909800Y-64324219D01*
X147973057Y-64129534D01*
X148005080Y-63927352D01*
X148005080Y-63722648D01*
X147973057Y-63520466D01*
X147909800Y-63325781D01*
X147909798Y-63325778D01*
X147909798Y-63325776D01*
X147876083Y-63259607D01*
X147816867Y-63143390D01*
X147809136Y-63132749D01*
X147696551Y-62977786D01*
X147551793Y-62833028D01*
X147386193Y-62712715D01*
X147386192Y-62712714D01*
X147386190Y-62712713D01*
X147329233Y-62683691D01*
X147203803Y-62619781D01*
X147009114Y-62556522D01*
X146834575Y-62528878D01*
X146806932Y-62524500D01*
X146602228Y-62524500D01*
X146577909Y-62528351D01*
X146400045Y-62556522D01*
X146205356Y-62619781D01*
X146022966Y-62712715D01*
X145857366Y-62833028D01*
X145712608Y-62977786D01*
X145592295Y-63143386D01*
X145499361Y-63325776D01*
X145436102Y-63520465D01*
X145404080Y-63722648D01*
X39570326Y-63722648D01*
X39570326Y-48849223D01*
X42219326Y-48849223D01*
X42219326Y-49150776D01*
X42219327Y-49150793D01*
X42258687Y-49449766D01*
X42336739Y-49741060D01*
X42452140Y-50019661D01*
X42452144Y-50019671D01*
X42602925Y-50280831D01*
X42786505Y-50520078D01*
X42786511Y-50520085D01*
X42999740Y-50733314D01*
X42999747Y-50733320D01*
X43238994Y-50916900D01*
X43500154Y-51067681D01*
X43500155Y-51067681D01*
X43500158Y-51067683D01*
X43685898Y-51144619D01*
X43778765Y-51183086D01*
X43778766Y-51183086D01*
X43778768Y-51183087D01*
X44070058Y-51261138D01*
X44369043Y-51300500D01*
X44369050Y-51300500D01*
X44670602Y-51300500D01*
X44670609Y-51300500D01*
X44969594Y-51261138D01*
X45260884Y-51183087D01*
X45539494Y-51067683D01*
X45800658Y-50916900D01*
X46039906Y-50733319D01*
X46253145Y-50520080D01*
X46436726Y-50280832D01*
X46587509Y-50019668D01*
X46702913Y-49741058D01*
X46780964Y-49449768D01*
X46820326Y-49150783D01*
X46820326Y-48862332D01*
X51069326Y-48862332D01*
X51069326Y-49137667D01*
X51069327Y-49137684D01*
X51105264Y-49410655D01*
X51105265Y-49410660D01*
X51105266Y-49410666D01*
X51124388Y-49482029D01*
X51176530Y-49676630D01*
X51281901Y-49931017D01*
X51281906Y-49931028D01*
X51341070Y-50033501D01*
X51419577Y-50169479D01*
X51419579Y-50169482D01*
X51419580Y-50169483D01*
X51587196Y-50387926D01*
X51587202Y-50387933D01*
X51781892Y-50582623D01*
X51781898Y-50582628D01*
X52000347Y-50750249D01*
X52153604Y-50838732D01*
X52238797Y-50887919D01*
X52238802Y-50887921D01*
X52238805Y-50887923D01*
X52493194Y-50993295D01*
X52759160Y-51064560D01*
X53032152Y-51100500D01*
X53032159Y-51100500D01*
X53307493Y-51100500D01*
X53307500Y-51100500D01*
X53580492Y-51064560D01*
X53846458Y-50993295D01*
X54100847Y-50887923D01*
X54339305Y-50750249D01*
X54557754Y-50582628D01*
X54752454Y-50387928D01*
X54920075Y-50169479D01*
X55057749Y-49931021D01*
X55163121Y-49676632D01*
X55234386Y-49410666D01*
X55270326Y-49137674D01*
X55270326Y-48862332D01*
X106669326Y-48862332D01*
X106669326Y-49137667D01*
X106669327Y-49137684D01*
X106705264Y-49410655D01*
X106705265Y-49410660D01*
X106705266Y-49410666D01*
X106724388Y-49482029D01*
X106776530Y-49676630D01*
X106881901Y-49931017D01*
X106881906Y-49931028D01*
X106941070Y-50033501D01*
X107019577Y-50169479D01*
X107019579Y-50169482D01*
X107019580Y-50169483D01*
X107187196Y-50387926D01*
X107187202Y-50387933D01*
X107381892Y-50582623D01*
X107381898Y-50582628D01*
X107600347Y-50750249D01*
X107753604Y-50838732D01*
X107838797Y-50887919D01*
X107838802Y-50887921D01*
X107838805Y-50887923D01*
X108093194Y-50993295D01*
X108359160Y-51064560D01*
X108632152Y-51100500D01*
X108632159Y-51100500D01*
X108907493Y-51100500D01*
X108907500Y-51100500D01*
X109180492Y-51064560D01*
X109446458Y-50993295D01*
X109700847Y-50887923D01*
X109939305Y-50750249D01*
X110157754Y-50582628D01*
X110352454Y-50387928D01*
X110520075Y-50169479D01*
X110657749Y-49931021D01*
X110763121Y-49676632D01*
X110834386Y-49410666D01*
X110870326Y-49137674D01*
X110870326Y-48862326D01*
X110868601Y-48849223D01*
X115119326Y-48849223D01*
X115119326Y-49150776D01*
X115119327Y-49150793D01*
X115158687Y-49449766D01*
X115236739Y-49741060D01*
X115352140Y-50019661D01*
X115352144Y-50019671D01*
X115502925Y-50280831D01*
X115686505Y-50520078D01*
X115686511Y-50520085D01*
X115899740Y-50733314D01*
X115899747Y-50733320D01*
X116138994Y-50916900D01*
X116400154Y-51067681D01*
X116400155Y-51067681D01*
X116400158Y-51067683D01*
X116585898Y-51144619D01*
X116678765Y-51183086D01*
X116678766Y-51183086D01*
X116678768Y-51183087D01*
X116970058Y-51261138D01*
X117269043Y-51300500D01*
X117269050Y-51300500D01*
X117570602Y-51300500D01*
X117570609Y-51300500D01*
X117869594Y-51261138D01*
X118160884Y-51183087D01*
X118439494Y-51067683D01*
X118700658Y-50916900D01*
X118939906Y-50733319D01*
X119153145Y-50520080D01*
X119336726Y-50280832D01*
X119487509Y-50019668D01*
X119602913Y-49741058D01*
X119680964Y-49449768D01*
X119720326Y-49150783D01*
X119720326Y-48849217D01*
X119680964Y-48550232D01*
X119602913Y-48258942D01*
X119487509Y-47980332D01*
X119458957Y-47930879D01*
X119336726Y-47719168D01*
X119153146Y-47479921D01*
X119153140Y-47479914D01*
X118939911Y-47266685D01*
X118939904Y-47266679D01*
X118700657Y-47083099D01*
X118439497Y-46932318D01*
X118439487Y-46932314D01*
X118160886Y-46816913D01*
X117869592Y-46738861D01*
X117570619Y-46699501D01*
X117570614Y-46699500D01*
X117570609Y-46699500D01*
X117269043Y-46699500D01*
X117269037Y-46699500D01*
X117269032Y-46699501D01*
X116970059Y-46738861D01*
X116678765Y-46816913D01*
X116400164Y-46932314D01*
X116400154Y-46932318D01*
X116138994Y-47083099D01*
X115899747Y-47266679D01*
X115899740Y-47266685D01*
X115686511Y-47479914D01*
X115686505Y-47479921D01*
X115502925Y-47719168D01*
X115352144Y-47980328D01*
X115352140Y-47980338D01*
X115236739Y-48258939D01*
X115158687Y-48550233D01*
X115119327Y-48849206D01*
X115119326Y-48849223D01*
X110868601Y-48849223D01*
X110834386Y-48589334D01*
X110763121Y-48323368D01*
X110657749Y-48068979D01*
X110657747Y-48068976D01*
X110657745Y-48068971D01*
X110604965Y-47977555D01*
X110520075Y-47830521D01*
X110406934Y-47683072D01*
X110352455Y-47612073D01*
X110352449Y-47612066D01*
X110157759Y-47417376D01*
X110157752Y-47417370D01*
X109939309Y-47249754D01*
X109939308Y-47249753D01*
X109939305Y-47249751D01*
X109834662Y-47189335D01*
X109700854Y-47112080D01*
X109700843Y-47112075D01*
X109446456Y-47006704D01*
X109313475Y-46971072D01*
X109180492Y-46935440D01*
X109180486Y-46935439D01*
X109180481Y-46935438D01*
X108907510Y-46899501D01*
X108907505Y-46899500D01*
X108907500Y-46899500D01*
X108632152Y-46899500D01*
X108632146Y-46899500D01*
X108632141Y-46899501D01*
X108359170Y-46935438D01*
X108359163Y-46935439D01*
X108359160Y-46935440D01*
X108302951Y-46950500D01*
X108093195Y-47006704D01*
X107838808Y-47112075D01*
X107838797Y-47112080D01*
X107600342Y-47249754D01*
X107381899Y-47417370D01*
X107381892Y-47417376D01*
X107187202Y-47612066D01*
X107187196Y-47612073D01*
X107019580Y-47830516D01*
X106881906Y-48068971D01*
X106881901Y-48068982D01*
X106776530Y-48323369D01*
X106705267Y-48589331D01*
X106705264Y-48589344D01*
X106669327Y-48862315D01*
X106669326Y-48862332D01*
X55270326Y-48862332D01*
X55270326Y-48862326D01*
X55234386Y-48589334D01*
X55163121Y-48323368D01*
X55057749Y-48068979D01*
X55057747Y-48068976D01*
X55057745Y-48068971D01*
X55004965Y-47977555D01*
X54920075Y-47830521D01*
X54806934Y-47683072D01*
X54752455Y-47612073D01*
X54752449Y-47612066D01*
X54557759Y-47417376D01*
X54557752Y-47417370D01*
X54339309Y-47249754D01*
X54339308Y-47249753D01*
X54339305Y-47249751D01*
X54234662Y-47189335D01*
X54100854Y-47112080D01*
X54100843Y-47112075D01*
X53846456Y-47006704D01*
X53713475Y-46971072D01*
X53580492Y-46935440D01*
X53580486Y-46935439D01*
X53580481Y-46935438D01*
X53307510Y-46899501D01*
X53307505Y-46899500D01*
X53307500Y-46899500D01*
X53032152Y-46899500D01*
X53032146Y-46899500D01*
X53032141Y-46899501D01*
X52759170Y-46935438D01*
X52759163Y-46935439D01*
X52759160Y-46935440D01*
X52702951Y-46950500D01*
X52493195Y-47006704D01*
X52238808Y-47112075D01*
X52238797Y-47112080D01*
X52000342Y-47249754D01*
X51781899Y-47417370D01*
X51781892Y-47417376D01*
X51587202Y-47612066D01*
X51587196Y-47612073D01*
X51419580Y-47830516D01*
X51281906Y-48068971D01*
X51281901Y-48068982D01*
X51176530Y-48323369D01*
X51105267Y-48589331D01*
X51105264Y-48589344D01*
X51069327Y-48862315D01*
X51069326Y-48862332D01*
X46820326Y-48862332D01*
X46820326Y-48849217D01*
X46780964Y-48550232D01*
X46702913Y-48258942D01*
X46587509Y-47980332D01*
X46558957Y-47930879D01*
X46436726Y-47719168D01*
X46253146Y-47479921D01*
X46253140Y-47479914D01*
X46039911Y-47266685D01*
X46039904Y-47266679D01*
X45800657Y-47083099D01*
X45539497Y-46932318D01*
X45539487Y-46932314D01*
X45260886Y-46816913D01*
X44969592Y-46738861D01*
X44670619Y-46699501D01*
X44670614Y-46699500D01*
X44670609Y-46699500D01*
X44369043Y-46699500D01*
X44369037Y-46699500D01*
X44369032Y-46699501D01*
X44070059Y-46738861D01*
X43778765Y-46816913D01*
X43500164Y-46932314D01*
X43500154Y-46932318D01*
X43238994Y-47083099D01*
X42999747Y-47266679D01*
X42999740Y-47266685D01*
X42786511Y-47479914D01*
X42786505Y-47479921D01*
X42602925Y-47719168D01*
X42452144Y-47980328D01*
X42452140Y-47980338D01*
X42336739Y-48258939D01*
X42258687Y-48550233D01*
X42219327Y-48849206D01*
X42219326Y-48849223D01*
X39570326Y-48849223D01*
X39570326Y-40521153D01*
X122369326Y-40521153D01*
X122369326Y-40678846D01*
X122400087Y-40833489D01*
X122400090Y-40833501D01*
X122460428Y-40979172D01*
X122460435Y-40979185D01*
X122548036Y-41110288D01*
X122548039Y-41110292D01*
X122659533Y-41221786D01*
X122659537Y-41221789D01*
X122790640Y-41309390D01*
X122790653Y-41309397D01*
X122936324Y-41369735D01*
X122936329Y-41369737D01*
X123041244Y-41390606D01*
X123090979Y-41400499D01*
X123090982Y-41400500D01*
X123090984Y-41400500D01*
X123248670Y-41400500D01*
X123248671Y-41400499D01*
X123403323Y-41369737D01*
X123549005Y-41309394D01*
X123556082Y-41304665D01*
X123680701Y-41221398D01*
X123747379Y-41200520D01*
X123749592Y-41200500D01*
X134790060Y-41200500D01*
X134857099Y-41220185D01*
X134858951Y-41221398D01*
X134990640Y-41309390D01*
X134990653Y-41309397D01*
X135136324Y-41369735D01*
X135136329Y-41369737D01*
X135241244Y-41390606D01*
X135290979Y-41400499D01*
X135290982Y-41400500D01*
X135290984Y-41400500D01*
X135448670Y-41400500D01*
X135448671Y-41400499D01*
X135603323Y-41369737D01*
X135749005Y-41309394D01*
X135756082Y-41304665D01*
X135880701Y-41221398D01*
X135947379Y-41200520D01*
X135949592Y-41200500D01*
X139866387Y-41200500D01*
X139933426Y-41220185D01*
X139979181Y-41272989D01*
X139989125Y-41342147D01*
X139960100Y-41405703D01*
X139935278Y-41427602D01*
X139859537Y-41478210D01*
X139859533Y-41478213D01*
X139748039Y-41589707D01*
X139748036Y-41589711D01*
X139660435Y-41720814D01*
X139660428Y-41720827D01*
X139600090Y-41866498D01*
X139600087Y-41866510D01*
X139569326Y-42021153D01*
X139569326Y-42178846D01*
X139600087Y-42333489D01*
X139600090Y-42333501D01*
X139660428Y-42479172D01*
X139660432Y-42479179D01*
X139698428Y-42536044D01*
X139704079Y-42554091D01*
X139714303Y-42570000D01*
X139718754Y-42600959D01*
X139719306Y-42602721D01*
X139719326Y-42604935D01*
X139719326Y-42829211D01*
X139699641Y-42896250D01*
X139646837Y-42942005D01*
X139577679Y-42951949D01*
X139526906Y-42929580D01*
X139525560Y-42931595D01*
X139389391Y-42840609D01*
X139389378Y-42840602D01*
X139243707Y-42780264D01*
X139243695Y-42780261D01*
X139089051Y-42749500D01*
X139089048Y-42749500D01*
X138931364Y-42749500D01*
X138931361Y-42749500D01*
X138776716Y-42780261D01*
X138776704Y-42780264D01*
X138631033Y-42840602D01*
X138631020Y-42840609D01*
X138499331Y-42928602D01*
X138432653Y-42949480D01*
X138430440Y-42949500D01*
X133005755Y-42949500D01*
X132880087Y-42974497D01*
X132880081Y-42974499D01*
X132771491Y-43019479D01*
X132771490Y-43019478D01*
X132761701Y-43023534D01*
X132761698Y-43023535D01*
X132655157Y-43094723D01*
X132546077Y-43203803D01*
X132484754Y-43237287D01*
X132415062Y-43232303D01*
X132359129Y-43190431D01*
X132355294Y-43185012D01*
X132291615Y-43089711D01*
X132291612Y-43089707D01*
X132180118Y-42978213D01*
X132180114Y-42978210D01*
X132049011Y-42890609D01*
X132048998Y-42890602D01*
X131903327Y-42830264D01*
X131903315Y-42830261D01*
X131748671Y-42799500D01*
X131748668Y-42799500D01*
X131590984Y-42799500D01*
X131590981Y-42799500D01*
X131436336Y-42830261D01*
X131436324Y-42830264D01*
X131290653Y-42890602D01*
X131290640Y-42890609D01*
X131159537Y-42978210D01*
X131159533Y-42978213D01*
X131048039Y-43089707D01*
X131048036Y-43089711D01*
X130960435Y-43220814D01*
X130960428Y-43220827D01*
X130900090Y-43366498D01*
X130900087Y-43366510D01*
X130869326Y-43521153D01*
X130869326Y-43678846D01*
X130900087Y-43833489D01*
X130900090Y-43833501D01*
X130960428Y-43979172D01*
X130960432Y-43979179D01*
X130998428Y-44036044D01*
X131019306Y-44102721D01*
X131019326Y-44104935D01*
X131019326Y-46295064D01*
X130999641Y-46362103D01*
X130998429Y-46363954D01*
X130960434Y-46420817D01*
X130960428Y-46420828D01*
X130900090Y-46566498D01*
X130900087Y-46566510D01*
X130869326Y-46721153D01*
X130869326Y-46878846D01*
X130900087Y-47033489D01*
X130900090Y-47033501D01*
X130960428Y-47179172D01*
X130960435Y-47179185D01*
X131048036Y-47310288D01*
X131048039Y-47310292D01*
X131159533Y-47421786D01*
X131159537Y-47421789D01*
X131290640Y-47509390D01*
X131290653Y-47509397D01*
X131366567Y-47540841D01*
X131420971Y-47584681D01*
X131443036Y-47650975D01*
X131425757Y-47718675D01*
X131406796Y-47743083D01*
X130364550Y-48785329D01*
X130364549Y-48785331D01*
X130313765Y-48861337D01*
X130309838Y-48867214D01*
X130309836Y-48867216D01*
X130293365Y-48891865D01*
X130293359Y-48891875D01*
X130244325Y-49010255D01*
X130244323Y-49010261D01*
X130219326Y-49135928D01*
X130219326Y-54795064D01*
X130199641Y-54862103D01*
X130198429Y-54863954D01*
X130160434Y-54920817D01*
X130160428Y-54920828D01*
X130100090Y-55066498D01*
X130100087Y-55066510D01*
X130069326Y-55221153D01*
X130069326Y-55378846D01*
X130100087Y-55533489D01*
X130100090Y-55533501D01*
X130160428Y-55679172D01*
X130160435Y-55679185D01*
X130248036Y-55810288D01*
X130248039Y-55810292D01*
X130359533Y-55921786D01*
X130359537Y-55921789D01*
X130490640Y-56009390D01*
X130490653Y-56009397D01*
X130598428Y-56054038D01*
X130636329Y-56069737D01*
X130790979Y-56100499D01*
X130790982Y-56100500D01*
X130790984Y-56100500D01*
X130948670Y-56100500D01*
X130948671Y-56100499D01*
X131103323Y-56069737D01*
X131141224Y-56054038D01*
X155169326Y-56054038D01*
X155169326Y-56305961D01*
X155208736Y-56554785D01*
X155286586Y-56794383D01*
X155400958Y-57018848D01*
X155549027Y-57222649D01*
X155549031Y-57222654D01*
X155727171Y-57400794D01*
X155727176Y-57400798D01*
X155904943Y-57529952D01*
X155930981Y-57548870D01*
X156074010Y-57621747D01*
X156155442Y-57663239D01*
X156155444Y-57663239D01*
X156155447Y-57663241D01*
X156395041Y-57741090D01*
X156643864Y-57780500D01*
X156643865Y-57780500D01*
X156895787Y-57780500D01*
X156895788Y-57780500D01*
X157144611Y-57741090D01*
X157384205Y-57663241D01*
X157608671Y-57548870D01*
X157812482Y-57400793D01*
X157990619Y-57222656D01*
X158138696Y-57018845D01*
X158253067Y-56794379D01*
X158330916Y-56554785D01*
X158370326Y-56305962D01*
X158370326Y-56054038D01*
X158330916Y-55805215D01*
X158253067Y-55565621D01*
X158253065Y-55565618D01*
X158253065Y-55565616D01*
X158188352Y-55438611D01*
X158138696Y-55341155D01*
X158088297Y-55271786D01*
X157990624Y-55137350D01*
X157990620Y-55137345D01*
X157812480Y-54959205D01*
X157812475Y-54959201D01*
X157608674Y-54811132D01*
X157608673Y-54811131D01*
X157608671Y-54811130D01*
X157538573Y-54775413D01*
X157384209Y-54696760D01*
X157144611Y-54618910D01*
X156895788Y-54579500D01*
X156643864Y-54579500D01*
X156519452Y-54599205D01*
X156395040Y-54618910D01*
X156155442Y-54696760D01*
X155930977Y-54811132D01*
X155727176Y-54959201D01*
X155727171Y-54959205D01*
X155549031Y-55137345D01*
X155549027Y-55137350D01*
X155400958Y-55341151D01*
X155286586Y-55565616D01*
X155208736Y-55805214D01*
X155169326Y-56054038D01*
X131141224Y-56054038D01*
X131249005Y-56009394D01*
X131249011Y-56009390D01*
X131343786Y-55946064D01*
X131362512Y-55933550D01*
X131380115Y-55921789D01*
X131491615Y-55810289D01*
X131579220Y-55679179D01*
X131639563Y-55533497D01*
X131642272Y-55519874D01*
X131674656Y-55457964D01*
X131735371Y-55423388D01*
X131739681Y-55422450D01*
X131753323Y-55419737D01*
X131899005Y-55359394D01*
X132030115Y-55271789D01*
X132141615Y-55160289D01*
X132229220Y-55029179D01*
X132289563Y-54883497D01*
X132320326Y-54728842D01*
X132320326Y-54571158D01*
X132320326Y-54571155D01*
X132320325Y-54571153D01*
X132289564Y-54416510D01*
X132289563Y-54416503D01*
X132289561Y-54416498D01*
X132229223Y-54270827D01*
X132229216Y-54270814D01*
X132141224Y-54139125D01*
X132120346Y-54072447D01*
X132120326Y-54070234D01*
X132120326Y-49820807D01*
X132140011Y-49753768D01*
X132156641Y-49733130D01*
X132657645Y-49232125D01*
X132718968Y-49198641D01*
X132788660Y-49203625D01*
X132844593Y-49245497D01*
X132869010Y-49310961D01*
X132869326Y-49319807D01*
X132869326Y-49327374D01*
X132900087Y-49482017D01*
X132900090Y-49482029D01*
X132960428Y-49627700D01*
X132960435Y-49627713D01*
X133048036Y-49758816D01*
X133048039Y-49758820D01*
X133159533Y-49870314D01*
X133159537Y-49870317D01*
X133290640Y-49957918D01*
X133290653Y-49957925D01*
X133392228Y-49999998D01*
X133436329Y-50018265D01*
X133590979Y-50049027D01*
X133590982Y-50049028D01*
X133590984Y-50049028D01*
X133748670Y-50049028D01*
X133748671Y-50049027D01*
X133903323Y-50018265D01*
X134049005Y-49957922D01*
X134180115Y-49870317D01*
X134291615Y-49758817D01*
X134294425Y-49754610D01*
X134348035Y-49709805D01*
X134397528Y-49699500D01*
X142275500Y-49699500D01*
X142342539Y-49719185D01*
X142388294Y-49771989D01*
X142399500Y-49823500D01*
X142399500Y-49878846D01*
X142430261Y-50033489D01*
X142430264Y-50033501D01*
X142490602Y-50179172D01*
X142490609Y-50179185D01*
X142578210Y-50310288D01*
X142578213Y-50310292D01*
X142689707Y-50421786D01*
X142689711Y-50421789D01*
X142820814Y-50509390D01*
X142820827Y-50509397D01*
X142966498Y-50569735D01*
X142966503Y-50569737D01*
X143121153Y-50600499D01*
X143121156Y-50600500D01*
X143121158Y-50600500D01*
X143278844Y-50600500D01*
X143278845Y-50600499D01*
X143433497Y-50569737D01*
X143579179Y-50509394D01*
X143579185Y-50509390D01*
X143710875Y-50421398D01*
X143728921Y-50415747D01*
X143744831Y-50405523D01*
X143775792Y-50401071D01*
X143777553Y-50400520D01*
X143779766Y-50400500D01*
X144021359Y-50400500D01*
X144088398Y-50420185D01*
X144090250Y-50421398D01*
X144221939Y-50509390D01*
X144221952Y-50509397D01*
X144367623Y-50569735D01*
X144367628Y-50569737D01*
X144522278Y-50600499D01*
X144522281Y-50600500D01*
X144522283Y-50600500D01*
X144679969Y-50600500D01*
X144679970Y-50600499D01*
X144834622Y-50569737D01*
X144980304Y-50509394D01*
X145111414Y-50421789D01*
X145222914Y-50310289D01*
X145310519Y-50179179D01*
X145370862Y-50033497D01*
X145401625Y-49878842D01*
X145401625Y-49823500D01*
X145421310Y-49756461D01*
X145474114Y-49710706D01*
X145525625Y-49699500D01*
X145818738Y-49699500D01*
X145885777Y-49719185D01*
X145887629Y-49720398D01*
X146020814Y-49809390D01*
X146020827Y-49809397D01*
X146085213Y-49836066D01*
X146166503Y-49869737D01*
X146304568Y-49897200D01*
X146321153Y-49900499D01*
X146321156Y-49900500D01*
X146321158Y-49900500D01*
X146478844Y-49900500D01*
X146478845Y-49900499D01*
X146633497Y-49869737D01*
X146779179Y-49809394D01*
X146910289Y-49721789D01*
X147021789Y-49610289D01*
X147109394Y-49479179D01*
X147118462Y-49457288D01*
X147137777Y-49410655D01*
X147169737Y-49333497D01*
X147192944Y-49216826D01*
X147225328Y-49154916D01*
X147286044Y-49120342D01*
X147355813Y-49124081D01*
X147362013Y-49126457D01*
X147466380Y-49169686D01*
X147466503Y-49169737D01*
X147611812Y-49198641D01*
X147621153Y-49200499D01*
X147621156Y-49200500D01*
X147621158Y-49200500D01*
X147778844Y-49200500D01*
X147778845Y-49200499D01*
X147933497Y-49169737D01*
X148079179Y-49109394D01*
X148210289Y-49021789D01*
X148321789Y-48910289D01*
X148409394Y-48779179D01*
X148469737Y-48633497D01*
X148500500Y-48478842D01*
X148500500Y-48321158D01*
X148500500Y-48321155D01*
X148500499Y-48321153D01*
X148469738Y-48166510D01*
X148469737Y-48166503D01*
X148459713Y-48142302D01*
X148409397Y-48020827D01*
X148409390Y-48020814D01*
X148321789Y-47889711D01*
X148321786Y-47889707D01*
X148210292Y-47778213D01*
X148210288Y-47778210D01*
X148079185Y-47690609D01*
X148079172Y-47690602D01*
X147933501Y-47630264D01*
X147933489Y-47630261D01*
X147778845Y-47599500D01*
X147778842Y-47599500D01*
X147621158Y-47599500D01*
X147621155Y-47599500D01*
X147466510Y-47630261D01*
X147466498Y-47630264D01*
X147320827Y-47690602D01*
X147320814Y-47690609D01*
X147189125Y-47778602D01*
X147122447Y-47799480D01*
X147120234Y-47799500D01*
X134249592Y-47799500D01*
X134233738Y-47795173D01*
X134219247Y-47795730D01*
X134192932Y-47784037D01*
X134186604Y-47782310D01*
X134180778Y-47778874D01*
X134180115Y-47778211D01*
X134049005Y-47690606D01*
X133988843Y-47665685D01*
X133981338Y-47661260D01*
X133963170Y-47641850D01*
X133942469Y-47625168D01*
X133939662Y-47616736D01*
X133933591Y-47610250D01*
X133928801Y-47584101D01*
X133920405Y-47558874D01*
X133920326Y-47554450D01*
X133920326Y-44974500D01*
X133940011Y-44907461D01*
X133992815Y-44861706D01*
X134044326Y-44850500D01*
X139433897Y-44850500D01*
X139519352Y-44833501D01*
X139559570Y-44825501D01*
X139677953Y-44776465D01*
X139716813Y-44750500D01*
X139716814Y-44750500D01*
X139767459Y-44716659D01*
X139784495Y-44705277D01*
X140875103Y-43614669D01*
X140946292Y-43508126D01*
X140982404Y-43420942D01*
X140995327Y-43389744D01*
X141013278Y-43299500D01*
X141020326Y-43264071D01*
X141020326Y-42604935D01*
X141040011Y-42537896D01*
X141041192Y-42536090D01*
X141079220Y-42479179D01*
X141139563Y-42333497D01*
X141170326Y-42178842D01*
X141170326Y-42021158D01*
X141170326Y-42021155D01*
X141170325Y-42021153D01*
X141139563Y-41866503D01*
X141098140Y-41766498D01*
X141079223Y-41720827D01*
X141079216Y-41720814D01*
X140991615Y-41589711D01*
X140991612Y-41589707D01*
X140880118Y-41478213D01*
X140880114Y-41478210D01*
X140804374Y-41427602D01*
X140759569Y-41373990D01*
X140750862Y-41304665D01*
X140781016Y-41241637D01*
X140840460Y-41204918D01*
X140873265Y-41200500D01*
X147368059Y-41200500D01*
X147435098Y-41220185D01*
X147480853Y-41272989D01*
X147490797Y-41342147D01*
X147461772Y-41405703D01*
X147455740Y-41412181D01*
X147378213Y-41489707D01*
X147378210Y-41489711D01*
X147290609Y-41620814D01*
X147290602Y-41620827D01*
X147230264Y-41766498D01*
X147230261Y-41766510D01*
X147199500Y-41921153D01*
X147199500Y-42078846D01*
X147230261Y-42233489D01*
X147230264Y-42233501D01*
X147290602Y-42379172D01*
X147290609Y-42379185D01*
X147378601Y-42510873D01*
X147399479Y-42577550D01*
X147399499Y-42579764D01*
X147399499Y-42679054D01*
X147399498Y-42679054D01*
X147399499Y-42679057D01*
X147440423Y-42831785D01*
X147440424Y-42831787D01*
X147440423Y-42831787D01*
X147445516Y-42840607D01*
X147445517Y-42840608D01*
X147519477Y-42968712D01*
X147519481Y-42968717D01*
X147638349Y-43087585D01*
X147638355Y-43087590D01*
X148263181Y-43712416D01*
X148277884Y-43739343D01*
X148294477Y-43765162D01*
X148295368Y-43771362D01*
X148296666Y-43773739D01*
X148299500Y-43800097D01*
X148299500Y-44020234D01*
X148279815Y-44087273D01*
X148278602Y-44089125D01*
X148190609Y-44220814D01*
X148190602Y-44220827D01*
X148130264Y-44366498D01*
X148130261Y-44366510D01*
X148099500Y-44521153D01*
X148099500Y-44678846D01*
X148130261Y-44833489D01*
X148130264Y-44833501D01*
X148190602Y-44979172D01*
X148190609Y-44979185D01*
X148278210Y-45110288D01*
X148278213Y-45110292D01*
X148389707Y-45221786D01*
X148389711Y-45221789D01*
X148520814Y-45309390D01*
X148520827Y-45309397D01*
X148666498Y-45369735D01*
X148666503Y-45369737D01*
X148818644Y-45400000D01*
X148821153Y-45400499D01*
X148821156Y-45400500D01*
X148821158Y-45400500D01*
X148978844Y-45400500D01*
X148978845Y-45400499D01*
X149133497Y-45369737D01*
X149246166Y-45323067D01*
X149279172Y-45309397D01*
X149279172Y-45309396D01*
X149279179Y-45309394D01*
X149410289Y-45221789D01*
X149512096Y-45119982D01*
X155169326Y-45119982D01*
X155169326Y-46920017D01*
X155179826Y-47022796D01*
X155209411Y-47112077D01*
X155235012Y-47189335D01*
X155327114Y-47338656D01*
X155451170Y-47462712D01*
X155600491Y-47554814D01*
X155767028Y-47609999D01*
X155869816Y-47620500D01*
X155869821Y-47620500D01*
X157669831Y-47620500D01*
X157669836Y-47620500D01*
X157772624Y-47609999D01*
X157939161Y-47554814D01*
X158088482Y-47462712D01*
X158212538Y-47338656D01*
X158304640Y-47189335D01*
X158359825Y-47022798D01*
X158370326Y-46920010D01*
X158370326Y-45119990D01*
X158359825Y-45017202D01*
X158304640Y-44850665D01*
X158212538Y-44701344D01*
X158088482Y-44577288D01*
X157995716Y-44520070D01*
X157939163Y-44485187D01*
X157939158Y-44485185D01*
X157772621Y-44430000D01*
X157772623Y-44430000D01*
X157669843Y-44419500D01*
X157669836Y-44419500D01*
X155869816Y-44419500D01*
X155869808Y-44419500D01*
X155767029Y-44430000D01*
X155767028Y-44430001D01*
X155684495Y-44457349D01*
X155600493Y-44485185D01*
X155600488Y-44485187D01*
X155451168Y-44577289D01*
X155327115Y-44701342D01*
X155235013Y-44850662D01*
X155235012Y-44850665D01*
X155179827Y-45017202D01*
X155179827Y-45017203D01*
X155179826Y-45017203D01*
X155169326Y-45119982D01*
X149512096Y-45119982D01*
X149521789Y-45110289D01*
X149535598Y-45089622D01*
X149563448Y-45047943D01*
X149563448Y-45047942D01*
X149583988Y-45017202D01*
X149609394Y-44979179D01*
X149669737Y-44833497D01*
X149700500Y-44678842D01*
X149700500Y-44521158D01*
X149700500Y-44521155D01*
X149700499Y-44521153D01*
X149693344Y-44485185D01*
X149669737Y-44366503D01*
X149647737Y-44313389D01*
X160094326Y-44313389D01*
X160094326Y-44486611D01*
X160121424Y-44657701D01*
X160174953Y-44822445D01*
X160253594Y-44976788D01*
X160355412Y-45116928D01*
X160477898Y-45239414D01*
X160477904Y-45239418D01*
X160560849Y-45299683D01*
X160603515Y-45355013D01*
X160609493Y-45424626D01*
X160576887Y-45486421D01*
X160560849Y-45500317D01*
X160477904Y-45560581D01*
X160477895Y-45560588D01*
X160355414Y-45683069D01*
X160355414Y-45683070D01*
X160355412Y-45683072D01*
X160311685Y-45743256D01*
X160253594Y-45823211D01*
X160174954Y-45977552D01*
X160121423Y-46142302D01*
X160097228Y-46295064D01*
X160094326Y-46313389D01*
X160094326Y-46486611D01*
X160121424Y-46657701D01*
X160174953Y-46822445D01*
X160253594Y-46976788D01*
X160355412Y-47116928D01*
X160477898Y-47239414D01*
X160477904Y-47239418D01*
X160560849Y-47299683D01*
X160603515Y-47355013D01*
X160609493Y-47424626D01*
X160576887Y-47486421D01*
X160560849Y-47500317D01*
X160477904Y-47560581D01*
X160477895Y-47560588D01*
X160355414Y-47683069D01*
X160355414Y-47683070D01*
X160355412Y-47683072D01*
X160329545Y-47718675D01*
X160253594Y-47823211D01*
X160174954Y-47977552D01*
X160121423Y-48142302D01*
X160098675Y-48285932D01*
X160094326Y-48313389D01*
X160094326Y-48486611D01*
X160121424Y-48657701D01*
X160174953Y-48822445D01*
X160253594Y-48976788D01*
X160355412Y-49116928D01*
X160355414Y-49116930D01*
X160462953Y-49224469D01*
X160496438Y-49285792D01*
X160491454Y-49355484D01*
X160449582Y-49411417D01*
X160440370Y-49417688D01*
X160376170Y-49457287D01*
X160252115Y-49581342D01*
X160160013Y-49730663D01*
X160160011Y-49730668D01*
X160146319Y-49771989D01*
X160104827Y-49897203D01*
X160104827Y-49897204D01*
X160104826Y-49897204D01*
X160094326Y-49999983D01*
X160094326Y-50800001D01*
X160094327Y-50800019D01*
X160104826Y-50902796D01*
X160104827Y-50902799D01*
X160109500Y-50916900D01*
X160160012Y-51069334D01*
X160252114Y-51218656D01*
X160376170Y-51342712D01*
X160525492Y-51434814D01*
X160692029Y-51489999D01*
X160794817Y-51500500D01*
X162144834Y-51500499D01*
X162247623Y-51489999D01*
X162414160Y-51434814D01*
X162563482Y-51342712D01*
X162687538Y-51218656D01*
X162779640Y-51069334D01*
X162834825Y-50902797D01*
X162845326Y-50800009D01*
X162845325Y-49999992D01*
X162834825Y-49897203D01*
X162779640Y-49730666D01*
X162687538Y-49581344D01*
X162563482Y-49457288D01*
X162563478Y-49457285D01*
X162499282Y-49417688D01*
X162452557Y-49365740D01*
X162441336Y-49296777D01*
X162469179Y-49232695D01*
X162476676Y-49224491D01*
X162584240Y-49116928D01*
X162686058Y-48976788D01*
X162764699Y-48822445D01*
X162818228Y-48657701D01*
X162845326Y-48486611D01*
X162845326Y-48313389D01*
X162818228Y-48142299D01*
X162764699Y-47977555D01*
X162686058Y-47823212D01*
X162584240Y-47683072D01*
X162461754Y-47560586D01*
X162378801Y-47500317D01*
X162336137Y-47444988D01*
X162330158Y-47375374D01*
X162362764Y-47313579D01*
X162378802Y-47299682D01*
X162461754Y-47239414D01*
X162584240Y-47116928D01*
X162686058Y-46976788D01*
X162764699Y-46822445D01*
X162818228Y-46657701D01*
X162845326Y-46486611D01*
X162845326Y-46313389D01*
X162818228Y-46142299D01*
X162764699Y-45977555D01*
X162686058Y-45823212D01*
X162584240Y-45683072D01*
X162461754Y-45560586D01*
X162378801Y-45500317D01*
X162336137Y-45444988D01*
X162330158Y-45375374D01*
X162362764Y-45313579D01*
X162378802Y-45299682D01*
X162461754Y-45239414D01*
X162584240Y-45116928D01*
X162686058Y-44976788D01*
X162764699Y-44822445D01*
X162818228Y-44657701D01*
X162845326Y-44486611D01*
X162845326Y-44313389D01*
X162818228Y-44142299D01*
X162764699Y-43977555D01*
X162686058Y-43823212D01*
X162584240Y-43683072D01*
X162461754Y-43560586D01*
X162321614Y-43458768D01*
X162167271Y-43380127D01*
X162002527Y-43326598D01*
X162002525Y-43326597D01*
X162002524Y-43326597D01*
X161871097Y-43305781D01*
X161831437Y-43299500D01*
X161108215Y-43299500D01*
X161068554Y-43305781D01*
X160937128Y-43326597D01*
X160937125Y-43326598D01*
X160814290Y-43366510D01*
X160772378Y-43380128D01*
X160618037Y-43458768D01*
X160550103Y-43508126D01*
X160477898Y-43560586D01*
X160477896Y-43560588D01*
X160477895Y-43560588D01*
X160355414Y-43683069D01*
X160355414Y-43683070D01*
X160355412Y-43683072D01*
X160314529Y-43739343D01*
X160253594Y-43823211D01*
X160174954Y-43977552D01*
X160121423Y-44142302D01*
X160108988Y-44220814D01*
X160094326Y-44313389D01*
X149647737Y-44313389D01*
X149609397Y-44220827D01*
X149609390Y-44220814D01*
X149521398Y-44089125D01*
X149500520Y-44022447D01*
X149500500Y-44020234D01*
X149500500Y-43420940D01*
X149497638Y-43410258D01*
X149497638Y-43410259D01*
X149485912Y-43366498D01*
X149459577Y-43268215D01*
X149430639Y-43218095D01*
X149380520Y-43131284D01*
X149268716Y-43019480D01*
X149268715Y-43019479D01*
X149264385Y-43015149D01*
X149264374Y-43015139D01*
X148744262Y-42495027D01*
X148710777Y-42433704D01*
X148715761Y-42364012D01*
X148717382Y-42359893D01*
X148728314Y-42333501D01*
X148769737Y-42233497D01*
X148800500Y-42078842D01*
X148800500Y-41921158D01*
X148800500Y-41921155D01*
X148800499Y-41921153D01*
X148769738Y-41766510D01*
X148769737Y-41766503D01*
X148750812Y-41720814D01*
X148709397Y-41620827D01*
X148709390Y-41620814D01*
X148621789Y-41489711D01*
X148621786Y-41489707D01*
X148544260Y-41412181D01*
X148510775Y-41350858D01*
X148515759Y-41281166D01*
X148557631Y-41225233D01*
X148623095Y-41200816D01*
X148631941Y-41200500D01*
X149690060Y-41200500D01*
X149757099Y-41220185D01*
X149758951Y-41221398D01*
X149890640Y-41309390D01*
X149890653Y-41309397D01*
X150036324Y-41369735D01*
X150036329Y-41369737D01*
X150141244Y-41390606D01*
X150190979Y-41400499D01*
X150190982Y-41400500D01*
X150190984Y-41400500D01*
X150348670Y-41400500D01*
X150348671Y-41400499D01*
X150503323Y-41369737D01*
X150649005Y-41309394D01*
X150656082Y-41304665D01*
X150780701Y-41221398D01*
X150847379Y-41200520D01*
X150849592Y-41200500D01*
X156890060Y-41200500D01*
X156957099Y-41220185D01*
X156958951Y-41221398D01*
X157090640Y-41309390D01*
X157090653Y-41309397D01*
X157236324Y-41369735D01*
X157236329Y-41369737D01*
X157341244Y-41390606D01*
X157390979Y-41400499D01*
X157390982Y-41400500D01*
X157390984Y-41400500D01*
X157548670Y-41400500D01*
X157548671Y-41400499D01*
X157703323Y-41369737D01*
X157849005Y-41309394D01*
X157980115Y-41221789D01*
X158091615Y-41110289D01*
X158179220Y-40979179D01*
X158239563Y-40833497D01*
X158270326Y-40678842D01*
X158270326Y-40521158D01*
X158270326Y-40521155D01*
X158270325Y-40521153D01*
X158239564Y-40366510D01*
X158239563Y-40366503D01*
X158217563Y-40313389D01*
X160094326Y-40313389D01*
X160094326Y-40486611D01*
X160121424Y-40657701D01*
X160174953Y-40822445D01*
X160253594Y-40976788D01*
X160355412Y-41116928D01*
X160477898Y-41239414D01*
X160618038Y-41341232D01*
X160772381Y-41419873D01*
X160937125Y-41473402D01*
X161108215Y-41500500D01*
X161108216Y-41500500D01*
X161831436Y-41500500D01*
X161831437Y-41500500D01*
X162002527Y-41473402D01*
X162167271Y-41419873D01*
X162321614Y-41341232D01*
X162461754Y-41239414D01*
X162584240Y-41116928D01*
X162686058Y-40976788D01*
X162764699Y-40822445D01*
X162818228Y-40657701D01*
X162845326Y-40486611D01*
X162845326Y-40313389D01*
X162818228Y-40142299D01*
X162764699Y-39977555D01*
X162686058Y-39823212D01*
X162584240Y-39683072D01*
X162461754Y-39560586D01*
X162321614Y-39458768D01*
X162167271Y-39380127D01*
X162002527Y-39326598D01*
X162002525Y-39326597D01*
X162002524Y-39326597D01*
X161871097Y-39305781D01*
X161831437Y-39299500D01*
X161108215Y-39299500D01*
X161068554Y-39305781D01*
X160937128Y-39326597D01*
X160772378Y-39380128D01*
X160618037Y-39458768D01*
X160538082Y-39516859D01*
X160477898Y-39560586D01*
X160477896Y-39560588D01*
X160477895Y-39560588D01*
X160355414Y-39683069D01*
X160355414Y-39683070D01*
X160355412Y-39683072D01*
X160311685Y-39743256D01*
X160253594Y-39823211D01*
X160174954Y-39977552D01*
X160121423Y-40142302D01*
X160108988Y-40220814D01*
X160094326Y-40313389D01*
X158217563Y-40313389D01*
X158179223Y-40220827D01*
X158179216Y-40220814D01*
X158091615Y-40089711D01*
X158091612Y-40089707D01*
X157980118Y-39978213D01*
X157980114Y-39978210D01*
X157849011Y-39890609D01*
X157848998Y-39890602D01*
X157703327Y-39830264D01*
X157703315Y-39830261D01*
X157548671Y-39799500D01*
X157548668Y-39799500D01*
X157390984Y-39799500D01*
X157390981Y-39799500D01*
X157236336Y-39830261D01*
X157236324Y-39830264D01*
X157090653Y-39890602D01*
X157090640Y-39890609D01*
X156958951Y-39978602D01*
X156892273Y-39999480D01*
X156890060Y-39999500D01*
X150849592Y-39999500D01*
X150782553Y-39979815D01*
X150780701Y-39978602D01*
X150649011Y-39890609D01*
X150648998Y-39890602D01*
X150503327Y-39830264D01*
X150503315Y-39830261D01*
X150348671Y-39799500D01*
X150348668Y-39799500D01*
X150190984Y-39799500D01*
X150190981Y-39799500D01*
X150036336Y-39830261D01*
X150036324Y-39830264D01*
X149890653Y-39890602D01*
X149890640Y-39890609D01*
X149758951Y-39978602D01*
X149692273Y-39999480D01*
X149690060Y-39999500D01*
X135949592Y-39999500D01*
X135882553Y-39979815D01*
X135880701Y-39978602D01*
X135749011Y-39890609D01*
X135748998Y-39890602D01*
X135603327Y-39830264D01*
X135603315Y-39830261D01*
X135448671Y-39799500D01*
X135448668Y-39799500D01*
X135290984Y-39799500D01*
X135290981Y-39799500D01*
X135136336Y-39830261D01*
X135136324Y-39830264D01*
X134990653Y-39890602D01*
X134990640Y-39890609D01*
X134858951Y-39978602D01*
X134792273Y-39999480D01*
X134790060Y-39999500D01*
X123749592Y-39999500D01*
X123682553Y-39979815D01*
X123680701Y-39978602D01*
X123549011Y-39890609D01*
X123548998Y-39890602D01*
X123403327Y-39830264D01*
X123403315Y-39830261D01*
X123248671Y-39799500D01*
X123248668Y-39799500D01*
X123090984Y-39799500D01*
X123090981Y-39799500D01*
X122936336Y-39830261D01*
X122936324Y-39830264D01*
X122790653Y-39890602D01*
X122790640Y-39890609D01*
X122659537Y-39978210D01*
X122659533Y-39978213D01*
X122548039Y-40089707D01*
X122548036Y-40089711D01*
X122460435Y-40220814D01*
X122460428Y-40220827D01*
X122400090Y-40366498D01*
X122400087Y-40366510D01*
X122369326Y-40521153D01*
X39570326Y-40521153D01*
X39570326Y-35229500D01*
X39590011Y-35162461D01*
X39642815Y-35116706D01*
X39694326Y-35105500D01*
X168245326Y-35105500D01*
X168312365Y-35125185D01*
G37*
%TD.AperFunction*%
%TD*%
M02*
