%TF.GenerationSoftware,KiCad,Pcbnew,9.0.3*%
%TF.CreationDate,2025-08-05T14:59:21-07:00*%
%TF.ProjectId,Joule Chief,4a6f756c-6520-4436-9869-65662e6b6963,R1*%
%TF.SameCoordinates,Original*%
%TF.FileFunction,Copper,L2,Bot*%
%TF.FilePolarity,Positive*%
%FSLAX46Y46*%
G04 Gerber Fmt 4.6, Leading zero omitted, Abs format (unit mm)*
G04 Created by KiCad (PCBNEW 9.0.3) date 2025-08-05 14:59:21*
%MOMM*%
%LPD*%
G01*
G04 APERTURE LIST*
G04 Aperture macros list*
%AMRoundRect*
0 Rectangle with rounded corners*
0 $1 Rounding radius*
0 $2 $3 $4 $5 $6 $7 $8 $9 X,Y pos of 4 corners*
0 Add a 4 corners polygon primitive as box body*
4,1,4,$2,$3,$4,$5,$6,$7,$8,$9,$2,$3,0*
0 Add four circle primitives for the rounded corners*
1,1,$1+$1,$2,$3*
1,1,$1+$1,$4,$5*
1,1,$1+$1,$6,$7*
1,1,$1+$1,$8,$9*
0 Add four rect primitives between the rounded corners*
20,1,$1+$1,$2,$3,$4,$5,0*
20,1,$1+$1,$4,$5,$6,$7,0*
20,1,$1+$1,$6,$7,$8,$9,0*
20,1,$1+$1,$8,$9,$2,$3,0*%
G04 Aperture macros list end*
%TA.AperFunction,ComponentPad*%
%ADD10R,1.700000X1.700000*%
%TD*%
%TA.AperFunction,ComponentPad*%
%ADD11C,1.700000*%
%TD*%
%TA.AperFunction,ComponentPad*%
%ADD12C,2.500000*%
%TD*%
%TA.AperFunction,ComponentPad*%
%ADD13RoundRect,0.250000X0.350000X0.625000X-0.350000X0.625000X-0.350000X-0.625000X0.350000X-0.625000X0*%
%TD*%
%TA.AperFunction,ComponentPad*%
%ADD14O,1.200000X1.750000*%
%TD*%
%TA.AperFunction,ComponentPad*%
%ADD15C,3.600000*%
%TD*%
%TA.AperFunction,ComponentPad*%
%ADD16RoundRect,0.250000X-0.550000X0.550000X-0.550000X-0.550000X0.550000X-0.550000X0.550000X0.550000X0*%
%TD*%
%TA.AperFunction,ComponentPad*%
%ADD17C,1.600000*%
%TD*%
%TA.AperFunction,ComponentPad*%
%ADD18R,1.000000X1.000000*%
%TD*%
%TA.AperFunction,ViaPad*%
%ADD19C,0.800000*%
%TD*%
%TA.AperFunction,Conductor*%
%ADD20C,0.600000*%
%TD*%
%TA.AperFunction,Conductor*%
%ADD21C,1.000000*%
%TD*%
%TA.AperFunction,Conductor*%
%ADD22C,0.400000*%
%TD*%
%TA.AperFunction,Conductor*%
%ADD23C,0.300000*%
%TD*%
%TA.AperFunction,Conductor*%
%ADD24C,0.250000*%
%TD*%
G04 APERTURE END LIST*
D10*
%TO.P,J9,1,Pin_1*%
%TO.N,unconnected-(J9-Pin_1-Pad1)*%
X127940000Y-97460000D03*
D11*
%TO.P,J9,2,Pin_2*%
%TO.N,/IOREF*%
X130480000Y-97460000D03*
%TO.P,J9,3,Pin_3*%
%TO.N,/~{RESET}*%
X133020000Y-97460000D03*
%TO.P,J9,4,Pin_4*%
%TO.N,+3V3*%
X135560000Y-97460000D03*
%TO.P,J9,5,Pin_5*%
%TO.N,VBUS*%
X138100000Y-97460000D03*
%TO.P,J9,6,Pin_6*%
%TO.N,GND*%
X140640000Y-97460000D03*
%TO.P,J9,7,Pin_7*%
X143180000Y-97460000D03*
%TO.P,J9,8,Pin_8*%
%TO.N,VIN*%
X145720000Y-97460000D03*
%TD*%
D10*
%TO.P,J10,1,Pin_1*%
%TO.N,/A0*%
X150800000Y-97460000D03*
D11*
%TO.P,J10,2,Pin_2*%
%TO.N,/A1*%
X153340000Y-97460000D03*
%TO.P,J10,3,Pin_3*%
%TO.N,/A2*%
X155880000Y-97460000D03*
%TO.P,J10,4,Pin_4*%
%TO.N,/A3*%
X158420000Y-97460000D03*
%TO.P,J10,5,Pin_5*%
%TO.N,SDA*%
X160960000Y-97460000D03*
%TO.P,J10,6,Pin_6*%
%TO.N,SCL*%
X163500000Y-97460000D03*
%TD*%
D10*
%TO.P,J8,1,Pin_1*%
%TO.N,SCL*%
X118796000Y-49200000D03*
D11*
%TO.P,J8,2,Pin_2*%
%TO.N,SDA*%
X121336000Y-49200000D03*
%TO.P,J8,3,Pin_3*%
%TO.N,/AREF*%
X123876000Y-49200000D03*
%TO.P,J8,4,Pin_4*%
%TO.N,GND*%
X126416000Y-49200000D03*
%TO.P,J8,5,Pin_5*%
%TO.N,SHDN_1*%
X128956000Y-49200000D03*
%TO.P,J8,6,Pin_6*%
%TO.N,SHDN_2*%
X131496000Y-49200000D03*
%TO.P,J8,7,Pin_7*%
%TO.N,SHDN_3*%
X134036000Y-49200000D03*
%TO.P,J8,8,Pin_8*%
%TO.N,SHDN_4*%
X136576000Y-49200000D03*
%TO.P,J8,9,Pin_9*%
%TO.N,SHDN_5*%
X139116000Y-49200000D03*
%TO.P,J8,10,Pin_10*%
%TO.N,SHDN_6*%
X141656000Y-49200000D03*
%TD*%
D10*
%TO.P,J11,1,Pin_1*%
%TO.N,SHDN_7*%
X145720000Y-49200000D03*
D11*
%TO.P,J11,2,Pin_2*%
%TO.N,CHARGER*%
X148260000Y-49200000D03*
%TO.P,J11,3,Pin_3*%
%TO.N,!BOOST*%
X150800000Y-49200000D03*
%TO.P,J11,4,Pin_4*%
%TO.N,/4*%
X153340000Y-49200000D03*
%TO.P,J11,5,Pin_5*%
%TO.N,/\u002A3*%
X155880000Y-49200000D03*
%TO.P,J11,6,Pin_6*%
%TO.N,/2*%
X158420000Y-49200000D03*
%TO.P,J11,7,Pin_7*%
%TO.N,/TX{slash}1*%
X160960000Y-49200000D03*
%TO.P,J11,8,Pin_8*%
%TO.N,/RX{slash}0*%
X163500000Y-49200000D03*
%TD*%
D12*
%TO.P,C5,1*%
%TO.N,Net-(U2-VOUT)*%
X130750000Y-60750000D03*
%TO.P,C5,2*%
%TO.N,GND*%
X115750000Y-60750000D03*
%TD*%
D13*
%TO.P,J6,1,Pin_1*%
%TO.N,SHDN_6*%
X104700000Y-87850000D03*
D14*
%TO.P,J6,2,Pin_2*%
%TO.N,VOUT_1*%
X102700000Y-87850000D03*
%TO.P,J6,3,Pin_3*%
%TO.N,SDA*%
X100700000Y-87850000D03*
%TO.P,J6,4,Pin_4*%
%TO.N,SCL*%
X98700000Y-87850000D03*
%TO.P,J6,5,Pin_5*%
%TO.N,GND*%
X96700000Y-87850000D03*
%TO.P,J6,6,Pin_6*%
%TO.N,VBUS*%
X94700000Y-87850000D03*
%TD*%
D15*
%TO.P,LITH1,1,+*%
%TO.N,BAT+*%
X95300000Y-113000000D03*
%TO.P,LITH1,2,-*%
%TO.N,BAT-*%
X168200000Y-113000000D03*
%TD*%
D13*
%TO.P,J4,1,Pin_1*%
%TO.N,SHDN_4*%
X104750000Y-74750000D03*
D14*
%TO.P,J4,2,Pin_2*%
%TO.N,VOUT_1*%
X102750000Y-74750000D03*
%TO.P,J4,3,Pin_3*%
%TO.N,SDA*%
X100750000Y-74750000D03*
%TO.P,J4,4,Pin_4*%
%TO.N,SCL*%
X98750000Y-74750000D03*
%TO.P,J4,5,Pin_5*%
%TO.N,GND*%
X96750000Y-74750000D03*
%TO.P,J4,6,Pin_6*%
%TO.N,VBUS*%
X94750000Y-74750000D03*
%TD*%
D13*
%TO.P,J2,1,Pin_1*%
%TO.N,SHDN_2*%
X104750000Y-61750000D03*
D14*
%TO.P,J2,2,Pin_2*%
%TO.N,VOUT_1*%
X102750000Y-61750000D03*
%TO.P,J2,3,Pin_3*%
%TO.N,SDA*%
X100750000Y-61750000D03*
%TO.P,J2,4,Pin_4*%
%TO.N,SCL*%
X98750000Y-61750000D03*
%TO.P,J2,5,Pin_5*%
%TO.N,GND*%
X96750000Y-61750000D03*
%TO.P,J2,6,Pin_6*%
%TO.N,VBUS*%
X94750000Y-61750000D03*
%TD*%
D16*
%TO.P,C4,1*%
%TO.N,GND*%
X144545001Y-69750000D03*
D17*
%TO.P,C4,2*%
%TO.N,Net-(U2-VOUT)*%
X144545001Y-71750000D03*
%TD*%
D13*
%TO.P,J3,1,Pin_1*%
%TO.N,SHDN_3*%
X104750000Y-68250000D03*
D14*
%TO.P,J3,2,Pin_2*%
%TO.N,VOUT_1*%
X102750000Y-68250000D03*
%TO.P,J3,3,Pin_3*%
%TO.N,SDA*%
X100750000Y-68250000D03*
%TO.P,J3,4,Pin_4*%
%TO.N,SCL*%
X98750000Y-68250000D03*
%TO.P,J3,5,Pin_5*%
%TO.N,GND*%
X96750000Y-68250000D03*
%TO.P,J3,6,Pin_6*%
%TO.N,VBUS*%
X94750000Y-68250000D03*
%TD*%
D13*
%TO.P,J1,1,Pin_1*%
%TO.N,SHDN_1*%
X104750000Y-55250000D03*
D14*
%TO.P,J1,2,Pin_2*%
%TO.N,VOUT_1*%
X102750000Y-55250000D03*
%TO.P,J1,3,Pin_3*%
%TO.N,SDA*%
X100750000Y-55250000D03*
%TO.P,J1,4,Pin_4*%
%TO.N,SCL*%
X98750000Y-55250000D03*
%TO.P,J1,5,Pin_5*%
%TO.N,GND*%
X96750000Y-55250000D03*
%TO.P,J1,6,Pin_6*%
%TO.N,VBUS*%
X94750000Y-55250000D03*
%TD*%
D18*
%TO.P,TPx1,1,1*%
%TO.N,Net-(U2-~{PGOOD})*%
X148500000Y-67750000D03*
%TD*%
D12*
%TO.P,C2,1*%
%TO.N,L_VIN*%
X158430000Y-60750000D03*
%TO.P,C2,2*%
%TO.N,GND*%
X143430000Y-60750000D03*
%TD*%
D13*
%TO.P,J5,1,Pin_1*%
%TO.N,SHDN_5*%
X104750000Y-81250000D03*
D14*
%TO.P,J5,2,Pin_2*%
%TO.N,VOUT_1*%
X102750000Y-81250000D03*
%TO.P,J5,3,Pin_3*%
%TO.N,SDA*%
X100750000Y-81250000D03*
%TO.P,J5,4,Pin_4*%
%TO.N,SCL*%
X98750000Y-81250000D03*
%TO.P,J5,5,Pin_5*%
%TO.N,GND*%
X96750000Y-81250000D03*
%TO.P,J5,6,Pin_6*%
%TO.N,VBUS*%
X94750000Y-81250000D03*
%TD*%
D13*
%TO.P,J7,1,Pin_1*%
%TO.N,SHDN_7*%
X104750000Y-94250000D03*
D14*
%TO.P,J7,2,Pin_2*%
%TO.N,VOUT_1*%
X102750000Y-94250000D03*
%TO.P,J7,3,Pin_3*%
%TO.N,SDA*%
X100750000Y-94250000D03*
%TO.P,J7,4,Pin_4*%
%TO.N,SCL*%
X98750000Y-94250000D03*
%TO.P,J7,5,Pin_5*%
%TO.N,GND*%
X96750000Y-94250000D03*
%TO.P,J7,6,Pin_6*%
%TO.N,VBUS*%
X94750000Y-94250000D03*
%TD*%
D19*
%TO.N,GND*%
X148295001Y-71750000D03*
X129750000Y-42972545D03*
X152500000Y-84200000D03*
X116750000Y-43000000D03*
X168525676Y-42984207D03*
X161975676Y-43009678D03*
X144545001Y-80550000D03*
X133900000Y-92700000D03*
X129750000Y-76000000D03*
X123250000Y-42923915D03*
X149002772Y-42824386D03*
X155450000Y-42826749D03*
X113000000Y-83550000D03*
X139400000Y-83000000D03*
X124770000Y-79007499D03*
X147500000Y-86000000D03*
X138007501Y-76300000D03*
X136294511Y-42973726D03*
X128500000Y-84750000D03*
X156500000Y-93750000D03*
X142619721Y-42948650D03*
%TO.N,VBUS*%
X134750000Y-81000000D03*
X130500000Y-80250000D03*
%TO.N,BAT-*%
X118250000Y-100500000D03*
X118250000Y-106750000D03*
%TO.N,Net-(Q1-D)*%
X116250000Y-94250000D03*
X114750000Y-89750000D03*
%TO.N,VOUT_1*%
X169250000Y-102250000D03*
X169250000Y-98750000D03*
%TO.N,SCL*%
X163500000Y-105000000D03*
X102000000Y-47500000D03*
X98250000Y-47500000D03*
%TO.N,SDA*%
X160960000Y-103750000D03*
X145750000Y-95750000D03*
X145750000Y-94000000D03*
X138000000Y-95750000D03*
X138100000Y-94000000D03*
%TO.N,!BOOST*%
X136750000Y-70250000D03*
X136750000Y-67250000D03*
%TO.N,BAT+*%
X116750000Y-100500000D03*
X116750000Y-106750000D03*
%TD*%
D20*
%TO.N,VBUS*%
X133750000Y-81000000D02*
X133000000Y-80250000D01*
X133000000Y-80250000D02*
X130500000Y-80250000D01*
X134750000Y-81000000D02*
X133750000Y-81000000D01*
D21*
%TO.N,BAT-*%
X118250000Y-100500000D02*
X118250000Y-106750000D01*
D22*
%TO.N,Net-(Q1-D)*%
X116250000Y-92750000D02*
X116250000Y-94250000D01*
X114750000Y-91250000D02*
X116250000Y-92750000D01*
X114750000Y-89750000D02*
X114750000Y-91250000D01*
D21*
%TO.N,VOUT_1*%
X169250000Y-98750000D02*
X169250000Y-102250000D01*
D23*
%TO.N,SCL*%
X102000000Y-47500000D02*
X98250000Y-47500000D01*
X163500000Y-105000000D02*
X163500000Y-97460000D01*
%TO.N,SDA*%
X145750000Y-94000000D02*
X145750000Y-95750000D01*
X138100000Y-94000000D02*
X138100000Y-95650000D01*
D24*
X160960000Y-103750000D02*
X160960000Y-97460000D01*
D23*
X138100000Y-95650000D02*
X138000000Y-95750000D01*
D24*
%TO.N,!BOOST*%
X136750000Y-67250000D02*
X136750000Y-70250000D01*
D21*
%TO.N,BAT+*%
X116750000Y-100500000D02*
X116750000Y-106750000D01*
%TD*%
%TA.AperFunction,Conductor*%
%TO.N,GND*%
G36*
X173617539Y-28401435D02*
G01*
X173663294Y-28454239D01*
X173674500Y-28505750D01*
X173674500Y-126106750D01*
X173654815Y-126173789D01*
X173602011Y-126219544D01*
X173550500Y-126230750D01*
X89949500Y-126230750D01*
X89882461Y-126211065D01*
X89836706Y-126158261D01*
X89825500Y-126106750D01*
X89825500Y-112848699D01*
X92991500Y-112848699D01*
X92991500Y-113151300D01*
X92991501Y-113151316D01*
X93030998Y-113451328D01*
X93109323Y-113743639D01*
X93225124Y-114023207D01*
X93225128Y-114023217D01*
X93376433Y-114285285D01*
X93560652Y-114525364D01*
X93560658Y-114525371D01*
X93774628Y-114739341D01*
X93774635Y-114739347D01*
X94014714Y-114923566D01*
X94276782Y-115074871D01*
X94276783Y-115074871D01*
X94276786Y-115074873D01*
X94556365Y-115190678D01*
X94848668Y-115269001D01*
X95148693Y-115308500D01*
X95148700Y-115308500D01*
X95451300Y-115308500D01*
X95451307Y-115308500D01*
X95751332Y-115269001D01*
X96043635Y-115190678D01*
X96323214Y-115074873D01*
X96585286Y-114923566D01*
X96825366Y-114739346D01*
X97039346Y-114525366D01*
X97223566Y-114285286D01*
X97374873Y-114023214D01*
X97490678Y-113743635D01*
X97569001Y-113451332D01*
X97608500Y-113151307D01*
X97608500Y-112890182D01*
X102274500Y-112890182D01*
X102274500Y-112890188D01*
X102274500Y-113109811D01*
X102274501Y-113109828D01*
X102303167Y-113327573D01*
X102360014Y-113539729D01*
X102378104Y-113583401D01*
X102444065Y-113742645D01*
X102553884Y-113932855D01*
X102553889Y-113932861D01*
X102553890Y-113932863D01*
X102687588Y-114107102D01*
X102687594Y-114107109D01*
X102842890Y-114262405D01*
X102842897Y-114262411D01*
X102891689Y-114299850D01*
X103017145Y-114396116D01*
X103207355Y-114505935D01*
X103254261Y-114525364D01*
X103410270Y-114589985D01*
X103410271Y-114589985D01*
X103410273Y-114589986D01*
X103622425Y-114646832D01*
X103840182Y-114675500D01*
X103840189Y-114675500D01*
X104059811Y-114675500D01*
X104059818Y-114675500D01*
X104277575Y-114646832D01*
X104489727Y-114589986D01*
X104692645Y-114505935D01*
X104882855Y-114396116D01*
X105057104Y-114262410D01*
X105212410Y-114107104D01*
X105346116Y-113932855D01*
X105455935Y-113742645D01*
X105539986Y-113539727D01*
X105596832Y-113327575D01*
X105625500Y-113109818D01*
X105625500Y-112890182D01*
X157874500Y-112890182D01*
X157874500Y-112890188D01*
X157874500Y-113109811D01*
X157874501Y-113109828D01*
X157903167Y-113327573D01*
X157960014Y-113539729D01*
X157978104Y-113583401D01*
X158044065Y-113742645D01*
X158153884Y-113932855D01*
X158153889Y-113932861D01*
X158153890Y-113932863D01*
X158287588Y-114107102D01*
X158287594Y-114107109D01*
X158442890Y-114262405D01*
X158442897Y-114262411D01*
X158491689Y-114299850D01*
X158617145Y-114396116D01*
X158807355Y-114505935D01*
X158854261Y-114525364D01*
X159010270Y-114589985D01*
X159010271Y-114589985D01*
X159010273Y-114589986D01*
X159222425Y-114646832D01*
X159440182Y-114675500D01*
X159440189Y-114675500D01*
X159659811Y-114675500D01*
X159659818Y-114675500D01*
X159877575Y-114646832D01*
X160089727Y-114589986D01*
X160292645Y-114505935D01*
X160482855Y-114396116D01*
X160657104Y-114262410D01*
X160812410Y-114107104D01*
X160946116Y-113932855D01*
X161055935Y-113742645D01*
X161139986Y-113539727D01*
X161196832Y-113327575D01*
X161225500Y-113109818D01*
X161225500Y-112890182D01*
X161224211Y-112880388D01*
X161221635Y-112860818D01*
X161220039Y-112848699D01*
X165891500Y-112848699D01*
X165891500Y-113151300D01*
X165891501Y-113151316D01*
X165930998Y-113451328D01*
X166009323Y-113743639D01*
X166125124Y-114023207D01*
X166125128Y-114023217D01*
X166276433Y-114285285D01*
X166460652Y-114525364D01*
X166460658Y-114525371D01*
X166674628Y-114739341D01*
X166674635Y-114739347D01*
X166914714Y-114923566D01*
X167176782Y-115074871D01*
X167176783Y-115074871D01*
X167176786Y-115074873D01*
X167456365Y-115190678D01*
X167748668Y-115269001D01*
X168048693Y-115308500D01*
X168048700Y-115308500D01*
X168351300Y-115308500D01*
X168351307Y-115308500D01*
X168651332Y-115269001D01*
X168943635Y-115190678D01*
X169223214Y-115074873D01*
X169485286Y-114923566D01*
X169725366Y-114739346D01*
X169939346Y-114525366D01*
X170123566Y-114285286D01*
X170274873Y-114023214D01*
X170390678Y-113743635D01*
X170469001Y-113451332D01*
X170508500Y-113151307D01*
X170508500Y-112848693D01*
X170469001Y-112548668D01*
X170390678Y-112256365D01*
X170274873Y-111976786D01*
X170123566Y-111714714D01*
X169954256Y-111494065D01*
X169939347Y-111474635D01*
X169939341Y-111474628D01*
X169725371Y-111260658D01*
X169725364Y-111260652D01*
X169485285Y-111076433D01*
X169223217Y-110925128D01*
X169223207Y-110925124D01*
X168943639Y-110809323D01*
X168651328Y-110730998D01*
X168351316Y-110691501D01*
X168351313Y-110691500D01*
X168351307Y-110691500D01*
X168048693Y-110691500D01*
X168048687Y-110691500D01*
X168048683Y-110691501D01*
X167748671Y-110730998D01*
X167456360Y-110809323D01*
X167176792Y-110925124D01*
X167176782Y-110925128D01*
X166914714Y-111076433D01*
X166674635Y-111260652D01*
X166674628Y-111260658D01*
X166460658Y-111474628D01*
X166460652Y-111474635D01*
X166276433Y-111714714D01*
X166125128Y-111976782D01*
X166125124Y-111976792D01*
X166009323Y-112256360D01*
X165930998Y-112548671D01*
X165891501Y-112848683D01*
X165891500Y-112848699D01*
X161220039Y-112848699D01*
X161211288Y-112782235D01*
X161196832Y-112672425D01*
X161139986Y-112460273D01*
X161055935Y-112257355D01*
X160946116Y-112067145D01*
X160812410Y-111892896D01*
X160812405Y-111892890D01*
X160657109Y-111737594D01*
X160657102Y-111737588D01*
X160482863Y-111603890D01*
X160482861Y-111603889D01*
X160482855Y-111603884D01*
X160292645Y-111494065D01*
X160292641Y-111494063D01*
X160089729Y-111410014D01*
X159877573Y-111353167D01*
X159659828Y-111324501D01*
X159659823Y-111324500D01*
X159659818Y-111324500D01*
X159440182Y-111324500D01*
X159440176Y-111324500D01*
X159440171Y-111324501D01*
X159222426Y-111353167D01*
X159010270Y-111410014D01*
X158807358Y-111494063D01*
X158807354Y-111494065D01*
X158617145Y-111603884D01*
X158617136Y-111603890D01*
X158442897Y-111737588D01*
X158442890Y-111737594D01*
X158287594Y-111892890D01*
X158287588Y-111892897D01*
X158153890Y-112067136D01*
X158153884Y-112067145D01*
X158044065Y-112257354D01*
X158044063Y-112257358D01*
X157960014Y-112460270D01*
X157903167Y-112672426D01*
X157875789Y-112880387D01*
X157875789Y-112880389D01*
X157874500Y-112890182D01*
X105625500Y-112890182D01*
X105596832Y-112672425D01*
X105539986Y-112460273D01*
X105455935Y-112257355D01*
X105346116Y-112067145D01*
X105212410Y-111892896D01*
X105212405Y-111892890D01*
X105057109Y-111737594D01*
X105057102Y-111737588D01*
X104882863Y-111603890D01*
X104882861Y-111603889D01*
X104882855Y-111603884D01*
X104692645Y-111494065D01*
X104692641Y-111494063D01*
X104489729Y-111410014D01*
X104277573Y-111353167D01*
X104059828Y-111324501D01*
X104059823Y-111324500D01*
X104059818Y-111324500D01*
X103840182Y-111324500D01*
X103840176Y-111324500D01*
X103840171Y-111324501D01*
X103622426Y-111353167D01*
X103410270Y-111410014D01*
X103207358Y-111494063D01*
X103207354Y-111494065D01*
X103017145Y-111603884D01*
X103017136Y-111603890D01*
X102842897Y-111737588D01*
X102842890Y-111737594D01*
X102687594Y-111892890D01*
X102687588Y-111892897D01*
X102553890Y-112067136D01*
X102553884Y-112067145D01*
X102444065Y-112257354D01*
X102444063Y-112257358D01*
X102360014Y-112460270D01*
X102303167Y-112672426D01*
X102275789Y-112880387D01*
X102275789Y-112880389D01*
X102274500Y-112890182D01*
X97608500Y-112890182D01*
X97608500Y-112848693D01*
X97569001Y-112548668D01*
X97490678Y-112256365D01*
X97374873Y-111976786D01*
X97223566Y-111714714D01*
X97054256Y-111494065D01*
X97039347Y-111474635D01*
X97039341Y-111474628D01*
X96825371Y-111260658D01*
X96825364Y-111260652D01*
X96585285Y-111076433D01*
X96323217Y-110925128D01*
X96323207Y-110925124D01*
X96043639Y-110809323D01*
X95751328Y-110730998D01*
X95451316Y-110691501D01*
X95451313Y-110691500D01*
X95451307Y-110691500D01*
X95148693Y-110691500D01*
X95148687Y-110691500D01*
X95148683Y-110691501D01*
X94848671Y-110730998D01*
X94556360Y-110809323D01*
X94276792Y-110925124D01*
X94276782Y-110925128D01*
X94014714Y-111076433D01*
X93774635Y-111260652D01*
X93774628Y-111260658D01*
X93560658Y-111474628D01*
X93560652Y-111474635D01*
X93376433Y-111714714D01*
X93225128Y-111976782D01*
X93225124Y-111976792D01*
X93109323Y-112256360D01*
X93030998Y-112548671D01*
X92991501Y-112848683D01*
X92991500Y-112848699D01*
X89825500Y-112848699D01*
X89825500Y-100400666D01*
X115741500Y-100400666D01*
X115741500Y-106849333D01*
X115780254Y-107044161D01*
X115780256Y-107044169D01*
X115856277Y-107227701D01*
X115856282Y-107227710D01*
X115966646Y-107392880D01*
X115966649Y-107392884D01*
X116107115Y-107533350D01*
X116107119Y-107533353D01*
X116272289Y-107643717D01*
X116272295Y-107643720D01*
X116272296Y-107643721D01*
X116455831Y-107719744D01*
X116650666Y-107758499D01*
X116650670Y-107758500D01*
X116650671Y-107758500D01*
X116849330Y-107758500D01*
X116849331Y-107758499D01*
X117044169Y-107719744D01*
X117227704Y-107643721D01*
X117392881Y-107533353D01*
X117412317Y-107513917D01*
X117473639Y-107480430D01*
X117543331Y-107485413D01*
X117587683Y-107513917D01*
X117607116Y-107533351D01*
X117607119Y-107533353D01*
X117772289Y-107643717D01*
X117772295Y-107643720D01*
X117772296Y-107643721D01*
X117955831Y-107719744D01*
X118150666Y-107758499D01*
X118150670Y-107758500D01*
X118150671Y-107758500D01*
X118349330Y-107758500D01*
X118349331Y-107758499D01*
X118544169Y-107719744D01*
X118727704Y-107643721D01*
X118892881Y-107533353D01*
X119033353Y-107392881D01*
X119143721Y-107227704D01*
X119219744Y-107044169D01*
X119258500Y-106849329D01*
X119258500Y-100400671D01*
X119219744Y-100205831D01*
X119143721Y-100022296D01*
X119143720Y-100022295D01*
X119143717Y-100022289D01*
X119033353Y-99857119D01*
X119033350Y-99857115D01*
X118892884Y-99716649D01*
X118892880Y-99716646D01*
X118727710Y-99606282D01*
X118727701Y-99606277D01*
X118544169Y-99530256D01*
X118544161Y-99530254D01*
X118349333Y-99491500D01*
X118349329Y-99491500D01*
X118150671Y-99491500D01*
X118150666Y-99491500D01*
X117955838Y-99530254D01*
X117955830Y-99530256D01*
X117772298Y-99606277D01*
X117772289Y-99606282D01*
X117607119Y-99716646D01*
X117607115Y-99716649D01*
X117587681Y-99736084D01*
X117526358Y-99769569D01*
X117456666Y-99764585D01*
X117412319Y-99736084D01*
X117392884Y-99716649D01*
X117392880Y-99716646D01*
X117227710Y-99606282D01*
X117227701Y-99606277D01*
X117044169Y-99530256D01*
X117044161Y-99530254D01*
X116849333Y-99491500D01*
X116849329Y-99491500D01*
X116650671Y-99491500D01*
X116650666Y-99491500D01*
X116455838Y-99530254D01*
X116455830Y-99530256D01*
X116272298Y-99606277D01*
X116272289Y-99606282D01*
X116107119Y-99716646D01*
X116107115Y-99716649D01*
X115966649Y-99857115D01*
X115966646Y-99857119D01*
X115856282Y-100022289D01*
X115856277Y-100022298D01*
X115780256Y-100205830D01*
X115780254Y-100205838D01*
X115741500Y-100400666D01*
X89825500Y-100400666D01*
X89825500Y-96561345D01*
X126581500Y-96561345D01*
X126581500Y-98358654D01*
X126588011Y-98419202D01*
X126588011Y-98419204D01*
X126616733Y-98496208D01*
X126639111Y-98556204D01*
X126726739Y-98673261D01*
X126843796Y-98760889D01*
X126980799Y-98811989D01*
X127008050Y-98814918D01*
X127041345Y-98818499D01*
X127041362Y-98818500D01*
X128838638Y-98818500D01*
X128838654Y-98818499D01*
X128865692Y-98815591D01*
X128899201Y-98811989D01*
X129036204Y-98760889D01*
X129153261Y-98673261D01*
X129240889Y-98556204D01*
X129285957Y-98435371D01*
X129327827Y-98379442D01*
X129393291Y-98355025D01*
X129461564Y-98369877D01*
X129489818Y-98391028D01*
X129594996Y-98496206D01*
X129767991Y-98621894D01*
X129824467Y-98650670D01*
X129958516Y-98718972D01*
X129958519Y-98718973D01*
X130060200Y-98752010D01*
X130161884Y-98785049D01*
X130373084Y-98818500D01*
X130373085Y-98818500D01*
X130586915Y-98818500D01*
X130586916Y-98818500D01*
X130798116Y-98785049D01*
X131001483Y-98718972D01*
X131192009Y-98621894D01*
X131365004Y-98496206D01*
X131516206Y-98345004D01*
X131641894Y-98172009D01*
X131641896Y-98172004D01*
X131644270Y-98168132D01*
X131696080Y-98121254D01*
X131765009Y-98109829D01*
X131829173Y-98137483D01*
X131855730Y-98168132D01*
X131858103Y-98172005D01*
X131858105Y-98172008D01*
X131858106Y-98172009D01*
X131983794Y-98345004D01*
X132134996Y-98496206D01*
X132307991Y-98621894D01*
X132364467Y-98650670D01*
X132498516Y-98718972D01*
X132498519Y-98718973D01*
X132600200Y-98752010D01*
X132701884Y-98785049D01*
X132913084Y-98818500D01*
X132913085Y-98818500D01*
X133126915Y-98818500D01*
X133126916Y-98818500D01*
X133338116Y-98785049D01*
X133541483Y-98718972D01*
X133732009Y-98621894D01*
X133905004Y-98496206D01*
X134056206Y-98345004D01*
X134181894Y-98172009D01*
X134181896Y-98172004D01*
X134184270Y-98168132D01*
X134236080Y-98121254D01*
X134305009Y-98109829D01*
X134369173Y-98137483D01*
X134395730Y-98168132D01*
X134398103Y-98172005D01*
X134398105Y-98172008D01*
X134398106Y-98172009D01*
X134523794Y-98345004D01*
X134674996Y-98496206D01*
X134847991Y-98621894D01*
X134904467Y-98650670D01*
X135038516Y-98718972D01*
X135038519Y-98718973D01*
X135140200Y-98752010D01*
X135241884Y-98785049D01*
X135453084Y-98818500D01*
X135453085Y-98818500D01*
X135666915Y-98818500D01*
X135666916Y-98818500D01*
X135878116Y-98785049D01*
X136081483Y-98718972D01*
X136272009Y-98621894D01*
X136445004Y-98496206D01*
X136596206Y-98345004D01*
X136721894Y-98172009D01*
X136721896Y-98172004D01*
X136724270Y-98168132D01*
X136776080Y-98121254D01*
X136845009Y-98109829D01*
X136909173Y-98137483D01*
X136935730Y-98168132D01*
X136938103Y-98172005D01*
X136938105Y-98172008D01*
X136938106Y-98172009D01*
X137063794Y-98345004D01*
X137214996Y-98496206D01*
X137387991Y-98621894D01*
X137444467Y-98650670D01*
X137578516Y-98718972D01*
X137578519Y-98718973D01*
X137680200Y-98752010D01*
X137781884Y-98785049D01*
X137993084Y-98818500D01*
X137993085Y-98818500D01*
X138206915Y-98818500D01*
X138206916Y-98818500D01*
X138418116Y-98785049D01*
X138621483Y-98718972D01*
X138812009Y-98621894D01*
X138985004Y-98496206D01*
X139136206Y-98345004D01*
X139261894Y-98172009D01*
X139264283Y-98167319D01*
X139312254Y-98116522D01*
X139380074Y-98099724D01*
X139446210Y-98122258D01*
X139482196Y-98163783D01*
X139482829Y-98163396D01*
X139485167Y-98167211D01*
X139485251Y-98167308D01*
X139485371Y-98167545D01*
X139485373Y-98167547D01*
X139524728Y-98221716D01*
X140157037Y-97589408D01*
X140174075Y-97652993D01*
X140239901Y-97767007D01*
X140332993Y-97860099D01*
X140447007Y-97925925D01*
X140510590Y-97942962D01*
X139878282Y-98575269D01*
X139878282Y-98575270D01*
X139932449Y-98614624D01*
X140121782Y-98711095D01*
X140323870Y-98776757D01*
X140533754Y-98810000D01*
X140746246Y-98810000D01*
X140956127Y-98776757D01*
X140956130Y-98776757D01*
X141158217Y-98711095D01*
X141347554Y-98614622D01*
X141401716Y-98575270D01*
X141401717Y-98575270D01*
X140769408Y-97942962D01*
X140832993Y-97925925D01*
X140947007Y-97860099D01*
X141040099Y-97767007D01*
X141105925Y-97652993D01*
X141122962Y-97589409D01*
X141755270Y-98221717D01*
X141755270Y-98221716D01*
X141794622Y-98167554D01*
X141799514Y-98157954D01*
X141847488Y-98107157D01*
X141915308Y-98090361D01*
X141981444Y-98112897D01*
X142020486Y-98157954D01*
X142025375Y-98167550D01*
X142064728Y-98221716D01*
X142697037Y-97589408D01*
X142714075Y-97652993D01*
X142779901Y-97767007D01*
X142872993Y-97860099D01*
X142987007Y-97925925D01*
X143050590Y-97942962D01*
X142418282Y-98575269D01*
X142418282Y-98575270D01*
X142472449Y-98614624D01*
X142661782Y-98711095D01*
X142863870Y-98776757D01*
X143073754Y-98810000D01*
X143286246Y-98810000D01*
X143496127Y-98776757D01*
X143496130Y-98776757D01*
X143698217Y-98711095D01*
X143887554Y-98614622D01*
X143941716Y-98575270D01*
X143941717Y-98575270D01*
X143309408Y-97942962D01*
X143372993Y-97925925D01*
X143487007Y-97860099D01*
X143580099Y-97767007D01*
X143645925Y-97652993D01*
X143662962Y-97589409D01*
X144295270Y-98221717D01*
X144295270Y-98221716D01*
X144334621Y-98167556D01*
X144334738Y-98167327D01*
X144334808Y-98167252D01*
X144337168Y-98163402D01*
X144337976Y-98163897D01*
X144382707Y-98116526D01*
X144450526Y-98099723D01*
X144516663Y-98122254D01*
X144555712Y-98167311D01*
X144558105Y-98172008D01*
X144594220Y-98221716D01*
X144683794Y-98345004D01*
X144834996Y-98496206D01*
X145007991Y-98621894D01*
X145064467Y-98650670D01*
X145198516Y-98718972D01*
X145198519Y-98718973D01*
X145300200Y-98752010D01*
X145401884Y-98785049D01*
X145613084Y-98818500D01*
X145613085Y-98818500D01*
X145826915Y-98818500D01*
X145826916Y-98818500D01*
X146038116Y-98785049D01*
X146241483Y-98718972D01*
X146432009Y-98621894D01*
X146605004Y-98496206D01*
X146756206Y-98345004D01*
X146881894Y-98172009D01*
X146978972Y-97981483D01*
X147045049Y-97778116D01*
X147078500Y-97566916D01*
X147078500Y-97353084D01*
X147045049Y-97141884D01*
X146978972Y-96938517D01*
X146978972Y-96938516D01*
X146923495Y-96829638D01*
X146881894Y-96747991D01*
X146756206Y-96574996D01*
X146742555Y-96561345D01*
X149441500Y-96561345D01*
X149441500Y-98358654D01*
X149448011Y-98419202D01*
X149448011Y-98419204D01*
X149476733Y-98496208D01*
X149499111Y-98556204D01*
X149586739Y-98673261D01*
X149703796Y-98760889D01*
X149840799Y-98811989D01*
X149868050Y-98814918D01*
X149901345Y-98818499D01*
X149901362Y-98818500D01*
X151698638Y-98818500D01*
X151698654Y-98818499D01*
X151725692Y-98815591D01*
X151759201Y-98811989D01*
X151896204Y-98760889D01*
X152013261Y-98673261D01*
X152100889Y-98556204D01*
X152145957Y-98435371D01*
X152187827Y-98379442D01*
X152253291Y-98355025D01*
X152321564Y-98369877D01*
X152349818Y-98391028D01*
X152454996Y-98496206D01*
X152627991Y-98621894D01*
X152684467Y-98650670D01*
X152818516Y-98718972D01*
X152818519Y-98718973D01*
X152920200Y-98752010D01*
X153021884Y-98785049D01*
X153233084Y-98818500D01*
X153233085Y-98818500D01*
X153446915Y-98818500D01*
X153446916Y-98818500D01*
X153658116Y-98785049D01*
X153861483Y-98718972D01*
X154052009Y-98621894D01*
X154225004Y-98496206D01*
X154376206Y-98345004D01*
X154501894Y-98172009D01*
X154501896Y-98172004D01*
X154504270Y-98168132D01*
X154556080Y-98121254D01*
X154625009Y-98109829D01*
X154689173Y-98137483D01*
X154715730Y-98168132D01*
X154718103Y-98172005D01*
X154718105Y-98172008D01*
X154718106Y-98172009D01*
X154843794Y-98345004D01*
X154994996Y-98496206D01*
X155167991Y-98621894D01*
X155224467Y-98650670D01*
X155358516Y-98718972D01*
X155358519Y-98718973D01*
X155460200Y-98752010D01*
X155561884Y-98785049D01*
X155773084Y-98818500D01*
X155773085Y-98818500D01*
X155986915Y-98818500D01*
X155986916Y-98818500D01*
X156198116Y-98785049D01*
X156401483Y-98718972D01*
X156592009Y-98621894D01*
X156765004Y-98496206D01*
X156916206Y-98345004D01*
X157041894Y-98172009D01*
X157041896Y-98172004D01*
X157044270Y-98168132D01*
X157096080Y-98121254D01*
X157165009Y-98109829D01*
X157229173Y-98137483D01*
X157255730Y-98168132D01*
X157258103Y-98172005D01*
X157258105Y-98172008D01*
X157258106Y-98172009D01*
X157383794Y-98345004D01*
X157534996Y-98496206D01*
X157707991Y-98621894D01*
X157764467Y-98650670D01*
X157898516Y-98718972D01*
X157898519Y-98718973D01*
X158000200Y-98752010D01*
X158101884Y-98785049D01*
X158313084Y-98818500D01*
X158313085Y-98818500D01*
X158526915Y-98818500D01*
X158526916Y-98818500D01*
X158738116Y-98785049D01*
X158941483Y-98718972D01*
X159132009Y-98621894D01*
X159305004Y-98496206D01*
X159456206Y-98345004D01*
X159581894Y-98172009D01*
X159581896Y-98172004D01*
X159584270Y-98168132D01*
X159636080Y-98121254D01*
X159705009Y-98109829D01*
X159769173Y-98137483D01*
X159795730Y-98168132D01*
X159798103Y-98172005D01*
X159798105Y-98172008D01*
X159798106Y-98172009D01*
X159923794Y-98345004D01*
X160074996Y-98496206D01*
X160247991Y-98621894D01*
X160258794Y-98627398D01*
X160309590Y-98675371D01*
X160326500Y-98737883D01*
X160326500Y-103047324D01*
X160306815Y-103114363D01*
X160290181Y-103135005D01*
X160254324Y-103170861D01*
X160254321Y-103170865D01*
X160154901Y-103319657D01*
X160154896Y-103319667D01*
X160086413Y-103484999D01*
X160086411Y-103485007D01*
X160051500Y-103660516D01*
X160051500Y-103839483D01*
X160086411Y-104014992D01*
X160086413Y-104015000D01*
X160154896Y-104180332D01*
X160154901Y-104180342D01*
X160254321Y-104329134D01*
X160254324Y-104329138D01*
X160380861Y-104455675D01*
X160380865Y-104455678D01*
X160529657Y-104555098D01*
X160529661Y-104555100D01*
X160529664Y-104555102D01*
X160695000Y-104623587D01*
X160870516Y-104658499D01*
X160870520Y-104658500D01*
X160870521Y-104658500D01*
X161049480Y-104658500D01*
X161049481Y-104658499D01*
X161225000Y-104623587D01*
X161390336Y-104555102D01*
X161539135Y-104455678D01*
X161665678Y-104329135D01*
X161765102Y-104180336D01*
X161833587Y-104015000D01*
X161868500Y-103839479D01*
X161868500Y-103660521D01*
X161833587Y-103485000D01*
X161765102Y-103319664D01*
X161765100Y-103319661D01*
X161765098Y-103319657D01*
X161665678Y-103170865D01*
X161665675Y-103170861D01*
X161629819Y-103135005D01*
X161596334Y-103073682D01*
X161593500Y-103047324D01*
X161593500Y-98737883D01*
X161613185Y-98670844D01*
X161661204Y-98627398D01*
X161672009Y-98621894D01*
X161845004Y-98496206D01*
X161996206Y-98345004D01*
X162121894Y-98172009D01*
X162121896Y-98172004D01*
X162124270Y-98168132D01*
X162176080Y-98121254D01*
X162245009Y-98109829D01*
X162309173Y-98137483D01*
X162335730Y-98168132D01*
X162338103Y-98172005D01*
X162338105Y-98172008D01*
X162338106Y-98172009D01*
X162463794Y-98345004D01*
X162614996Y-98496206D01*
X162787988Y-98621892D01*
X162790386Y-98623634D01*
X162833051Y-98678964D01*
X162841500Y-98723952D01*
X162841500Y-104322324D01*
X162821815Y-104389363D01*
X162805181Y-104410005D01*
X162794324Y-104420861D01*
X162794321Y-104420865D01*
X162694901Y-104569657D01*
X162694896Y-104569667D01*
X162626413Y-104734999D01*
X162626411Y-104735007D01*
X162591500Y-104910516D01*
X162591500Y-105089483D01*
X162626411Y-105264992D01*
X162626413Y-105265000D01*
X162694896Y-105430332D01*
X162694901Y-105430342D01*
X162794321Y-105579134D01*
X162794324Y-105579138D01*
X162920861Y-105705675D01*
X162920865Y-105705678D01*
X163069657Y-105805098D01*
X163069661Y-105805100D01*
X163069664Y-105805102D01*
X163235000Y-105873587D01*
X163410516Y-105908499D01*
X163410520Y-105908500D01*
X163410521Y-105908500D01*
X163589480Y-105908500D01*
X163589481Y-105908499D01*
X163765000Y-105873587D01*
X163930336Y-105805102D01*
X164079135Y-105705678D01*
X164205678Y-105579135D01*
X164305102Y-105430336D01*
X164373587Y-105265000D01*
X164408500Y-105089479D01*
X164408500Y-104910521D01*
X164373587Y-104735000D01*
X164305102Y-104569664D01*
X164305100Y-104569661D01*
X164305098Y-104569657D01*
X164205678Y-104420865D01*
X164205675Y-104420861D01*
X164194819Y-104410005D01*
X164161334Y-104348682D01*
X164158500Y-104322324D01*
X164158500Y-98723952D01*
X164160041Y-98718702D01*
X164158955Y-98713341D01*
X164169780Y-98685536D01*
X164178185Y-98656913D01*
X164182845Y-98651978D01*
X164183356Y-98650666D01*
X168241500Y-98650666D01*
X168241500Y-102349333D01*
X168280254Y-102544161D01*
X168280256Y-102544169D01*
X168356277Y-102727701D01*
X168356282Y-102727710D01*
X168466646Y-102892880D01*
X168466649Y-102892884D01*
X168607115Y-103033350D01*
X168607119Y-103033353D01*
X168772289Y-103143717D01*
X168772295Y-103143720D01*
X168772296Y-103143721D01*
X168955831Y-103219744D01*
X169150666Y-103258499D01*
X169150670Y-103258500D01*
X169150671Y-103258500D01*
X169349330Y-103258500D01*
X169349331Y-103258499D01*
X169544169Y-103219744D01*
X169727704Y-103143721D01*
X169892881Y-103033353D01*
X170033353Y-102892881D01*
X170143721Y-102727704D01*
X170219744Y-102544169D01*
X170258500Y-102349329D01*
X170258500Y-98650671D01*
X170219744Y-98455831D01*
X170143721Y-98272296D01*
X170143720Y-98272295D01*
X170143717Y-98272289D01*
X170033353Y-98107119D01*
X170033350Y-98107115D01*
X169892884Y-97966649D01*
X169892880Y-97966646D01*
X169727710Y-97856282D01*
X169727701Y-97856277D01*
X169544169Y-97780256D01*
X169544161Y-97780254D01*
X169349333Y-97741500D01*
X169349329Y-97741500D01*
X169150671Y-97741500D01*
X169150666Y-97741500D01*
X168955838Y-97780254D01*
X168955830Y-97780256D01*
X168772298Y-97856277D01*
X168772289Y-97856282D01*
X168607119Y-97966646D01*
X168607115Y-97966649D01*
X168466649Y-98107115D01*
X168466646Y-98107119D01*
X168356282Y-98272289D01*
X168356277Y-98272298D01*
X168280256Y-98455830D01*
X168280254Y-98455838D01*
X168241500Y-98650666D01*
X164183356Y-98650666D01*
X164184304Y-98648232D01*
X164209614Y-98623634D01*
X164212012Y-98621892D01*
X164385004Y-98496206D01*
X164536206Y-98345004D01*
X164661894Y-98172009D01*
X164758972Y-97981483D01*
X164825049Y-97778116D01*
X164858500Y-97566916D01*
X164858500Y-97353084D01*
X164825049Y-97141884D01*
X164758972Y-96938517D01*
X164758972Y-96938516D01*
X164703495Y-96829638D01*
X164661894Y-96747991D01*
X164536206Y-96574996D01*
X164385004Y-96423794D01*
X164212009Y-96298106D01*
X164200371Y-96292176D01*
X164021483Y-96201027D01*
X164021480Y-96201026D01*
X163818117Y-96134951D01*
X163712516Y-96118225D01*
X163606916Y-96101500D01*
X163393084Y-96101500D01*
X163322684Y-96112650D01*
X163181882Y-96134951D01*
X162978519Y-96201026D01*
X162978516Y-96201027D01*
X162787990Y-96298106D01*
X162614993Y-96423796D01*
X162463796Y-96574993D01*
X162338105Y-96747991D01*
X162335727Y-96751873D01*
X162283914Y-96798748D01*
X162214984Y-96810169D01*
X162150822Y-96782512D01*
X162124273Y-96751873D01*
X162121894Y-96747991D01*
X162085778Y-96698282D01*
X161996206Y-96574996D01*
X161845004Y-96423794D01*
X161672009Y-96298106D01*
X161660371Y-96292176D01*
X161481483Y-96201027D01*
X161481480Y-96201026D01*
X161278117Y-96134951D01*
X161172516Y-96118225D01*
X161066916Y-96101500D01*
X160853084Y-96101500D01*
X160782684Y-96112650D01*
X160641882Y-96134951D01*
X160438519Y-96201026D01*
X160438516Y-96201027D01*
X160247990Y-96298106D01*
X160074993Y-96423796D01*
X159923796Y-96574993D01*
X159798105Y-96747991D01*
X159795727Y-96751873D01*
X159743914Y-96798748D01*
X159674984Y-96810169D01*
X159610822Y-96782512D01*
X159584273Y-96751873D01*
X159581894Y-96747991D01*
X159545778Y-96698282D01*
X159456206Y-96574996D01*
X159305004Y-96423794D01*
X159132009Y-96298106D01*
X159120371Y-96292176D01*
X158941483Y-96201027D01*
X158941480Y-96201026D01*
X158738117Y-96134951D01*
X158632516Y-96118225D01*
X158526916Y-96101500D01*
X158313084Y-96101500D01*
X158242684Y-96112650D01*
X158101882Y-96134951D01*
X157898519Y-96201026D01*
X157898516Y-96201027D01*
X157707990Y-96298106D01*
X157534993Y-96423796D01*
X157383796Y-96574993D01*
X157258105Y-96747991D01*
X157255727Y-96751873D01*
X157203914Y-96798748D01*
X157134984Y-96810169D01*
X157070822Y-96782512D01*
X157044273Y-96751873D01*
X157041894Y-96747991D01*
X157005778Y-96698282D01*
X156916206Y-96574996D01*
X156765004Y-96423794D01*
X156592009Y-96298106D01*
X156580371Y-96292176D01*
X156401483Y-96201027D01*
X156401480Y-96201026D01*
X156198117Y-96134951D01*
X156092516Y-96118225D01*
X155986916Y-96101500D01*
X155773084Y-96101500D01*
X155702684Y-96112650D01*
X155561882Y-96134951D01*
X155358519Y-96201026D01*
X155358516Y-96201027D01*
X155167990Y-96298106D01*
X154994993Y-96423796D01*
X154843796Y-96574993D01*
X154718105Y-96747991D01*
X154715727Y-96751873D01*
X154663914Y-96798748D01*
X154594984Y-96810169D01*
X154530822Y-96782512D01*
X154504273Y-96751873D01*
X154501894Y-96747991D01*
X154465778Y-96698282D01*
X154376206Y-96574996D01*
X154225004Y-96423794D01*
X154052009Y-96298106D01*
X154040371Y-96292176D01*
X153861483Y-96201027D01*
X153861480Y-96201026D01*
X153658117Y-96134951D01*
X153552516Y-96118225D01*
X153446916Y-96101500D01*
X153233084Y-96101500D01*
X153162684Y-96112650D01*
X153021882Y-96134951D01*
X152818519Y-96201026D01*
X152818516Y-96201027D01*
X152627990Y-96298106D01*
X152454997Y-96423793D01*
X152349818Y-96528972D01*
X152288495Y-96562456D01*
X152218803Y-96557472D01*
X152162870Y-96515600D01*
X152145958Y-96484629D01*
X152100889Y-96363796D01*
X152013261Y-96246739D01*
X151896204Y-96159111D01*
X151759203Y-96108011D01*
X151698654Y-96101500D01*
X151698638Y-96101500D01*
X149901362Y-96101500D01*
X149901345Y-96101500D01*
X149840797Y-96108011D01*
X149840795Y-96108011D01*
X149703795Y-96159111D01*
X149586739Y-96246739D01*
X149499111Y-96363795D01*
X149448011Y-96500795D01*
X149448011Y-96500797D01*
X149441500Y-96561345D01*
X146742555Y-96561345D01*
X146605004Y-96423794D01*
X146558353Y-96389900D01*
X146515688Y-96334572D01*
X146509709Y-96264958D01*
X146528135Y-96220693D01*
X146555102Y-96180336D01*
X146623587Y-96015000D01*
X146658500Y-95839479D01*
X146658500Y-95660521D01*
X146623587Y-95485000D01*
X146555102Y-95319664D01*
X146555100Y-95319661D01*
X146555098Y-95319657D01*
X146455678Y-95170865D01*
X146455675Y-95170861D01*
X146444819Y-95160005D01*
X146411334Y-95098682D01*
X146408500Y-95072324D01*
X146408500Y-94677675D01*
X146428185Y-94610636D01*
X146444822Y-94589991D01*
X146455676Y-94579137D01*
X146455678Y-94579135D01*
X146555102Y-94430336D01*
X146623587Y-94265000D01*
X146658500Y-94089479D01*
X146658500Y-93910521D01*
X146623587Y-93735000D01*
X146555102Y-93569664D01*
X146555100Y-93569661D01*
X146555098Y-93569657D01*
X146455678Y-93420865D01*
X146455675Y-93420861D01*
X146329138Y-93294324D01*
X146329134Y-93294321D01*
X146180342Y-93194901D01*
X146180332Y-93194896D01*
X146015000Y-93126413D01*
X146014992Y-93126411D01*
X145839483Y-93091500D01*
X145839479Y-93091500D01*
X145660521Y-93091500D01*
X145660516Y-93091500D01*
X145485007Y-93126411D01*
X145484999Y-93126413D01*
X145319667Y-93194896D01*
X145319657Y-93194901D01*
X145170865Y-93294321D01*
X145170861Y-93294324D01*
X145044324Y-93420861D01*
X145044321Y-93420865D01*
X144944901Y-93569657D01*
X144944896Y-93569667D01*
X144876413Y-93734999D01*
X144876411Y-93735007D01*
X144841500Y-93910516D01*
X144841500Y-94089483D01*
X144876411Y-94264992D01*
X144876413Y-94265000D01*
X144944896Y-94430332D01*
X144944901Y-94430342D01*
X145044321Y-94579134D01*
X145044323Y-94579137D01*
X145055178Y-94589991D01*
X145088665Y-94651313D01*
X145091500Y-94677675D01*
X145091500Y-95072324D01*
X145071815Y-95139363D01*
X145055181Y-95160005D01*
X145044324Y-95170861D01*
X145044321Y-95170865D01*
X144944901Y-95319657D01*
X144944896Y-95319667D01*
X144876413Y-95484999D01*
X144876411Y-95485007D01*
X144841500Y-95660516D01*
X144841500Y-95839483D01*
X144876411Y-96014992D01*
X144876413Y-96015000D01*
X144944896Y-96180332D01*
X144944900Y-96180340D01*
X144952252Y-96191342D01*
X144973132Y-96258019D01*
X144954649Y-96325400D01*
X144922038Y-96360554D01*
X144834994Y-96423795D01*
X144683796Y-96574993D01*
X144558103Y-96747994D01*
X144555709Y-96752693D01*
X144507731Y-96803485D01*
X144439908Y-96820275D01*
X144373775Y-96797732D01*
X144337804Y-96756215D01*
X144337171Y-96756604D01*
X144334826Y-96752778D01*
X144334743Y-96752682D01*
X144334624Y-96752449D01*
X144295270Y-96698282D01*
X144295269Y-96698282D01*
X143662962Y-97330590D01*
X143645925Y-97267007D01*
X143580099Y-97152993D01*
X143487007Y-97059901D01*
X143372993Y-96994075D01*
X143309409Y-96977037D01*
X143941716Y-96344728D01*
X143887550Y-96305375D01*
X143698217Y-96208904D01*
X143496129Y-96143242D01*
X143286246Y-96110000D01*
X143073754Y-96110000D01*
X142863872Y-96143242D01*
X142863869Y-96143242D01*
X142661782Y-96208904D01*
X142472439Y-96305380D01*
X142418282Y-96344727D01*
X142418282Y-96344728D01*
X143050591Y-96977037D01*
X142987007Y-96994075D01*
X142872993Y-97059901D01*
X142779901Y-97152993D01*
X142714075Y-97267007D01*
X142697037Y-97330591D01*
X142064728Y-96698282D01*
X142064727Y-96698282D01*
X142025380Y-96752440D01*
X142020483Y-96762051D01*
X141972506Y-96812845D01*
X141904684Y-96829638D01*
X141838550Y-96807098D01*
X141799516Y-96762048D01*
X141794626Y-96752452D01*
X141755270Y-96698282D01*
X141755269Y-96698282D01*
X141122962Y-97330590D01*
X141105925Y-97267007D01*
X141040099Y-97152993D01*
X140947007Y-97059901D01*
X140832993Y-96994075D01*
X140769409Y-96977037D01*
X141401716Y-96344728D01*
X141347550Y-96305375D01*
X141158217Y-96208904D01*
X140956129Y-96143242D01*
X140746246Y-96110000D01*
X140533754Y-96110000D01*
X140323872Y-96143242D01*
X140323869Y-96143242D01*
X140121782Y-96208904D01*
X139932439Y-96305380D01*
X139878282Y-96344727D01*
X139878282Y-96344728D01*
X140510591Y-96977037D01*
X140447007Y-96994075D01*
X140332993Y-97059901D01*
X140239901Y-97152993D01*
X140174075Y-97267007D01*
X140157037Y-97330591D01*
X139524728Y-96698282D01*
X139524727Y-96698282D01*
X139485380Y-96752440D01*
X139485374Y-96752449D01*
X139485246Y-96752702D01*
X139485172Y-96752780D01*
X139482838Y-96756590D01*
X139482036Y-96756099D01*
X139437264Y-96803490D01*
X139369441Y-96820275D01*
X139303309Y-96797728D01*
X139264283Y-96752680D01*
X139261894Y-96747991D01*
X139136206Y-96574996D01*
X138985004Y-96423794D01*
X138979936Y-96420112D01*
X138848287Y-96324463D01*
X138805621Y-96269133D01*
X138799642Y-96199520D01*
X138806611Y-96176692D01*
X138873587Y-96015000D01*
X138908500Y-95839479D01*
X138908500Y-95660521D01*
X138873587Y-95485000D01*
X138805102Y-95319664D01*
X138797100Y-95307688D01*
X138779397Y-95281192D01*
X138758520Y-95214515D01*
X138758500Y-95212303D01*
X138758500Y-94677675D01*
X138778185Y-94610636D01*
X138794822Y-94589991D01*
X138805676Y-94579137D01*
X138805678Y-94579135D01*
X138905102Y-94430336D01*
X138973587Y-94265000D01*
X139008500Y-94089479D01*
X139008500Y-93910521D01*
X138973587Y-93735000D01*
X138905102Y-93569664D01*
X138905100Y-93569661D01*
X138905098Y-93569657D01*
X138805678Y-93420865D01*
X138805675Y-93420861D01*
X138679138Y-93294324D01*
X138679134Y-93294321D01*
X138530342Y-93194901D01*
X138530332Y-93194896D01*
X138365000Y-93126413D01*
X138364992Y-93126411D01*
X138189483Y-93091500D01*
X138189479Y-93091500D01*
X138010521Y-93091500D01*
X138010516Y-93091500D01*
X137835007Y-93126411D01*
X137834999Y-93126413D01*
X137669667Y-93194896D01*
X137669657Y-93194901D01*
X137520865Y-93294321D01*
X137520861Y-93294324D01*
X137394324Y-93420861D01*
X137394321Y-93420865D01*
X137294901Y-93569657D01*
X137294896Y-93569667D01*
X137226413Y-93734999D01*
X137226411Y-93735007D01*
X137191500Y-93910516D01*
X137191500Y-94089483D01*
X137226411Y-94264992D01*
X137226413Y-94265000D01*
X137294896Y-94430332D01*
X137294901Y-94430342D01*
X137394321Y-94579134D01*
X137394323Y-94579137D01*
X137405178Y-94589991D01*
X137438665Y-94651313D01*
X137441500Y-94677675D01*
X137441500Y-94972324D01*
X137421815Y-95039363D01*
X137405181Y-95060005D01*
X137294324Y-95170861D01*
X137294321Y-95170865D01*
X137194901Y-95319657D01*
X137194896Y-95319667D01*
X137126413Y-95484999D01*
X137126411Y-95485007D01*
X137091500Y-95660516D01*
X137091500Y-95839483D01*
X137126411Y-96014992D01*
X137126413Y-96015000D01*
X137194896Y-96180332D01*
X137194901Y-96180342D01*
X137244739Y-96254929D01*
X137265617Y-96321606D01*
X137247133Y-96388987D01*
X137218258Y-96420112D01*
X137218701Y-96420630D01*
X137214993Y-96423796D01*
X137063796Y-96574993D01*
X136938105Y-96747991D01*
X136935727Y-96751873D01*
X136883914Y-96798748D01*
X136814984Y-96810169D01*
X136750822Y-96782512D01*
X136724273Y-96751873D01*
X136721894Y-96747991D01*
X136685778Y-96698282D01*
X136596206Y-96574996D01*
X136445004Y-96423794D01*
X136272009Y-96298106D01*
X136260371Y-96292176D01*
X136081483Y-96201027D01*
X136081480Y-96201026D01*
X135878117Y-96134951D01*
X135772516Y-96118225D01*
X135666916Y-96101500D01*
X135453084Y-96101500D01*
X135382684Y-96112650D01*
X135241882Y-96134951D01*
X135038519Y-96201026D01*
X135038516Y-96201027D01*
X134847990Y-96298106D01*
X134674993Y-96423796D01*
X134523796Y-96574993D01*
X134398105Y-96747991D01*
X134395727Y-96751873D01*
X134343914Y-96798748D01*
X134274984Y-96810169D01*
X134210822Y-96782512D01*
X134184273Y-96751873D01*
X134181894Y-96747991D01*
X134145778Y-96698282D01*
X134056206Y-96574996D01*
X133905004Y-96423794D01*
X133732009Y-96298106D01*
X133720371Y-96292176D01*
X133541483Y-96201027D01*
X133541480Y-96201026D01*
X133338117Y-96134951D01*
X133232516Y-96118225D01*
X133126916Y-96101500D01*
X132913084Y-96101500D01*
X132842684Y-96112650D01*
X132701882Y-96134951D01*
X132498519Y-96201026D01*
X132498516Y-96201027D01*
X132307990Y-96298106D01*
X132134993Y-96423796D01*
X131983796Y-96574993D01*
X131858105Y-96747991D01*
X131855727Y-96751873D01*
X131803914Y-96798748D01*
X131734984Y-96810169D01*
X131670822Y-96782512D01*
X131644273Y-96751873D01*
X131641894Y-96747991D01*
X131605778Y-96698282D01*
X131516206Y-96574996D01*
X131365004Y-96423794D01*
X131192009Y-96298106D01*
X131180371Y-96292176D01*
X131001483Y-96201027D01*
X131001480Y-96201026D01*
X130798117Y-96134951D01*
X130692516Y-96118225D01*
X130586916Y-96101500D01*
X130373084Y-96101500D01*
X130302684Y-96112650D01*
X130161882Y-96134951D01*
X129958519Y-96201026D01*
X129958516Y-96201027D01*
X129767990Y-96298106D01*
X129594997Y-96423793D01*
X129489818Y-96528972D01*
X129428495Y-96562456D01*
X129358803Y-96557472D01*
X129302870Y-96515600D01*
X129285958Y-96484629D01*
X129240889Y-96363796D01*
X129153261Y-96246739D01*
X129036204Y-96159111D01*
X128899203Y-96108011D01*
X128838654Y-96101500D01*
X128838638Y-96101500D01*
X127041362Y-96101500D01*
X127041345Y-96101500D01*
X126980797Y-96108011D01*
X126980795Y-96108011D01*
X126843795Y-96159111D01*
X126726739Y-96246739D01*
X126639111Y-96363795D01*
X126588011Y-96500795D01*
X126588011Y-96500797D01*
X126581500Y-96561345D01*
X89825500Y-96561345D01*
X89825500Y-93887759D01*
X93641500Y-93887759D01*
X93641500Y-94612241D01*
X93651864Y-94677675D01*
X93668795Y-94784575D01*
X93722710Y-94950513D01*
X93722711Y-94950516D01*
X93801928Y-95105984D01*
X93904477Y-95247132D01*
X93904481Y-95247137D01*
X94027862Y-95370518D01*
X94027867Y-95370522D01*
X94150984Y-95459971D01*
X94169019Y-95473074D01*
X94270646Y-95524856D01*
X94324483Y-95552288D01*
X94324486Y-95552289D01*
X94407455Y-95579246D01*
X94490426Y-95606205D01*
X94662759Y-95633500D01*
X94662760Y-95633500D01*
X94837240Y-95633500D01*
X94837241Y-95633500D01*
X95009574Y-95606205D01*
X95175516Y-95552288D01*
X95330981Y-95473074D01*
X95472139Y-95370517D01*
X95595517Y-95247139D01*
X95654936Y-95165355D01*
X95710264Y-95122691D01*
X95779877Y-95116712D01*
X95841672Y-95149317D01*
X95855571Y-95165357D01*
X95910961Y-95241595D01*
X95910965Y-95241600D01*
X96033397Y-95364032D01*
X96173475Y-95465804D01*
X96327744Y-95544408D01*
X96492415Y-95597914D01*
X96492414Y-95597914D01*
X96499999Y-95599115D01*
X96500000Y-95599114D01*
X96500000Y-94530330D01*
X96519745Y-94550075D01*
X96605255Y-94599444D01*
X96700630Y-94625000D01*
X96799370Y-94625000D01*
X96894745Y-94599444D01*
X96980255Y-94550075D01*
X97000000Y-94530330D01*
X97000000Y-95599115D01*
X97007584Y-95597914D01*
X97172255Y-95544408D01*
X97326524Y-95465804D01*
X97466602Y-95364032D01*
X97589036Y-95241598D01*
X97644427Y-95165357D01*
X97699756Y-95122691D01*
X97769369Y-95116710D01*
X97831165Y-95149315D01*
X97845060Y-95165351D01*
X97896534Y-95236198D01*
X97904483Y-95247139D01*
X98027862Y-95370518D01*
X98027867Y-95370522D01*
X98150984Y-95459971D01*
X98169019Y-95473074D01*
X98270646Y-95524856D01*
X98324483Y-95552288D01*
X98324486Y-95552289D01*
X98407455Y-95579246D01*
X98490426Y-95606205D01*
X98662759Y-95633500D01*
X98662760Y-95633500D01*
X98837240Y-95633500D01*
X98837241Y-95633500D01*
X99009574Y-95606205D01*
X99175516Y-95552288D01*
X99330981Y-95473074D01*
X99472139Y-95370517D01*
X99595517Y-95247139D01*
X99620827Y-95212303D01*
X99649682Y-95172588D01*
X99705011Y-95129922D01*
X99774625Y-95123943D01*
X99836420Y-95156548D01*
X99850318Y-95172588D01*
X99904477Y-95247132D01*
X99904481Y-95247137D01*
X100027862Y-95370518D01*
X100027867Y-95370522D01*
X100150984Y-95459971D01*
X100169019Y-95473074D01*
X100270646Y-95524856D01*
X100324483Y-95552288D01*
X100324486Y-95552289D01*
X100407455Y-95579246D01*
X100490426Y-95606205D01*
X100662759Y-95633500D01*
X100662760Y-95633500D01*
X100837240Y-95633500D01*
X100837241Y-95633500D01*
X101009574Y-95606205D01*
X101175516Y-95552288D01*
X101330981Y-95473074D01*
X101472139Y-95370517D01*
X101595517Y-95247139D01*
X101620827Y-95212303D01*
X101649682Y-95172588D01*
X101705011Y-95129922D01*
X101774625Y-95123943D01*
X101836420Y-95156548D01*
X101850318Y-95172588D01*
X101904477Y-95247132D01*
X101904481Y-95247137D01*
X102027862Y-95370518D01*
X102027867Y-95370522D01*
X102150984Y-95459971D01*
X102169019Y-95473074D01*
X102270646Y-95524856D01*
X102324483Y-95552288D01*
X102324486Y-95552289D01*
X102407455Y-95579246D01*
X102490426Y-95606205D01*
X102662759Y-95633500D01*
X102662760Y-95633500D01*
X102837240Y-95633500D01*
X102837241Y-95633500D01*
X103009574Y-95606205D01*
X103175516Y-95552288D01*
X103330981Y-95473074D01*
X103472139Y-95370517D01*
X103572975Y-95269680D01*
X103634294Y-95236198D01*
X103703986Y-95241182D01*
X103759920Y-95283053D01*
X103766184Y-95292255D01*
X103800970Y-95348652D01*
X103926348Y-95474030D01*
X104077262Y-95567115D01*
X104245574Y-95622887D01*
X104349455Y-95633500D01*
X105150544Y-95633499D01*
X105254426Y-95622887D01*
X105422738Y-95567115D01*
X105573652Y-95474030D01*
X105699030Y-95348652D01*
X105792115Y-95197738D01*
X105847887Y-95029426D01*
X105858500Y-94925545D01*
X105858499Y-93574456D01*
X105847887Y-93470574D01*
X105792115Y-93302262D01*
X105699030Y-93151348D01*
X105573652Y-93025970D01*
X105422738Y-92932885D01*
X105422735Y-92932884D01*
X105254427Y-92877113D01*
X105150546Y-92866500D01*
X104349462Y-92866500D01*
X104349446Y-92866501D01*
X104245572Y-92877113D01*
X104077264Y-92932884D01*
X104077259Y-92932886D01*
X103926346Y-93025971D01*
X103800970Y-93151347D01*
X103800967Y-93151351D01*
X103766191Y-93207732D01*
X103714243Y-93254457D01*
X103645280Y-93265678D01*
X103581198Y-93237835D01*
X103572972Y-93230316D01*
X103472137Y-93129481D01*
X103472132Y-93129477D01*
X103330984Y-93026928D01*
X103330983Y-93026927D01*
X103330981Y-93026926D01*
X103281175Y-93001548D01*
X103175516Y-92947711D01*
X103175513Y-92947710D01*
X103009575Y-92893795D01*
X102923407Y-92880147D01*
X102837241Y-92866500D01*
X102662759Y-92866500D01*
X102605314Y-92875598D01*
X102490424Y-92893795D01*
X102324486Y-92947710D01*
X102324483Y-92947711D01*
X102169015Y-93026928D01*
X102027867Y-93129477D01*
X102027862Y-93129481D01*
X101904481Y-93252862D01*
X101850318Y-93327412D01*
X101794988Y-93370077D01*
X101725375Y-93376056D01*
X101663580Y-93343450D01*
X101649682Y-93327412D01*
X101595518Y-93252862D01*
X101472137Y-93129481D01*
X101472132Y-93129477D01*
X101330984Y-93026928D01*
X101330983Y-93026927D01*
X101330981Y-93026926D01*
X101281175Y-93001548D01*
X101175516Y-92947711D01*
X101175513Y-92947710D01*
X101009575Y-92893795D01*
X100923407Y-92880147D01*
X100837241Y-92866500D01*
X100662759Y-92866500D01*
X100605314Y-92875598D01*
X100490424Y-92893795D01*
X100324486Y-92947710D01*
X100324483Y-92947711D01*
X100169015Y-93026928D01*
X100027867Y-93129477D01*
X100027862Y-93129481D01*
X99904481Y-93252862D01*
X99850318Y-93327412D01*
X99794988Y-93370077D01*
X99725375Y-93376056D01*
X99663580Y-93343450D01*
X99649682Y-93327412D01*
X99595518Y-93252862D01*
X99472137Y-93129481D01*
X99472132Y-93129477D01*
X99330984Y-93026928D01*
X99330983Y-93026927D01*
X99330981Y-93026926D01*
X99281175Y-93001548D01*
X99175516Y-92947711D01*
X99175513Y-92947710D01*
X99009575Y-92893795D01*
X98923407Y-92880147D01*
X98837241Y-92866500D01*
X98662759Y-92866500D01*
X98605314Y-92875598D01*
X98490424Y-92893795D01*
X98324486Y-92947710D01*
X98324483Y-92947711D01*
X98169015Y-93026928D01*
X98027867Y-93129477D01*
X98027862Y-93129481D01*
X97904481Y-93252862D01*
X97845064Y-93334643D01*
X97789734Y-93377308D01*
X97720120Y-93383287D01*
X97658325Y-93350681D01*
X97644428Y-93334642D01*
X97589038Y-93258403D01*
X97466602Y-93135967D01*
X97326524Y-93034195D01*
X97172257Y-92955591D01*
X97007589Y-92902087D01*
X97007581Y-92902085D01*
X97000000Y-92900884D01*
X97000000Y-93969670D01*
X96980255Y-93949925D01*
X96894745Y-93900556D01*
X96799370Y-93875000D01*
X96700630Y-93875000D01*
X96605255Y-93900556D01*
X96519745Y-93949925D01*
X96500000Y-93969670D01*
X96500000Y-92900884D01*
X96499999Y-92900884D01*
X96492418Y-92902085D01*
X96492410Y-92902087D01*
X96327742Y-92955591D01*
X96173475Y-93034195D01*
X96033397Y-93135967D01*
X95910965Y-93258399D01*
X95855571Y-93334643D01*
X95800241Y-93377308D01*
X95730627Y-93383287D01*
X95668832Y-93350681D01*
X95654935Y-93334642D01*
X95595522Y-93252867D01*
X95595518Y-93252862D01*
X95472137Y-93129481D01*
X95472132Y-93129477D01*
X95330984Y-93026928D01*
X95330983Y-93026927D01*
X95330981Y-93026926D01*
X95281175Y-93001548D01*
X95175516Y-92947711D01*
X95175513Y-92947710D01*
X95009575Y-92893795D01*
X94923407Y-92880147D01*
X94837241Y-92866500D01*
X94662759Y-92866500D01*
X94605314Y-92875598D01*
X94490424Y-92893795D01*
X94324486Y-92947710D01*
X94324483Y-92947711D01*
X94169015Y-93026928D01*
X94027867Y-93129477D01*
X94027862Y-93129481D01*
X93904481Y-93252862D01*
X93904477Y-93252867D01*
X93801928Y-93394015D01*
X93722711Y-93549483D01*
X93722710Y-93549486D01*
X93668795Y-93715424D01*
X93663498Y-93748867D01*
X93641500Y-93887759D01*
X89825500Y-93887759D01*
X89825500Y-89660516D01*
X113841500Y-89660516D01*
X113841500Y-89839483D01*
X113876411Y-90014992D01*
X113876413Y-90015000D01*
X113944896Y-90180332D01*
X113944901Y-90180342D01*
X114020602Y-90293635D01*
X114041480Y-90360312D01*
X114041500Y-90362526D01*
X114041500Y-91319786D01*
X114068724Y-91456653D01*
X114068727Y-91456662D01*
X114122135Y-91585601D01*
X114122136Y-91585604D01*
X114199671Y-91701642D01*
X114199674Y-91701646D01*
X115505181Y-93007152D01*
X115538666Y-93068475D01*
X115541500Y-93094833D01*
X115541500Y-93637474D01*
X115521815Y-93704513D01*
X115520626Y-93706327D01*
X115501469Y-93734999D01*
X115444897Y-93819664D01*
X115376413Y-93984999D01*
X115376411Y-93985007D01*
X115341500Y-94160516D01*
X115341500Y-94339483D01*
X115376411Y-94514992D01*
X115376413Y-94515000D01*
X115444896Y-94680332D01*
X115444901Y-94680342D01*
X115544321Y-94829134D01*
X115544324Y-94829138D01*
X115670861Y-94955675D01*
X115670865Y-94955678D01*
X115819657Y-95055098D01*
X115819661Y-95055100D01*
X115819664Y-95055102D01*
X115985000Y-95123587D01*
X116114355Y-95149317D01*
X116160516Y-95158499D01*
X116160520Y-95158500D01*
X116160521Y-95158500D01*
X116339480Y-95158500D01*
X116339481Y-95158499D01*
X116515000Y-95123587D01*
X116680336Y-95055102D01*
X116829135Y-94955678D01*
X116955678Y-94829135D01*
X117055102Y-94680336D01*
X117123587Y-94515000D01*
X117158500Y-94339479D01*
X117158500Y-94160521D01*
X117123587Y-93985000D01*
X117055102Y-93819664D01*
X116979397Y-93706363D01*
X116958520Y-93639687D01*
X116958500Y-93637474D01*
X116958500Y-92680218D01*
X116958499Y-92680214D01*
X116931274Y-92543344D01*
X116931273Y-92543338D01*
X116899986Y-92467807D01*
X116877865Y-92414399D01*
X116811104Y-92314485D01*
X116811101Y-92314479D01*
X116800329Y-92298358D01*
X116800325Y-92298353D01*
X116756010Y-92254038D01*
X164439500Y-92254038D01*
X164439500Y-92505961D01*
X164478910Y-92754785D01*
X164556760Y-92994383D01*
X164625595Y-93129477D01*
X164658928Y-93194898D01*
X164671132Y-93218848D01*
X164819201Y-93422649D01*
X164819205Y-93422654D01*
X164997345Y-93600794D01*
X164997350Y-93600798D01*
X165140103Y-93704513D01*
X165201155Y-93748870D01*
X165340096Y-93819664D01*
X165425616Y-93863239D01*
X165425618Y-93863239D01*
X165425621Y-93863241D01*
X165665215Y-93941090D01*
X165914038Y-93980500D01*
X165914039Y-93980500D01*
X166165961Y-93980500D01*
X166165962Y-93980500D01*
X166414785Y-93941090D01*
X166654379Y-93863241D01*
X166878845Y-93748870D01*
X167082656Y-93600793D01*
X167260793Y-93422656D01*
X167408870Y-93218845D01*
X167523241Y-92994379D01*
X167601090Y-92754785D01*
X167640500Y-92505962D01*
X167640500Y-92254038D01*
X167601090Y-92005215D01*
X167523241Y-91765621D01*
X167523239Y-91765618D01*
X167523239Y-91765616D01*
X167481747Y-91684184D01*
X167408870Y-91541155D01*
X167389952Y-91515117D01*
X167260798Y-91337350D01*
X167260794Y-91337345D01*
X167082654Y-91159205D01*
X167082649Y-91159201D01*
X166878848Y-91011132D01*
X166878847Y-91011131D01*
X166878845Y-91011130D01*
X166808747Y-90975413D01*
X166654383Y-90896760D01*
X166414785Y-90818910D01*
X166165962Y-90779500D01*
X165914038Y-90779500D01*
X165789626Y-90799205D01*
X165665214Y-90818910D01*
X165425616Y-90896760D01*
X165201151Y-91011132D01*
X164997350Y-91159201D01*
X164997345Y-91159205D01*
X164819205Y-91337345D01*
X164819201Y-91337350D01*
X164671132Y-91541151D01*
X164556760Y-91765616D01*
X164478910Y-92005214D01*
X164439500Y-92254038D01*
X116756010Y-92254038D01*
X115494819Y-90992847D01*
X115461334Y-90931524D01*
X115458500Y-90905166D01*
X115458500Y-90362526D01*
X115478185Y-90295487D01*
X115479398Y-90293635D01*
X115555098Y-90180342D01*
X115555098Y-90180341D01*
X115555102Y-90180336D01*
X115623587Y-90015000D01*
X115658500Y-89839479D01*
X115658500Y-89660521D01*
X115623587Y-89485000D01*
X115555102Y-89319664D01*
X115555100Y-89319661D01*
X115555098Y-89319657D01*
X115455678Y-89170865D01*
X115455675Y-89170861D01*
X115329138Y-89044324D01*
X115329134Y-89044321D01*
X115180342Y-88944901D01*
X115180332Y-88944896D01*
X115015000Y-88876413D01*
X115014992Y-88876411D01*
X114839483Y-88841500D01*
X114839479Y-88841500D01*
X114660521Y-88841500D01*
X114660516Y-88841500D01*
X114485007Y-88876411D01*
X114484999Y-88876413D01*
X114319667Y-88944896D01*
X114319657Y-88944901D01*
X114170865Y-89044321D01*
X114170861Y-89044324D01*
X114044324Y-89170861D01*
X114044321Y-89170865D01*
X113944901Y-89319657D01*
X113944896Y-89319667D01*
X113876413Y-89484999D01*
X113876411Y-89485007D01*
X113841500Y-89660516D01*
X89825500Y-89660516D01*
X89825500Y-87487759D01*
X93591500Y-87487759D01*
X93591500Y-88212240D01*
X93618795Y-88384575D01*
X93672710Y-88550513D01*
X93672711Y-88550516D01*
X93751928Y-88705984D01*
X93854477Y-88847132D01*
X93854481Y-88847137D01*
X93977862Y-88970518D01*
X93977867Y-88970522D01*
X94079444Y-89044321D01*
X94119019Y-89073074D01*
X94220646Y-89124856D01*
X94274483Y-89152288D01*
X94274486Y-89152289D01*
X94331659Y-89170865D01*
X94440426Y-89206205D01*
X94612759Y-89233500D01*
X94612760Y-89233500D01*
X94787240Y-89233500D01*
X94787241Y-89233500D01*
X94959574Y-89206205D01*
X95125516Y-89152288D01*
X95280981Y-89073074D01*
X95422139Y-88970517D01*
X95545517Y-88847139D01*
X95604936Y-88765355D01*
X95660264Y-88722691D01*
X95729877Y-88716712D01*
X95791672Y-88749317D01*
X95805571Y-88765357D01*
X95860961Y-88841595D01*
X95860965Y-88841600D01*
X95983397Y-88964032D01*
X96123475Y-89065804D01*
X96277744Y-89144408D01*
X96442415Y-89197914D01*
X96442414Y-89197914D01*
X96449999Y-89199115D01*
X96450000Y-89199114D01*
X96450000Y-88130330D01*
X96469745Y-88150075D01*
X96555255Y-88199444D01*
X96650630Y-88225000D01*
X96749370Y-88225000D01*
X96844745Y-88199444D01*
X96930255Y-88150075D01*
X96950000Y-88130330D01*
X96950000Y-89199115D01*
X96957584Y-89197914D01*
X97122255Y-89144408D01*
X97276524Y-89065804D01*
X97416602Y-88964032D01*
X97539036Y-88841598D01*
X97594427Y-88765357D01*
X97649756Y-88722691D01*
X97719369Y-88716710D01*
X97781165Y-88749315D01*
X97795060Y-88765351D01*
X97818593Y-88797740D01*
X97854483Y-88847139D01*
X97977862Y-88970518D01*
X97977867Y-88970522D01*
X98079444Y-89044321D01*
X98119019Y-89073074D01*
X98220646Y-89124856D01*
X98274483Y-89152288D01*
X98274486Y-89152289D01*
X98331659Y-89170865D01*
X98440426Y-89206205D01*
X98612759Y-89233500D01*
X98612760Y-89233500D01*
X98787240Y-89233500D01*
X98787241Y-89233500D01*
X98959574Y-89206205D01*
X99125516Y-89152288D01*
X99280981Y-89073074D01*
X99422139Y-88970517D01*
X99545517Y-88847139D01*
X99553466Y-88836198D01*
X99599682Y-88772588D01*
X99655011Y-88729922D01*
X99724625Y-88723943D01*
X99786420Y-88756548D01*
X99800318Y-88772588D01*
X99854477Y-88847132D01*
X99854481Y-88847137D01*
X99977862Y-88970518D01*
X99977867Y-88970522D01*
X100079444Y-89044321D01*
X100119019Y-89073074D01*
X100220646Y-89124856D01*
X100274483Y-89152288D01*
X100274486Y-89152289D01*
X100331659Y-89170865D01*
X100440426Y-89206205D01*
X100612759Y-89233500D01*
X100612760Y-89233500D01*
X100787240Y-89233500D01*
X100787241Y-89233500D01*
X100959574Y-89206205D01*
X101125516Y-89152288D01*
X101280981Y-89073074D01*
X101422139Y-88970517D01*
X101545517Y-88847139D01*
X101553466Y-88836198D01*
X101599682Y-88772588D01*
X101655011Y-88729922D01*
X101724625Y-88723943D01*
X101786420Y-88756548D01*
X101800318Y-88772588D01*
X101854477Y-88847132D01*
X101854481Y-88847137D01*
X101977862Y-88970518D01*
X101977867Y-88970522D01*
X102079444Y-89044321D01*
X102119019Y-89073074D01*
X102220646Y-89124856D01*
X102274483Y-89152288D01*
X102274486Y-89152289D01*
X102331659Y-89170865D01*
X102440426Y-89206205D01*
X102612759Y-89233500D01*
X102612760Y-89233500D01*
X102787240Y-89233500D01*
X102787241Y-89233500D01*
X102959574Y-89206205D01*
X103125516Y-89152288D01*
X103280981Y-89073074D01*
X103422139Y-88970517D01*
X103522975Y-88869680D01*
X103584294Y-88836198D01*
X103653986Y-88841182D01*
X103709920Y-88883053D01*
X103716184Y-88892255D01*
X103750970Y-88948652D01*
X103876348Y-89074030D01*
X104027262Y-89167115D01*
X104195574Y-89222887D01*
X104299455Y-89233500D01*
X105100544Y-89233499D01*
X105204426Y-89222887D01*
X105372738Y-89167115D01*
X105523652Y-89074030D01*
X105649030Y-88948652D01*
X105742115Y-88797738D01*
X105797887Y-88629426D01*
X105808500Y-88525545D01*
X105808499Y-87174456D01*
X105797887Y-87070574D01*
X105742115Y-86902262D01*
X105649030Y-86751348D01*
X105523652Y-86625970D01*
X105372738Y-86532885D01*
X105372735Y-86532884D01*
X105204427Y-86477113D01*
X105100546Y-86466500D01*
X104299462Y-86466500D01*
X104299446Y-86466501D01*
X104195572Y-86477113D01*
X104027264Y-86532884D01*
X104027259Y-86532886D01*
X103876346Y-86625971D01*
X103750970Y-86751347D01*
X103750967Y-86751351D01*
X103716191Y-86807732D01*
X103664243Y-86854457D01*
X103595280Y-86865678D01*
X103531198Y-86837835D01*
X103522972Y-86830316D01*
X103422137Y-86729481D01*
X103422132Y-86729477D01*
X103280984Y-86626928D01*
X103280983Y-86626927D01*
X103280981Y-86626926D01*
X103231175Y-86601548D01*
X103125516Y-86547711D01*
X103125513Y-86547710D01*
X102959575Y-86493795D01*
X102873407Y-86480147D01*
X102787241Y-86466500D01*
X102612759Y-86466500D01*
X102555314Y-86475598D01*
X102440424Y-86493795D01*
X102274486Y-86547710D01*
X102274483Y-86547711D01*
X102119015Y-86626928D01*
X101977867Y-86729477D01*
X101977862Y-86729481D01*
X101854481Y-86852862D01*
X101800318Y-86927412D01*
X101744988Y-86970077D01*
X101675375Y-86976056D01*
X101613580Y-86943450D01*
X101599682Y-86927412D01*
X101545518Y-86852862D01*
X101422137Y-86729481D01*
X101422132Y-86729477D01*
X101280984Y-86626928D01*
X101280983Y-86626927D01*
X101280981Y-86626926D01*
X101231175Y-86601548D01*
X101125516Y-86547711D01*
X101125513Y-86547710D01*
X100959575Y-86493795D01*
X100873407Y-86480147D01*
X100787241Y-86466500D01*
X100612759Y-86466500D01*
X100555314Y-86475598D01*
X100440424Y-86493795D01*
X100274486Y-86547710D01*
X100274483Y-86547711D01*
X100119015Y-86626928D01*
X99977867Y-86729477D01*
X99977862Y-86729481D01*
X99854481Y-86852862D01*
X99800318Y-86927412D01*
X99744988Y-86970077D01*
X99675375Y-86976056D01*
X99613580Y-86943450D01*
X99599682Y-86927412D01*
X99545518Y-86852862D01*
X99422137Y-86729481D01*
X99422132Y-86729477D01*
X99280984Y-86626928D01*
X99280983Y-86626927D01*
X99280981Y-86626926D01*
X99231175Y-86601548D01*
X99125516Y-86547711D01*
X99125513Y-86547710D01*
X98959575Y-86493795D01*
X98873407Y-86480147D01*
X98787241Y-86466500D01*
X98612759Y-86466500D01*
X98555314Y-86475598D01*
X98440424Y-86493795D01*
X98274486Y-86547710D01*
X98274483Y-86547711D01*
X98119015Y-86626928D01*
X97977867Y-86729477D01*
X97977862Y-86729481D01*
X97854481Y-86852862D01*
X97795064Y-86934643D01*
X97739734Y-86977308D01*
X97670120Y-86983287D01*
X97608325Y-86950681D01*
X97594428Y-86934642D01*
X97539038Y-86858403D01*
X97416602Y-86735967D01*
X97276524Y-86634195D01*
X97122257Y-86555591D01*
X96957589Y-86502087D01*
X96957581Y-86502085D01*
X96950000Y-86500884D01*
X96950000Y-87569670D01*
X96930255Y-87549925D01*
X96844745Y-87500556D01*
X96749370Y-87475000D01*
X96650630Y-87475000D01*
X96555255Y-87500556D01*
X96469745Y-87549925D01*
X96450000Y-87569670D01*
X96450000Y-86500884D01*
X96449999Y-86500884D01*
X96442418Y-86502085D01*
X96442410Y-86502087D01*
X96277742Y-86555591D01*
X96123475Y-86634195D01*
X95983397Y-86735967D01*
X95860965Y-86858399D01*
X95805571Y-86934643D01*
X95750241Y-86977308D01*
X95680627Y-86983287D01*
X95618832Y-86950681D01*
X95604935Y-86934642D01*
X95545522Y-86852867D01*
X95545518Y-86852862D01*
X95422137Y-86729481D01*
X95422132Y-86729477D01*
X95280984Y-86626928D01*
X95280983Y-86626927D01*
X95280981Y-86626926D01*
X95231175Y-86601548D01*
X95125516Y-86547711D01*
X95125513Y-86547710D01*
X94959575Y-86493795D01*
X94873407Y-86480147D01*
X94787241Y-86466500D01*
X94612759Y-86466500D01*
X94555314Y-86475598D01*
X94440424Y-86493795D01*
X94274486Y-86547710D01*
X94274483Y-86547711D01*
X94119015Y-86626928D01*
X93977867Y-86729477D01*
X93977862Y-86729481D01*
X93854481Y-86852862D01*
X93854477Y-86852867D01*
X93751928Y-86994015D01*
X93672711Y-87149483D01*
X93672710Y-87149486D01*
X93618795Y-87315424D01*
X93591500Y-87487759D01*
X89825500Y-87487759D01*
X89825500Y-80887759D01*
X93641500Y-80887759D01*
X93641500Y-81612241D01*
X93655147Y-81698407D01*
X93668795Y-81784575D01*
X93722710Y-81950513D01*
X93722711Y-81950516D01*
X93801928Y-82105984D01*
X93904477Y-82247132D01*
X93904481Y-82247137D01*
X94027862Y-82370518D01*
X94027867Y-82370522D01*
X94150984Y-82459971D01*
X94169019Y-82473074D01*
X94270646Y-82524856D01*
X94324483Y-82552288D01*
X94324486Y-82552289D01*
X94407455Y-82579246D01*
X94490426Y-82606205D01*
X94662759Y-82633500D01*
X94662760Y-82633500D01*
X94837240Y-82633500D01*
X94837241Y-82633500D01*
X95009574Y-82606205D01*
X95175516Y-82552288D01*
X95330981Y-82473074D01*
X95472139Y-82370517D01*
X95595517Y-82247139D01*
X95654936Y-82165355D01*
X95710264Y-82122691D01*
X95779877Y-82116712D01*
X95841672Y-82149317D01*
X95855571Y-82165357D01*
X95910961Y-82241595D01*
X95910965Y-82241600D01*
X96033397Y-82364032D01*
X96173475Y-82465804D01*
X96327744Y-82544408D01*
X96492415Y-82597914D01*
X96492414Y-82597914D01*
X96499999Y-82599115D01*
X96500000Y-82599114D01*
X96500000Y-81530330D01*
X96519745Y-81550075D01*
X96605255Y-81599444D01*
X96700630Y-81625000D01*
X96799370Y-81625000D01*
X96894745Y-81599444D01*
X96980255Y-81550075D01*
X97000000Y-81530330D01*
X97000000Y-82599115D01*
X97007584Y-82597914D01*
X97172255Y-82544408D01*
X97326524Y-82465804D01*
X97466602Y-82364032D01*
X97589036Y-82241598D01*
X97644427Y-82165357D01*
X97699756Y-82122691D01*
X97769369Y-82116710D01*
X97831165Y-82149315D01*
X97845060Y-82165351D01*
X97868593Y-82197740D01*
X97904483Y-82247139D01*
X98027862Y-82370518D01*
X98027867Y-82370522D01*
X98150984Y-82459971D01*
X98169019Y-82473074D01*
X98270646Y-82524856D01*
X98324483Y-82552288D01*
X98324486Y-82552289D01*
X98407455Y-82579246D01*
X98490426Y-82606205D01*
X98662759Y-82633500D01*
X98662760Y-82633500D01*
X98837240Y-82633500D01*
X98837241Y-82633500D01*
X99009574Y-82606205D01*
X99175516Y-82552288D01*
X99330981Y-82473074D01*
X99472139Y-82370517D01*
X99595517Y-82247139D01*
X99603466Y-82236198D01*
X99649682Y-82172588D01*
X99705011Y-82129922D01*
X99774625Y-82123943D01*
X99836420Y-82156548D01*
X99850318Y-82172588D01*
X99904477Y-82247132D01*
X99904481Y-82247137D01*
X100027862Y-82370518D01*
X100027867Y-82370522D01*
X100150984Y-82459971D01*
X100169019Y-82473074D01*
X100270646Y-82524856D01*
X100324483Y-82552288D01*
X100324486Y-82552289D01*
X100407455Y-82579246D01*
X100490426Y-82606205D01*
X100662759Y-82633500D01*
X100662760Y-82633500D01*
X100837240Y-82633500D01*
X100837241Y-82633500D01*
X101009574Y-82606205D01*
X101175516Y-82552288D01*
X101330981Y-82473074D01*
X101472139Y-82370517D01*
X101595517Y-82247139D01*
X101603466Y-82236198D01*
X101649682Y-82172588D01*
X101705011Y-82129922D01*
X101774625Y-82123943D01*
X101836420Y-82156548D01*
X101850318Y-82172588D01*
X101904477Y-82247132D01*
X101904481Y-82247137D01*
X102027862Y-82370518D01*
X102027867Y-82370522D01*
X102150984Y-82459971D01*
X102169019Y-82473074D01*
X102270646Y-82524856D01*
X102324483Y-82552288D01*
X102324486Y-82552289D01*
X102407455Y-82579246D01*
X102490426Y-82606205D01*
X102662759Y-82633500D01*
X102662760Y-82633500D01*
X102837240Y-82633500D01*
X102837241Y-82633500D01*
X103009574Y-82606205D01*
X103175516Y-82552288D01*
X103330981Y-82473074D01*
X103472139Y-82370517D01*
X103572975Y-82269680D01*
X103634294Y-82236198D01*
X103703986Y-82241182D01*
X103759920Y-82283053D01*
X103766184Y-82292255D01*
X103800970Y-82348652D01*
X103926348Y-82474030D01*
X104077262Y-82567115D01*
X104245574Y-82622887D01*
X104349455Y-82633500D01*
X105150544Y-82633499D01*
X105254426Y-82622887D01*
X105422738Y-82567115D01*
X105573652Y-82474030D01*
X105699030Y-82348652D01*
X105792115Y-82197738D01*
X105847887Y-82029426D01*
X105858500Y-81925545D01*
X105858499Y-80574456D01*
X105847887Y-80470574D01*
X105792115Y-80302262D01*
X105792111Y-80302256D01*
X105792110Y-80302253D01*
X105741084Y-80219528D01*
X105741083Y-80219527D01*
X105704685Y-80160516D01*
X129591500Y-80160516D01*
X129591500Y-80339483D01*
X129626411Y-80514992D01*
X129626413Y-80515000D01*
X129694896Y-80680332D01*
X129694901Y-80680342D01*
X129794321Y-80829134D01*
X129794324Y-80829138D01*
X129920861Y-80955675D01*
X129920865Y-80955678D01*
X130069657Y-81055098D01*
X130069661Y-81055100D01*
X130069664Y-81055102D01*
X130235000Y-81123587D01*
X130410516Y-81158499D01*
X130410520Y-81158500D01*
X130410521Y-81158500D01*
X130589480Y-81158500D01*
X130589481Y-81158499D01*
X130765000Y-81123587D01*
X130899345Y-81067938D01*
X130946798Y-81058500D01*
X132613746Y-81058500D01*
X132680785Y-81078185D01*
X132701427Y-81094819D01*
X133234607Y-81628000D01*
X133234610Y-81628003D01*
X133350855Y-81705675D01*
X133367032Y-81716484D01*
X133395761Y-81728383D01*
X133469485Y-81758921D01*
X133514169Y-81777430D01*
X133653267Y-81805098D01*
X133670365Y-81808499D01*
X133670369Y-81808500D01*
X133670370Y-81808500D01*
X134303202Y-81808500D01*
X134350654Y-81817938D01*
X134485000Y-81873587D01*
X134660516Y-81908499D01*
X134660520Y-81908500D01*
X134660521Y-81908500D01*
X134839480Y-81908500D01*
X134839481Y-81908499D01*
X135015000Y-81873587D01*
X135180336Y-81805102D01*
X135329135Y-81705678D01*
X135455678Y-81579135D01*
X135555102Y-81430336D01*
X135623587Y-81265000D01*
X135658500Y-81089479D01*
X135658500Y-80910521D01*
X135623587Y-80735000D01*
X135555102Y-80569664D01*
X135555100Y-80569661D01*
X135555098Y-80569657D01*
X135455678Y-80420865D01*
X135455675Y-80420861D01*
X135329138Y-80294324D01*
X135329134Y-80294321D01*
X135180342Y-80194901D01*
X135180332Y-80194896D01*
X135015000Y-80126413D01*
X135014992Y-80126411D01*
X134839483Y-80091500D01*
X134839479Y-80091500D01*
X134660521Y-80091500D01*
X134660516Y-80091500D01*
X134485007Y-80126411D01*
X134484999Y-80126413D01*
X134350655Y-80182061D01*
X134342477Y-80183687D01*
X134338137Y-80186477D01*
X134303202Y-80191500D01*
X134136254Y-80191500D01*
X134069215Y-80171815D01*
X134048573Y-80155181D01*
X133515392Y-79621999D01*
X133515388Y-79621996D01*
X133382974Y-79533519D01*
X133382970Y-79533517D01*
X133382968Y-79533516D01*
X133309399Y-79503043D01*
X133309397Y-79503042D01*
X133309396Y-79503041D01*
X133235831Y-79472570D01*
X133235823Y-79472568D01*
X133079634Y-79441500D01*
X133079630Y-79441500D01*
X130946798Y-79441500D01*
X130899345Y-79432061D01*
X130765000Y-79376413D01*
X130764992Y-79376411D01*
X130589483Y-79341500D01*
X130589479Y-79341500D01*
X130410521Y-79341500D01*
X130410516Y-79341500D01*
X130235007Y-79376411D01*
X130234999Y-79376413D01*
X130069667Y-79444896D01*
X130069657Y-79444901D01*
X129920865Y-79544321D01*
X129920861Y-79544324D01*
X129794324Y-79670861D01*
X129794321Y-79670865D01*
X129694901Y-79819657D01*
X129694896Y-79819667D01*
X129626413Y-79984999D01*
X129626411Y-79985007D01*
X129591500Y-80160516D01*
X105704685Y-80160516D01*
X105699030Y-80151348D01*
X105573652Y-80025970D01*
X105422738Y-79932885D01*
X105422735Y-79932884D01*
X105254427Y-79877113D01*
X105150546Y-79866500D01*
X104349462Y-79866500D01*
X104349446Y-79866501D01*
X104245572Y-79877113D01*
X104077264Y-79932884D01*
X104077259Y-79932886D01*
X103926346Y-80025971D01*
X103800970Y-80151347D01*
X103800967Y-80151351D01*
X103766191Y-80207732D01*
X103714243Y-80254457D01*
X103645280Y-80265678D01*
X103581198Y-80237835D01*
X103572972Y-80230316D01*
X103472137Y-80129481D01*
X103472132Y-80129477D01*
X103330984Y-80026928D01*
X103330983Y-80026927D01*
X103330981Y-80026926D01*
X103281175Y-80001548D01*
X103175516Y-79947711D01*
X103175513Y-79947710D01*
X103009575Y-79893795D01*
X102923407Y-79880147D01*
X102837241Y-79866500D01*
X102662759Y-79866500D01*
X102605314Y-79875598D01*
X102490424Y-79893795D01*
X102324486Y-79947710D01*
X102324483Y-79947711D01*
X102169015Y-80026928D01*
X102027867Y-80129477D01*
X102027862Y-80129481D01*
X101904481Y-80252862D01*
X101850318Y-80327412D01*
X101794988Y-80370077D01*
X101725375Y-80376056D01*
X101663580Y-80343450D01*
X101649682Y-80327412D01*
X101595518Y-80252862D01*
X101472137Y-80129481D01*
X101472132Y-80129477D01*
X101330984Y-80026928D01*
X101330983Y-80026927D01*
X101330981Y-80026926D01*
X101281175Y-80001548D01*
X101175516Y-79947711D01*
X101175513Y-79947710D01*
X101009575Y-79893795D01*
X100923407Y-79880147D01*
X100837241Y-79866500D01*
X100662759Y-79866500D01*
X100605314Y-79875598D01*
X100490424Y-79893795D01*
X100324486Y-79947710D01*
X100324483Y-79947711D01*
X100169015Y-80026928D01*
X100027867Y-80129477D01*
X100027862Y-80129481D01*
X99904481Y-80252862D01*
X99850318Y-80327412D01*
X99794988Y-80370077D01*
X99725375Y-80376056D01*
X99663580Y-80343450D01*
X99649682Y-80327412D01*
X99595518Y-80252862D01*
X99472137Y-80129481D01*
X99472132Y-80129477D01*
X99330984Y-80026928D01*
X99330983Y-80026927D01*
X99330981Y-80026926D01*
X99281175Y-80001548D01*
X99175516Y-79947711D01*
X99175513Y-79947710D01*
X99009575Y-79893795D01*
X98923407Y-79880147D01*
X98837241Y-79866500D01*
X98662759Y-79866500D01*
X98605314Y-79875598D01*
X98490424Y-79893795D01*
X98324486Y-79947710D01*
X98324483Y-79947711D01*
X98169015Y-80026928D01*
X98027867Y-80129477D01*
X98027862Y-80129481D01*
X97904481Y-80252862D01*
X97845064Y-80334643D01*
X97789734Y-80377308D01*
X97720120Y-80383287D01*
X97658325Y-80350681D01*
X97644428Y-80334642D01*
X97589038Y-80258403D01*
X97466602Y-80135967D01*
X97326524Y-80034195D01*
X97172257Y-79955591D01*
X97007589Y-79902087D01*
X97007581Y-79902085D01*
X97000000Y-79900884D01*
X97000000Y-80969670D01*
X96980255Y-80949925D01*
X96894745Y-80900556D01*
X96799370Y-80875000D01*
X96700630Y-80875000D01*
X96605255Y-80900556D01*
X96519745Y-80949925D01*
X96500000Y-80969670D01*
X96500000Y-79900884D01*
X96499999Y-79900884D01*
X96492418Y-79902085D01*
X96492410Y-79902087D01*
X96327742Y-79955591D01*
X96173475Y-80034195D01*
X96033397Y-80135967D01*
X95910965Y-80258399D01*
X95855571Y-80334643D01*
X95800241Y-80377308D01*
X95730627Y-80383287D01*
X95668832Y-80350681D01*
X95654935Y-80334642D01*
X95595522Y-80252867D01*
X95595518Y-80252862D01*
X95472137Y-80129481D01*
X95472132Y-80129477D01*
X95330984Y-80026928D01*
X95330983Y-80026927D01*
X95330981Y-80026926D01*
X95281175Y-80001548D01*
X95175516Y-79947711D01*
X95175513Y-79947710D01*
X95009575Y-79893795D01*
X94923407Y-79880147D01*
X94837241Y-79866500D01*
X94662759Y-79866500D01*
X94605314Y-79875598D01*
X94490424Y-79893795D01*
X94324486Y-79947710D01*
X94324483Y-79947711D01*
X94169015Y-80026928D01*
X94027867Y-80129477D01*
X94027862Y-80129481D01*
X93904481Y-80252862D01*
X93904477Y-80252867D01*
X93801928Y-80394015D01*
X93722711Y-80549483D01*
X93722710Y-80549486D01*
X93668795Y-80715424D01*
X93650785Y-80829134D01*
X93641500Y-80887759D01*
X89825500Y-80887759D01*
X89825500Y-74387759D01*
X93641500Y-74387759D01*
X93641500Y-75112240D01*
X93668795Y-75284575D01*
X93722710Y-75450513D01*
X93722711Y-75450516D01*
X93801928Y-75605984D01*
X93904477Y-75747132D01*
X93904481Y-75747137D01*
X94027862Y-75870518D01*
X94027867Y-75870522D01*
X94150984Y-75959971D01*
X94169019Y-75973074D01*
X94270646Y-76024856D01*
X94324483Y-76052288D01*
X94324486Y-76052289D01*
X94407455Y-76079246D01*
X94490426Y-76106205D01*
X94662759Y-76133500D01*
X94662760Y-76133500D01*
X94837240Y-76133500D01*
X94837241Y-76133500D01*
X95009574Y-76106205D01*
X95175516Y-76052288D01*
X95330981Y-75973074D01*
X95472139Y-75870517D01*
X95595517Y-75747139D01*
X95654936Y-75665355D01*
X95710264Y-75622691D01*
X95779877Y-75616712D01*
X95841672Y-75649317D01*
X95855571Y-75665357D01*
X95910961Y-75741595D01*
X95910965Y-75741600D01*
X96033397Y-75864032D01*
X96173475Y-75965804D01*
X96327744Y-76044408D01*
X96492415Y-76097914D01*
X96492414Y-76097914D01*
X96499999Y-76099115D01*
X96500000Y-76099114D01*
X96500000Y-75030330D01*
X96519745Y-75050075D01*
X96605255Y-75099444D01*
X96700630Y-75125000D01*
X96799370Y-75125000D01*
X96894745Y-75099444D01*
X96980255Y-75050075D01*
X97000000Y-75030330D01*
X97000000Y-76099115D01*
X97007584Y-76097914D01*
X97172255Y-76044408D01*
X97326524Y-75965804D01*
X97466602Y-75864032D01*
X97589036Y-75741598D01*
X97644427Y-75665357D01*
X97699756Y-75622691D01*
X97769369Y-75616710D01*
X97831165Y-75649315D01*
X97845060Y-75665351D01*
X97868593Y-75697740D01*
X97904483Y-75747139D01*
X98027862Y-75870518D01*
X98027867Y-75870522D01*
X98150984Y-75959971D01*
X98169019Y-75973074D01*
X98270646Y-76024856D01*
X98324483Y-76052288D01*
X98324486Y-76052289D01*
X98407455Y-76079246D01*
X98490426Y-76106205D01*
X98662759Y-76133500D01*
X98662760Y-76133500D01*
X98837240Y-76133500D01*
X98837241Y-76133500D01*
X99009574Y-76106205D01*
X99175516Y-76052288D01*
X99330981Y-75973074D01*
X99472139Y-75870517D01*
X99595517Y-75747139D01*
X99603466Y-75736198D01*
X99649682Y-75672588D01*
X99705011Y-75629922D01*
X99774625Y-75623943D01*
X99836420Y-75656548D01*
X99850318Y-75672588D01*
X99904477Y-75747132D01*
X99904481Y-75747137D01*
X100027862Y-75870518D01*
X100027867Y-75870522D01*
X100150984Y-75959971D01*
X100169019Y-75973074D01*
X100270646Y-76024856D01*
X100324483Y-76052288D01*
X100324486Y-76052289D01*
X100407455Y-76079246D01*
X100490426Y-76106205D01*
X100662759Y-76133500D01*
X100662760Y-76133500D01*
X100837240Y-76133500D01*
X100837241Y-76133500D01*
X101009574Y-76106205D01*
X101175516Y-76052288D01*
X101330981Y-75973074D01*
X101472139Y-75870517D01*
X101595517Y-75747139D01*
X101603466Y-75736198D01*
X101649682Y-75672588D01*
X101705011Y-75629922D01*
X101774625Y-75623943D01*
X101836420Y-75656548D01*
X101850318Y-75672588D01*
X101904477Y-75747132D01*
X101904481Y-75747137D01*
X102027862Y-75870518D01*
X102027867Y-75870522D01*
X102150984Y-75959971D01*
X102169019Y-75973074D01*
X102270646Y-76024856D01*
X102324483Y-76052288D01*
X102324486Y-76052289D01*
X102407455Y-76079246D01*
X102490426Y-76106205D01*
X102662759Y-76133500D01*
X102662760Y-76133500D01*
X102837240Y-76133500D01*
X102837241Y-76133500D01*
X103009574Y-76106205D01*
X103175516Y-76052288D01*
X103330981Y-75973074D01*
X103472139Y-75870517D01*
X103572975Y-75769680D01*
X103634294Y-75736198D01*
X103703986Y-75741182D01*
X103759920Y-75783053D01*
X103766184Y-75792255D01*
X103800970Y-75848652D01*
X103926348Y-75974030D01*
X104077262Y-76067115D01*
X104245574Y-76122887D01*
X104349455Y-76133500D01*
X105150544Y-76133499D01*
X105254426Y-76122887D01*
X105422738Y-76067115D01*
X105573652Y-75974030D01*
X105699030Y-75848652D01*
X105792115Y-75697738D01*
X105847887Y-75529426D01*
X105858500Y-75425545D01*
X105858499Y-74074456D01*
X105847887Y-73970574D01*
X105792115Y-73802262D01*
X105699030Y-73651348D01*
X105573652Y-73525970D01*
X105422738Y-73432885D01*
X105422735Y-73432884D01*
X105254427Y-73377113D01*
X105150546Y-73366500D01*
X104349462Y-73366500D01*
X104349446Y-73366501D01*
X104245572Y-73377113D01*
X104077264Y-73432884D01*
X104077259Y-73432886D01*
X103926346Y-73525971D01*
X103800970Y-73651347D01*
X103800967Y-73651351D01*
X103766191Y-73707732D01*
X103714243Y-73754457D01*
X103645280Y-73765678D01*
X103581198Y-73737835D01*
X103572972Y-73730316D01*
X103472137Y-73629481D01*
X103472132Y-73629477D01*
X103330984Y-73526928D01*
X103330983Y-73526927D01*
X103330981Y-73526926D01*
X103281175Y-73501548D01*
X103175516Y-73447711D01*
X103175513Y-73447710D01*
X103009575Y-73393795D01*
X102923407Y-73380147D01*
X102837241Y-73366500D01*
X102662759Y-73366500D01*
X102605314Y-73375598D01*
X102490424Y-73393795D01*
X102324486Y-73447710D01*
X102324483Y-73447711D01*
X102169015Y-73526928D01*
X102027867Y-73629477D01*
X102027862Y-73629481D01*
X101904481Y-73752862D01*
X101850318Y-73827412D01*
X101794988Y-73870077D01*
X101725375Y-73876056D01*
X101663580Y-73843450D01*
X101649682Y-73827412D01*
X101595518Y-73752862D01*
X101472137Y-73629481D01*
X101472132Y-73629477D01*
X101330984Y-73526928D01*
X101330983Y-73526927D01*
X101330981Y-73526926D01*
X101281175Y-73501548D01*
X101175516Y-73447711D01*
X101175513Y-73447710D01*
X101009575Y-73393795D01*
X100923407Y-73380147D01*
X100837241Y-73366500D01*
X100662759Y-73366500D01*
X100605314Y-73375598D01*
X100490424Y-73393795D01*
X100324486Y-73447710D01*
X100324483Y-73447711D01*
X100169015Y-73526928D01*
X100027867Y-73629477D01*
X100027862Y-73629481D01*
X99904481Y-73752862D01*
X99850318Y-73827412D01*
X99794988Y-73870077D01*
X99725375Y-73876056D01*
X99663580Y-73843450D01*
X99649682Y-73827412D01*
X99595518Y-73752862D01*
X99472137Y-73629481D01*
X99472132Y-73629477D01*
X99330984Y-73526928D01*
X99330983Y-73526927D01*
X99330981Y-73526926D01*
X99281175Y-73501548D01*
X99175516Y-73447711D01*
X99175513Y-73447710D01*
X99009575Y-73393795D01*
X98923407Y-73380147D01*
X98837241Y-73366500D01*
X98662759Y-73366500D01*
X98605314Y-73375598D01*
X98490424Y-73393795D01*
X98324486Y-73447710D01*
X98324483Y-73447711D01*
X98169015Y-73526928D01*
X98027867Y-73629477D01*
X98027862Y-73629481D01*
X97904481Y-73752862D01*
X97845064Y-73834643D01*
X97789734Y-73877308D01*
X97720120Y-73883287D01*
X97658325Y-73850681D01*
X97644428Y-73834642D01*
X97589038Y-73758403D01*
X97466602Y-73635967D01*
X97326524Y-73534195D01*
X97172257Y-73455591D01*
X97007589Y-73402087D01*
X97007581Y-73402085D01*
X97000000Y-73400884D01*
X97000000Y-74469670D01*
X96980255Y-74449925D01*
X96894745Y-74400556D01*
X96799370Y-74375000D01*
X96700630Y-74375000D01*
X96605255Y-74400556D01*
X96519745Y-74449925D01*
X96500000Y-74469670D01*
X96500000Y-73400884D01*
X96499999Y-73400884D01*
X96492418Y-73402085D01*
X96492410Y-73402087D01*
X96327742Y-73455591D01*
X96173475Y-73534195D01*
X96033397Y-73635967D01*
X95910965Y-73758399D01*
X95855571Y-73834643D01*
X95800241Y-73877308D01*
X95730627Y-73883287D01*
X95668832Y-73850681D01*
X95654935Y-73834642D01*
X95595522Y-73752867D01*
X95595518Y-73752862D01*
X95472137Y-73629481D01*
X95472132Y-73629477D01*
X95330984Y-73526928D01*
X95330983Y-73526927D01*
X95330981Y-73526926D01*
X95281175Y-73501548D01*
X95175516Y-73447711D01*
X95175513Y-73447710D01*
X95009575Y-73393795D01*
X94923407Y-73380147D01*
X94837241Y-73366500D01*
X94662759Y-73366500D01*
X94605314Y-73375598D01*
X94490424Y-73393795D01*
X94324486Y-73447710D01*
X94324483Y-73447711D01*
X94169015Y-73526928D01*
X94027867Y-73629477D01*
X94027862Y-73629481D01*
X93904481Y-73752862D01*
X93904477Y-73752867D01*
X93801928Y-73894015D01*
X93722711Y-74049483D01*
X93722710Y-74049486D01*
X93668795Y-74215424D01*
X93641500Y-74387759D01*
X89825500Y-74387759D01*
X89825500Y-71647019D01*
X143236501Y-71647019D01*
X143236501Y-71852980D01*
X143268720Y-72056408D01*
X143332368Y-72252294D01*
X143425874Y-72435806D01*
X143546927Y-72602423D01*
X143546931Y-72602428D01*
X143692572Y-72748069D01*
X143692577Y-72748073D01*
X143837909Y-72853661D01*
X143859198Y-72869129D01*
X143976129Y-72928709D01*
X144042706Y-72962632D01*
X144042708Y-72962632D01*
X144042711Y-72962634D01*
X144147708Y-72996749D01*
X144238592Y-73026280D01*
X144340306Y-73042390D01*
X144442020Y-73058500D01*
X144442021Y-73058500D01*
X144647981Y-73058500D01*
X144647982Y-73058500D01*
X144851409Y-73026280D01*
X145047291Y-72962634D01*
X145230804Y-72869129D01*
X145397431Y-72748068D01*
X145543069Y-72602430D01*
X145664130Y-72435803D01*
X145757635Y-72252290D01*
X145821281Y-72056408D01*
X145853501Y-71852981D01*
X145853501Y-71647019D01*
X145821281Y-71443592D01*
X145757635Y-71247710D01*
X145757633Y-71247707D01*
X145757633Y-71247705D01*
X145694390Y-71123586D01*
X145664130Y-71064197D01*
X145611639Y-70991949D01*
X145588160Y-70926144D01*
X145603985Y-70858090D01*
X145624277Y-70831383D01*
X145687318Y-70768342D01*
X145779357Y-70619124D01*
X145779359Y-70619119D01*
X145834506Y-70452697D01*
X145834507Y-70452690D01*
X145845000Y-70349986D01*
X145845001Y-70349973D01*
X145845001Y-70000000D01*
X144860687Y-70000000D01*
X144865081Y-69995606D01*
X144917742Y-69904394D01*
X144945001Y-69802661D01*
X144945001Y-69697339D01*
X144917742Y-69595606D01*
X144865081Y-69504394D01*
X144860687Y-69500000D01*
X145845000Y-69500000D01*
X145845000Y-69150028D01*
X145844999Y-69150013D01*
X145834506Y-69047302D01*
X145779359Y-68880880D01*
X145779357Y-68880875D01*
X145687316Y-68731654D01*
X145563346Y-68607684D01*
X145414125Y-68515643D01*
X145414120Y-68515641D01*
X145247698Y-68460494D01*
X145247691Y-68460493D01*
X145144987Y-68450000D01*
X144795001Y-68450000D01*
X144795001Y-69434314D01*
X144790607Y-69429920D01*
X144699395Y-69377259D01*
X144597662Y-69350000D01*
X144492340Y-69350000D01*
X144390607Y-69377259D01*
X144299395Y-69429920D01*
X144295001Y-69434314D01*
X144295001Y-68450000D01*
X143945029Y-68450000D01*
X143945013Y-68450001D01*
X143842303Y-68460494D01*
X143675881Y-68515641D01*
X143675876Y-68515643D01*
X143526655Y-68607684D01*
X143402685Y-68731654D01*
X143310644Y-68880875D01*
X143310642Y-68880880D01*
X143255495Y-69047302D01*
X143255494Y-69047309D01*
X143245001Y-69150013D01*
X143245001Y-69500000D01*
X144229315Y-69500000D01*
X144224921Y-69504394D01*
X144172260Y-69595606D01*
X144145001Y-69697339D01*
X144145001Y-69802661D01*
X144172260Y-69904394D01*
X144224921Y-69995606D01*
X144229315Y-70000000D01*
X143245002Y-70000000D01*
X143245002Y-70349986D01*
X143255495Y-70452697D01*
X143310642Y-70619119D01*
X143310644Y-70619124D01*
X143402685Y-70768345D01*
X143465724Y-70831384D01*
X143499209Y-70892707D01*
X143494225Y-70962399D01*
X143478362Y-70991949D01*
X143425872Y-71064196D01*
X143425871Y-71064198D01*
X143332368Y-71247705D01*
X143268720Y-71443591D01*
X143236501Y-71647019D01*
X89825500Y-71647019D01*
X89825500Y-67887759D01*
X93641500Y-67887759D01*
X93641500Y-68612241D01*
X93641662Y-68613261D01*
X93668795Y-68784575D01*
X93722710Y-68950513D01*
X93722711Y-68950516D01*
X93801928Y-69105984D01*
X93904477Y-69247132D01*
X93904481Y-69247137D01*
X94027862Y-69370518D01*
X94027867Y-69370522D01*
X94109622Y-69429920D01*
X94169019Y-69473074D01*
X94270646Y-69524856D01*
X94324483Y-69552288D01*
X94324486Y-69552289D01*
X94390329Y-69573682D01*
X94490426Y-69606205D01*
X94662759Y-69633500D01*
X94662760Y-69633500D01*
X94837240Y-69633500D01*
X94837241Y-69633500D01*
X95009574Y-69606205D01*
X95175516Y-69552288D01*
X95330981Y-69473074D01*
X95472139Y-69370517D01*
X95595517Y-69247139D01*
X95654936Y-69165355D01*
X95710264Y-69122691D01*
X95779877Y-69116712D01*
X95841672Y-69149317D01*
X95855571Y-69165357D01*
X95910961Y-69241595D01*
X95910965Y-69241600D01*
X96033397Y-69364032D01*
X96173475Y-69465804D01*
X96327744Y-69544408D01*
X96492415Y-69597914D01*
X96492414Y-69597914D01*
X96499999Y-69599115D01*
X96500000Y-69599114D01*
X96500000Y-68530330D01*
X96519745Y-68550075D01*
X96605255Y-68599444D01*
X96700630Y-68625000D01*
X96799370Y-68625000D01*
X96894745Y-68599444D01*
X96980255Y-68550075D01*
X97000000Y-68530330D01*
X97000000Y-69599115D01*
X97007584Y-69597914D01*
X97172255Y-69544408D01*
X97326524Y-69465804D01*
X97466602Y-69364032D01*
X97589036Y-69241598D01*
X97644427Y-69165357D01*
X97699756Y-69122691D01*
X97769369Y-69116710D01*
X97831165Y-69149315D01*
X97845060Y-69165351D01*
X97868593Y-69197740D01*
X97904483Y-69247139D01*
X98027862Y-69370518D01*
X98027867Y-69370522D01*
X98109622Y-69429920D01*
X98169019Y-69473074D01*
X98270646Y-69524856D01*
X98324483Y-69552288D01*
X98324486Y-69552289D01*
X98390329Y-69573682D01*
X98490426Y-69606205D01*
X98662759Y-69633500D01*
X98662760Y-69633500D01*
X98837240Y-69633500D01*
X98837241Y-69633500D01*
X99009574Y-69606205D01*
X99175516Y-69552288D01*
X99330981Y-69473074D01*
X99472139Y-69370517D01*
X99595517Y-69247139D01*
X99603466Y-69236198D01*
X99649682Y-69172588D01*
X99705011Y-69129922D01*
X99774625Y-69123943D01*
X99836420Y-69156548D01*
X99850318Y-69172588D01*
X99904477Y-69247132D01*
X99904481Y-69247137D01*
X100027862Y-69370518D01*
X100027867Y-69370522D01*
X100109622Y-69429920D01*
X100169019Y-69473074D01*
X100270646Y-69524856D01*
X100324483Y-69552288D01*
X100324486Y-69552289D01*
X100390329Y-69573682D01*
X100490426Y-69606205D01*
X100662759Y-69633500D01*
X100662760Y-69633500D01*
X100837240Y-69633500D01*
X100837241Y-69633500D01*
X101009574Y-69606205D01*
X101175516Y-69552288D01*
X101330981Y-69473074D01*
X101472139Y-69370517D01*
X101595517Y-69247139D01*
X101603466Y-69236198D01*
X101649682Y-69172588D01*
X101705011Y-69129922D01*
X101774625Y-69123943D01*
X101836420Y-69156548D01*
X101850318Y-69172588D01*
X101904477Y-69247132D01*
X101904481Y-69247137D01*
X102027862Y-69370518D01*
X102027867Y-69370522D01*
X102109622Y-69429920D01*
X102169019Y-69473074D01*
X102270646Y-69524856D01*
X102324483Y-69552288D01*
X102324486Y-69552289D01*
X102390329Y-69573682D01*
X102490426Y-69606205D01*
X102662759Y-69633500D01*
X102662760Y-69633500D01*
X102837240Y-69633500D01*
X102837241Y-69633500D01*
X103009574Y-69606205D01*
X103175516Y-69552288D01*
X103330981Y-69473074D01*
X103445852Y-69389615D01*
X103472131Y-69370523D01*
X103472131Y-69370522D01*
X103472139Y-69370517D01*
X103572975Y-69269680D01*
X103634294Y-69236198D01*
X103703986Y-69241182D01*
X103759920Y-69283053D01*
X103766184Y-69292255D01*
X103800970Y-69348652D01*
X103926348Y-69474030D01*
X104077262Y-69567115D01*
X104245574Y-69622887D01*
X104349455Y-69633500D01*
X105150544Y-69633499D01*
X105254426Y-69622887D01*
X105422738Y-69567115D01*
X105573652Y-69474030D01*
X105699030Y-69348652D01*
X105792115Y-69197738D01*
X105847887Y-69029426D01*
X105858500Y-68925545D01*
X105858499Y-67574456D01*
X105847887Y-67470574D01*
X105792115Y-67302262D01*
X105792111Y-67302256D01*
X105792110Y-67302253D01*
X105741084Y-67219528D01*
X105741083Y-67219527D01*
X105704685Y-67160516D01*
X135841500Y-67160516D01*
X135841500Y-67339483D01*
X135876411Y-67514992D01*
X135876413Y-67515000D01*
X135944896Y-67680332D01*
X135944901Y-67680342D01*
X136044321Y-67829134D01*
X136044324Y-67829138D01*
X136080180Y-67864993D01*
X136113666Y-67926315D01*
X136116500Y-67952675D01*
X136116500Y-69547324D01*
X136096815Y-69614363D01*
X136080181Y-69635005D01*
X136044324Y-69670861D01*
X136044321Y-69670865D01*
X135944901Y-69819657D01*
X135944896Y-69819667D01*
X135876413Y-69984999D01*
X135876411Y-69985007D01*
X135841500Y-70160516D01*
X135841500Y-70339483D01*
X135876411Y-70514992D01*
X135876413Y-70515000D01*
X135944896Y-70680332D01*
X135944901Y-70680342D01*
X136044321Y-70829134D01*
X136044324Y-70829138D01*
X136170861Y-70955675D01*
X136170865Y-70955678D01*
X136319657Y-71055098D01*
X136319661Y-71055100D01*
X136319664Y-71055102D01*
X136485000Y-71123587D01*
X136660516Y-71158499D01*
X136660520Y-71158500D01*
X136660521Y-71158500D01*
X136839480Y-71158500D01*
X136839481Y-71158499D01*
X137015000Y-71123587D01*
X137180336Y-71055102D01*
X137329135Y-70955678D01*
X137455678Y-70829135D01*
X137555102Y-70680336D01*
X137623587Y-70515000D01*
X137658500Y-70339479D01*
X137658500Y-70160521D01*
X137623587Y-69985000D01*
X137555102Y-69819664D01*
X137555100Y-69819661D01*
X137555098Y-69819657D01*
X137455678Y-69670865D01*
X137455675Y-69670861D01*
X137419819Y-69635005D01*
X137386334Y-69573682D01*
X137383500Y-69547324D01*
X137383500Y-67952675D01*
X137403185Y-67885636D01*
X137419820Y-67864993D01*
X137455675Y-67829138D01*
X137455678Y-67829135D01*
X137555102Y-67680336D01*
X137623587Y-67515000D01*
X137658500Y-67339479D01*
X137658500Y-67201345D01*
X147491500Y-67201345D01*
X147491500Y-68298654D01*
X147498011Y-68359202D01*
X147498011Y-68359204D01*
X147543162Y-68480255D01*
X147549111Y-68496204D01*
X147636739Y-68613261D01*
X147753796Y-68700889D01*
X147890799Y-68751989D01*
X147918050Y-68754918D01*
X147951345Y-68758499D01*
X147951362Y-68758500D01*
X149048638Y-68758500D01*
X149048654Y-68758499D01*
X149075692Y-68755591D01*
X149109201Y-68751989D01*
X149246204Y-68700889D01*
X149363261Y-68613261D01*
X149450889Y-68496204D01*
X149501989Y-68359201D01*
X149505591Y-68325692D01*
X149508499Y-68298654D01*
X149508500Y-68298637D01*
X149508500Y-67201362D01*
X149508499Y-67201345D01*
X149504109Y-67160520D01*
X149501989Y-67140799D01*
X149497768Y-67129483D01*
X149462227Y-67034195D01*
X149450889Y-67003796D01*
X149363261Y-66886739D01*
X149246204Y-66799111D01*
X149109203Y-66748011D01*
X149048654Y-66741500D01*
X149048638Y-66741500D01*
X147951362Y-66741500D01*
X147951345Y-66741500D01*
X147890797Y-66748011D01*
X147890795Y-66748011D01*
X147753795Y-66799111D01*
X147636739Y-66886739D01*
X147549111Y-67003795D01*
X147498011Y-67140795D01*
X147498011Y-67140797D01*
X147491500Y-67201345D01*
X137658500Y-67201345D01*
X137658500Y-67160521D01*
X137623587Y-66985000D01*
X137555102Y-66819664D01*
X137555100Y-66819661D01*
X137555098Y-66819657D01*
X137455678Y-66670865D01*
X137455675Y-66670861D01*
X137329138Y-66544324D01*
X137329134Y-66544321D01*
X137180342Y-66444901D01*
X137180332Y-66444896D01*
X137015000Y-66376413D01*
X137014992Y-66376411D01*
X136839483Y-66341500D01*
X136839479Y-66341500D01*
X136660521Y-66341500D01*
X136660516Y-66341500D01*
X136485007Y-66376411D01*
X136484999Y-66376413D01*
X136319667Y-66444896D01*
X136319657Y-66444901D01*
X136170865Y-66544321D01*
X136170861Y-66544324D01*
X136044324Y-66670861D01*
X136044321Y-66670865D01*
X135944901Y-66819657D01*
X135944896Y-66819667D01*
X135876413Y-66984999D01*
X135876411Y-66985007D01*
X135841500Y-67160516D01*
X105704685Y-67160516D01*
X105699030Y-67151348D01*
X105573652Y-67025970D01*
X105422738Y-66932885D01*
X105422735Y-66932884D01*
X105254427Y-66877113D01*
X105150546Y-66866500D01*
X104349462Y-66866500D01*
X104349446Y-66866501D01*
X104245572Y-66877113D01*
X104077264Y-66932884D01*
X104077259Y-66932886D01*
X103926346Y-67025971D01*
X103800970Y-67151347D01*
X103800967Y-67151351D01*
X103766191Y-67207732D01*
X103714243Y-67254457D01*
X103645280Y-67265678D01*
X103581198Y-67237835D01*
X103572972Y-67230316D01*
X103472137Y-67129481D01*
X103472132Y-67129477D01*
X103330984Y-67026928D01*
X103330983Y-67026927D01*
X103330981Y-67026926D01*
X103281175Y-67001548D01*
X103175516Y-66947711D01*
X103175513Y-66947710D01*
X103009575Y-66893795D01*
X102923407Y-66880147D01*
X102837241Y-66866500D01*
X102662759Y-66866500D01*
X102605314Y-66875598D01*
X102490424Y-66893795D01*
X102324486Y-66947710D01*
X102324483Y-66947711D01*
X102169015Y-67026928D01*
X102027867Y-67129477D01*
X102027862Y-67129481D01*
X101904481Y-67252862D01*
X101850318Y-67327412D01*
X101794988Y-67370077D01*
X101725375Y-67376056D01*
X101663580Y-67343450D01*
X101649682Y-67327412D01*
X101595518Y-67252862D01*
X101472137Y-67129481D01*
X101472132Y-67129477D01*
X101330984Y-67026928D01*
X101330983Y-67026927D01*
X101330981Y-67026926D01*
X101281175Y-67001548D01*
X101175516Y-66947711D01*
X101175513Y-66947710D01*
X101009575Y-66893795D01*
X100923407Y-66880147D01*
X100837241Y-66866500D01*
X100662759Y-66866500D01*
X100605314Y-66875598D01*
X100490424Y-66893795D01*
X100324486Y-66947710D01*
X100324483Y-66947711D01*
X100169015Y-67026928D01*
X100027867Y-67129477D01*
X100027862Y-67129481D01*
X99904481Y-67252862D01*
X99850318Y-67327412D01*
X99794988Y-67370077D01*
X99725375Y-67376056D01*
X99663580Y-67343450D01*
X99649682Y-67327412D01*
X99595518Y-67252862D01*
X99472137Y-67129481D01*
X99472132Y-67129477D01*
X99330984Y-67026928D01*
X99330983Y-67026927D01*
X99330981Y-67026926D01*
X99281175Y-67001548D01*
X99175516Y-66947711D01*
X99175513Y-66947710D01*
X99009575Y-66893795D01*
X98923407Y-66880147D01*
X98837241Y-66866500D01*
X98662759Y-66866500D01*
X98605314Y-66875598D01*
X98490424Y-66893795D01*
X98324486Y-66947710D01*
X98324483Y-66947711D01*
X98169015Y-67026928D01*
X98027867Y-67129477D01*
X98027862Y-67129481D01*
X97904481Y-67252862D01*
X97845064Y-67334643D01*
X97789734Y-67377308D01*
X97720120Y-67383287D01*
X97658325Y-67350681D01*
X97644428Y-67334642D01*
X97589038Y-67258403D01*
X97466602Y-67135967D01*
X97326524Y-67034195D01*
X97172257Y-66955591D01*
X97007589Y-66902087D01*
X97007581Y-66902085D01*
X97000000Y-66900884D01*
X97000000Y-67969670D01*
X96980255Y-67949925D01*
X96894745Y-67900556D01*
X96799370Y-67875000D01*
X96700630Y-67875000D01*
X96605255Y-67900556D01*
X96519745Y-67949925D01*
X96500000Y-67969670D01*
X96500000Y-66900884D01*
X96499999Y-66900884D01*
X96492418Y-66902085D01*
X96492410Y-66902087D01*
X96327742Y-66955591D01*
X96173475Y-67034195D01*
X96033397Y-67135967D01*
X95910965Y-67258399D01*
X95855571Y-67334643D01*
X95800241Y-67377308D01*
X95730627Y-67383287D01*
X95668832Y-67350681D01*
X95654935Y-67334642D01*
X95595522Y-67252867D01*
X95595518Y-67252862D01*
X95472137Y-67129481D01*
X95472132Y-67129477D01*
X95330984Y-67026928D01*
X95330983Y-67026927D01*
X95330981Y-67026926D01*
X95281175Y-67001548D01*
X95175516Y-66947711D01*
X95175513Y-66947710D01*
X95009575Y-66893795D01*
X94923407Y-66880147D01*
X94837241Y-66866500D01*
X94662759Y-66866500D01*
X94605314Y-66875598D01*
X94490424Y-66893795D01*
X94324486Y-66947710D01*
X94324483Y-66947711D01*
X94169015Y-67026928D01*
X94027867Y-67129477D01*
X94027862Y-67129481D01*
X93904481Y-67252862D01*
X93904477Y-67252867D01*
X93801928Y-67394015D01*
X93722711Y-67549483D01*
X93722710Y-67549486D01*
X93668795Y-67715424D01*
X93668795Y-67715426D01*
X93641500Y-67887759D01*
X89825500Y-67887759D01*
X89825500Y-61387759D01*
X93641500Y-61387759D01*
X93641500Y-62112240D01*
X93668795Y-62284575D01*
X93722710Y-62450513D01*
X93722711Y-62450516D01*
X93801928Y-62605984D01*
X93904477Y-62747132D01*
X93904481Y-62747137D01*
X94027862Y-62870518D01*
X94027867Y-62870522D01*
X94150984Y-62959971D01*
X94169019Y-62973074D01*
X94270646Y-63024856D01*
X94324483Y-63052288D01*
X94324486Y-63052289D01*
X94407455Y-63079246D01*
X94490426Y-63106205D01*
X94662759Y-63133500D01*
X94662760Y-63133500D01*
X94837240Y-63133500D01*
X94837241Y-63133500D01*
X95009574Y-63106205D01*
X95175516Y-63052288D01*
X95330981Y-62973074D01*
X95472139Y-62870517D01*
X95595517Y-62747139D01*
X95654936Y-62665355D01*
X95710264Y-62622691D01*
X95779877Y-62616712D01*
X95841672Y-62649317D01*
X95855571Y-62665357D01*
X95910961Y-62741595D01*
X95910965Y-62741600D01*
X96033397Y-62864032D01*
X96173475Y-62965804D01*
X96327744Y-63044408D01*
X96492415Y-63097914D01*
X96492414Y-63097914D01*
X96499999Y-63099115D01*
X96500000Y-63099114D01*
X96500000Y-62030330D01*
X96519745Y-62050075D01*
X96605255Y-62099444D01*
X96700630Y-62125000D01*
X96799370Y-62125000D01*
X96894745Y-62099444D01*
X96980255Y-62050075D01*
X97000000Y-62030330D01*
X97000000Y-63099115D01*
X97007584Y-63097914D01*
X97172255Y-63044408D01*
X97326524Y-62965804D01*
X97466602Y-62864032D01*
X97589036Y-62741598D01*
X97644427Y-62665357D01*
X97699756Y-62622691D01*
X97769369Y-62616710D01*
X97831165Y-62649315D01*
X97845060Y-62665351D01*
X97868593Y-62697740D01*
X97904483Y-62747139D01*
X98027862Y-62870518D01*
X98027867Y-62870522D01*
X98150984Y-62959971D01*
X98169019Y-62973074D01*
X98270646Y-63024856D01*
X98324483Y-63052288D01*
X98324486Y-63052289D01*
X98407455Y-63079246D01*
X98490426Y-63106205D01*
X98662759Y-63133500D01*
X98662760Y-63133500D01*
X98837240Y-63133500D01*
X98837241Y-63133500D01*
X99009574Y-63106205D01*
X99175516Y-63052288D01*
X99330981Y-62973074D01*
X99472139Y-62870517D01*
X99595517Y-62747139D01*
X99603466Y-62736198D01*
X99649682Y-62672588D01*
X99705011Y-62629922D01*
X99774625Y-62623943D01*
X99836420Y-62656548D01*
X99850318Y-62672588D01*
X99904477Y-62747132D01*
X99904481Y-62747137D01*
X100027862Y-62870518D01*
X100027867Y-62870522D01*
X100150984Y-62959971D01*
X100169019Y-62973074D01*
X100270646Y-63024856D01*
X100324483Y-63052288D01*
X100324486Y-63052289D01*
X100407455Y-63079246D01*
X100490426Y-63106205D01*
X100662759Y-63133500D01*
X100662760Y-63133500D01*
X100837240Y-63133500D01*
X100837241Y-63133500D01*
X101009574Y-63106205D01*
X101175516Y-63052288D01*
X101330981Y-62973074D01*
X101472139Y-62870517D01*
X101595517Y-62747139D01*
X101603466Y-62736198D01*
X101649682Y-62672588D01*
X101705011Y-62629922D01*
X101774625Y-62623943D01*
X101836420Y-62656548D01*
X101850318Y-62672588D01*
X101904477Y-62747132D01*
X101904481Y-62747137D01*
X102027862Y-62870518D01*
X102027867Y-62870522D01*
X102150984Y-62959971D01*
X102169019Y-62973074D01*
X102270646Y-63024856D01*
X102324483Y-63052288D01*
X102324486Y-63052289D01*
X102407455Y-63079246D01*
X102490426Y-63106205D01*
X102662759Y-63133500D01*
X102662760Y-63133500D01*
X102837240Y-63133500D01*
X102837241Y-63133500D01*
X103009574Y-63106205D01*
X103175516Y-63052288D01*
X103330981Y-62973074D01*
X103472139Y-62870517D01*
X103572975Y-62769680D01*
X103634294Y-62736198D01*
X103703986Y-62741182D01*
X103759920Y-62783053D01*
X103766184Y-62792255D01*
X103800970Y-62848652D01*
X103926348Y-62974030D01*
X104077262Y-63067115D01*
X104245574Y-63122887D01*
X104349455Y-63133500D01*
X105150544Y-63133499D01*
X105254426Y-63122887D01*
X105422738Y-63067115D01*
X105573652Y-62974030D01*
X105699030Y-62848652D01*
X105792115Y-62697738D01*
X105847887Y-62529426D01*
X105858500Y-62425545D01*
X105858499Y-61729074D01*
X105858499Y-61074462D01*
X105858498Y-61074446D01*
X105855948Y-61049483D01*
X105847887Y-60970574D01*
X105792115Y-60802262D01*
X105792111Y-60802256D01*
X105792110Y-60802253D01*
X105726781Y-60696339D01*
X105726780Y-60696338D01*
X105699030Y-60651348D01*
X105682987Y-60635305D01*
X114000000Y-60635305D01*
X114000000Y-60864694D01*
X114000001Y-60864710D01*
X114029942Y-61092137D01*
X114089318Y-61313730D01*
X114177102Y-61525659D01*
X114177106Y-61525669D01*
X114291799Y-61724324D01*
X114291805Y-61724331D01*
X114348381Y-61798064D01*
X115185387Y-60961058D01*
X115190889Y-60981591D01*
X115269881Y-61118408D01*
X115381592Y-61230119D01*
X115518409Y-61309111D01*
X115538940Y-61314612D01*
X114701934Y-62151617D01*
X114701934Y-62151618D01*
X114775666Y-62208194D01*
X114974330Y-62322893D01*
X114974340Y-62322897D01*
X115186269Y-62410681D01*
X115407862Y-62470057D01*
X115635289Y-62499998D01*
X115635306Y-62500000D01*
X115864694Y-62500000D01*
X115864710Y-62499998D01*
X116092137Y-62470057D01*
X116313730Y-62410681D01*
X116525659Y-62322897D01*
X116525668Y-62322893D01*
X116724327Y-62208197D01*
X116724334Y-62208192D01*
X116798064Y-62151617D01*
X115961059Y-61314612D01*
X115981591Y-61309111D01*
X116118408Y-61230119D01*
X116230119Y-61118408D01*
X116309111Y-60981591D01*
X116314612Y-60961059D01*
X117151617Y-61798064D01*
X117208192Y-61724334D01*
X117208197Y-61724327D01*
X117322893Y-61525668D01*
X117322897Y-61525659D01*
X117410681Y-61313730D01*
X117470057Y-61092137D01*
X117499998Y-60864710D01*
X117500000Y-60864694D01*
X117500000Y-60635301D01*
X117499999Y-60635292D01*
X117499926Y-60634734D01*
X128991500Y-60634734D01*
X128991500Y-60865265D01*
X129021588Y-61093798D01*
X129021589Y-61093802D01*
X129080518Y-61313730D01*
X129081252Y-61316466D01*
X129081256Y-61316479D01*
X129169457Y-61529416D01*
X129169465Y-61529433D01*
X129284724Y-61729066D01*
X129284729Y-61729072D01*
X129284730Y-61729074D01*
X129425051Y-61911945D01*
X129425057Y-61911952D01*
X129588047Y-62074942D01*
X129588054Y-62074948D01*
X129687972Y-62151617D01*
X129770934Y-62215276D01*
X129970567Y-62330535D01*
X129970572Y-62330537D01*
X129970576Y-62330539D01*
X130183520Y-62418743D01*
X130183525Y-62418744D01*
X130183536Y-62418749D01*
X130406198Y-62478411D01*
X130634742Y-62508500D01*
X130634749Y-62508500D01*
X130865251Y-62508500D01*
X130865258Y-62508500D01*
X131093802Y-62478411D01*
X131316464Y-62418749D01*
X131316476Y-62418743D01*
X131316479Y-62418743D01*
X131529423Y-62330539D01*
X131529421Y-62330539D01*
X131529433Y-62330535D01*
X131729066Y-62215276D01*
X131911947Y-62074947D01*
X131936819Y-62050075D01*
X131970911Y-62015984D01*
X132074942Y-61911952D01*
X132074947Y-61911947D01*
X132215276Y-61729066D01*
X132330535Y-61529433D01*
X132330538Y-61529424D01*
X132330543Y-61529416D01*
X132418743Y-61316479D01*
X132418743Y-61316476D01*
X132418749Y-61316464D01*
X132478411Y-61093802D01*
X132508500Y-60865258D01*
X132508500Y-60635305D01*
X141680000Y-60635305D01*
X141680000Y-60864694D01*
X141680001Y-60864710D01*
X141709942Y-61092137D01*
X141769318Y-61313730D01*
X141857102Y-61525659D01*
X141857106Y-61525669D01*
X141971799Y-61724324D01*
X141971805Y-61724331D01*
X142028381Y-61798064D01*
X142865387Y-60961058D01*
X142870889Y-60981591D01*
X142949881Y-61118408D01*
X143061592Y-61230119D01*
X143198409Y-61309111D01*
X143218940Y-61314612D01*
X142381934Y-62151617D01*
X142381934Y-62151618D01*
X142455666Y-62208194D01*
X142654330Y-62322893D01*
X142654340Y-62322897D01*
X142866269Y-62410681D01*
X143087862Y-62470057D01*
X143315289Y-62499998D01*
X143315306Y-62500000D01*
X143544694Y-62500000D01*
X143544710Y-62499998D01*
X143772137Y-62470057D01*
X143993730Y-62410681D01*
X144205659Y-62322897D01*
X144205668Y-62322893D01*
X144404327Y-62208197D01*
X144404334Y-62208192D01*
X144478064Y-62151617D01*
X143641059Y-61314612D01*
X143661591Y-61309111D01*
X143798408Y-61230119D01*
X143910119Y-61118408D01*
X143989111Y-60981591D01*
X143994612Y-60961059D01*
X144831617Y-61798064D01*
X144888192Y-61724334D01*
X144888197Y-61724327D01*
X145002893Y-61525668D01*
X145002897Y-61525659D01*
X145090681Y-61313730D01*
X145150057Y-61092137D01*
X145179998Y-60864710D01*
X145180000Y-60864694D01*
X145180000Y-60635301D01*
X145179999Y-60635292D01*
X145179926Y-60634734D01*
X156671500Y-60634734D01*
X156671500Y-60865265D01*
X156701588Y-61093798D01*
X156701589Y-61093802D01*
X156760518Y-61313730D01*
X156761252Y-61316466D01*
X156761256Y-61316479D01*
X156849457Y-61529416D01*
X156849465Y-61529433D01*
X156964724Y-61729066D01*
X156964729Y-61729072D01*
X156964730Y-61729074D01*
X157105051Y-61911945D01*
X157105057Y-61911952D01*
X157268047Y-62074942D01*
X157268054Y-62074948D01*
X157367972Y-62151617D01*
X157450934Y-62215276D01*
X157650567Y-62330535D01*
X157650572Y-62330537D01*
X157650576Y-62330539D01*
X157863520Y-62418743D01*
X157863525Y-62418744D01*
X157863536Y-62418749D01*
X158086198Y-62478411D01*
X158314742Y-62508500D01*
X158314749Y-62508500D01*
X158545251Y-62508500D01*
X158545258Y-62508500D01*
X158773802Y-62478411D01*
X158996464Y-62418749D01*
X158996476Y-62418743D01*
X158996479Y-62418743D01*
X159209423Y-62330539D01*
X159209421Y-62330539D01*
X159209433Y-62330535D01*
X159409066Y-62215276D01*
X159591947Y-62074947D01*
X159754947Y-61911947D01*
X159895276Y-61729066D01*
X160010535Y-61529433D01*
X160010538Y-61529424D01*
X160010543Y-61529416D01*
X160098743Y-61316479D01*
X160098743Y-61316476D01*
X160098749Y-61316464D01*
X160158411Y-61093802D01*
X160188500Y-60865258D01*
X160188500Y-60634742D01*
X160158411Y-60406198D01*
X160098749Y-60183536D01*
X160098744Y-60183525D01*
X160098743Y-60183520D01*
X160010539Y-59970576D01*
X160010534Y-59970566D01*
X159895276Y-59770934D01*
X159754947Y-59588053D01*
X159754942Y-59588047D01*
X159591952Y-59425057D01*
X159591945Y-59425051D01*
X159409074Y-59284730D01*
X159409072Y-59284729D01*
X159409066Y-59284724D01*
X159209433Y-59169465D01*
X159209423Y-59169460D01*
X158996479Y-59081256D01*
X158996466Y-59081252D01*
X158996467Y-59081252D01*
X158996464Y-59081251D01*
X158773802Y-59021589D01*
X158773801Y-59021588D01*
X158773798Y-59021588D01*
X158545265Y-58991500D01*
X158545258Y-58991500D01*
X158314742Y-58991500D01*
X158314734Y-58991500D01*
X158086201Y-59021588D01*
X158055024Y-59029942D01*
X157863536Y-59081251D01*
X157863534Y-59081251D01*
X157863533Y-59081252D01*
X157863520Y-59081256D01*
X157650576Y-59169460D01*
X157650566Y-59169465D01*
X157450934Y-59284724D01*
X157450925Y-59284730D01*
X157268054Y-59425051D01*
X157268047Y-59425057D01*
X157105057Y-59588047D01*
X157105051Y-59588054D01*
X156964730Y-59770925D01*
X156964724Y-59770934D01*
X156849465Y-59970566D01*
X156849460Y-59970576D01*
X156761256Y-60183520D01*
X156761252Y-60183533D01*
X156701588Y-60406201D01*
X156671500Y-60634734D01*
X145179926Y-60634734D01*
X145150057Y-60407862D01*
X145090681Y-60186269D01*
X145002897Y-59974340D01*
X145002893Y-59974330D01*
X144888194Y-59775666D01*
X144831618Y-59701934D01*
X144831617Y-59701934D01*
X143994612Y-60538939D01*
X143989111Y-60518409D01*
X143910119Y-60381592D01*
X143798408Y-60269881D01*
X143661591Y-60190889D01*
X143641057Y-60185387D01*
X144478064Y-59348381D01*
X144478064Y-59348380D01*
X144404331Y-59291805D01*
X144404324Y-59291799D01*
X144205669Y-59177106D01*
X144205659Y-59177102D01*
X143993730Y-59089318D01*
X143772137Y-59029942D01*
X143544710Y-59000001D01*
X143544694Y-59000000D01*
X143315306Y-59000000D01*
X143315289Y-59000001D01*
X143087862Y-59029942D01*
X142866269Y-59089318D01*
X142654340Y-59177102D01*
X142654330Y-59177106D01*
X142455673Y-59291801D01*
X142455659Y-59291810D01*
X142381934Y-59348380D01*
X143218940Y-60185387D01*
X143198409Y-60190889D01*
X143061592Y-60269881D01*
X142949881Y-60381592D01*
X142870889Y-60518409D01*
X142865387Y-60538940D01*
X142028380Y-59701934D01*
X141971810Y-59775659D01*
X141971801Y-59775673D01*
X141857106Y-59974330D01*
X141857102Y-59974340D01*
X141769318Y-60186269D01*
X141709942Y-60407862D01*
X141680001Y-60635289D01*
X141680000Y-60635305D01*
X132508500Y-60635305D01*
X132508500Y-60634742D01*
X132478411Y-60406198D01*
X132418749Y-60183536D01*
X132418744Y-60183525D01*
X132418743Y-60183520D01*
X132330539Y-59970576D01*
X132330534Y-59970566D01*
X132215276Y-59770934D01*
X132074947Y-59588053D01*
X132074942Y-59588047D01*
X131911952Y-59425057D01*
X131911945Y-59425051D01*
X131729074Y-59284730D01*
X131729072Y-59284729D01*
X131729066Y-59284724D01*
X131529433Y-59169465D01*
X131529423Y-59169460D01*
X131316479Y-59081256D01*
X131316466Y-59081252D01*
X131316467Y-59081252D01*
X131316464Y-59081251D01*
X131093802Y-59021589D01*
X131093801Y-59021588D01*
X131093798Y-59021588D01*
X130865265Y-58991500D01*
X130865258Y-58991500D01*
X130634742Y-58991500D01*
X130634734Y-58991500D01*
X130406201Y-59021588D01*
X130375024Y-59029942D01*
X130183536Y-59081251D01*
X130183534Y-59081251D01*
X130183533Y-59081252D01*
X130183520Y-59081256D01*
X129970576Y-59169460D01*
X129970566Y-59169465D01*
X129770934Y-59284724D01*
X129770925Y-59284730D01*
X129588054Y-59425051D01*
X129588047Y-59425057D01*
X129425057Y-59588047D01*
X129425051Y-59588054D01*
X129284730Y-59770925D01*
X129284724Y-59770934D01*
X129169465Y-59970566D01*
X129169460Y-59970576D01*
X129081256Y-60183520D01*
X129081252Y-60183533D01*
X129021588Y-60406201D01*
X128991500Y-60634734D01*
X117499926Y-60634734D01*
X117470057Y-60407862D01*
X117410681Y-60186269D01*
X117322897Y-59974340D01*
X117322893Y-59974330D01*
X117208194Y-59775666D01*
X117151618Y-59701934D01*
X117151617Y-59701934D01*
X116314612Y-60538939D01*
X116309111Y-60518409D01*
X116230119Y-60381592D01*
X116118408Y-60269881D01*
X115981591Y-60190889D01*
X115961057Y-60185387D01*
X116798064Y-59348381D01*
X116798064Y-59348380D01*
X116724331Y-59291805D01*
X116724324Y-59291799D01*
X116525669Y-59177106D01*
X116525659Y-59177102D01*
X116313730Y-59089318D01*
X116092137Y-59029942D01*
X115864710Y-59000001D01*
X115864694Y-59000000D01*
X115635306Y-59000000D01*
X115635289Y-59000001D01*
X115407862Y-59029942D01*
X115186269Y-59089318D01*
X114974340Y-59177102D01*
X114974330Y-59177106D01*
X114775673Y-59291801D01*
X114775659Y-59291810D01*
X114701934Y-59348380D01*
X115538940Y-60185387D01*
X115518409Y-60190889D01*
X115381592Y-60269881D01*
X115269881Y-60381592D01*
X115190889Y-60518409D01*
X115185387Y-60538940D01*
X114348381Y-59701934D01*
X114348380Y-59701934D01*
X114291810Y-59775659D01*
X114291801Y-59775673D01*
X114177106Y-59974330D01*
X114177102Y-59974340D01*
X114089318Y-60186269D01*
X114029942Y-60407862D01*
X114000001Y-60635289D01*
X114000000Y-60635305D01*
X105682987Y-60635305D01*
X105573652Y-60525970D01*
X105422738Y-60432885D01*
X105422735Y-60432884D01*
X105254427Y-60377113D01*
X105150546Y-60366500D01*
X104349462Y-60366500D01*
X104349446Y-60366501D01*
X104245572Y-60377113D01*
X104077264Y-60432884D01*
X104077259Y-60432886D01*
X103926346Y-60525971D01*
X103800970Y-60651347D01*
X103800967Y-60651351D01*
X103766191Y-60707732D01*
X103714243Y-60754457D01*
X103645280Y-60765678D01*
X103581198Y-60737835D01*
X103572972Y-60730316D01*
X103472137Y-60629481D01*
X103472132Y-60629477D01*
X103330984Y-60526928D01*
X103330983Y-60526927D01*
X103330981Y-60526926D01*
X103281175Y-60501548D01*
X103175516Y-60447711D01*
X103175513Y-60447710D01*
X103009575Y-60393795D01*
X102923407Y-60380147D01*
X102837241Y-60366500D01*
X102662759Y-60366500D01*
X102605314Y-60375598D01*
X102490424Y-60393795D01*
X102324486Y-60447710D01*
X102324483Y-60447711D01*
X102169015Y-60526928D01*
X102027867Y-60629477D01*
X102027862Y-60629481D01*
X101904481Y-60752862D01*
X101850318Y-60827412D01*
X101794988Y-60870077D01*
X101725375Y-60876056D01*
X101663580Y-60843450D01*
X101649682Y-60827412D01*
X101595518Y-60752862D01*
X101472137Y-60629481D01*
X101472132Y-60629477D01*
X101330984Y-60526928D01*
X101330983Y-60526927D01*
X101330981Y-60526926D01*
X101281175Y-60501548D01*
X101175516Y-60447711D01*
X101175513Y-60447710D01*
X101009575Y-60393795D01*
X100923407Y-60380147D01*
X100837241Y-60366500D01*
X100662759Y-60366500D01*
X100605314Y-60375598D01*
X100490424Y-60393795D01*
X100324486Y-60447710D01*
X100324483Y-60447711D01*
X100169015Y-60526928D01*
X100027867Y-60629477D01*
X100027862Y-60629481D01*
X99904481Y-60752862D01*
X99850318Y-60827412D01*
X99794988Y-60870077D01*
X99725375Y-60876056D01*
X99663580Y-60843450D01*
X99649682Y-60827412D01*
X99595518Y-60752862D01*
X99472137Y-60629481D01*
X99472132Y-60629477D01*
X99330984Y-60526928D01*
X99330983Y-60526927D01*
X99330981Y-60526926D01*
X99281175Y-60501548D01*
X99175516Y-60447711D01*
X99175513Y-60447710D01*
X99009575Y-60393795D01*
X98923407Y-60380147D01*
X98837241Y-60366500D01*
X98662759Y-60366500D01*
X98605314Y-60375598D01*
X98490424Y-60393795D01*
X98324486Y-60447710D01*
X98324483Y-60447711D01*
X98169015Y-60526928D01*
X98027867Y-60629477D01*
X98027862Y-60629481D01*
X97904481Y-60752862D01*
X97845064Y-60834643D01*
X97789734Y-60877308D01*
X97720120Y-60883287D01*
X97658325Y-60850681D01*
X97644428Y-60834642D01*
X97589038Y-60758403D01*
X97466602Y-60635967D01*
X97326524Y-60534195D01*
X97172257Y-60455591D01*
X97007589Y-60402087D01*
X97007581Y-60402085D01*
X97000000Y-60400884D01*
X97000000Y-61469670D01*
X96980255Y-61449925D01*
X96894745Y-61400556D01*
X96799370Y-61375000D01*
X96700630Y-61375000D01*
X96605255Y-61400556D01*
X96519745Y-61449925D01*
X96500000Y-61469670D01*
X96500000Y-60400884D01*
X96499999Y-60400884D01*
X96492418Y-60402085D01*
X96492410Y-60402087D01*
X96327742Y-60455591D01*
X96173475Y-60534195D01*
X96033397Y-60635967D01*
X95910965Y-60758399D01*
X95855571Y-60834643D01*
X95800241Y-60877308D01*
X95730627Y-60883287D01*
X95668832Y-60850681D01*
X95654935Y-60834642D01*
X95595522Y-60752867D01*
X95595518Y-60752862D01*
X95472137Y-60629481D01*
X95472132Y-60629477D01*
X95330984Y-60526928D01*
X95330983Y-60526927D01*
X95330981Y-60526926D01*
X95281175Y-60501548D01*
X95175516Y-60447711D01*
X95175513Y-60447710D01*
X95009575Y-60393795D01*
X94923407Y-60380147D01*
X94837241Y-60366500D01*
X94662759Y-60366500D01*
X94605314Y-60375598D01*
X94490424Y-60393795D01*
X94324486Y-60447710D01*
X94324483Y-60447711D01*
X94169015Y-60526928D01*
X94027867Y-60629477D01*
X94027862Y-60629481D01*
X93904481Y-60752862D01*
X93904477Y-60752867D01*
X93801928Y-60894015D01*
X93722711Y-61049483D01*
X93722710Y-61049486D01*
X93668795Y-61215424D01*
X93641500Y-61387759D01*
X89825500Y-61387759D01*
X89825500Y-54887759D01*
X93641500Y-54887759D01*
X93641500Y-55612240D01*
X93668795Y-55784575D01*
X93722710Y-55950513D01*
X93722711Y-55950516D01*
X93801928Y-56105984D01*
X93904477Y-56247132D01*
X93904481Y-56247137D01*
X94027862Y-56370518D01*
X94027867Y-56370522D01*
X94150984Y-56459971D01*
X94169019Y-56473074D01*
X94270646Y-56524856D01*
X94324483Y-56552288D01*
X94324486Y-56552289D01*
X94407455Y-56579246D01*
X94490426Y-56606205D01*
X94662759Y-56633500D01*
X94662760Y-56633500D01*
X94837240Y-56633500D01*
X94837241Y-56633500D01*
X95009574Y-56606205D01*
X95175516Y-56552288D01*
X95330981Y-56473074D01*
X95472139Y-56370517D01*
X95595517Y-56247139D01*
X95654936Y-56165355D01*
X95710264Y-56122691D01*
X95779877Y-56116712D01*
X95841672Y-56149317D01*
X95855571Y-56165357D01*
X95910961Y-56241595D01*
X95910965Y-56241600D01*
X96033397Y-56364032D01*
X96173475Y-56465804D01*
X96327744Y-56544408D01*
X96492415Y-56597914D01*
X96492414Y-56597914D01*
X96499999Y-56599115D01*
X96500000Y-56599114D01*
X96500000Y-55530330D01*
X96519745Y-55550075D01*
X96605255Y-55599444D01*
X96700630Y-55625000D01*
X96799370Y-55625000D01*
X96894745Y-55599444D01*
X96980255Y-55550075D01*
X97000000Y-55530330D01*
X97000000Y-56599115D01*
X97007584Y-56597914D01*
X97172255Y-56544408D01*
X97326524Y-56465804D01*
X97466602Y-56364032D01*
X97589036Y-56241598D01*
X97644427Y-56165357D01*
X97699756Y-56122691D01*
X97769369Y-56116710D01*
X97831165Y-56149315D01*
X97845060Y-56165351D01*
X97868593Y-56197740D01*
X97904483Y-56247139D01*
X98027862Y-56370518D01*
X98027867Y-56370522D01*
X98150984Y-56459971D01*
X98169019Y-56473074D01*
X98270646Y-56524856D01*
X98324483Y-56552288D01*
X98324486Y-56552289D01*
X98407455Y-56579246D01*
X98490426Y-56606205D01*
X98662759Y-56633500D01*
X98662760Y-56633500D01*
X98837240Y-56633500D01*
X98837241Y-56633500D01*
X99009574Y-56606205D01*
X99175516Y-56552288D01*
X99330981Y-56473074D01*
X99472139Y-56370517D01*
X99595517Y-56247139D01*
X99603466Y-56236198D01*
X99649682Y-56172588D01*
X99705011Y-56129922D01*
X99774625Y-56123943D01*
X99836420Y-56156548D01*
X99850318Y-56172588D01*
X99904477Y-56247132D01*
X99904481Y-56247137D01*
X100027862Y-56370518D01*
X100027867Y-56370522D01*
X100150984Y-56459971D01*
X100169019Y-56473074D01*
X100270646Y-56524856D01*
X100324483Y-56552288D01*
X100324486Y-56552289D01*
X100407455Y-56579246D01*
X100490426Y-56606205D01*
X100662759Y-56633500D01*
X100662760Y-56633500D01*
X100837240Y-56633500D01*
X100837241Y-56633500D01*
X101009574Y-56606205D01*
X101175516Y-56552288D01*
X101330981Y-56473074D01*
X101472139Y-56370517D01*
X101595517Y-56247139D01*
X101603466Y-56236198D01*
X101649682Y-56172588D01*
X101705011Y-56129922D01*
X101774625Y-56123943D01*
X101836420Y-56156548D01*
X101850318Y-56172588D01*
X101904477Y-56247132D01*
X101904481Y-56247137D01*
X102027862Y-56370518D01*
X102027867Y-56370522D01*
X102150984Y-56459971D01*
X102169019Y-56473074D01*
X102270646Y-56524856D01*
X102324483Y-56552288D01*
X102324486Y-56552289D01*
X102407455Y-56579246D01*
X102490426Y-56606205D01*
X102662759Y-56633500D01*
X102662760Y-56633500D01*
X102837240Y-56633500D01*
X102837241Y-56633500D01*
X103009574Y-56606205D01*
X103175516Y-56552288D01*
X103330981Y-56473074D01*
X103472139Y-56370517D01*
X103572975Y-56269680D01*
X103634294Y-56236198D01*
X103703986Y-56241182D01*
X103759920Y-56283053D01*
X103766184Y-56292255D01*
X103800970Y-56348652D01*
X103926348Y-56474030D01*
X104077262Y-56567115D01*
X104245574Y-56622887D01*
X104349455Y-56633500D01*
X105150544Y-56633499D01*
X105254426Y-56622887D01*
X105422738Y-56567115D01*
X105573652Y-56474030D01*
X105699030Y-56348652D01*
X105792115Y-56197738D01*
X105847887Y-56029426D01*
X105858500Y-55925545D01*
X105858499Y-54574456D01*
X105847887Y-54470574D01*
X105792115Y-54302262D01*
X105699030Y-54151348D01*
X105573652Y-54025970D01*
X105422738Y-53932885D01*
X105422735Y-53932884D01*
X105254427Y-53877113D01*
X105150546Y-53866500D01*
X104349462Y-53866500D01*
X104349446Y-53866501D01*
X104245572Y-53877113D01*
X104077264Y-53932884D01*
X104077259Y-53932886D01*
X103926346Y-54025971D01*
X103800970Y-54151347D01*
X103800967Y-54151351D01*
X103766191Y-54207732D01*
X103714243Y-54254457D01*
X103645280Y-54265678D01*
X103581198Y-54237835D01*
X103572972Y-54230316D01*
X103472137Y-54129481D01*
X103472132Y-54129477D01*
X103330984Y-54026928D01*
X103330983Y-54026927D01*
X103330981Y-54026926D01*
X103281175Y-54001548D01*
X103175516Y-53947711D01*
X103175513Y-53947710D01*
X103009575Y-53893795D01*
X102923407Y-53880147D01*
X102837241Y-53866500D01*
X102662759Y-53866500D01*
X102605314Y-53875598D01*
X102490424Y-53893795D01*
X102324486Y-53947710D01*
X102324483Y-53947711D01*
X102169015Y-54026928D01*
X102027867Y-54129477D01*
X102027862Y-54129481D01*
X101904481Y-54252862D01*
X101850318Y-54327412D01*
X101794988Y-54370077D01*
X101725375Y-54376056D01*
X101663580Y-54343450D01*
X101649682Y-54327412D01*
X101595518Y-54252862D01*
X101472137Y-54129481D01*
X101472132Y-54129477D01*
X101330984Y-54026928D01*
X101330983Y-54026927D01*
X101330981Y-54026926D01*
X101281175Y-54001548D01*
X101175516Y-53947711D01*
X101175513Y-53947710D01*
X101009575Y-53893795D01*
X100923407Y-53880147D01*
X100837241Y-53866500D01*
X100662759Y-53866500D01*
X100605314Y-53875598D01*
X100490424Y-53893795D01*
X100324486Y-53947710D01*
X100324483Y-53947711D01*
X100169015Y-54026928D01*
X100027867Y-54129477D01*
X100027862Y-54129481D01*
X99904481Y-54252862D01*
X99850318Y-54327412D01*
X99794988Y-54370077D01*
X99725375Y-54376056D01*
X99663580Y-54343450D01*
X99649682Y-54327412D01*
X99595518Y-54252862D01*
X99472137Y-54129481D01*
X99472132Y-54129477D01*
X99330984Y-54026928D01*
X99330983Y-54026927D01*
X99330981Y-54026926D01*
X99281175Y-54001548D01*
X99175516Y-53947711D01*
X99175513Y-53947710D01*
X99009575Y-53893795D01*
X98923407Y-53880147D01*
X98837241Y-53866500D01*
X98662759Y-53866500D01*
X98605314Y-53875598D01*
X98490424Y-53893795D01*
X98324486Y-53947710D01*
X98324483Y-53947711D01*
X98169015Y-54026928D01*
X98027867Y-54129477D01*
X98027862Y-54129481D01*
X97904481Y-54252862D01*
X97845064Y-54334643D01*
X97789734Y-54377308D01*
X97720120Y-54383287D01*
X97658325Y-54350681D01*
X97644428Y-54334642D01*
X97589038Y-54258403D01*
X97466602Y-54135967D01*
X97326524Y-54034195D01*
X97172257Y-53955591D01*
X97007589Y-53902087D01*
X97007581Y-53902085D01*
X97000000Y-53900884D01*
X97000000Y-54969670D01*
X96980255Y-54949925D01*
X96894745Y-54900556D01*
X96799370Y-54875000D01*
X96700630Y-54875000D01*
X96605255Y-54900556D01*
X96519745Y-54949925D01*
X96500000Y-54969670D01*
X96500000Y-53900884D01*
X96499999Y-53900884D01*
X96492418Y-53902085D01*
X96492410Y-53902087D01*
X96327742Y-53955591D01*
X96173475Y-54034195D01*
X96033397Y-54135967D01*
X95910965Y-54258399D01*
X95855571Y-54334643D01*
X95800241Y-54377308D01*
X95730627Y-54383287D01*
X95668832Y-54350681D01*
X95654935Y-54334642D01*
X95595522Y-54252867D01*
X95595518Y-54252862D01*
X95472137Y-54129481D01*
X95472132Y-54129477D01*
X95330984Y-54026928D01*
X95330983Y-54026927D01*
X95330981Y-54026926D01*
X95281175Y-54001548D01*
X95175516Y-53947711D01*
X95175513Y-53947710D01*
X95009575Y-53893795D01*
X94923407Y-53880147D01*
X94837241Y-53866500D01*
X94662759Y-53866500D01*
X94605314Y-53875598D01*
X94490424Y-53893795D01*
X94324486Y-53947710D01*
X94324483Y-53947711D01*
X94169015Y-54026928D01*
X94027867Y-54129477D01*
X94027862Y-54129481D01*
X93904481Y-54252862D01*
X93904477Y-54252867D01*
X93801928Y-54394015D01*
X93722711Y-54549483D01*
X93722710Y-54549486D01*
X93668795Y-54715424D01*
X93641500Y-54887759D01*
X89825500Y-54887759D01*
X89825500Y-49074038D01*
X113639500Y-49074038D01*
X113639500Y-49325961D01*
X113678910Y-49574785D01*
X113756760Y-49814383D01*
X113871132Y-50038848D01*
X114019201Y-50242649D01*
X114019205Y-50242654D01*
X114197345Y-50420794D01*
X114197350Y-50420798D01*
X114307587Y-50500889D01*
X114401155Y-50568870D01*
X114544184Y-50641747D01*
X114625616Y-50683239D01*
X114625618Y-50683239D01*
X114625621Y-50683241D01*
X114865215Y-50761090D01*
X115114038Y-50800500D01*
X115114039Y-50800500D01*
X115365961Y-50800500D01*
X115365962Y-50800500D01*
X115614785Y-50761090D01*
X115854379Y-50683241D01*
X116078845Y-50568870D01*
X116282656Y-50420793D01*
X116460793Y-50242656D01*
X116608870Y-50038845D01*
X116723241Y-49814379D01*
X116801090Y-49574785D01*
X116840500Y-49325962D01*
X116840500Y-49074038D01*
X116801090Y-48825215D01*
X116723241Y-48585621D01*
X116723239Y-48585618D01*
X116723239Y-48585616D01*
X116675885Y-48492679D01*
X116608870Y-48361155D01*
X116565416Y-48301345D01*
X117437500Y-48301345D01*
X117437500Y-50098654D01*
X117444011Y-50159202D01*
X117444011Y-50159204D01*
X117475138Y-50242656D01*
X117495111Y-50296204D01*
X117582739Y-50413261D01*
X117699796Y-50500889D01*
X117836799Y-50551989D01*
X117864050Y-50554918D01*
X117897345Y-50558499D01*
X117897362Y-50558500D01*
X119694638Y-50558500D01*
X119694654Y-50558499D01*
X119721692Y-50555591D01*
X119755201Y-50551989D01*
X119892204Y-50500889D01*
X120009261Y-50413261D01*
X120096889Y-50296204D01*
X120141957Y-50175371D01*
X120183827Y-50119442D01*
X120249291Y-50095025D01*
X120317564Y-50109877D01*
X120345818Y-50131028D01*
X120450996Y-50236206D01*
X120623991Y-50361894D01*
X120717438Y-50409507D01*
X120814516Y-50458972D01*
X120814519Y-50458973D01*
X120916200Y-50492010D01*
X121017884Y-50525049D01*
X121229084Y-50558500D01*
X121229085Y-50558500D01*
X121442915Y-50558500D01*
X121442916Y-50558500D01*
X121654116Y-50525049D01*
X121857483Y-50458972D01*
X122048009Y-50361894D01*
X122221004Y-50236206D01*
X122372206Y-50085004D01*
X122497894Y-49912009D01*
X122497896Y-49912004D01*
X122500270Y-49908132D01*
X122552080Y-49861254D01*
X122621009Y-49849829D01*
X122685173Y-49877483D01*
X122711730Y-49908132D01*
X122714103Y-49912005D01*
X122714105Y-49912008D01*
X122714106Y-49912009D01*
X122839794Y-50085004D01*
X122990996Y-50236206D01*
X123163991Y-50361894D01*
X123257438Y-50409507D01*
X123354516Y-50458972D01*
X123354519Y-50458973D01*
X123456200Y-50492010D01*
X123557884Y-50525049D01*
X123769084Y-50558500D01*
X123769085Y-50558500D01*
X123982915Y-50558500D01*
X123982916Y-50558500D01*
X124194116Y-50525049D01*
X124397483Y-50458972D01*
X124588009Y-50361894D01*
X124761004Y-50236206D01*
X124912206Y-50085004D01*
X125037894Y-49912009D01*
X125040283Y-49907319D01*
X125088254Y-49856522D01*
X125156074Y-49839724D01*
X125222210Y-49862258D01*
X125258196Y-49903783D01*
X125258829Y-49903396D01*
X125261167Y-49907211D01*
X125261251Y-49907308D01*
X125261371Y-49907545D01*
X125261373Y-49907547D01*
X125300728Y-49961716D01*
X125933037Y-49329408D01*
X125950075Y-49392993D01*
X126015901Y-49507007D01*
X126108993Y-49600099D01*
X126223007Y-49665925D01*
X126286590Y-49682962D01*
X125654282Y-50315269D01*
X125654282Y-50315270D01*
X125708449Y-50354624D01*
X125897782Y-50451095D01*
X126099870Y-50516757D01*
X126309754Y-50550000D01*
X126522246Y-50550000D01*
X126732127Y-50516757D01*
X126732130Y-50516757D01*
X126934217Y-50451095D01*
X127123554Y-50354622D01*
X127177716Y-50315270D01*
X127177717Y-50315270D01*
X126545408Y-49682962D01*
X126608993Y-49665925D01*
X126723007Y-49600099D01*
X126816099Y-49507007D01*
X126881925Y-49392993D01*
X126898962Y-49329409D01*
X127531270Y-49961717D01*
X127531270Y-49961716D01*
X127570621Y-49907556D01*
X127570738Y-49907327D01*
X127570808Y-49907252D01*
X127573168Y-49903402D01*
X127573976Y-49903897D01*
X127618707Y-49856526D01*
X127686526Y-49839723D01*
X127752663Y-49862254D01*
X127791712Y-49907311D01*
X127794105Y-49912008D01*
X127830220Y-49961716D01*
X127919794Y-50085004D01*
X128070996Y-50236206D01*
X128243991Y-50361894D01*
X128337438Y-50409507D01*
X128434516Y-50458972D01*
X128434519Y-50458973D01*
X128536200Y-50492010D01*
X128637884Y-50525049D01*
X128849084Y-50558500D01*
X128849085Y-50558500D01*
X129062915Y-50558500D01*
X129062916Y-50558500D01*
X129274116Y-50525049D01*
X129477483Y-50458972D01*
X129668009Y-50361894D01*
X129841004Y-50236206D01*
X129992206Y-50085004D01*
X130117894Y-49912009D01*
X130117896Y-49912004D01*
X130120270Y-49908132D01*
X130172080Y-49861254D01*
X130241009Y-49849829D01*
X130305173Y-49877483D01*
X130331730Y-49908132D01*
X130334103Y-49912005D01*
X130334105Y-49912008D01*
X130334106Y-49912009D01*
X130459794Y-50085004D01*
X130610996Y-50236206D01*
X130783991Y-50361894D01*
X130877438Y-50409507D01*
X130974516Y-50458972D01*
X130974519Y-50458973D01*
X131076200Y-50492010D01*
X131177884Y-50525049D01*
X131389084Y-50558500D01*
X131389085Y-50558500D01*
X131602915Y-50558500D01*
X131602916Y-50558500D01*
X131814116Y-50525049D01*
X132017483Y-50458972D01*
X132208009Y-50361894D01*
X132381004Y-50236206D01*
X132532206Y-50085004D01*
X132657894Y-49912009D01*
X132657896Y-49912004D01*
X132660270Y-49908132D01*
X132712080Y-49861254D01*
X132781009Y-49849829D01*
X132845173Y-49877483D01*
X132871730Y-49908132D01*
X132874103Y-49912005D01*
X132874105Y-49912008D01*
X132874106Y-49912009D01*
X132999794Y-50085004D01*
X133150996Y-50236206D01*
X133323991Y-50361894D01*
X133417438Y-50409507D01*
X133514516Y-50458972D01*
X133514519Y-50458973D01*
X133616200Y-50492010D01*
X133717884Y-50525049D01*
X133929084Y-50558500D01*
X133929085Y-50558500D01*
X134142915Y-50558500D01*
X134142916Y-50558500D01*
X134354116Y-50525049D01*
X134557483Y-50458972D01*
X134748009Y-50361894D01*
X134921004Y-50236206D01*
X135072206Y-50085004D01*
X135197894Y-49912009D01*
X135197896Y-49912004D01*
X135200270Y-49908132D01*
X135252080Y-49861254D01*
X135321009Y-49849829D01*
X135385173Y-49877483D01*
X135411730Y-49908132D01*
X135414103Y-49912005D01*
X135414105Y-49912008D01*
X135414106Y-49912009D01*
X135539794Y-50085004D01*
X135690996Y-50236206D01*
X135863991Y-50361894D01*
X135957438Y-50409507D01*
X136054516Y-50458972D01*
X136054519Y-50458973D01*
X136156200Y-50492010D01*
X136257884Y-50525049D01*
X136469084Y-50558500D01*
X136469085Y-50558500D01*
X136682915Y-50558500D01*
X136682916Y-50558500D01*
X136894116Y-50525049D01*
X137097483Y-50458972D01*
X137288009Y-50361894D01*
X137461004Y-50236206D01*
X137612206Y-50085004D01*
X137737894Y-49912009D01*
X137737896Y-49912004D01*
X137740270Y-49908132D01*
X137792080Y-49861254D01*
X137861009Y-49849829D01*
X137925173Y-49877483D01*
X137951730Y-49908132D01*
X137954103Y-49912005D01*
X137954105Y-49912008D01*
X137954106Y-49912009D01*
X138079794Y-50085004D01*
X138230996Y-50236206D01*
X138403991Y-50361894D01*
X138497438Y-50409507D01*
X138594516Y-50458972D01*
X138594519Y-50458973D01*
X138696200Y-50492010D01*
X138797884Y-50525049D01*
X139009084Y-50558500D01*
X139009085Y-50558500D01*
X139222915Y-50558500D01*
X139222916Y-50558500D01*
X139434116Y-50525049D01*
X139637483Y-50458972D01*
X139828009Y-50361894D01*
X140001004Y-50236206D01*
X140152206Y-50085004D01*
X140277894Y-49912009D01*
X140277896Y-49912004D01*
X140280270Y-49908132D01*
X140332080Y-49861254D01*
X140401009Y-49849829D01*
X140465173Y-49877483D01*
X140491730Y-49908132D01*
X140494103Y-49912005D01*
X140494105Y-49912008D01*
X140494106Y-49912009D01*
X140619794Y-50085004D01*
X140770996Y-50236206D01*
X140943991Y-50361894D01*
X141037438Y-50409507D01*
X141134516Y-50458972D01*
X141134519Y-50458973D01*
X141236200Y-50492010D01*
X141337884Y-50525049D01*
X141549084Y-50558500D01*
X141549085Y-50558500D01*
X141762915Y-50558500D01*
X141762916Y-50558500D01*
X141974116Y-50525049D01*
X142177483Y-50458972D01*
X142368009Y-50361894D01*
X142541004Y-50236206D01*
X142692206Y-50085004D01*
X142817894Y-49912009D01*
X142914972Y-49721483D01*
X142981049Y-49518116D01*
X143014500Y-49306916D01*
X143014500Y-49093084D01*
X142981049Y-48881884D01*
X142914972Y-48678517D01*
X142914972Y-48678516D01*
X142867639Y-48585621D01*
X142817894Y-48487991D01*
X142692206Y-48314996D01*
X142678555Y-48301345D01*
X144361500Y-48301345D01*
X144361500Y-50098654D01*
X144368011Y-50159202D01*
X144368011Y-50159204D01*
X144399138Y-50242656D01*
X144419111Y-50296204D01*
X144506739Y-50413261D01*
X144623796Y-50500889D01*
X144760799Y-50551989D01*
X144788050Y-50554918D01*
X144821345Y-50558499D01*
X144821362Y-50558500D01*
X146618638Y-50558500D01*
X146618654Y-50558499D01*
X146645692Y-50555591D01*
X146679201Y-50551989D01*
X146816204Y-50500889D01*
X146933261Y-50413261D01*
X147020889Y-50296204D01*
X147065957Y-50175371D01*
X147107827Y-50119442D01*
X147173291Y-50095025D01*
X147241564Y-50109877D01*
X147269818Y-50131028D01*
X147374996Y-50236206D01*
X147547991Y-50361894D01*
X147641438Y-50409507D01*
X147738516Y-50458972D01*
X147738519Y-50458973D01*
X147840200Y-50492010D01*
X147941884Y-50525049D01*
X148153084Y-50558500D01*
X148153085Y-50558500D01*
X148366915Y-50558500D01*
X148366916Y-50558500D01*
X148578116Y-50525049D01*
X148781483Y-50458972D01*
X148972009Y-50361894D01*
X149145004Y-50236206D01*
X149296206Y-50085004D01*
X149421894Y-49912009D01*
X149421896Y-49912004D01*
X149424270Y-49908132D01*
X149476080Y-49861254D01*
X149545009Y-49849829D01*
X149609173Y-49877483D01*
X149635730Y-49908132D01*
X149638103Y-49912005D01*
X149638105Y-49912008D01*
X149638106Y-49912009D01*
X149763794Y-50085004D01*
X149914996Y-50236206D01*
X150087991Y-50361894D01*
X150181438Y-50409507D01*
X150278516Y-50458972D01*
X150278519Y-50458973D01*
X150380200Y-50492010D01*
X150481884Y-50525049D01*
X150693084Y-50558500D01*
X150693085Y-50558500D01*
X150906915Y-50558500D01*
X150906916Y-50558500D01*
X151118116Y-50525049D01*
X151321483Y-50458972D01*
X151512009Y-50361894D01*
X151685004Y-50236206D01*
X151836206Y-50085004D01*
X151961894Y-49912009D01*
X151961896Y-49912004D01*
X151964270Y-49908132D01*
X152016080Y-49861254D01*
X152085009Y-49849829D01*
X152149173Y-49877483D01*
X152175730Y-49908132D01*
X152178103Y-49912005D01*
X152178105Y-49912008D01*
X152178106Y-49912009D01*
X152303794Y-50085004D01*
X152454996Y-50236206D01*
X152627991Y-50361894D01*
X152721438Y-50409507D01*
X152818516Y-50458972D01*
X152818519Y-50458973D01*
X152920200Y-50492010D01*
X153021884Y-50525049D01*
X153233084Y-50558500D01*
X153233085Y-50558500D01*
X153446915Y-50558500D01*
X153446916Y-50558500D01*
X153658116Y-50525049D01*
X153861483Y-50458972D01*
X154052009Y-50361894D01*
X154225004Y-50236206D01*
X154376206Y-50085004D01*
X154501894Y-49912009D01*
X154501896Y-49912004D01*
X154504270Y-49908132D01*
X154556080Y-49861254D01*
X154625009Y-49849829D01*
X154689173Y-49877483D01*
X154715730Y-49908132D01*
X154718103Y-49912005D01*
X154718105Y-49912008D01*
X154718106Y-49912009D01*
X154843794Y-50085004D01*
X154994996Y-50236206D01*
X155167991Y-50361894D01*
X155261438Y-50409507D01*
X155358516Y-50458972D01*
X155358519Y-50458973D01*
X155460200Y-50492010D01*
X155561884Y-50525049D01*
X155773084Y-50558500D01*
X155773085Y-50558500D01*
X155986915Y-50558500D01*
X155986916Y-50558500D01*
X156198116Y-50525049D01*
X156401483Y-50458972D01*
X156592009Y-50361894D01*
X156765004Y-50236206D01*
X156916206Y-50085004D01*
X157041894Y-49912009D01*
X157041896Y-49912004D01*
X157044270Y-49908132D01*
X157096080Y-49861254D01*
X157165009Y-49849829D01*
X157229173Y-49877483D01*
X157255730Y-49908132D01*
X157258103Y-49912005D01*
X157258105Y-49912008D01*
X157258106Y-49912009D01*
X157383794Y-50085004D01*
X157534996Y-50236206D01*
X157707991Y-50361894D01*
X157801438Y-50409507D01*
X157898516Y-50458972D01*
X157898519Y-50458973D01*
X158000200Y-50492010D01*
X158101884Y-50525049D01*
X158313084Y-50558500D01*
X158313085Y-50558500D01*
X158526915Y-50558500D01*
X158526916Y-50558500D01*
X158738116Y-50525049D01*
X158941483Y-50458972D01*
X159132009Y-50361894D01*
X159305004Y-50236206D01*
X159456206Y-50085004D01*
X159581894Y-49912009D01*
X159581896Y-49912004D01*
X159584270Y-49908132D01*
X159636080Y-49861254D01*
X159705009Y-49849829D01*
X159769173Y-49877483D01*
X159795730Y-49908132D01*
X159798103Y-49912005D01*
X159798105Y-49912008D01*
X159798106Y-49912009D01*
X159923794Y-50085004D01*
X160074996Y-50236206D01*
X160247991Y-50361894D01*
X160341438Y-50409507D01*
X160438516Y-50458972D01*
X160438519Y-50458973D01*
X160540200Y-50492010D01*
X160641884Y-50525049D01*
X160853084Y-50558500D01*
X160853085Y-50558500D01*
X161066915Y-50558500D01*
X161066916Y-50558500D01*
X161278116Y-50525049D01*
X161481483Y-50458972D01*
X161672009Y-50361894D01*
X161845004Y-50236206D01*
X161996206Y-50085004D01*
X162121894Y-49912009D01*
X162121896Y-49912004D01*
X162124270Y-49908132D01*
X162176080Y-49861254D01*
X162245009Y-49849829D01*
X162309173Y-49877483D01*
X162335730Y-49908132D01*
X162338103Y-49912005D01*
X162338105Y-49912008D01*
X162338106Y-49912009D01*
X162463794Y-50085004D01*
X162614996Y-50236206D01*
X162787991Y-50361894D01*
X162881438Y-50409507D01*
X162978516Y-50458972D01*
X162978519Y-50458973D01*
X163080200Y-50492010D01*
X163181884Y-50525049D01*
X163393084Y-50558500D01*
X163393085Y-50558500D01*
X163606915Y-50558500D01*
X163606916Y-50558500D01*
X163818116Y-50525049D01*
X164021483Y-50458972D01*
X164212009Y-50361894D01*
X164385004Y-50236206D01*
X164536206Y-50085004D01*
X164661894Y-49912009D01*
X164758972Y-49721483D01*
X164825049Y-49518116D01*
X164858500Y-49306916D01*
X164858500Y-49093084D01*
X164825049Y-48881884D01*
X164758972Y-48678517D01*
X164758972Y-48678516D01*
X164709507Y-48581438D01*
X164661894Y-48487991D01*
X164536206Y-48314996D01*
X164385004Y-48163794D01*
X164212009Y-48038106D01*
X164021483Y-47941027D01*
X164021480Y-47941026D01*
X163818117Y-47874951D01*
X163712516Y-47858225D01*
X163606916Y-47841500D01*
X163393084Y-47841500D01*
X163322684Y-47852650D01*
X163181882Y-47874951D01*
X162978519Y-47941026D01*
X162978516Y-47941027D01*
X162787990Y-48038106D01*
X162614993Y-48163796D01*
X162463796Y-48314993D01*
X162338105Y-48487991D01*
X162335727Y-48491873D01*
X162283914Y-48538748D01*
X162214984Y-48550169D01*
X162150822Y-48522512D01*
X162124273Y-48491873D01*
X162121894Y-48487991D01*
X162085778Y-48438282D01*
X161996206Y-48314996D01*
X161845004Y-48163794D01*
X161672009Y-48038106D01*
X161481483Y-47941027D01*
X161481480Y-47941026D01*
X161278117Y-47874951D01*
X161172516Y-47858225D01*
X161066916Y-47841500D01*
X160853084Y-47841500D01*
X160782684Y-47852650D01*
X160641882Y-47874951D01*
X160438519Y-47941026D01*
X160438516Y-47941027D01*
X160247990Y-48038106D01*
X160074993Y-48163796D01*
X159923796Y-48314993D01*
X159798105Y-48487991D01*
X159795727Y-48491873D01*
X159743914Y-48538748D01*
X159674984Y-48550169D01*
X159610822Y-48522512D01*
X159584273Y-48491873D01*
X159581894Y-48487991D01*
X159545778Y-48438282D01*
X159456206Y-48314996D01*
X159305004Y-48163794D01*
X159132009Y-48038106D01*
X158941483Y-47941027D01*
X158941480Y-47941026D01*
X158738117Y-47874951D01*
X158632516Y-47858225D01*
X158526916Y-47841500D01*
X158313084Y-47841500D01*
X158242684Y-47852650D01*
X158101882Y-47874951D01*
X157898519Y-47941026D01*
X157898516Y-47941027D01*
X157707990Y-48038106D01*
X157534993Y-48163796D01*
X157383796Y-48314993D01*
X157258105Y-48487991D01*
X157255727Y-48491873D01*
X157203914Y-48538748D01*
X157134984Y-48550169D01*
X157070822Y-48522512D01*
X157044273Y-48491873D01*
X157041894Y-48487991D01*
X157005778Y-48438282D01*
X156916206Y-48314996D01*
X156765004Y-48163794D01*
X156592009Y-48038106D01*
X156401483Y-47941027D01*
X156401480Y-47941026D01*
X156198117Y-47874951D01*
X156092516Y-47858225D01*
X155986916Y-47841500D01*
X155773084Y-47841500D01*
X155702684Y-47852650D01*
X155561882Y-47874951D01*
X155358519Y-47941026D01*
X155358516Y-47941027D01*
X155167990Y-48038106D01*
X154994993Y-48163796D01*
X154843796Y-48314993D01*
X154718105Y-48487991D01*
X154715727Y-48491873D01*
X154663914Y-48538748D01*
X154594984Y-48550169D01*
X154530822Y-48522512D01*
X154504273Y-48491873D01*
X154501894Y-48487991D01*
X154465778Y-48438282D01*
X154376206Y-48314996D01*
X154225004Y-48163794D01*
X154052009Y-48038106D01*
X153861483Y-47941027D01*
X153861480Y-47941026D01*
X153658117Y-47874951D01*
X153552516Y-47858225D01*
X153446916Y-47841500D01*
X153233084Y-47841500D01*
X153162684Y-47852650D01*
X153021882Y-47874951D01*
X152818519Y-47941026D01*
X152818516Y-47941027D01*
X152627990Y-48038106D01*
X152454993Y-48163796D01*
X152303796Y-48314993D01*
X152178105Y-48487991D01*
X152175727Y-48491873D01*
X152123914Y-48538748D01*
X152054984Y-48550169D01*
X151990822Y-48522512D01*
X151964273Y-48491873D01*
X151961894Y-48487991D01*
X151925778Y-48438282D01*
X151836206Y-48314996D01*
X151685004Y-48163794D01*
X151512009Y-48038106D01*
X151321483Y-47941027D01*
X151321480Y-47941026D01*
X151118117Y-47874951D01*
X151012516Y-47858225D01*
X150906916Y-47841500D01*
X150693084Y-47841500D01*
X150622684Y-47852650D01*
X150481882Y-47874951D01*
X150278519Y-47941026D01*
X150278516Y-47941027D01*
X150087990Y-48038106D01*
X149914993Y-48163796D01*
X149763796Y-48314993D01*
X149638105Y-48487991D01*
X149635727Y-48491873D01*
X149583914Y-48538748D01*
X149514984Y-48550169D01*
X149450822Y-48522512D01*
X149424273Y-48491873D01*
X149421894Y-48487991D01*
X149385778Y-48438282D01*
X149296206Y-48314996D01*
X149145004Y-48163794D01*
X148972009Y-48038106D01*
X148781483Y-47941027D01*
X148781480Y-47941026D01*
X148578117Y-47874951D01*
X148472516Y-47858225D01*
X148366916Y-47841500D01*
X148153084Y-47841500D01*
X148082684Y-47852650D01*
X147941882Y-47874951D01*
X147738519Y-47941026D01*
X147738516Y-47941027D01*
X147547990Y-48038106D01*
X147374997Y-48163793D01*
X147269818Y-48268972D01*
X147208495Y-48302456D01*
X147138803Y-48297472D01*
X147082870Y-48255600D01*
X147065958Y-48224629D01*
X147020889Y-48103796D01*
X146933261Y-47986739D01*
X146816204Y-47899111D01*
X146679203Y-47848011D01*
X146618654Y-47841500D01*
X146618638Y-47841500D01*
X144821362Y-47841500D01*
X144821345Y-47841500D01*
X144760797Y-47848011D01*
X144760795Y-47848011D01*
X144623795Y-47899111D01*
X144506739Y-47986739D01*
X144419111Y-48103795D01*
X144368011Y-48240795D01*
X144368011Y-48240797D01*
X144361500Y-48301345D01*
X142678555Y-48301345D01*
X142541004Y-48163794D01*
X142368009Y-48038106D01*
X142177483Y-47941027D01*
X142177480Y-47941026D01*
X141974117Y-47874951D01*
X141868516Y-47858225D01*
X141762916Y-47841500D01*
X141549084Y-47841500D01*
X141478684Y-47852650D01*
X141337882Y-47874951D01*
X141134519Y-47941026D01*
X141134516Y-47941027D01*
X140943990Y-48038106D01*
X140770993Y-48163796D01*
X140619796Y-48314993D01*
X140494105Y-48487991D01*
X140491727Y-48491873D01*
X140439914Y-48538748D01*
X140370984Y-48550169D01*
X140306822Y-48522512D01*
X140280273Y-48491873D01*
X140277894Y-48487991D01*
X140241778Y-48438282D01*
X140152206Y-48314996D01*
X140001004Y-48163794D01*
X139828009Y-48038106D01*
X139637483Y-47941027D01*
X139637480Y-47941026D01*
X139434117Y-47874951D01*
X139328516Y-47858225D01*
X139222916Y-47841500D01*
X139009084Y-47841500D01*
X138938684Y-47852650D01*
X138797882Y-47874951D01*
X138594519Y-47941026D01*
X138594516Y-47941027D01*
X138403990Y-48038106D01*
X138230993Y-48163796D01*
X138079796Y-48314993D01*
X137954105Y-48487991D01*
X137951727Y-48491873D01*
X137899914Y-48538748D01*
X137830984Y-48550169D01*
X137766822Y-48522512D01*
X137740273Y-48491873D01*
X137737894Y-48487991D01*
X137701778Y-48438282D01*
X137612206Y-48314996D01*
X137461004Y-48163794D01*
X137288009Y-48038106D01*
X137097483Y-47941027D01*
X137097480Y-47941026D01*
X136894117Y-47874951D01*
X136788516Y-47858225D01*
X136682916Y-47841500D01*
X136469084Y-47841500D01*
X136398684Y-47852650D01*
X136257882Y-47874951D01*
X136054519Y-47941026D01*
X136054516Y-47941027D01*
X135863990Y-48038106D01*
X135690993Y-48163796D01*
X135539796Y-48314993D01*
X135414105Y-48487991D01*
X135411727Y-48491873D01*
X135359914Y-48538748D01*
X135290984Y-48550169D01*
X135226822Y-48522512D01*
X135200273Y-48491873D01*
X135197894Y-48487991D01*
X135161778Y-48438282D01*
X135072206Y-48314996D01*
X134921004Y-48163794D01*
X134748009Y-48038106D01*
X134557483Y-47941027D01*
X134557480Y-47941026D01*
X134354117Y-47874951D01*
X134248516Y-47858225D01*
X134142916Y-47841500D01*
X133929084Y-47841500D01*
X133858684Y-47852650D01*
X133717882Y-47874951D01*
X133514519Y-47941026D01*
X133514516Y-47941027D01*
X133323990Y-48038106D01*
X133150993Y-48163796D01*
X132999796Y-48314993D01*
X132874105Y-48487991D01*
X132871727Y-48491873D01*
X132819914Y-48538748D01*
X132750984Y-48550169D01*
X132686822Y-48522512D01*
X132660273Y-48491873D01*
X132657894Y-48487991D01*
X132621778Y-48438282D01*
X132532206Y-48314996D01*
X132381004Y-48163794D01*
X132208009Y-48038106D01*
X132017483Y-47941027D01*
X132017480Y-47941026D01*
X131814117Y-47874951D01*
X131708516Y-47858225D01*
X131602916Y-47841500D01*
X131389084Y-47841500D01*
X131318684Y-47852650D01*
X131177882Y-47874951D01*
X130974519Y-47941026D01*
X130974516Y-47941027D01*
X130783990Y-48038106D01*
X130610993Y-48163796D01*
X130459796Y-48314993D01*
X130334105Y-48487991D01*
X130331727Y-48491873D01*
X130279914Y-48538748D01*
X130210984Y-48550169D01*
X130146822Y-48522512D01*
X130120273Y-48491873D01*
X130117894Y-48487991D01*
X130081778Y-48438282D01*
X129992206Y-48314996D01*
X129841004Y-48163794D01*
X129668009Y-48038106D01*
X129477483Y-47941027D01*
X129477480Y-47941026D01*
X129274117Y-47874951D01*
X129168516Y-47858225D01*
X129062916Y-47841500D01*
X128849084Y-47841500D01*
X128778684Y-47852650D01*
X128637882Y-47874951D01*
X128434519Y-47941026D01*
X128434516Y-47941027D01*
X128243990Y-48038106D01*
X128070993Y-48163796D01*
X127919796Y-48314993D01*
X127794103Y-48487994D01*
X127791709Y-48492693D01*
X127743731Y-48543485D01*
X127675908Y-48560275D01*
X127609775Y-48537732D01*
X127573804Y-48496215D01*
X127573171Y-48496604D01*
X127570826Y-48492778D01*
X127570743Y-48492682D01*
X127570624Y-48492449D01*
X127531270Y-48438282D01*
X127531269Y-48438282D01*
X126898962Y-49070590D01*
X126881925Y-49007007D01*
X126816099Y-48892993D01*
X126723007Y-48799901D01*
X126608993Y-48734075D01*
X126545409Y-48717037D01*
X127177716Y-48084728D01*
X127123550Y-48045375D01*
X126934217Y-47948904D01*
X126732129Y-47883242D01*
X126522246Y-47850000D01*
X126309754Y-47850000D01*
X126099872Y-47883242D01*
X126099869Y-47883242D01*
X125897782Y-47948904D01*
X125708439Y-48045380D01*
X125654282Y-48084727D01*
X125654282Y-48084728D01*
X126286591Y-48717037D01*
X126223007Y-48734075D01*
X126108993Y-48799901D01*
X126015901Y-48892993D01*
X125950075Y-49007007D01*
X125933037Y-49070591D01*
X125300728Y-48438282D01*
X125300727Y-48438282D01*
X125261380Y-48492440D01*
X125261374Y-48492449D01*
X125261246Y-48492702D01*
X125261172Y-48492780D01*
X125258838Y-48496590D01*
X125258036Y-48496099D01*
X125213264Y-48543490D01*
X125145441Y-48560275D01*
X125079309Y-48537728D01*
X125040283Y-48492680D01*
X125037894Y-48487991D01*
X124912206Y-48314996D01*
X124761004Y-48163794D01*
X124588009Y-48038106D01*
X124397483Y-47941027D01*
X124397480Y-47941026D01*
X124194117Y-47874951D01*
X124088516Y-47858225D01*
X123982916Y-47841500D01*
X123769084Y-47841500D01*
X123698684Y-47852650D01*
X123557882Y-47874951D01*
X123354519Y-47941026D01*
X123354516Y-47941027D01*
X123163990Y-48038106D01*
X122990993Y-48163796D01*
X122839796Y-48314993D01*
X122714105Y-48487991D01*
X122711727Y-48491873D01*
X122659914Y-48538748D01*
X122590984Y-48550169D01*
X122526822Y-48522512D01*
X122500273Y-48491873D01*
X122497894Y-48487991D01*
X122461778Y-48438282D01*
X122372206Y-48314996D01*
X122221004Y-48163794D01*
X122048009Y-48038106D01*
X121857483Y-47941027D01*
X121857480Y-47941026D01*
X121654117Y-47874951D01*
X121548516Y-47858225D01*
X121442916Y-47841500D01*
X121229084Y-47841500D01*
X121158684Y-47852650D01*
X121017882Y-47874951D01*
X120814519Y-47941026D01*
X120814516Y-47941027D01*
X120623990Y-48038106D01*
X120450997Y-48163793D01*
X120345818Y-48268972D01*
X120284495Y-48302456D01*
X120214803Y-48297472D01*
X120158870Y-48255600D01*
X120141958Y-48224629D01*
X120096889Y-48103796D01*
X120009261Y-47986739D01*
X119892204Y-47899111D01*
X119755203Y-47848011D01*
X119694654Y-47841500D01*
X119694638Y-47841500D01*
X117897362Y-47841500D01*
X117897345Y-47841500D01*
X117836797Y-47848011D01*
X117836795Y-47848011D01*
X117699795Y-47899111D01*
X117582739Y-47986739D01*
X117495111Y-48103795D01*
X117444011Y-48240795D01*
X117444011Y-48240797D01*
X117437500Y-48301345D01*
X116565416Y-48301345D01*
X116562602Y-48297472D01*
X116460798Y-48157350D01*
X116460794Y-48157345D01*
X116282654Y-47979205D01*
X116282649Y-47979201D01*
X116078848Y-47831132D01*
X116078847Y-47831131D01*
X116078845Y-47831130D01*
X116008747Y-47795413D01*
X115854383Y-47716760D01*
X115614785Y-47638910D01*
X115365962Y-47599500D01*
X115114038Y-47599500D01*
X114989626Y-47619205D01*
X114865214Y-47638910D01*
X114625616Y-47716760D01*
X114401151Y-47831132D01*
X114197350Y-47979201D01*
X114197345Y-47979205D01*
X114019205Y-48157345D01*
X114019201Y-48157350D01*
X113871132Y-48361151D01*
X113756760Y-48585616D01*
X113678910Y-48825214D01*
X113639500Y-49074038D01*
X89825500Y-49074038D01*
X89825500Y-47410516D01*
X97341500Y-47410516D01*
X97341500Y-47589483D01*
X97376411Y-47764992D01*
X97376413Y-47765000D01*
X97444896Y-47930332D01*
X97444901Y-47930342D01*
X97544321Y-48079134D01*
X97544324Y-48079138D01*
X97670861Y-48205675D01*
X97670865Y-48205678D01*
X97819657Y-48305098D01*
X97819661Y-48305100D01*
X97819664Y-48305102D01*
X97985000Y-48373587D01*
X98160516Y-48408499D01*
X98160520Y-48408500D01*
X98160521Y-48408500D01*
X98339480Y-48408500D01*
X98339481Y-48408499D01*
X98515000Y-48373587D01*
X98680336Y-48305102D01*
X98829135Y-48205678D01*
X98829138Y-48205675D01*
X98839995Y-48194819D01*
X98901318Y-48161334D01*
X98927676Y-48158500D01*
X101322324Y-48158500D01*
X101389363Y-48178185D01*
X101410005Y-48194819D01*
X101420861Y-48205675D01*
X101420865Y-48205678D01*
X101569657Y-48305098D01*
X101569661Y-48305100D01*
X101569664Y-48305102D01*
X101735000Y-48373587D01*
X101910516Y-48408499D01*
X101910520Y-48408500D01*
X101910521Y-48408500D01*
X102089480Y-48408500D01*
X102089481Y-48408499D01*
X102265000Y-48373587D01*
X102430336Y-48305102D01*
X102579135Y-48205678D01*
X102705678Y-48079135D01*
X102805102Y-47930336D01*
X102873587Y-47765000D01*
X102908500Y-47589479D01*
X102908500Y-47410521D01*
X102873587Y-47235000D01*
X102805102Y-47069664D01*
X102805100Y-47069661D01*
X102805098Y-47069657D01*
X102705678Y-46920865D01*
X102705675Y-46920861D01*
X102579138Y-46794324D01*
X102579134Y-46794321D01*
X102430342Y-46694901D01*
X102430332Y-46694896D01*
X102265000Y-46626413D01*
X102264992Y-46626411D01*
X102089483Y-46591500D01*
X102089479Y-46591500D01*
X101910521Y-46591500D01*
X101910516Y-46591500D01*
X101735007Y-46626411D01*
X101734999Y-46626413D01*
X101569667Y-46694896D01*
X101569657Y-46694901D01*
X101420865Y-46794321D01*
X101420861Y-46794324D01*
X101410005Y-46805181D01*
X101348682Y-46838666D01*
X101322324Y-46841500D01*
X98927676Y-46841500D01*
X98860637Y-46821815D01*
X98839995Y-46805181D01*
X98829138Y-46794324D01*
X98829134Y-46794321D01*
X98680342Y-46694901D01*
X98680332Y-46694896D01*
X98515000Y-46626413D01*
X98514992Y-46626411D01*
X98339483Y-46591500D01*
X98339479Y-46591500D01*
X98160521Y-46591500D01*
X98160516Y-46591500D01*
X97985007Y-46626411D01*
X97984999Y-46626413D01*
X97819667Y-46694896D01*
X97819657Y-46694901D01*
X97670865Y-46794321D01*
X97670861Y-46794324D01*
X97544324Y-46920861D01*
X97544321Y-46920865D01*
X97444901Y-47069657D01*
X97444896Y-47069667D01*
X97376413Y-47234999D01*
X97376411Y-47235007D01*
X97341500Y-47410516D01*
X89825500Y-47410516D01*
X89825500Y-28505750D01*
X89845185Y-28438711D01*
X89897989Y-28392956D01*
X89949500Y-28381750D01*
X173550500Y-28381750D01*
X173617539Y-28401435D01*
G37*
%TD.AperFunction*%
%TD*%
M02*
