M48
; DRILL file {KiCad 9.0.3} date 2025-08-05T14:59:24-0700
; FORMAT={-:-/ absolute / metric / decimal}
; #@! TF.CreationDate,2025-08-05T14:59:24-07:00
; #@! TF.GenerationSoftware,Kicad,Pcbnew,9.0.3
; #@! TF.FileFunction,Plated,1,2,PTH
FMAT,2
METRIC
; #@! TA.AperFunction,Plated,PTH,ViaDrill
T1C0.400
; #@! TA.AperFunction,Plated,PTH,ComponentDrill
T2C0.500
; #@! TA.AperFunction,Plated,PTH,ComponentDrill
T3C0.750
; #@! TA.AperFunction,Plated,PTH,ComponentDrill
T4C0.800
; #@! TA.AperFunction,Plated,PTH,ComponentDrill
T5C1.000
; #@! TA.AperFunction,Plated,PTH,ComponentDrill
T6C1.200
; #@! TA.AperFunction,Plated,PTH,ComponentDrill
T7C1.800
%
G90
G05
T1
X98.25Y-47.5
X102.0Y-47.5
X113.0Y-83.55
X114.75Y-89.75
X116.25Y-94.25
X116.75Y-43.0
X116.75Y-100.5
X116.75Y-106.75
X118.25Y-100.5
X118.25Y-106.75
X123.25Y-42.924
X124.77Y-79.007
X128.5Y-84.75
X129.75Y-42.973
X129.75Y-76.0
X130.5Y-80.25
X133.9Y-92.7
X134.75Y-81.0
X136.295Y-42.974
X136.75Y-67.25
X136.75Y-70.25
X138.0Y-95.75
X138.008Y-76.3
X138.1Y-94.0
X139.4Y-83.0
X142.62Y-42.949
X144.545Y-80.55
X145.75Y-94.0
X145.75Y-95.75
X147.5Y-86.0
X148.295Y-71.75
X149.003Y-42.824
X152.5Y-84.2
X155.45Y-42.827
X156.5Y-93.75
X160.96Y-103.75
X161.976Y-43.01
X163.5Y-105.0
X168.526Y-42.984
X169.25Y-98.75
X169.25Y-102.25
T2
X148.5Y-67.75
T3
X94.7Y-87.85
X94.75Y-55.25
X94.75Y-61.75
X94.75Y-68.25
X94.75Y-74.75
X94.75Y-81.25
X94.75Y-94.25
X96.7Y-87.85
X96.75Y-55.25
X96.75Y-61.75
X96.75Y-68.25
X96.75Y-74.75
X96.75Y-81.25
X96.75Y-94.25
X98.7Y-87.85
X98.75Y-55.25
X98.75Y-61.75
X98.75Y-68.25
X98.75Y-74.75
X98.75Y-81.25
X98.75Y-94.25
X100.7Y-87.85
X100.75Y-55.25
X100.75Y-61.75
X100.75Y-68.25
X100.75Y-74.75
X100.75Y-81.25
X100.75Y-94.25
X102.7Y-87.85
X102.75Y-55.25
X102.75Y-61.75
X102.75Y-68.25
X102.75Y-74.75
X102.75Y-81.25
X102.75Y-94.25
X104.7Y-87.85
X104.75Y-55.25
X104.75Y-61.75
X104.75Y-68.25
X104.75Y-74.75
X104.75Y-81.25
X104.75Y-94.25
T4
X144.545Y-69.75
X144.545Y-71.75
T5
X118.796Y-49.2
X121.336Y-49.2
X123.876Y-49.2
X126.416Y-49.2
X127.94Y-97.46
X128.956Y-49.2
X130.48Y-97.46
X131.496Y-49.2
X133.02Y-97.46
X134.036Y-49.2
X135.56Y-97.46
X136.576Y-49.2
X138.1Y-97.46
X139.116Y-49.2
X140.64Y-97.46
X141.656Y-49.2
X143.18Y-97.46
X145.72Y-49.2
X145.72Y-97.46
X148.26Y-49.2
X150.8Y-49.2
X150.8Y-97.46
X153.34Y-49.2
X153.34Y-97.46
X155.88Y-49.2
X155.88Y-97.46
X158.42Y-49.2
X158.42Y-97.46
X160.96Y-49.2
X160.96Y-97.46
X163.5Y-49.2
X163.5Y-97.46
T6
X115.75Y-60.75
X130.75Y-60.75
X143.43Y-60.75
X158.43Y-60.75
T7
X95.3Y-113.0
X168.2Y-113.0
M30
