%TF.GenerationSoftware,KiCad,Pcbnew,9.0.3*%
%TF.CreationDate,2025-08-05T14:59:21-07:00*%
%TF.ProjectId,Joule Chief,4a6f756c-6520-4436-9869-65662e6b6963,R1*%
%TF.SameCoordinates,Original*%
%TF.FileFunction,Copper,L1,Top*%
%TF.FilePolarity,Positive*%
%FSLAX46Y46*%
G04 Gerber Fmt 4.6, Leading zero omitted, Abs format (unit mm)*
G04 Created by KiCad (PCBNEW 9.0.3) date 2025-08-05 14:59:21*
%MOMM*%
%LPD*%
G01*
G04 APERTURE LIST*
G04 Aperture macros list*
%AMRoundRect*
0 Rectangle with rounded corners*
0 $1 Rounding radius*
0 $2 $3 $4 $5 $6 $7 $8 $9 X,Y pos of 4 corners*
0 Add a 4 corners polygon primitive as box body*
4,1,4,$2,$3,$4,$5,$6,$7,$8,$9,$2,$3,0*
0 Add four circle primitives for the rounded corners*
1,1,$1+$1,$2,$3*
1,1,$1+$1,$4,$5*
1,1,$1+$1,$6,$7*
1,1,$1+$1,$8,$9*
0 Add four rect primitives between the rounded corners*
20,1,$1+$1,$2,$3,$4,$5,0*
20,1,$1+$1,$4,$5,$6,$7,0*
20,1,$1+$1,$6,$7,$8,$9,0*
20,1,$1+$1,$8,$9,$2,$3,0*%
G04 Aperture macros list end*
%TA.AperFunction,ComponentPad*%
%ADD10R,1.700000X1.700000*%
%TD*%
%TA.AperFunction,ComponentPad*%
%ADD11C,1.700000*%
%TD*%
%TA.AperFunction,SMDPad,CuDef*%
%ADD12RoundRect,0.250000X-0.450000X0.350000X-0.450000X-0.350000X0.450000X-0.350000X0.450000X0.350000X0*%
%TD*%
%TA.AperFunction,ComponentPad*%
%ADD13C,2.500000*%
%TD*%
%TA.AperFunction,SMDPad,CuDef*%
%ADD14RoundRect,0.100000X-0.900000X-0.100000X0.900000X-0.100000X0.900000X0.100000X-0.900000X0.100000X0*%
%TD*%
%TA.AperFunction,SMDPad,CuDef*%
%ADD15RoundRect,0.250000X0.350000X0.450000X-0.350000X0.450000X-0.350000X-0.450000X0.350000X-0.450000X0*%
%TD*%
%TA.AperFunction,SMDPad,CuDef*%
%ADD16RoundRect,0.150000X0.150000X-0.587500X0.150000X0.587500X-0.150000X0.587500X-0.150000X-0.587500X0*%
%TD*%
%TA.AperFunction,SMDPad,CuDef*%
%ADD17RoundRect,0.162500X0.162500X-0.617500X0.162500X0.617500X-0.162500X0.617500X-0.162500X-0.617500X0*%
%TD*%
%TA.AperFunction,SMDPad,CuDef*%
%ADD18RoundRect,0.250000X0.475000X-0.337500X0.475000X0.337500X-0.475000X0.337500X-0.475000X-0.337500X0*%
%TD*%
%TA.AperFunction,ComponentPad*%
%ADD19RoundRect,0.250000X0.350000X0.625000X-0.350000X0.625000X-0.350000X-0.625000X0.350000X-0.625000X0*%
%TD*%
%TA.AperFunction,ComponentPad*%
%ADD20O,1.200000X1.750000*%
%TD*%
%TA.AperFunction,SMDPad,CuDef*%
%ADD21RoundRect,0.150000X0.150000X-0.825000X0.150000X0.825000X-0.150000X0.825000X-0.150000X-0.825000X0*%
%TD*%
%TA.AperFunction,SMDPad,CuDef*%
%ADD22RoundRect,0.150000X-0.825000X-0.150000X0.825000X-0.150000X0.825000X0.150000X-0.825000X0.150000X0*%
%TD*%
%TA.AperFunction,SMDPad,CuDef*%
%ADD23RoundRect,0.250000X-0.350000X-0.450000X0.350000X-0.450000X0.350000X0.450000X-0.350000X0.450000X0*%
%TD*%
%TA.AperFunction,ComponentPad*%
%ADD24C,3.600000*%
%TD*%
%TA.AperFunction,SMDPad,CuDef*%
%ADD25RoundRect,0.250000X0.450000X-0.325000X0.450000X0.325000X-0.450000X0.325000X-0.450000X-0.325000X0*%
%TD*%
%TA.AperFunction,SMDPad,CuDef*%
%ADD26RoundRect,0.250000X0.325000X0.450000X-0.325000X0.450000X-0.325000X-0.450000X0.325000X-0.450000X0*%
%TD*%
%TA.AperFunction,SMDPad,CuDef*%
%ADD27RoundRect,0.250000X-0.337500X-0.475000X0.337500X-0.475000X0.337500X0.475000X-0.337500X0.475000X0*%
%TD*%
%TA.AperFunction,SMDPad,CuDef*%
%ADD28RoundRect,0.250000X0.450000X-0.350000X0.450000X0.350000X-0.450000X0.350000X-0.450000X-0.350000X0*%
%TD*%
%TA.AperFunction,SMDPad,CuDef*%
%ADD29RoundRect,0.100000X0.100000X-0.637500X0.100000X0.637500X-0.100000X0.637500X-0.100000X-0.637500X0*%
%TD*%
%TA.AperFunction,ComponentPad*%
%ADD30RoundRect,0.250000X-0.550000X0.550000X-0.550000X-0.550000X0.550000X-0.550000X0.550000X0.550000X0*%
%TD*%
%TA.AperFunction,ComponentPad*%
%ADD31C,1.600000*%
%TD*%
%TA.AperFunction,SMDPad,CuDef*%
%ADD32RoundRect,0.100000X-0.625000X-0.100000X0.625000X-0.100000X0.625000X0.100000X-0.625000X0.100000X0*%
%TD*%
%TA.AperFunction,SMDPad,CuDef*%
%ADD33RoundRect,0.250000X-0.475000X0.337500X-0.475000X-0.337500X0.475000X-0.337500X0.475000X0.337500X0*%
%TD*%
%TA.AperFunction,SMDPad,CuDef*%
%ADD34RoundRect,0.525000X-1.475000X1.225000X-1.475000X-1.225000X1.475000X-1.225000X1.475000X1.225000X0*%
%TD*%
%TA.AperFunction,SMDPad,CuDef*%
%ADD35RoundRect,0.243600X-0.901400X-0.771400X0.901400X-0.771400X0.901400X0.771400X-0.901400X0.771400X0*%
%TD*%
%TA.AperFunction,SMDPad,CuDef*%
%ADD36RoundRect,0.091200X-0.608800X-0.288800X0.608800X-0.288800X0.608800X0.288800X-0.608800X0.288800X0*%
%TD*%
%TA.AperFunction,SMDPad,CuDef*%
%ADD37RoundRect,0.190000X-0.510000X-0.190000X0.510000X-0.190000X0.510000X0.190000X-0.510000X0.190000X0*%
%TD*%
%TA.AperFunction,SMDPad,CuDef*%
%ADD38RoundRect,0.243600X-0.771400X0.901400X-0.771400X-0.901400X0.771400X-0.901400X0.771400X0.901400X0*%
%TD*%
%TA.AperFunction,SMDPad,CuDef*%
%ADD39RoundRect,0.091200X-0.288800X0.608800X-0.288800X-0.608800X0.288800X-0.608800X0.288800X0.608800X0*%
%TD*%
%TA.AperFunction,SMDPad,CuDef*%
%ADD40RoundRect,0.190000X-0.190000X0.510000X-0.190000X-0.510000X0.190000X-0.510000X0.190000X0.510000X0*%
%TD*%
%TA.AperFunction,ComponentPad*%
%ADD41R,1.000000X1.000000*%
%TD*%
%TA.AperFunction,SMDPad,CuDef*%
%ADD42RoundRect,0.250000X0.337500X0.475000X-0.337500X0.475000X-0.337500X-0.475000X0.337500X-0.475000X0*%
%TD*%
%TA.AperFunction,ViaPad*%
%ADD43C,0.800000*%
%TD*%
%TA.AperFunction,Conductor*%
%ADD44C,0.250000*%
%TD*%
%TA.AperFunction,Conductor*%
%ADD45C,0.400000*%
%TD*%
%TA.AperFunction,Conductor*%
%ADD46C,0.600000*%
%TD*%
%TA.AperFunction,Conductor*%
%ADD47C,0.200000*%
%TD*%
%TA.AperFunction,Conductor*%
%ADD48C,1.000000*%
%TD*%
%TA.AperFunction,Conductor*%
%ADD49C,0.700000*%
%TD*%
%TA.AperFunction,Conductor*%
%ADD50C,0.300000*%
%TD*%
%TA.AperFunction,Conductor*%
%ADD51C,0.800000*%
%TD*%
G04 APERTURE END LIST*
D10*
%TO.P,J9,1,Pin_1*%
%TO.N,unconnected-(J9-Pin_1-Pad1)*%
X127940000Y-97460000D03*
D11*
%TO.P,J9,2,Pin_2*%
%TO.N,/IOREF*%
X130480000Y-97460000D03*
%TO.P,J9,3,Pin_3*%
%TO.N,/~{RESET}*%
X133020000Y-97460000D03*
%TO.P,J9,4,Pin_4*%
%TO.N,+3V3*%
X135560000Y-97460000D03*
%TO.P,J9,5,Pin_5*%
%TO.N,VBUS*%
X138100000Y-97460000D03*
%TO.P,J9,6,Pin_6*%
%TO.N,GND*%
X140640000Y-97460000D03*
%TO.P,J9,7,Pin_7*%
X143180000Y-97460000D03*
%TO.P,J9,8,Pin_8*%
%TO.N,VIN*%
X145720000Y-97460000D03*
%TD*%
D10*
%TO.P,J10,1,Pin_1*%
%TO.N,/A0*%
X150800000Y-97460000D03*
D11*
%TO.P,J10,2,Pin_2*%
%TO.N,/A1*%
X153340000Y-97460000D03*
%TO.P,J10,3,Pin_3*%
%TO.N,/A2*%
X155880000Y-97460000D03*
%TO.P,J10,4,Pin_4*%
%TO.N,/A3*%
X158420000Y-97460000D03*
%TO.P,J10,5,Pin_5*%
%TO.N,SDA*%
X160960000Y-97460000D03*
%TO.P,J10,6,Pin_6*%
%TO.N,SCL*%
X163500000Y-97460000D03*
%TD*%
D10*
%TO.P,J8,1,Pin_1*%
%TO.N,SCL*%
X118796000Y-49200000D03*
D11*
%TO.P,J8,2,Pin_2*%
%TO.N,SDA*%
X121336000Y-49200000D03*
%TO.P,J8,3,Pin_3*%
%TO.N,/AREF*%
X123876000Y-49200000D03*
%TO.P,J8,4,Pin_4*%
%TO.N,GND*%
X126416000Y-49200000D03*
%TO.P,J8,5,Pin_5*%
%TO.N,SHDN_1*%
X128956000Y-49200000D03*
%TO.P,J8,6,Pin_6*%
%TO.N,SHDN_2*%
X131496000Y-49200000D03*
%TO.P,J8,7,Pin_7*%
%TO.N,SHDN_3*%
X134036000Y-49200000D03*
%TO.P,J8,8,Pin_8*%
%TO.N,SHDN_4*%
X136576000Y-49200000D03*
%TO.P,J8,9,Pin_9*%
%TO.N,SHDN_5*%
X139116000Y-49200000D03*
%TO.P,J8,10,Pin_10*%
%TO.N,SHDN_6*%
X141656000Y-49200000D03*
%TD*%
D10*
%TO.P,J11,1,Pin_1*%
%TO.N,SHDN_7*%
X145720000Y-49200000D03*
D11*
%TO.P,J11,2,Pin_2*%
%TO.N,CHARGER*%
X148260000Y-49200000D03*
%TO.P,J11,3,Pin_3*%
%TO.N,!BOOST*%
X150800000Y-49200000D03*
%TO.P,J11,4,Pin_4*%
%TO.N,/4*%
X153340000Y-49200000D03*
%TO.P,J11,5,Pin_5*%
%TO.N,/\u002A3*%
X155880000Y-49200000D03*
%TO.P,J11,6,Pin_6*%
%TO.N,/2*%
X158420000Y-49200000D03*
%TO.P,J11,7,Pin_7*%
%TO.N,/TX{slash}1*%
X160960000Y-49200000D03*
%TO.P,J11,8,Pin_8*%
%TO.N,/RX{slash}0*%
X163500000Y-49200000D03*
%TD*%
D12*
%TO.P,R24,1*%
%TO.N,Net-(D10-A)*%
X167500000Y-33928641D03*
%TO.P,R24,2*%
%TO.N,VBUS*%
X167500000Y-35928641D03*
%TD*%
D13*
%TO.P,C5,1*%
%TO.N,Net-(U2-VOUT)*%
X130750000Y-60750000D03*
%TO.P,C5,2*%
%TO.N,GND*%
X115750000Y-60750000D03*
%TD*%
D14*
%TO.P,U7,1,D12*%
%TO.N,unconnected-(U7-D12-Pad1)*%
X115500000Y-96930000D03*
%TO.P,U7,2,S1*%
%TO.N,BAT-*%
X115500000Y-97570000D03*
%TO.P,U7,3,S1*%
X115500000Y-98230000D03*
%TO.P,U7,4,G1*%
%TO.N,Net-(U5-OD)*%
X115500000Y-98870000D03*
%TO.P,U7,5,G2*%
%TO.N,Net-(U5-OC)*%
X121100000Y-98870000D03*
%TO.P,U7,6,S2*%
%TO.N,Net-(Q1-D)*%
X121100000Y-98230000D03*
%TO.P,U7,7,S2*%
X121100000Y-97570000D03*
%TO.P,U7,8,D12*%
%TO.N,unconnected-(U7-D12-Pad8)*%
X121100000Y-96930000D03*
%TD*%
D15*
%TO.P,R31,1*%
%TO.N,GND*%
X147602772Y-42824386D03*
%TO.P,R31,2*%
%TO.N,SHDN_6*%
X145602772Y-42824386D03*
%TD*%
D16*
%TO.P,Q7,1,G*%
%TO.N,SHDN_6*%
X145652772Y-40324386D03*
%TO.P,Q7,2,S*%
%TO.N,GND*%
X147552772Y-40324386D03*
%TO.P,Q7,3,D*%
%TO.N,Net-(D8-K)*%
X146602772Y-38449386D03*
%TD*%
D17*
%TO.P,U5,1,OD*%
%TO.N,Net-(U5-OD)*%
X119000000Y-91950000D03*
%TO.P,U5,2,CS*%
%TO.N,Net-(U5-CS)*%
X119950000Y-91950000D03*
%TO.P,U5,3,OC*%
%TO.N,Net-(U5-OC)*%
X120900000Y-91950000D03*
%TO.P,U5,4,TD*%
%TO.N,unconnected-(U5-TD-Pad4)*%
X120900000Y-89250000D03*
%TO.P,U5,5,VCC*%
%TO.N,Net-(U5-VCC)*%
X119950000Y-89250000D03*
%TO.P,U5,6,GND*%
%TO.N,BAT-*%
X119000000Y-89250000D03*
%TD*%
D18*
%TO.P,C12,1*%
%TO.N,BAT-*%
X123500000Y-90500000D03*
%TO.P,C12,2*%
%TO.N,Net-(U5-VCC)*%
X123500000Y-88425000D03*
%TD*%
D15*
%TO.P,R34,1*%
%TO.N,GND*%
X160450000Y-42954112D03*
%TO.P,R34,2*%
%TO.N,CHARGER*%
X158450000Y-42954112D03*
%TD*%
D19*
%TO.P,J6,1,Pin_1*%
%TO.N,SHDN_6*%
X104700000Y-87850000D03*
D20*
%TO.P,J6,2,Pin_2*%
%TO.N,VOUT_1*%
X102700000Y-87850000D03*
%TO.P,J6,3,Pin_3*%
%TO.N,SDA*%
X100700000Y-87850000D03*
%TO.P,J6,4,Pin_4*%
%TO.N,SCL*%
X98700000Y-87850000D03*
%TO.P,J6,5,Pin_5*%
%TO.N,GND*%
X96700000Y-87850000D03*
%TO.P,J6,6,Pin_6*%
%TO.N,VBUS*%
X94700000Y-87850000D03*
%TD*%
D21*
%TO.P,U4,1,A1*%
%TO.N,VBUS*%
X127230000Y-82680000D03*
%TO.P,U4,2,A0*%
%TO.N,GND*%
X128500000Y-82680000D03*
%TO.P,U4,3,SDA*%
%TO.N,SDA*%
X129770000Y-82680000D03*
%TO.P,U4,4,SCL*%
%TO.N,SCL*%
X131040000Y-82680000D03*
%TO.P,U4,5,VS*%
%TO.N,VBUS*%
X131040000Y-77730000D03*
%TO.P,U4,6,GND*%
%TO.N,GND*%
X129770000Y-77730000D03*
%TO.P,U4,7,IN-*%
%TO.N,Net-(U4-IN-)*%
X128500000Y-77730000D03*
%TO.P,U4,8,IN+*%
%TO.N,Net-(U4-IN+)*%
X127230000Y-77730000D03*
%TD*%
D22*
%TO.P,U1,1,A1*%
%TO.N,GND*%
X149455000Y-85907724D03*
%TO.P,U1,2,A0*%
X149455000Y-87177724D03*
%TO.P,U1,3,SDA*%
%TO.N,SDA*%
X149455000Y-88447724D03*
%TO.P,U1,4,SCL*%
%TO.N,SCL*%
X149455000Y-89717724D03*
%TO.P,U1,5,VS*%
%TO.N,VBUS*%
X154405000Y-89717724D03*
%TO.P,U1,6,GND*%
%TO.N,GND*%
X154405000Y-88447724D03*
%TO.P,U1,7,IN-*%
%TO.N,Net-(U1-IN-)*%
X154405000Y-87177724D03*
%TO.P,U1,8,IN+*%
%TO.N,Net-(U1-IN+)*%
X154405000Y-85907724D03*
%TD*%
D12*
%TO.P,R22,1*%
%TO.N,Net-(D8-A)*%
X148102772Y-33949386D03*
%TO.P,R22,2*%
%TO.N,VBUS*%
X148102772Y-35949386D03*
%TD*%
D23*
%TO.P,R10,1*%
%TO.N,Net-(D1-K)*%
X117100000Y-73300000D03*
%TO.P,R10,2*%
%TO.N,Net-(U6-~{CHRG})*%
X119100000Y-73300000D03*
%TD*%
D16*
%TO.P,Q5,1,G*%
%TO.N,SHDN_4*%
X132744511Y-40348726D03*
%TO.P,Q5,2,S*%
%TO.N,GND*%
X134644511Y-40348726D03*
%TO.P,Q5,3,D*%
%TO.N,Net-(D6-K)*%
X133694511Y-38473726D03*
%TD*%
%TO.P,Q2,1,G*%
%TO.N,SHDN_1*%
X113150000Y-40325000D03*
%TO.P,Q2,2,S*%
%TO.N,GND*%
X115050000Y-40325000D03*
%TO.P,Q2,3,D*%
%TO.N,Net-(D3-K)*%
X114100000Y-38450000D03*
%TD*%
D23*
%TO.P,R2,1*%
%TO.N,Net-(U1-IN-)*%
X156930000Y-89955000D03*
%TO.P,R2,2*%
%TO.N,Net-(C1-Pad2)*%
X158930000Y-89955000D03*
%TD*%
D24*
%TO.P,LITH1,1,+*%
%TO.N,BAT+*%
X95300000Y-113000000D03*
%TO.P,LITH1,2,-*%
%TO.N,BAT-*%
X168200000Y-113000000D03*
%TD*%
D23*
%TO.P,R11,1*%
%TO.N,Net-(D2-K)*%
X118250000Y-71000000D03*
%TO.P,R11,2*%
%TO.N,Net-(U6-~{STDBY})*%
X120250000Y-71000000D03*
%TD*%
D25*
%TO.P,D11,1,K*%
%TO.N,Net-(D11-K)*%
X157950000Y-35979112D03*
%TO.P,D11,2,A*%
%TO.N,Net-(D11-A)*%
X157950000Y-33929112D03*
%TD*%
D12*
%TO.P,R23,1*%
%TO.N,Net-(D9-A)*%
X154450000Y-33951749D03*
%TO.P,R23,2*%
%TO.N,VBUS*%
X154450000Y-35951749D03*
%TD*%
D16*
%TO.P,Q8,1,G*%
%TO.N,SHDN_7*%
X152000000Y-40326749D03*
%TO.P,Q8,2,S*%
%TO.N,GND*%
X153900000Y-40326749D03*
%TO.P,Q8,3,D*%
%TO.N,Net-(D9-K)*%
X152950000Y-38451749D03*
%TD*%
D26*
%TO.P,D1,1,K*%
%TO.N,Net-(D1-K)*%
X115000000Y-73300000D03*
%TO.P,D1,2,A*%
%TO.N,Net-(D1-A)*%
X112950000Y-73300000D03*
%TD*%
D23*
%TO.P,R12,1*%
%TO.N,Net-(Q1-D)*%
X117750000Y-94356475D03*
%TO.P,R12,2*%
%TO.N,Net-(U5-CS)*%
X119750000Y-94356475D03*
%TD*%
D27*
%TO.P,C10,1*%
%TO.N,Net-(C10-Pad1)*%
X126675000Y-72839999D03*
%TO.P,C10,2*%
%TO.N,Net-(C10-Pad2)*%
X128750000Y-72839999D03*
%TD*%
D12*
%TO.P,R17,1*%
%TO.N,Net-(D3-A)*%
X115600000Y-33950000D03*
%TO.P,R17,2*%
%TO.N,VBUS*%
X115600000Y-35950000D03*
%TD*%
D16*
%TO.P,Q4,1,G*%
%TO.N,SHDN_3*%
X126350000Y-40347545D03*
%TO.P,Q4,2,S*%
%TO.N,GND*%
X128250000Y-40347545D03*
%TO.P,Q4,3,D*%
%TO.N,Net-(D5-K)*%
X127300000Y-38472545D03*
%TD*%
D26*
%TO.P,D2,1,K*%
%TO.N,Net-(D2-K)*%
X115025000Y-71000000D03*
%TO.P,D2,2,A*%
%TO.N,Net-(D1-A)*%
X112975000Y-71000000D03*
%TD*%
D12*
%TO.P,R18,1*%
%TO.N,Net-(D4-A)*%
X122200000Y-33973915D03*
%TO.P,R18,2*%
%TO.N,VBUS*%
X122200000Y-35973915D03*
%TD*%
D16*
%TO.P,Q9,1,G*%
%TO.N,!BOOST*%
X165050000Y-40366141D03*
%TO.P,Q9,2,S*%
%TO.N,GND*%
X166950000Y-40366141D03*
%TO.P,Q9,3,D*%
%TO.N,Net-(D10-K)*%
X166000000Y-38491141D03*
%TD*%
D15*
%TO.P,R5,1*%
%TO.N,Net-(U2-FB)*%
X141295001Y-75250000D03*
%TO.P,R5,2*%
%TO.N,GND*%
X139295001Y-75250000D03*
%TD*%
D28*
%TO.P,R16,1*%
%TO.N,SCL*%
X98250000Y-43750000D03*
%TO.P,R16,2*%
%TO.N,VBUS*%
X98250000Y-41750000D03*
%TD*%
%TO.P,R8,1*%
%TO.N,Net-(U4-IN+)*%
X124250000Y-74724999D03*
%TO.P,R8,2*%
%TO.N,Net-(C10-Pad1)*%
X124250000Y-72724999D03*
%TD*%
D12*
%TO.P,R19,1*%
%TO.N,Net-(D5-A)*%
X128800000Y-33972545D03*
%TO.P,R19,2*%
%TO.N,VBUS*%
X128800000Y-35972545D03*
%TD*%
D28*
%TO.P,R7,1*%
%TO.N,Net-(U4-IN-)*%
X131250000Y-74724999D03*
%TO.P,R7,2*%
%TO.N,Net-(C10-Pad2)*%
X131250000Y-72724999D03*
%TD*%
D18*
%TO.P,C11,1*%
%TO.N,VBUS*%
X124750000Y-82500000D03*
%TO.P,C11,2*%
%TO.N,GND*%
X124750000Y-80425000D03*
%TD*%
D29*
%TO.P,U3,1,A*%
%TO.N,unconnected-(U3-A-Pad1)*%
X134100000Y-88725000D03*
%TO.P,U3,2,W*%
%TO.N,Net-(U2-MPPC)*%
X134750000Y-88725000D03*
%TO.P,U3,3,B*%
%TO.N,GND*%
X135400000Y-88725000D03*
%TO.P,U3,4,VDD*%
%TO.N,VBUS*%
X136050000Y-88725000D03*
%TO.P,U3,5,~{SHDN}*%
%TO.N,unconnected-(U3-~{SHDN}-Pad5)*%
X136700000Y-88725000D03*
%TO.P,U3,6,SCL*%
%TO.N,SCL*%
X137350000Y-88725000D03*
%TO.P,U3,7,SDA*%
%TO.N,SDA*%
X138000000Y-88725000D03*
%TO.P,U3,8,AD0*%
%TO.N,GND*%
X138000000Y-83000000D03*
%TO.P,U3,9,AD1*%
X137350000Y-83000000D03*
%TO.P,U3,10,GND*%
X136700000Y-83000000D03*
%TO.P,U3,11,VSS*%
X136050000Y-83000000D03*
%TO.P,U3,12,O2*%
%TO.N,unconnected-(U3-O2-Pad12)*%
X135400000Y-83000000D03*
%TO.P,U3,13,VLOG*%
%TO.N,VBUS*%
X134750000Y-83000000D03*
%TO.P,U3,14,O1*%
%TO.N,unconnected-(U3-O1-Pad14)*%
X134100000Y-83000000D03*
%TD*%
D25*
%TO.P,D8,1,K*%
%TO.N,Net-(D8-K)*%
X145102772Y-35974386D03*
%TO.P,D8,2,A*%
%TO.N,Net-(D8-A)*%
X145102772Y-33924386D03*
%TD*%
D19*
%TO.P,J4,1,Pin_1*%
%TO.N,SHDN_4*%
X104750000Y-74750000D03*
D20*
%TO.P,J4,2,Pin_2*%
%TO.N,VOUT_1*%
X102750000Y-74750000D03*
%TO.P,J4,3,Pin_3*%
%TO.N,SDA*%
X100750000Y-74750000D03*
%TO.P,J4,4,Pin_4*%
%TO.N,SCL*%
X98750000Y-74750000D03*
%TO.P,J4,5,Pin_5*%
%TO.N,GND*%
X96750000Y-74750000D03*
%TO.P,J4,6,Pin_6*%
%TO.N,VBUS*%
X94750000Y-74750000D03*
%TD*%
D12*
%TO.P,R25,1*%
%TO.N,Net-(D11-A)*%
X160950000Y-33954112D03*
%TO.P,R25,2*%
%TO.N,VBUS*%
X160950000Y-35954112D03*
%TD*%
D23*
%TO.P,R3,1*%
%TO.N,Net-(U1-IN+)*%
X156930000Y-82955000D03*
%TO.P,R3,2*%
%TO.N,Net-(C1-Pad1)*%
X158930000Y-82955000D03*
%TD*%
D19*
%TO.P,J2,1,Pin_1*%
%TO.N,SHDN_2*%
X104750000Y-61750000D03*
D20*
%TO.P,J2,2,Pin_2*%
%TO.N,VOUT_1*%
X102750000Y-61750000D03*
%TO.P,J2,3,Pin_3*%
%TO.N,SDA*%
X100750000Y-61750000D03*
%TO.P,J2,4,Pin_4*%
%TO.N,SCL*%
X98750000Y-61750000D03*
%TO.P,J2,5,Pin_5*%
%TO.N,GND*%
X96750000Y-61750000D03*
%TO.P,J2,6,Pin_6*%
%TO.N,VBUS*%
X94750000Y-61750000D03*
%TD*%
D15*
%TO.P,R26,1*%
%TO.N,GND*%
X115100000Y-42950000D03*
%TO.P,R26,2*%
%TO.N,SHDN_1*%
X113100000Y-42950000D03*
%TD*%
%TO.P,R28,1*%
%TO.N,GND*%
X128300000Y-42972545D03*
%TO.P,R28,2*%
%TO.N,SHDN_3*%
X126300000Y-42972545D03*
%TD*%
D25*
%TO.P,D7,1,K*%
%TO.N,Net-(D7-K)*%
X138619721Y-35998650D03*
%TO.P,D7,2,A*%
%TO.N,Net-(D7-A)*%
X138619721Y-33948650D03*
%TD*%
D30*
%TO.P,C4,1*%
%TO.N,GND*%
X144545001Y-69750000D03*
D31*
%TO.P,C4,2*%
%TO.N,Net-(U2-VOUT)*%
X144545001Y-71750000D03*
%TD*%
D28*
%TO.P,R15,1*%
%TO.N,SDA*%
X101250000Y-43750000D03*
%TO.P,R15,2*%
%TO.N,VBUS*%
X101250000Y-41750000D03*
%TD*%
D19*
%TO.P,J3,1,Pin_1*%
%TO.N,SHDN_3*%
X104750000Y-68250000D03*
D20*
%TO.P,J3,2,Pin_2*%
%TO.N,VOUT_1*%
X102750000Y-68250000D03*
%TO.P,J3,3,Pin_3*%
%TO.N,SDA*%
X100750000Y-68250000D03*
%TO.P,J3,4,Pin_4*%
%TO.N,SCL*%
X98750000Y-68250000D03*
%TO.P,J3,5,Pin_5*%
%TO.N,GND*%
X96750000Y-68250000D03*
%TO.P,J3,6,Pin_6*%
%TO.N,VBUS*%
X94750000Y-68250000D03*
%TD*%
D19*
%TO.P,J1,1,Pin_1*%
%TO.N,SHDN_1*%
X104750000Y-55250000D03*
D20*
%TO.P,J1,2,Pin_2*%
%TO.N,VOUT_1*%
X102750000Y-55250000D03*
%TO.P,J1,3,Pin_3*%
%TO.N,SDA*%
X100750000Y-55250000D03*
%TO.P,J1,4,Pin_4*%
%TO.N,SCL*%
X98750000Y-55250000D03*
%TO.P,J1,5,Pin_5*%
%TO.N,GND*%
X96750000Y-55250000D03*
%TO.P,J1,6,Pin_6*%
%TO.N,VBUS*%
X94750000Y-55250000D03*
%TD*%
D32*
%TO.P,U2,1,FB*%
%TO.N,Net-(U2-FB)*%
X142457501Y-77300000D03*
%TO.P,U2,2,LDO*%
%TO.N,Net-(U2-LDO)*%
X142457501Y-77950000D03*
%TO.P,U2,3,FBLDO*%
%TO.N,GND*%
X142457501Y-78600000D03*
%TO.P,U2,4,~{SHDN}*%
%TO.N,!BOOST*%
X142457501Y-79250000D03*
%TO.P,U2,5,MPPC*%
%TO.N,Net-(U2-MPPC)*%
X142457501Y-79900000D03*
%TO.P,U2,6,GND*%
%TO.N,GND*%
X142457501Y-80550000D03*
%TO.P,U2,7,GND*%
X146757501Y-80550000D03*
%TO.P,U2,8,VIN*%
%TO.N,L_VIN*%
X146757501Y-79900000D03*
%TO.P,U2,9,SWITCH*%
%TO.N,L_SWITCH*%
X146757501Y-79250000D03*
%TO.P,U2,10,~{PGOOD}*%
%TO.N,Net-(U2-~{PGOOD})*%
X146757501Y-78600000D03*
%TO.P,U2,11,VOUT*%
%TO.N,Net-(U2-VOUT)*%
X146757501Y-77950000D03*
%TO.P,U2,12,AUX*%
%TO.N,Net-(U2-AUX)*%
X146757501Y-77300000D03*
%TD*%
D15*
%TO.P,R32,1*%
%TO.N,GND*%
X153950000Y-42826749D03*
%TO.P,R32,2*%
%TO.N,SHDN_7*%
X151950000Y-42826749D03*
%TD*%
D16*
%TO.P,Q6,1,G*%
%TO.N,SHDN_5*%
X139169721Y-40323650D03*
%TO.P,Q6,2,S*%
%TO.N,GND*%
X141069721Y-40323650D03*
%TO.P,Q6,3,D*%
%TO.N,Net-(D7-K)*%
X140119721Y-38448650D03*
%TD*%
D25*
%TO.P,D3,1,K*%
%TO.N,Net-(D3-K)*%
X112600000Y-35975000D03*
%TO.P,D3,2,A*%
%TO.N,Net-(D3-A)*%
X112600000Y-33925000D03*
%TD*%
D15*
%TO.P,R4,1*%
%TO.N,Net-(U2-VOUT)*%
X145600000Y-75250000D03*
%TO.P,R4,2*%
%TO.N,Net-(U2-FB)*%
X143600000Y-75250000D03*
%TD*%
D33*
%TO.P,C1,1*%
%TO.N,Net-(C1-Pad1)*%
X158930000Y-85425000D03*
%TO.P,C1,2*%
%TO.N,Net-(C1-Pad2)*%
X158930000Y-87500000D03*
%TD*%
D25*
%TO.P,D10,1,K*%
%TO.N,Net-(D10-K)*%
X164500000Y-35978641D03*
%TO.P,D10,2,A*%
%TO.N,Net-(D10-A)*%
X164500000Y-33928641D03*
%TD*%
D34*
%TO.P,L1,1,1*%
%TO.N,L_VIN*%
X161680000Y-72750000D03*
%TO.P,L1,2,2*%
%TO.N,L_SWITCH*%
X152180000Y-72750000D03*
%TD*%
D15*
%TO.P,R29,1*%
%TO.N,GND*%
X134694511Y-42973726D03*
%TO.P,R29,2*%
%TO.N,SHDN_4*%
X132694511Y-42973726D03*
%TD*%
D25*
%TO.P,D6,1,K*%
%TO.N,Net-(D6-K)*%
X132194511Y-35998726D03*
%TO.P,D6,2,A*%
%TO.N,Net-(D6-A)*%
X132194511Y-33948726D03*
%TD*%
D35*
%TO.P,R6,1,1*%
%TO.N,Net-(D1-A)*%
X124700000Y-68704999D03*
D36*
%TO.P,R6,2,2*%
%TO.N,Net-(C10-Pad1)*%
X124255000Y-70609999D03*
D37*
%TO.P,R6,3,3*%
%TO.N,Net-(C10-Pad2)*%
X131115000Y-70609999D03*
D35*
%TO.P,R6,4,4*%
%TO.N,Net-(U2-VOUT)*%
X130670000Y-68704999D03*
%TD*%
D38*
%TO.P,R1,1,1*%
%TO.N,L_VIN*%
X162680000Y-83455000D03*
D39*
%TO.P,R1,2,2*%
%TO.N,Net-(C1-Pad1)*%
X160775000Y-83010000D03*
D40*
%TO.P,R1,3,3*%
%TO.N,Net-(C1-Pad2)*%
X160775000Y-89870000D03*
D38*
%TO.P,R1,4,4*%
%TO.N,VOUT_1*%
X162680000Y-89425000D03*
%TD*%
D23*
%TO.P,R13,1*%
%TO.N,Net-(Q1-D)*%
X116750000Y-85320000D03*
%TO.P,R13,2*%
%TO.N,Net-(U6-PROG)*%
X118750000Y-85320000D03*
%TD*%
D18*
%TO.P,C7,1*%
%TO.N,Net-(U2-AUX)*%
X148345001Y-75400000D03*
%TO.P,C7,2*%
%TO.N,GND*%
X148345001Y-73325000D03*
%TD*%
D16*
%TO.P,Q1,1,G*%
%TO.N,CHARGER*%
X111100000Y-81800000D03*
%TO.P,Q1,2,S*%
%TO.N,GND*%
X113000000Y-81800000D03*
%TO.P,Q1,3,D*%
%TO.N,Net-(Q1-D)*%
X112050000Y-79925000D03*
%TD*%
%TO.P,Q3,1,G*%
%TO.N,SHDN_2*%
X119700000Y-40473915D03*
%TO.P,Q3,2,S*%
%TO.N,GND*%
X121600000Y-40473915D03*
%TO.P,Q3,3,D*%
%TO.N,Net-(D4-K)*%
X120650000Y-38598915D03*
%TD*%
D41*
%TO.P,TPx1,1,1*%
%TO.N,Net-(U2-~{PGOOD})*%
X148500000Y-67750000D03*
%TD*%
D12*
%TO.P,R21,1*%
%TO.N,Net-(D7-A)*%
X141619721Y-33948650D03*
%TO.P,R21,2*%
%TO.N,VBUS*%
X141619721Y-35948650D03*
%TD*%
D16*
%TO.P,Q10,1,G*%
%TO.N,CHARGER*%
X158500000Y-40329112D03*
%TO.P,Q10,2,S*%
%TO.N,GND*%
X160400000Y-40329112D03*
%TO.P,Q10,3,D*%
%TO.N,Net-(D11-K)*%
X159450000Y-38454112D03*
%TD*%
D13*
%TO.P,C2,1*%
%TO.N,L_VIN*%
X158430000Y-60750000D03*
%TO.P,C2,2*%
%TO.N,GND*%
X143430000Y-60750000D03*
%TD*%
D15*
%TO.P,R33,1*%
%TO.N,GND*%
X167000000Y-42928641D03*
%TO.P,R33,2*%
%TO.N,!BOOST*%
X165000000Y-42928641D03*
%TD*%
%TO.P,R27,1*%
%TO.N,GND*%
X121700000Y-42973915D03*
%TO.P,R27,2*%
%TO.N,SHDN_2*%
X119700000Y-42973915D03*
%TD*%
D25*
%TO.P,D9,1,K*%
%TO.N,Net-(D9-K)*%
X151450000Y-35976749D03*
%TO.P,D9,2,A*%
%TO.N,Net-(D9-A)*%
X151450000Y-33926749D03*
%TD*%
%TO.P,D4,1,K*%
%TO.N,Net-(D4-K)*%
X119200000Y-35973915D03*
%TO.P,D4,2,A*%
%TO.N,Net-(D4-A)*%
X119200000Y-33923915D03*
%TD*%
D19*
%TO.P,J5,1,Pin_1*%
%TO.N,SHDN_5*%
X104750000Y-81250000D03*
D20*
%TO.P,J5,2,Pin_2*%
%TO.N,VOUT_1*%
X102750000Y-81250000D03*
%TO.P,J5,3,Pin_3*%
%TO.N,SDA*%
X100750000Y-81250000D03*
%TO.P,J5,4,Pin_4*%
%TO.N,SCL*%
X98750000Y-81250000D03*
%TO.P,J5,5,Pin_5*%
%TO.N,GND*%
X96750000Y-81250000D03*
%TO.P,J5,6,Pin_6*%
%TO.N,VBUS*%
X94750000Y-81250000D03*
%TD*%
D12*
%TO.P,R9,1*%
%TO.N,Net-(U5-VCC)*%
X116506832Y-88432730D03*
%TO.P,R9,2*%
%TO.N,BAT+*%
X116506832Y-90432730D03*
%TD*%
%TO.P,R20,1*%
%TO.N,Net-(D6-A)*%
X135194511Y-33973726D03*
%TO.P,R20,2*%
%TO.N,VBUS*%
X135194511Y-35973726D03*
%TD*%
D27*
%TO.P,C3,1*%
%TO.N,VBUS*%
X154405023Y-92205000D03*
%TO.P,C3,2*%
%TO.N,GND*%
X156480023Y-92205000D03*
%TD*%
%TO.P,C14,1*%
%TO.N,Net-(Q1-D)*%
X120712500Y-85250000D03*
%TO.P,C14,2*%
%TO.N,Net-(U5-VCC)*%
X122787500Y-85250000D03*
%TD*%
D25*
%TO.P,D5,1,K*%
%TO.N,Net-(D5-K)*%
X125800000Y-35997545D03*
%TO.P,D5,2,A*%
%TO.N,Net-(D5-A)*%
X125800000Y-33947545D03*
%TD*%
D42*
%TO.P,C8,1*%
%TO.N,Net-(U2-LDO)*%
X140038192Y-77957645D03*
%TO.P,C8,2*%
%TO.N,GND*%
X137963192Y-77957645D03*
%TD*%
D21*
%TO.P,U6,1,TEMP*%
%TO.N,Net-(Q1-D)*%
X117845000Y-82795000D03*
%TO.P,U6,2,PROG*%
%TO.N,Net-(U6-PROG)*%
X119115000Y-82795000D03*
%TO.P,U6,3,GND*%
%TO.N,Net-(Q1-D)*%
X120385000Y-82795000D03*
%TO.P,U6,4,VCC*%
%TO.N,Net-(D1-A)*%
X121655000Y-82795000D03*
%TO.P,U6,5,BAT*%
%TO.N,Net-(U5-VCC)*%
X121655000Y-77845000D03*
%TO.P,U6,6,~{STDBY}*%
%TO.N,Net-(U6-~{STDBY})*%
X120385000Y-77845000D03*
%TO.P,U6,7,~{CHRG}*%
%TO.N,Net-(U6-~{CHRG})*%
X119115000Y-77845000D03*
%TO.P,U6,8,CE*%
%TO.N,Net-(D1-A)*%
X117845000Y-77845000D03*
%TD*%
D15*
%TO.P,R30,1*%
%TO.N,GND*%
X141119721Y-42948650D03*
%TO.P,R30,2*%
%TO.N,SHDN_5*%
X139119721Y-42948650D03*
%TD*%
D42*
%TO.P,C9,1*%
%TO.N,VBUS*%
X136037500Y-91100000D03*
%TO.P,C9,2*%
%TO.N,GND*%
X133962500Y-91100000D03*
%TD*%
D15*
%TO.P,R14,1*%
%TO.N,GND*%
X113050000Y-85425000D03*
%TO.P,R14,2*%
%TO.N,CHARGER*%
X111050000Y-85425000D03*
%TD*%
D27*
%TO.P,C13,1*%
%TO.N,Net-(Q1-D)*%
X110925000Y-75500000D03*
%TO.P,C13,2*%
%TO.N,Net-(D1-A)*%
X113000000Y-75500000D03*
%TD*%
%TO.P,C6,1*%
%TO.N,L_VIN*%
X149225000Y-81200000D03*
%TO.P,C6,2*%
%TO.N,GND*%
X151300000Y-81200000D03*
%TD*%
D19*
%TO.P,J7,1,Pin_1*%
%TO.N,SHDN_7*%
X104750000Y-94250000D03*
D20*
%TO.P,J7,2,Pin_2*%
%TO.N,VOUT_1*%
X102750000Y-94250000D03*
%TO.P,J7,3,Pin_3*%
%TO.N,SDA*%
X100750000Y-94250000D03*
%TO.P,J7,4,Pin_4*%
%TO.N,SCL*%
X98750000Y-94250000D03*
%TO.P,J7,5,Pin_5*%
%TO.N,GND*%
X96750000Y-94250000D03*
%TO.P,J7,6,Pin_6*%
%TO.N,VBUS*%
X94750000Y-94250000D03*
%TD*%
D43*
%TO.N,GND*%
X148295001Y-71750000D03*
X129750000Y-42972545D03*
X152500000Y-84200000D03*
X116750000Y-43000000D03*
X168525676Y-42984207D03*
X161975676Y-43009678D03*
X144545001Y-80550000D03*
X133900000Y-92700000D03*
X129750000Y-76000000D03*
X123250000Y-42923915D03*
X149002772Y-42824386D03*
X155450000Y-42826749D03*
X113000000Y-83550000D03*
X139400000Y-83000000D03*
X124770000Y-79007499D03*
X147500000Y-86000000D03*
X138007501Y-76300000D03*
X136294511Y-42973726D03*
X128500000Y-84750000D03*
X156500000Y-93750000D03*
X142619721Y-42948650D03*
%TO.N,VBUS*%
X134750000Y-81000000D03*
X130500000Y-80250000D03*
%TO.N,BAT-*%
X118250000Y-100500000D03*
X118250000Y-106750000D03*
%TO.N,Net-(Q1-D)*%
X116250000Y-94250000D03*
X114750000Y-89750000D03*
%TO.N,VOUT_1*%
X169250000Y-102250000D03*
X169250000Y-98750000D03*
%TO.N,SCL*%
X163500000Y-105000000D03*
X102000000Y-47500000D03*
X98250000Y-47500000D03*
%TO.N,SDA*%
X160960000Y-103750000D03*
X145750000Y-95750000D03*
X145750000Y-94000000D03*
X138000000Y-95750000D03*
X138100000Y-94000000D03*
%TO.N,!BOOST*%
X136750000Y-70250000D03*
X136750000Y-67250000D03*
%TO.N,BAT+*%
X116750000Y-100500000D03*
X116750000Y-106750000D03*
%TD*%
D44*
%TO.N,GND*%
X134644511Y-40348726D02*
X134644511Y-42923726D01*
D45*
X152500000Y-81500000D02*
X152200000Y-81200000D01*
D44*
X160400000Y-40329112D02*
X160400000Y-42904112D01*
D45*
X135300000Y-89900000D02*
X135400000Y-89800000D01*
X152697724Y-88447724D02*
X152500000Y-88250000D01*
X144545001Y-79045001D02*
X144100000Y-78600000D01*
D44*
X147552772Y-42774386D02*
X147602772Y-42824386D01*
D45*
X148345001Y-71800000D02*
X148295001Y-71750000D01*
D44*
X115100000Y-42950000D02*
X116700000Y-42950000D01*
D45*
X156480023Y-93730023D02*
X156500000Y-93750000D01*
D44*
X113000000Y-85375000D02*
X113050000Y-85425000D01*
D45*
X138000000Y-83000000D02*
X137350000Y-83000000D01*
X138007501Y-77750000D02*
X138007501Y-76300000D01*
X152500000Y-84200000D02*
X152500000Y-84400000D01*
D44*
X141069721Y-40323650D02*
X141069721Y-42898650D01*
D45*
X124750000Y-80425000D02*
X124750000Y-79027499D01*
X133962500Y-91100000D02*
X133962500Y-92637500D01*
D44*
X128300000Y-42972545D02*
X129750000Y-42972545D01*
D45*
X133962500Y-91100000D02*
X133962500Y-90137500D01*
D44*
X123200000Y-42973915D02*
X123250000Y-42923915D01*
X96750000Y-94250000D02*
X96750000Y-94000000D01*
D45*
X144545001Y-80550000D02*
X146757501Y-80550000D01*
X156480023Y-92205000D02*
X156480023Y-93730023D01*
X133962500Y-92637500D02*
X133900000Y-92700000D01*
D44*
X168470110Y-42928641D02*
X168525676Y-42984207D01*
D45*
X144545001Y-80550000D02*
X144545001Y-79045001D01*
D44*
X115050000Y-40325000D02*
X115050000Y-42900000D01*
D45*
X137350000Y-83000000D02*
X136700000Y-83000000D01*
X138007501Y-76300000D02*
X138007501Y-75607500D01*
D44*
X153900000Y-40326749D02*
X153900000Y-42776749D01*
X166950000Y-40366141D02*
X166950000Y-42878641D01*
X147602772Y-42824386D02*
X149002772Y-42824386D01*
D45*
X138000000Y-83000000D02*
X139400000Y-83000000D01*
D44*
X134694511Y-42973726D02*
X136294511Y-42973726D01*
X128250000Y-40347545D02*
X128250000Y-42922545D01*
X167000000Y-42928641D02*
X168470110Y-42928641D01*
X116700000Y-42950000D02*
X116750000Y-43000000D01*
D45*
X138007501Y-75607500D02*
X138365001Y-75250000D01*
D44*
X96700000Y-81300000D02*
X96750000Y-81250000D01*
D45*
X135400000Y-89800000D02*
X135400000Y-88725000D01*
D44*
X166950000Y-42878641D02*
X167000000Y-42928641D01*
X128250000Y-42922545D02*
X128300000Y-42972545D01*
D45*
X142457501Y-80550000D02*
X144545001Y-80550000D01*
X154405000Y-88447724D02*
X152697724Y-88447724D01*
X134200000Y-89900000D02*
X135300000Y-89900000D01*
X152500000Y-88250000D02*
X152500000Y-84200000D01*
D44*
X121600000Y-40473915D02*
X121600000Y-42873915D01*
X141069721Y-42898650D02*
X141119721Y-42948650D01*
D45*
X136700000Y-83000000D02*
X136050000Y-83000000D01*
D44*
X147552772Y-40324386D02*
X147552772Y-42774386D01*
X160400000Y-42904112D02*
X160450000Y-42954112D01*
D45*
X152500000Y-84200000D02*
X152500000Y-81500000D01*
D46*
X149455000Y-87177724D02*
X149455000Y-85907724D01*
D45*
X133962500Y-90137500D02*
X134200000Y-89900000D01*
X113000000Y-82300000D02*
X113000000Y-83550000D01*
D44*
X143430000Y-60750000D02*
X142500000Y-60750000D01*
D45*
X147500000Y-86000000D02*
X147592276Y-85907724D01*
D44*
X161920110Y-42954112D02*
X161975676Y-43009678D01*
D45*
X144100000Y-78600000D02*
X142457501Y-78600000D01*
D44*
X134644511Y-42923726D02*
X134694511Y-42973726D01*
X124750000Y-79027499D02*
X124770000Y-79007499D01*
D45*
X113000000Y-83550000D02*
X113000000Y-85375000D01*
X148345001Y-73325000D02*
X148345001Y-71800000D01*
D44*
X129770000Y-76020000D02*
X129750000Y-76000000D01*
X160450000Y-42954112D02*
X161920110Y-42954112D01*
X96750000Y-94000000D02*
X96700000Y-93950000D01*
D45*
X151300000Y-81200000D02*
X152200000Y-81200000D01*
D44*
X121600000Y-42873915D02*
X121700000Y-42973915D01*
D45*
X129770000Y-77730000D02*
X129770000Y-76020000D01*
D44*
X121700000Y-42973915D02*
X123200000Y-42973915D01*
D45*
X138000000Y-77757501D02*
X138007501Y-77750000D01*
X147592276Y-85907724D02*
X149455000Y-85907724D01*
X138007501Y-76300000D02*
X138007501Y-76200000D01*
D44*
X141119721Y-42948650D02*
X142619721Y-42948650D01*
X115050000Y-42900000D02*
X115100000Y-42950000D01*
D45*
X138365001Y-75250000D02*
X139295001Y-75250000D01*
D44*
X153950000Y-42826749D02*
X155450000Y-42826749D01*
X153900000Y-42776749D02*
X153950000Y-42826749D01*
D45*
X128500000Y-82680000D02*
X128500000Y-84750000D01*
D44*
%TO.N,Net-(C1-Pad2)*%
X160690000Y-89955000D02*
X160775000Y-89870000D01*
X158930000Y-87500000D02*
X158930000Y-89955000D01*
X158930000Y-89955000D02*
X160690000Y-89955000D01*
%TO.N,Net-(C1-Pad1)*%
X160720000Y-82955000D02*
X160775000Y-83010000D01*
D47*
X158930000Y-82955000D02*
X160720000Y-82955000D01*
D44*
X158930000Y-82955000D02*
X158930000Y-85425000D01*
D48*
%TO.N,L_VIN*%
X158430000Y-60750000D02*
X161680000Y-64000000D01*
D45*
X146757501Y-79900000D02*
X148645001Y-79900000D01*
X149200000Y-79900000D02*
X156600000Y-79900000D01*
X149200000Y-81300000D02*
X149200000Y-79900000D01*
D48*
X162680000Y-83000000D02*
X162680000Y-78500000D01*
X161680000Y-64000000D02*
X161680000Y-72750000D01*
D45*
X156600000Y-79900000D02*
X158000000Y-78500000D01*
X149200000Y-79900000D02*
X148645001Y-79900000D01*
D48*
%TO.N,VBUS*%
X154450000Y-35951749D02*
X155548251Y-35951749D01*
D46*
X130500000Y-80250000D02*
X131040000Y-79710000D01*
D48*
X171000000Y-31250000D02*
X171000000Y-35750000D01*
X156250000Y-30500000D02*
X162750000Y-30500000D01*
D46*
X151967724Y-89717724D02*
X154405000Y-89717724D01*
D45*
X154405023Y-89717747D02*
X154405000Y-89717724D01*
X134750000Y-84500000D02*
X134750000Y-83000000D01*
D48*
X135194511Y-35973726D02*
X136276274Y-35973726D01*
D49*
X124750000Y-82500000D02*
X127050000Y-82500000D01*
D48*
X142801350Y-35948650D02*
X143392967Y-35357033D01*
X122200000Y-35973915D02*
X123526085Y-35973915D01*
X94750000Y-94250000D02*
X94750000Y-61750000D01*
X162734050Y-31765950D02*
X162750000Y-31750000D01*
X138000000Y-100500000D02*
X127250000Y-100500000D01*
X149750000Y-35500000D02*
X149750000Y-30500000D01*
D45*
X154405023Y-92207307D02*
X154405023Y-89717747D01*
D48*
X130521507Y-30521507D02*
X130500000Y-30500000D01*
D46*
X127230000Y-80770000D02*
X127750000Y-80250000D01*
D45*
X134750000Y-83000000D02*
X134750000Y-81000000D01*
D48*
X156223176Y-30526824D02*
X156250000Y-30500000D01*
X155548251Y-35951749D02*
X156223176Y-35276824D01*
X107750000Y-41750000D02*
X109750000Y-39750000D01*
X169250000Y-30500000D02*
X170250000Y-30500000D01*
X162750000Y-31750000D02*
X162750000Y-30500000D01*
X124000000Y-30500000D02*
X130500000Y-30500000D01*
D46*
X144000000Y-84750000D02*
X150500000Y-84750000D01*
D48*
X123982103Y-35517897D02*
X123982103Y-30517897D01*
X170821359Y-35928641D02*
X171000000Y-35750000D01*
X138100000Y-100400000D02*
X138000000Y-100500000D01*
X162734050Y-35265950D02*
X162734050Y-31765950D01*
X124750000Y-84500000D02*
X124750000Y-82500000D01*
X149750000Y-30500000D02*
X156250000Y-30500000D01*
X130500000Y-30500000D02*
X136871383Y-30500000D01*
D45*
X136050000Y-91087500D02*
X136037500Y-91100000D01*
D48*
X125750000Y-99000000D02*
X125750000Y-85500000D01*
D46*
X127750000Y-80250000D02*
X130500000Y-80250000D01*
D45*
X135250000Y-85000000D02*
X134750000Y-84500000D01*
D50*
X94750000Y-94250000D02*
X94750000Y-74750000D01*
D48*
X130027455Y-35972545D02*
X130521507Y-35478493D01*
X98250000Y-41750000D02*
X107750000Y-41750000D01*
D45*
X136050000Y-88725000D02*
X136050000Y-85050000D01*
D46*
X144000000Y-84750000D02*
X136250000Y-84750000D01*
D48*
X141619721Y-35948650D02*
X142801350Y-35948650D01*
D46*
X131040000Y-79710000D02*
X131040000Y-77730000D01*
D48*
X117405372Y-31844404D02*
X117405372Y-30500000D01*
X171000000Y-99750000D02*
X170250000Y-100500000D01*
D46*
X127230000Y-82680000D02*
X127230000Y-80770000D01*
D48*
X171000000Y-35750000D02*
X171000000Y-99750000D01*
X162045888Y-35954112D02*
X162734050Y-35265950D01*
D50*
X94750000Y-94000000D02*
X94700000Y-93950000D01*
D46*
X151250000Y-85500000D02*
X151250000Y-89000000D01*
D48*
X94750000Y-43000000D02*
X96000000Y-41750000D01*
D46*
X136250000Y-84750000D02*
X136000000Y-85000000D01*
D50*
X94700000Y-93950000D02*
X94700000Y-87850000D01*
D49*
X127050000Y-82500000D02*
X127230000Y-82680000D01*
D48*
X136885463Y-35364537D02*
X136885463Y-30514080D01*
D46*
X151250000Y-89000000D02*
X151967724Y-89717724D01*
D48*
X143392156Y-31856222D02*
X143392156Y-30500000D01*
D45*
X136050000Y-88725000D02*
X136050000Y-91087500D01*
D48*
X127250000Y-100500000D02*
X125750000Y-99000000D01*
X170250000Y-30500000D02*
X171000000Y-31250000D01*
X130521507Y-35478493D02*
X130521507Y-30521507D01*
X116800000Y-35950000D02*
X117405484Y-35344516D01*
X138100000Y-97460000D02*
X138100000Y-100400000D01*
X136885463Y-30514080D02*
X136871383Y-30500000D01*
X115600000Y-35950000D02*
X116800000Y-35950000D01*
X167500000Y-35928641D02*
X170821359Y-35928641D01*
X143392967Y-31857033D02*
X143392156Y-31856222D01*
X170250000Y-100500000D02*
X138000000Y-100500000D01*
X136871383Y-30500000D02*
X143392156Y-30500000D01*
X136276274Y-35973726D02*
X136885463Y-35364537D01*
D50*
X94750000Y-94250000D02*
X94750000Y-68250000D01*
X94750000Y-94250000D02*
X94750000Y-81250000D01*
D48*
X111500000Y-30500000D02*
X117405372Y-30500000D01*
X117405372Y-30500000D02*
X124000000Y-30500000D01*
D46*
X150500000Y-84750000D02*
X151250000Y-85500000D01*
D48*
X156223176Y-35276824D02*
X156223176Y-30526824D01*
X149300614Y-35949386D02*
X149750000Y-35500000D01*
D45*
X136050000Y-85050000D02*
X136000000Y-85000000D01*
D48*
X143392156Y-30500000D02*
X149750000Y-30500000D01*
X96000000Y-41750000D02*
X98250000Y-41750000D01*
X117405484Y-31844516D02*
X117405372Y-31844404D01*
X109750000Y-32250000D02*
X111500000Y-30500000D01*
X148102772Y-35949386D02*
X149300614Y-35949386D01*
X94750000Y-55250000D02*
X94750000Y-61750000D01*
X123982103Y-30517897D02*
X124000000Y-30500000D01*
X109750000Y-39750000D02*
X109750000Y-32250000D01*
D45*
X136000000Y-85000000D02*
X135250000Y-85000000D01*
D48*
X94750000Y-55250000D02*
X94750000Y-43000000D01*
X143392967Y-35357033D02*
X143392967Y-31857033D01*
X125750000Y-85500000D02*
X124750000Y-84500000D01*
D50*
X94750000Y-94250000D02*
X94750000Y-94000000D01*
D48*
X117405484Y-35344516D02*
X117405484Y-31844516D01*
X123526085Y-35973915D02*
X123982103Y-35517897D01*
X162750000Y-30500000D02*
X169250000Y-30500000D01*
X160950000Y-35954112D02*
X162045888Y-35954112D01*
X128800000Y-35972545D02*
X130027455Y-35972545D01*
%TO.N,Net-(U2-VOUT)*%
X137704999Y-68704999D02*
X140750000Y-71750000D01*
D51*
X145545001Y-75250000D02*
X145545001Y-72750000D01*
D44*
X130670000Y-68330000D02*
X130750000Y-68250000D01*
D45*
X145545001Y-77523792D02*
X145545001Y-75250000D01*
D48*
X130750000Y-68624999D02*
X130670000Y-68704999D01*
D51*
X145545001Y-72750000D02*
X144545001Y-71750000D01*
D45*
X146757501Y-77950000D02*
X145971209Y-77950000D01*
D48*
X130750000Y-60750000D02*
X130750000Y-68624999D01*
D44*
X130670000Y-68704999D02*
X130670000Y-68330000D01*
D45*
X145971209Y-77950000D02*
X145545001Y-77523792D01*
D48*
X140750000Y-71750000D02*
X144545001Y-71750000D01*
X131785001Y-68704999D02*
X137704999Y-68704999D01*
D45*
%TO.N,Net-(U2-AUX)*%
X146757501Y-77300000D02*
X147845001Y-77300000D01*
X147845001Y-77300000D02*
X148345001Y-76800000D01*
X148345001Y-76800000D02*
X148345001Y-75400000D01*
D44*
%TO.N,Net-(U2-LDO)*%
X140282501Y-77950000D02*
X140082501Y-77750000D01*
D45*
X142457501Y-77950000D02*
X140282501Y-77950000D01*
D44*
%TO.N,Net-(C10-Pad1)*%
X124255000Y-70609999D02*
X124255000Y-72719999D01*
X124250000Y-72724999D02*
X126560000Y-72724999D01*
X126185000Y-73264999D02*
X126610000Y-72839999D01*
X124255000Y-72719999D02*
X124250000Y-72724999D01*
X126560000Y-72724999D02*
X126675000Y-72839999D01*
%TO.N,Net-(C10-Pad2)*%
X131115000Y-70609999D02*
X131115000Y-72589999D01*
X131250000Y-72724999D02*
X128865000Y-72724999D01*
X128865000Y-72724999D02*
X128750000Y-72839999D01*
X131115000Y-72589999D02*
X131250000Y-72724999D01*
D48*
%TO.N,BAT-*%
X165125000Y-106750000D02*
X118250000Y-106750000D01*
D45*
X117330000Y-98230000D02*
X115500000Y-98230000D01*
D48*
X168200000Y-113000000D02*
X168200000Y-109825000D01*
X118250000Y-100500000D02*
X122200000Y-100500000D01*
D45*
X118250000Y-99150000D02*
X117330000Y-98230000D01*
D48*
X122200000Y-100500000D02*
X123500000Y-99200000D01*
X168200000Y-109825000D02*
X165125000Y-106750000D01*
D45*
X119000000Y-90250000D02*
X119250000Y-90500000D01*
X119250000Y-90500000D02*
X123500000Y-90500000D01*
X118250000Y-100500000D02*
X118250000Y-99150000D01*
D48*
X123500000Y-99200000D02*
X123500000Y-90500000D01*
D45*
X119000000Y-89250000D02*
X119000000Y-90250000D01*
D50*
X115500000Y-97570000D02*
X115500000Y-98230000D01*
D45*
%TO.N,Net-(U5-VCC)*%
X119950000Y-89250000D02*
X119950000Y-87050000D01*
X116506832Y-87243168D02*
X116750000Y-87000000D01*
X116506832Y-88432730D02*
X116506832Y-87243168D01*
X116750000Y-87000000D02*
X120000000Y-87000000D01*
X122787500Y-85250000D02*
X122787500Y-86962500D01*
X120000000Y-87000000D02*
X122750000Y-87000000D01*
X122787500Y-81037500D02*
X122787500Y-85250000D01*
X123500000Y-87250000D02*
X123500000Y-88425000D01*
X121655000Y-77845000D02*
X121655000Y-79905000D01*
X123250000Y-87000000D02*
X123500000Y-87250000D01*
X122787500Y-86962500D02*
X122750000Y-87000000D01*
X121655000Y-79905000D02*
X122787500Y-81037500D01*
X119950000Y-87050000D02*
X120000000Y-87000000D01*
X122750000Y-87000000D02*
X123250000Y-87000000D01*
%TO.N,Net-(Q1-D)*%
X120712500Y-84212500D02*
X120712500Y-85250000D01*
X113950000Y-78350000D02*
X114750000Y-79150000D01*
X117750000Y-94356475D02*
X116356475Y-94356475D01*
X121100000Y-98230000D02*
X121100000Y-97570000D01*
X117845000Y-81095000D02*
X117750000Y-81000000D01*
X111350000Y-78350000D02*
X110925000Y-77925000D01*
X120385000Y-83885000D02*
X120712500Y-84212500D01*
X114750000Y-79150000D02*
X114750000Y-81000000D01*
X114750000Y-81000000D02*
X114750000Y-85800000D01*
X114750000Y-89750000D02*
X114750000Y-85250000D01*
X120385000Y-82795000D02*
X120385000Y-83885000D01*
D44*
X116750000Y-85320000D02*
X116680000Y-85320000D01*
D45*
X117845000Y-82795000D02*
X117845000Y-81095000D01*
X120000000Y-81000000D02*
X120385000Y-81385000D01*
X117750000Y-96550000D02*
X117750000Y-94356475D01*
X112050000Y-79925000D02*
X112050000Y-78350000D01*
D44*
X112037500Y-79912500D02*
X112050000Y-79925000D01*
D45*
X120385000Y-81385000D02*
X120385000Y-82795000D01*
X117750000Y-81000000D02*
X114750000Y-81000000D01*
X112050000Y-78350000D02*
X111350000Y-78350000D01*
X121100000Y-97570000D02*
X118770000Y-97570000D01*
X116750000Y-85320000D02*
X114820000Y-85320000D01*
X118770000Y-97570000D02*
X117750000Y-96550000D01*
X118250000Y-81000000D02*
X117750000Y-81000000D01*
X118250000Y-81000000D02*
X120000000Y-81000000D01*
X113950000Y-78350000D02*
X112050000Y-78350000D01*
X110925000Y-77925000D02*
X110925000Y-75500000D01*
%TO.N,Net-(D1-A)*%
X117845000Y-77845000D02*
X117845000Y-79470000D01*
D48*
X112975000Y-69275000D02*
X112975000Y-71000000D01*
X124700000Y-68704999D02*
X113545001Y-68704999D01*
D46*
X113000000Y-75500000D02*
X117250000Y-75500000D01*
D48*
X112950000Y-75450000D02*
X113000000Y-75500000D01*
D45*
X121655000Y-81155000D02*
X121655000Y-82795000D01*
X120750000Y-80250000D02*
X121655000Y-81155000D01*
D48*
X113545001Y-68704999D02*
X112975000Y-69275000D01*
X112975000Y-73275000D02*
X112950000Y-73300000D01*
D45*
X118625000Y-80250000D02*
X120750000Y-80250000D01*
X117845000Y-79470000D02*
X118625000Y-80250000D01*
D46*
X117250000Y-75500000D02*
X117845000Y-76095000D01*
X112950000Y-73300000D02*
X112950000Y-75450000D01*
D49*
X112975000Y-71000000D02*
X112975000Y-73275000D01*
D46*
X117845000Y-76095000D02*
X117845000Y-77845000D01*
%TO.N,Net-(D1-K)*%
X117100000Y-73300000D02*
X115000000Y-73300000D01*
D44*
X116700000Y-73300000D02*
X117100000Y-73300000D01*
D46*
%TO.N,Net-(D2-K)*%
X115025000Y-71000000D02*
X118392500Y-71000000D01*
X118392500Y-71000000D02*
X118462500Y-70930000D01*
D44*
%TO.N,Net-(D3-K)*%
X114100000Y-38450000D02*
X114100000Y-36350000D01*
X114100000Y-36350000D02*
X113725000Y-35975000D01*
X113725000Y-35975000D02*
X112600000Y-35975000D01*
%TO.N,Net-(D3-A)*%
X115575000Y-33925000D02*
X115600000Y-33950000D01*
X112600000Y-33925000D02*
X115575000Y-33925000D01*
%TO.N,Net-(D4-A)*%
X119200000Y-33923915D02*
X122150000Y-33923915D01*
X122150000Y-33923915D02*
X122200000Y-33973915D01*
%TO.N,Net-(D4-K)*%
X120650000Y-36573915D02*
X120050000Y-35973915D01*
X120650000Y-38598915D02*
X120650000Y-36573915D01*
X120050000Y-35973915D02*
X119200000Y-35973915D01*
%TO.N,Net-(D5-A)*%
X125800000Y-33947545D02*
X128775000Y-33947545D01*
X128775000Y-33947545D02*
X128800000Y-33972545D01*
%TO.N,Net-(D5-K)*%
X127300000Y-38472545D02*
X127300000Y-36522545D01*
X126775000Y-35997545D02*
X125800000Y-35997545D01*
X127300000Y-36522545D02*
X126775000Y-35997545D01*
%TO.N,Net-(D6-K)*%
X133069511Y-35998726D02*
X132194511Y-35998726D01*
X133694511Y-36623726D02*
X133069511Y-35998726D01*
X133694511Y-38473726D02*
X133694511Y-36623726D01*
%TO.N,Net-(D6-A)*%
X135169511Y-33948726D02*
X135194511Y-33973726D01*
X132194511Y-33948726D02*
X135169511Y-33948726D01*
%TO.N,Net-(D7-K)*%
X140119721Y-38448650D02*
X140119721Y-36698650D01*
X139419721Y-35998650D02*
X138619721Y-35998650D01*
X140119721Y-36698650D02*
X139419721Y-35998650D01*
%TO.N,Net-(D7-A)*%
X138619721Y-33948650D02*
X141619721Y-33948650D01*
%TO.N,Net-(D8-K)*%
X146152772Y-35974386D02*
X145102772Y-35974386D01*
X146602772Y-36424386D02*
X146152772Y-35974386D01*
X146602772Y-38449386D02*
X146602772Y-36424386D01*
%TO.N,Net-(D8-A)*%
X145102772Y-33924386D02*
X148077772Y-33924386D01*
X148077772Y-33924386D02*
X148102772Y-33949386D01*
%TO.N,Net-(D9-A)*%
X154425000Y-33926749D02*
X154450000Y-33951749D01*
X151450000Y-33926749D02*
X154425000Y-33926749D01*
%TO.N,Net-(D9-K)*%
X152950000Y-36576749D02*
X152350000Y-35976749D01*
X152350000Y-35976749D02*
X151450000Y-35976749D01*
X152950000Y-38451749D02*
X152950000Y-36576749D01*
%TO.N,Net-(D10-K)*%
X165520110Y-35978641D02*
X164500000Y-35978641D01*
X166000000Y-38491141D02*
X166000000Y-36458531D01*
X166000000Y-36458531D02*
X165520110Y-35978641D01*
%TO.N,Net-(D10-A)*%
X164500000Y-33928641D02*
X167500000Y-33928641D01*
%TO.N,Net-(D11-A)*%
X160925000Y-33929112D02*
X160950000Y-33954112D01*
X157950000Y-33929112D02*
X160925000Y-33929112D01*
%TO.N,Net-(D11-K)*%
X158945110Y-35979112D02*
X157950000Y-35979112D01*
X159450000Y-38454112D02*
X159450000Y-36484002D01*
X159450000Y-36484002D02*
X158945110Y-35979112D01*
D48*
%TO.N,VOUT_1*%
X102750000Y-100250000D02*
X102750000Y-94250000D01*
X168000000Y-89500000D02*
X163210000Y-89500000D01*
X169250000Y-102250000D02*
X104750000Y-102250000D01*
X163210000Y-89500000D02*
X162680000Y-88970000D01*
X102750000Y-68250000D02*
X102750000Y-74750000D01*
X169250000Y-90750000D02*
X168000000Y-89500000D01*
X104750000Y-102250000D02*
X102750000Y-100250000D01*
X102750000Y-55250000D02*
X102750000Y-61750000D01*
X102750000Y-55250000D02*
X102750000Y-68250000D01*
X169250000Y-95750000D02*
X169250000Y-90750000D01*
X102750000Y-68250000D02*
X102750000Y-81250000D01*
X102700000Y-87850000D02*
X102700000Y-94200000D01*
X102750000Y-68250000D02*
X102750000Y-87800000D01*
X102700000Y-94200000D02*
X102750000Y-94250000D01*
X169250000Y-95750000D02*
X169250000Y-98750000D01*
X102750000Y-87800000D02*
X102700000Y-87850000D01*
D44*
%TO.N,SHDN_1*%
X128956000Y-49200000D02*
X128956000Y-47706000D01*
X128250000Y-51000000D02*
X108125000Y-51000000D01*
X121179376Y-45929376D02*
X113750000Y-45929376D01*
X113750000Y-45929376D02*
X113100000Y-45279376D01*
X128956000Y-50294000D02*
X128250000Y-51000000D01*
X128956000Y-47706000D02*
X128500000Y-47250000D01*
X113100000Y-45279376D02*
X113100000Y-42950000D01*
X122500000Y-47250000D02*
X121179376Y-45929376D01*
X108125000Y-51000000D02*
X104750000Y-54375000D01*
X104750000Y-54375000D02*
X104750000Y-55250000D01*
X113150000Y-42900000D02*
X113100000Y-42950000D01*
X128956000Y-49200000D02*
X128956000Y-50294000D01*
X113150000Y-40325000D02*
X113150000Y-42900000D01*
X128500000Y-47250000D02*
X122500000Y-47250000D01*
D50*
%TO.N,SCL*%
X137350000Y-94650000D02*
X137250000Y-94750000D01*
X118796000Y-49200000D02*
X118796000Y-48046000D01*
X131750000Y-94750000D02*
X131040000Y-94040000D01*
X162500000Y-94750000D02*
X147000000Y-94750000D01*
X131040000Y-94040000D02*
X131040000Y-82680000D01*
X137350000Y-88725000D02*
X137350000Y-94650000D01*
X147782276Y-89717724D02*
X149455000Y-89717724D01*
X163500000Y-97460000D02*
X163500000Y-95750000D01*
X118796000Y-48046000D02*
X118000000Y-47250000D01*
X98700000Y-81300000D02*
X98750000Y-81250000D01*
X98750000Y-94250000D02*
X98750000Y-94000000D01*
X147000000Y-94750000D02*
X147000000Y-90500000D01*
X98750000Y-102000000D02*
X101750000Y-105000000D01*
X111000000Y-47500000D02*
X102000000Y-47500000D01*
X163500000Y-95750000D02*
X162500000Y-94750000D01*
X140500000Y-94750000D02*
X140000000Y-94750000D01*
X147000000Y-94750000D02*
X140500000Y-94750000D01*
X98750000Y-61750000D02*
X98750000Y-55250000D01*
X98750000Y-94000000D02*
X98700000Y-93950000D01*
X147000000Y-90500000D02*
X147782276Y-89717724D01*
X98250000Y-53000000D02*
X98250000Y-47500000D01*
X111250000Y-47250000D02*
X111000000Y-47500000D01*
X98750000Y-74750000D02*
X98750000Y-68250000D01*
X98250000Y-47500000D02*
X98250000Y-43750000D01*
X98700000Y-87850000D02*
X98700000Y-81300000D01*
X98750000Y-81250000D02*
X98750000Y-74750000D01*
X118000000Y-47250000D02*
X111250000Y-47250000D01*
X98750000Y-94250000D02*
X98750000Y-102000000D01*
X101750000Y-105000000D02*
X163500000Y-105000000D01*
X98750000Y-53500000D02*
X98250000Y-53000000D01*
X98700000Y-93950000D02*
X98700000Y-87850000D01*
X98750000Y-55250000D02*
X98750000Y-53500000D01*
X137250000Y-94750000D02*
X131750000Y-94750000D01*
X98750000Y-68250000D02*
X98750000Y-61750000D01*
X140000000Y-94750000D02*
X137250000Y-94750000D01*
D44*
%TO.N,SDA*%
X121336000Y-47336000D02*
X120380376Y-46380376D01*
D47*
X101250000Y-43750000D02*
X101250000Y-45750000D01*
D44*
X100750000Y-81250000D02*
X100750000Y-74750000D01*
D47*
X101250000Y-45750000D02*
X101250000Y-46250000D01*
D44*
X100750000Y-68250000D02*
X100750000Y-61750000D01*
D50*
X145750000Y-90250000D02*
X145750000Y-94000000D01*
D44*
X103000000Y-103750000D02*
X160960000Y-103750000D01*
D47*
X100750000Y-53500000D02*
X100750000Y-55250000D01*
D44*
X100700000Y-81300000D02*
X100750000Y-81250000D01*
D50*
X129770000Y-82680000D02*
X129770000Y-94770000D01*
D44*
X100750000Y-94250000D02*
X100750000Y-101500000D01*
D47*
X111380376Y-46380376D02*
X111000000Y-46000000D01*
D50*
X129770000Y-94770000D02*
X130750000Y-95750000D01*
D44*
X160960000Y-97460000D02*
X160960000Y-96210000D01*
X100750000Y-74750000D02*
X100750000Y-68250000D01*
X100700000Y-87850000D02*
X100700000Y-81300000D01*
D50*
X138000000Y-88725000D02*
X138000000Y-90750000D01*
D44*
X120380376Y-46380376D02*
X111380376Y-46380376D01*
D50*
X138000000Y-93900000D02*
X138100000Y-94000000D01*
D47*
X101250000Y-46000000D02*
X101250000Y-45750000D01*
D50*
X145750000Y-95750000D02*
X160500000Y-95750000D01*
X138000000Y-90750000D02*
X138000000Y-93900000D01*
D47*
X111000000Y-46000000D02*
X101250000Y-46000000D01*
X101250000Y-46250000D02*
X101250000Y-53000000D01*
D44*
X121336000Y-49200000D02*
X121336000Y-47336000D01*
X100750000Y-87900000D02*
X100700000Y-87850000D01*
D50*
X149455000Y-88447724D02*
X147552276Y-88447724D01*
D44*
X160960000Y-96210000D02*
X160500000Y-95750000D01*
X100750000Y-101500000D02*
X103000000Y-103750000D01*
D47*
X101250000Y-53000000D02*
X100750000Y-53500000D01*
D50*
X130750000Y-95750000D02*
X138000000Y-95750000D01*
D44*
X100750000Y-61750000D02*
X100750000Y-55250000D01*
D50*
X138000000Y-95750000D02*
X145750000Y-95750000D01*
X147552276Y-88447724D02*
X145750000Y-90250000D01*
D44*
X100750000Y-94250000D02*
X100750000Y-87900000D01*
%TO.N,SHDN_2*%
X108318905Y-51500000D02*
X106250000Y-53568905D01*
X119700000Y-42973915D02*
X119700000Y-44950000D01*
X131000000Y-46750000D02*
X131496000Y-47246000D01*
X131496000Y-51004000D02*
X131000000Y-51500000D01*
X122637810Y-46750000D02*
X131000000Y-46750000D01*
X119700000Y-44950000D02*
X120228376Y-45478376D01*
X119700000Y-40473915D02*
X119700000Y-42973915D01*
X131496000Y-47246000D02*
X131496000Y-49200000D01*
X121366186Y-45478376D02*
X122637810Y-46750000D01*
X104750000Y-57500000D02*
X104750000Y-61750000D01*
X131000000Y-51500000D02*
X108318905Y-51500000D01*
X131496000Y-49200000D02*
X131496000Y-51004000D01*
X120228376Y-45478376D02*
X121366186Y-45478376D01*
X106250000Y-53568905D02*
X106250000Y-56000000D01*
X106250000Y-56000000D02*
X104750000Y-57500000D01*
%TO.N,SHDN_3*%
X134036000Y-47286000D02*
X134036000Y-49200000D01*
X107000000Y-53500000D02*
X107000000Y-61750000D01*
X134036000Y-49200000D02*
X134036000Y-51214000D01*
X126350000Y-42922545D02*
X126300000Y-42972545D01*
X133250000Y-52000000D02*
X108500000Y-52000000D01*
X134036000Y-51214000D02*
X133250000Y-52000000D01*
X107000000Y-61750000D02*
X104750000Y-64000000D01*
X126300000Y-45550000D02*
X127000000Y-46250000D01*
X108500000Y-52000000D02*
X107000000Y-53500000D01*
X126350000Y-40347545D02*
X126350000Y-42922545D01*
X104750000Y-64000000D02*
X104750000Y-68250000D01*
X126300000Y-42972545D02*
X126300000Y-45550000D01*
X133000000Y-46250000D02*
X134036000Y-47286000D01*
X127000000Y-46250000D02*
X133000000Y-46250000D01*
%TO.N,SHDN_4*%
X136576000Y-51424000D02*
X135500000Y-52500000D01*
X136576000Y-46326000D02*
X136576000Y-49200000D01*
X104750000Y-70500000D02*
X104750000Y-74750000D01*
X132744511Y-42923726D02*
X132694511Y-42973726D01*
X108750000Y-52500000D02*
X107500000Y-53750000D01*
X135500000Y-52500000D02*
X108750000Y-52500000D01*
X107500000Y-67750000D02*
X104750000Y-70500000D01*
X132694511Y-45194511D02*
X133250000Y-45750000D01*
X133250000Y-45750000D02*
X136000000Y-45750000D01*
X136000000Y-45750000D02*
X136576000Y-46326000D01*
X132694511Y-42973726D02*
X132694511Y-45194511D01*
X136576000Y-49200000D02*
X136576000Y-51424000D01*
X107500000Y-53750000D02*
X107500000Y-67750000D01*
X132744511Y-40348726D02*
X132744511Y-42923726D01*
%TO.N,SHDN_5*%
X139169721Y-42898650D02*
X139119721Y-42948650D01*
X104750000Y-77000000D02*
X104750000Y-81250000D01*
X138250000Y-53000000D02*
X109000000Y-53000000D01*
X108000000Y-54000000D02*
X108000000Y-73750000D01*
X109000000Y-53000000D02*
X108000000Y-54000000D01*
X139119721Y-49196279D02*
X139116000Y-49200000D01*
X139119721Y-42948650D02*
X139119721Y-49196279D01*
X139116000Y-52134000D02*
X138250000Y-53000000D01*
X139169721Y-40323650D02*
X139169721Y-42898650D01*
X139116000Y-49200000D02*
X139116000Y-52134000D01*
X108000000Y-73750000D02*
X104750000Y-77000000D01*
%TO.N,SHDN_6*%
X145652772Y-40324386D02*
X145652772Y-42774386D01*
X145000000Y-45500000D02*
X142250000Y-45500000D01*
X140750000Y-53500000D02*
X109250000Y-53500000D01*
X104700000Y-83550000D02*
X104700000Y-87850000D01*
X142250000Y-45500000D02*
X141656000Y-46094000D01*
X145652772Y-42774386D02*
X145602772Y-42824386D01*
X108500000Y-79750000D02*
X104700000Y-83550000D01*
X108500000Y-54250000D02*
X108500000Y-79750000D01*
X141656000Y-46094000D02*
X141656000Y-49200000D01*
X141656000Y-52594000D02*
X140750000Y-53500000D01*
X109250000Y-53500000D02*
X108500000Y-54250000D01*
X145602772Y-42824386D02*
X145602772Y-44897228D01*
X145602772Y-44897228D02*
X145000000Y-45500000D01*
X141656000Y-49200000D02*
X141656000Y-52594000D01*
%TO.N,SHDN_7*%
X145720000Y-46530000D02*
X145720000Y-49200000D01*
X144250000Y-54000000D02*
X109500000Y-54000000D01*
X152000000Y-42776749D02*
X151950000Y-42826749D01*
X109500000Y-54000000D02*
X109000000Y-54500000D01*
X109000000Y-54500000D02*
X109000000Y-85750000D01*
X151950000Y-45050000D02*
X151250000Y-45750000D01*
X145720000Y-49200000D02*
X145750000Y-49230000D01*
X146500000Y-45750000D02*
X145720000Y-46530000D01*
X104750000Y-94250000D02*
X104750000Y-94000000D01*
X145750000Y-49230000D02*
X145750000Y-52500000D01*
X145750000Y-52500000D02*
X144250000Y-54000000D01*
X151950000Y-42826749D02*
X151950000Y-45050000D01*
X109000000Y-85750000D02*
X104750000Y-90000000D01*
X152000000Y-40326749D02*
X152000000Y-42776749D01*
X151250000Y-45750000D02*
X146500000Y-45750000D01*
X104750000Y-94000000D02*
X104700000Y-93950000D01*
X104750000Y-90000000D02*
X104750000Y-94250000D01*
%TO.N,CHARGER*%
X148250000Y-52750000D02*
X148250000Y-49210000D01*
X111100000Y-85375000D02*
X111050000Y-85425000D01*
X149000000Y-46250000D02*
X148250000Y-47000000D01*
X158750000Y-43025000D02*
X158450000Y-43325000D01*
X146500000Y-54500000D02*
X148250000Y-52750000D01*
X109721952Y-54500000D02*
X146500000Y-54500000D01*
X148260000Y-47010000D02*
X148260000Y-49200000D01*
X148250000Y-47000000D02*
X148260000Y-47010000D01*
X109500000Y-85050000D02*
X109500000Y-54721952D01*
X158500000Y-42904112D02*
X158450000Y-42954112D01*
X158450000Y-45550000D02*
X157750000Y-46250000D01*
X148250000Y-49210000D02*
X148260000Y-49200000D01*
X109500000Y-54721952D02*
X109721952Y-54500000D01*
X111050000Y-85425000D02*
X109875000Y-85425000D01*
X158500000Y-40329112D02*
X158500000Y-42904112D01*
D45*
X111100000Y-82300000D02*
X111100000Y-85375000D01*
D44*
X157750000Y-46250000D02*
X149000000Y-46250000D01*
X109875000Y-85425000D02*
X109500000Y-85050000D01*
X158450000Y-43325000D02*
X158450000Y-45550000D01*
%TO.N,!BOOST*%
X150800000Y-47450000D02*
X150800000Y-49200000D01*
X151500000Y-46750000D02*
X164000000Y-46750000D01*
X151500000Y-46750000D02*
X150800000Y-47450000D01*
X164700000Y-42928641D02*
X164700000Y-46050000D01*
X136750000Y-70500000D02*
X136750000Y-78750000D01*
X136750000Y-78750000D02*
X137250000Y-79250000D01*
X165050000Y-42878641D02*
X165000000Y-42928641D01*
X136750000Y-56000000D02*
X136750000Y-67000000D01*
X136750000Y-67000000D02*
X137000000Y-67250000D01*
X164700000Y-46050000D02*
X164000000Y-46750000D01*
X150750000Y-49250000D02*
X150750000Y-53250000D01*
X150800000Y-49200000D02*
X150750000Y-49250000D01*
X137250000Y-79250000D02*
X142457501Y-79250000D01*
X137000000Y-70250000D02*
X136750000Y-70500000D01*
X150750000Y-53250000D02*
X149000000Y-55000000D01*
X165050000Y-40366141D02*
X165050000Y-42878641D01*
X149000000Y-55000000D02*
X137750000Y-55000000D01*
X137750000Y-55000000D02*
X136750000Y-56000000D01*
D45*
%TO.N,L_SWITCH*%
X151180000Y-79250000D02*
X146757501Y-79250000D01*
X152180000Y-78250000D02*
X152180000Y-72750000D01*
X151180000Y-79250000D02*
X152180000Y-78250000D01*
D48*
%TO.N,BAT+*%
X112900000Y-99100000D02*
X114300000Y-100500000D01*
X114500000Y-92000000D02*
X112900000Y-93600000D01*
X116506832Y-90432730D02*
X116506832Y-91493168D01*
X116000000Y-92000000D02*
X114500000Y-92000000D01*
X95300000Y-113000000D02*
X95300000Y-109700000D01*
X116506832Y-91493168D02*
X116000000Y-92000000D01*
X95300000Y-109700000D02*
X98250000Y-106750000D01*
X98250000Y-106750000D02*
X116750000Y-106750000D01*
X114300000Y-100500000D02*
X116750000Y-100500000D01*
X112900000Y-93600000D02*
X112900000Y-99100000D01*
D50*
%TO.N,Net-(U1-IN-)*%
X156930000Y-87795062D02*
X156930000Y-89955000D01*
X156313226Y-87177724D02*
X156930282Y-87794780D01*
X154405000Y-87177724D02*
X156313226Y-87177724D01*
X156930282Y-87794780D02*
X156930000Y-87795062D01*
%TO.N,Net-(U1-IN+)*%
X155697276Y-85907724D02*
X156930000Y-84675000D01*
X154405000Y-85907724D02*
X155697276Y-85907724D01*
X156930000Y-84675000D02*
X156930000Y-82955000D01*
D45*
%TO.N,Net-(U2-FB)*%
X142500000Y-75250000D02*
X141295001Y-75250000D01*
X143545001Y-75250000D02*
X142500000Y-75250000D01*
X142457501Y-75292499D02*
X142500000Y-75250000D01*
X142457501Y-77300000D02*
X142457501Y-75292499D01*
D44*
%TO.N,Net-(U4-IN-)*%
X131250000Y-74724999D02*
X129250000Y-74724999D01*
X128500000Y-75474999D02*
X128500000Y-77730000D01*
X129250000Y-74724999D02*
X128500000Y-75474999D01*
%TO.N,Net-(U4-IN+)*%
X127230000Y-75704999D02*
X127230000Y-77730000D01*
X124250000Y-74724999D02*
X126250000Y-74724999D01*
X126250000Y-74724999D02*
X127230000Y-75704999D01*
D46*
%TO.N,Net-(U6-~{CHRG})*%
X119100000Y-77830000D02*
X119115000Y-77845000D01*
X119115000Y-77845000D02*
X119115000Y-73315000D01*
X119115000Y-73315000D02*
X119100000Y-73300000D01*
%TO.N,Net-(U6-~{STDBY})*%
X120385000Y-71007500D02*
X120462500Y-70930000D01*
X120385000Y-77845000D02*
X120385000Y-71007500D01*
D44*
X120462500Y-77767500D02*
X120385000Y-77845000D01*
D45*
%TO.N,Net-(U5-CS)*%
X119950000Y-91950000D02*
X119950000Y-93050000D01*
X119950000Y-93050000D02*
X119750000Y-93250000D01*
X119750000Y-93250000D02*
X119750000Y-94356475D01*
X119959753Y-91959753D02*
X119950000Y-91950000D01*
%TO.N,Net-(U6-PROG)*%
X119115000Y-83885000D02*
X118750000Y-84250000D01*
X118750000Y-84250000D02*
X118750000Y-85320000D01*
X119115000Y-82795000D02*
X119115000Y-83885000D01*
D47*
%TO.N,Net-(U2-~{PGOOD})*%
X149622522Y-68122522D02*
X149250000Y-67750000D01*
X149622522Y-77122480D02*
X149622522Y-68122522D01*
X146757501Y-78600000D02*
X148145002Y-78600000D01*
X149250000Y-67750000D02*
X148500000Y-67750000D01*
X148145002Y-78600000D02*
X149622522Y-77122480D01*
D45*
%TO.N,Net-(U2-MPPC)*%
X134750000Y-88725000D02*
X134750000Y-87750000D01*
X132750000Y-81250000D02*
X134100000Y-79900000D01*
X134100000Y-79900000D02*
X142457501Y-79900000D01*
X132750000Y-85750000D02*
X132750000Y-81250000D01*
X134750000Y-87750000D02*
X132750000Y-85750000D01*
%TO.N,Net-(U5-OC)*%
X122300000Y-95700000D02*
X121400000Y-95700000D01*
X121100000Y-98870000D02*
X122171292Y-98870000D01*
X122501000Y-98540292D02*
X122501000Y-95901000D01*
X122501000Y-95901000D02*
X122300000Y-95700000D01*
X122171292Y-98870000D02*
X122501000Y-98540292D01*
X120900000Y-95200000D02*
X120900000Y-91950000D01*
X121400000Y-95700000D02*
X120900000Y-95200000D01*
%TO.N,Net-(U5-OD)*%
X115250000Y-93250000D02*
X114000000Y-94500000D01*
X114270000Y-98870000D02*
X115500000Y-98870000D01*
X119000000Y-91950000D02*
X119000000Y-93000000D01*
X119000000Y-93000000D02*
X118750000Y-93250000D01*
X114000000Y-94500000D02*
X114000000Y-98600000D01*
X114000000Y-98600000D02*
X114270000Y-98870000D01*
X118750000Y-93250000D02*
X115250000Y-93250000D01*
%TD*%
%TA.AperFunction,Conductor*%
%TO.N,L_SWITCH*%
G36*
X156543039Y-66769685D02*
G01*
X156588794Y-66822489D01*
X156600000Y-66874000D01*
X156600000Y-78601343D01*
X156599107Y-78606399D01*
X156599748Y-78609238D01*
X156592511Y-78643782D01*
X156577431Y-78685182D01*
X156535991Y-78741436D01*
X156476617Y-78765745D01*
X153148288Y-79190502D01*
X153132591Y-79191500D01*
X149404178Y-79191500D01*
X149337139Y-79171815D01*
X149291384Y-79119011D01*
X149281440Y-79049853D01*
X149310465Y-78986297D01*
X149362829Y-78950596D01*
X149930000Y-78750000D01*
X149930000Y-77726913D01*
X149949685Y-77659874D01*
X149966319Y-77639232D01*
X149980551Y-77625000D01*
X150109444Y-77496107D01*
X150189554Y-77357352D01*
X150231022Y-77202590D01*
X150231022Y-77042370D01*
X150231022Y-68042411D01*
X150189554Y-67887650D01*
X150109443Y-67748894D01*
X149996150Y-67635601D01*
X149966319Y-67605770D01*
X149932834Y-67544447D01*
X149930000Y-67518089D01*
X149930000Y-66874000D01*
X149949685Y-66806961D01*
X150002489Y-66761206D01*
X150054000Y-66750000D01*
X156476000Y-66750000D01*
X156543039Y-66769685D01*
G37*
%TD.AperFunction*%
%TD*%
%TA.AperFunction,Conductor*%
%TO.N,L_VIN*%
G36*
X163873039Y-66769685D02*
G01*
X163918794Y-66822489D01*
X163930000Y-66874000D01*
X163930000Y-78627118D01*
X163910315Y-78694157D01*
X163857511Y-78739912D01*
X163807124Y-78751113D01*
X159700004Y-78788336D01*
X159700000Y-78788336D01*
X159700000Y-78788337D01*
X159699998Y-78788337D01*
X159699997Y-78788338D01*
X156751323Y-79960358D01*
X156681754Y-79966828D01*
X156619731Y-79934658D01*
X156584945Y-79874063D01*
X156588443Y-79804281D01*
X156600367Y-79779411D01*
X156900000Y-79300000D01*
X157400663Y-77925414D01*
X157498908Y-66872898D01*
X157519188Y-66806036D01*
X157572396Y-66760752D01*
X157622903Y-66750000D01*
X163806000Y-66750000D01*
X163873039Y-66769685D01*
G37*
%TD.AperFunction*%
%TD*%
M02*
