%TF.GenerationSoftware,KiCad,Pcbnew,9.0.3*%
%TF.CreationDate,2025-08-05T14:59:21-07:00*%
%TF.ProjectId,Joule Chief,4a6f756c-6520-4436-9869-65662e6b6963,R1*%
%TF.SameCoordinates,Original*%
%TF.FileFunction,Soldermask,Bot*%
%TF.FilePolarity,Negative*%
%FSLAX46Y46*%
G04 Gerber Fmt 4.6, Leading zero omitted, Abs format (unit mm)*
G04 Created by KiCad (PCBNEW 9.0.3) date 2025-08-05 14:59:21*
%MOMM*%
%LPD*%
G01*
G04 APERTURE LIST*
G04 Aperture macros list*
%AMRoundRect*
0 Rectangle with rounded corners*
0 $1 Rounding radius*
0 $2 $3 $4 $5 $6 $7 $8 $9 X,Y pos of 4 corners*
0 Add a 4 corners polygon primitive as box body*
4,1,4,$2,$3,$4,$5,$6,$7,$8,$9,$2,$3,0*
0 Add four circle primitives for the rounded corners*
1,1,$1+$1,$2,$3*
1,1,$1+$1,$4,$5*
1,1,$1+$1,$6,$7*
1,1,$1+$1,$8,$9*
0 Add four rect primitives between the rounded corners*
20,1,$1+$1,$2,$3,$4,$5,0*
20,1,$1+$1,$4,$5,$6,$7,0*
20,1,$1+$1,$6,$7,$8,$9,0*
20,1,$1+$1,$8,$9,$2,$3,0*%
G04 Aperture macros list end*
%ADD10R,1.700000X1.700000*%
%ADD11C,1.700000*%
%ADD12C,2.500000*%
%ADD13RoundRect,0.250000X0.350000X0.625000X-0.350000X0.625000X-0.350000X-0.625000X0.350000X-0.625000X0*%
%ADD14O,1.200000X1.750000*%
%ADD15C,3.600000*%
%ADD16C,3.200000*%
%ADD17RoundRect,0.250000X-0.550000X0.550000X-0.550000X-0.550000X0.550000X-0.550000X0.550000X0.550000X0*%
%ADD18C,1.600000*%
%ADD19R,1.000000X1.000000*%
G04 APERTURE END LIST*
D10*
%TO.C,J9*%
X127940000Y-97460000D03*
D11*
X130480000Y-97460000D03*
X133020000Y-97460000D03*
X135560000Y-97460000D03*
X138100000Y-97460000D03*
X140640000Y-97460000D03*
X143180000Y-97460000D03*
X145720000Y-97460000D03*
%TD*%
D10*
%TO.C,J10*%
X150800000Y-97460000D03*
D11*
X153340000Y-97460000D03*
X155880000Y-97460000D03*
X158420000Y-97460000D03*
X160960000Y-97460000D03*
X163500000Y-97460000D03*
%TD*%
D10*
%TO.C,J8*%
X118796000Y-49200000D03*
D11*
X121336000Y-49200000D03*
X123876000Y-49200000D03*
X126416000Y-49200000D03*
X128956000Y-49200000D03*
X131496000Y-49200000D03*
X134036000Y-49200000D03*
X136576000Y-49200000D03*
X139116000Y-49200000D03*
X141656000Y-49200000D03*
%TD*%
D10*
%TO.C,J11*%
X145720000Y-49200000D03*
D11*
X148260000Y-49200000D03*
X150800000Y-49200000D03*
X153340000Y-49200000D03*
X155880000Y-49200000D03*
X158420000Y-49200000D03*
X160960000Y-49200000D03*
X163500000Y-49200000D03*
%TD*%
D12*
%TO.C,C5*%
X130750000Y-60750000D03*
X115750000Y-60750000D03*
%TD*%
D13*
%TO.C,J6*%
X104700000Y-87850000D03*
D14*
X102700000Y-87850000D03*
X100700000Y-87850000D03*
X98700000Y-87850000D03*
X96700000Y-87850000D03*
X94700000Y-87850000D03*
%TD*%
D15*
%TO.C,LITH1*%
X95300000Y-113000000D03*
X168200000Y-113000000D03*
%TD*%
D16*
%TO.C,MH1*%
X115240000Y-49200000D03*
%TD*%
D13*
%TO.C,J4*%
X104750000Y-74750000D03*
D14*
X102750000Y-74750000D03*
X100750000Y-74750000D03*
X98750000Y-74750000D03*
X96750000Y-74750000D03*
X94750000Y-74750000D03*
%TD*%
D13*
%TO.C,J2*%
X104750000Y-61750000D03*
D14*
X102750000Y-61750000D03*
X100750000Y-61750000D03*
X98750000Y-61750000D03*
X96750000Y-61750000D03*
X94750000Y-61750000D03*
%TD*%
D17*
%TO.C,C4*%
X144545001Y-69750000D03*
D18*
X144545001Y-71750000D03*
%TD*%
D13*
%TO.C,J3*%
X104750000Y-68250000D03*
D14*
X102750000Y-68250000D03*
X100750000Y-68250000D03*
X98750000Y-68250000D03*
X96750000Y-68250000D03*
X94750000Y-68250000D03*
%TD*%
D13*
%TO.C,J1*%
X104750000Y-55250000D03*
D14*
X102750000Y-55250000D03*
X100750000Y-55250000D03*
X98750000Y-55250000D03*
X96750000Y-55250000D03*
X94750000Y-55250000D03*
%TD*%
D19*
%TO.C,TPx1*%
X148500000Y-67750000D03*
%TD*%
D12*
%TO.C,C2*%
X158430000Y-60750000D03*
X143430000Y-60750000D03*
%TD*%
D13*
%TO.C,J5*%
X104750000Y-81250000D03*
D14*
X102750000Y-81250000D03*
X100750000Y-81250000D03*
X98750000Y-81250000D03*
X96750000Y-81250000D03*
X94750000Y-81250000D03*
%TD*%
D16*
%TO.C,MH4*%
X166040000Y-92380000D03*
%TD*%
D13*
%TO.C,J7*%
X104750000Y-94250000D03*
D14*
X102750000Y-94250000D03*
X100750000Y-94250000D03*
X98750000Y-94250000D03*
X96750000Y-94250000D03*
X94750000Y-94250000D03*
%TD*%
M02*
