%TF.GenerationSoftware,KiCad,Pcbnew,9.0.0*%
%TF.CreationDate,2025-03-15T23:12:27-07:00*%
%TF.ProjectId,Joule-Thief_R6,4a6f756c-652d-4546-9869-65665f52362e,5*%
%TF.SameCoordinates,Original*%
%TF.FileFunction,Copper,L1,Top*%
%TF.FilePolarity,Positive*%
%FSLAX46Y46*%
G04 Gerber Fmt 4.6, Leading zero omitted, Abs format (unit mm)*
G04 Created by KiCad (PCBNEW 9.0.0) date 2025-03-15 23:12:27*
%MOMM*%
%LPD*%
G01*
G04 APERTURE LIST*
G04 Aperture macros list*
%AMRoundRect*
0 Rectangle with rounded corners*
0 $1 Rounding radius*
0 $2 $3 $4 $5 $6 $7 $8 $9 X,Y pos of 4 corners*
0 Add a 4 corners polygon primitive as box body*
4,1,4,$2,$3,$4,$5,$6,$7,$8,$9,$2,$3,0*
0 Add four circle primitives for the rounded corners*
1,1,$1+$1,$2,$3*
1,1,$1+$1,$4,$5*
1,1,$1+$1,$6,$7*
1,1,$1+$1,$8,$9*
0 Add four rect primitives between the rounded corners*
20,1,$1+$1,$2,$3,$4,$5,0*
20,1,$1+$1,$4,$5,$6,$7,0*
20,1,$1+$1,$6,$7,$8,$9,0*
20,1,$1+$1,$8,$9,$2,$3,0*%
G04 Aperture macros list end*
%TA.AperFunction,SMDPad,CuDef*%
%ADD10RoundRect,0.150000X0.825000X0.150000X-0.825000X0.150000X-0.825000X-0.150000X0.825000X-0.150000X0*%
%TD*%
%TA.AperFunction,SMDPad,CuDef*%
%ADD11RoundRect,0.250000X-0.350000X-0.450000X0.350000X-0.450000X0.350000X0.450000X-0.350000X0.450000X0*%
%TD*%
%TA.AperFunction,ComponentPad*%
%ADD12C,2.500000*%
%TD*%
%TA.AperFunction,SMDPad,CuDef*%
%ADD13RoundRect,0.525000X1.475000X-1.225000X1.475000X1.225000X-1.475000X1.225000X-1.475000X-1.225000X0*%
%TD*%
%TA.AperFunction,SMDPad,CuDef*%
%ADD14RoundRect,0.090000X-0.660000X-0.210000X0.660000X-0.210000X0.660000X0.210000X-0.660000X0.210000X0*%
%TD*%
%TA.AperFunction,SMDPad,CuDef*%
%ADD15RoundRect,0.090000X0.660000X0.210000X-0.660000X0.210000X-0.660000X-0.210000X0.660000X-0.210000X0*%
%TD*%
%TA.AperFunction,ComponentPad*%
%ADD16C,2.000000*%
%TD*%
%TA.AperFunction,SMDPad,CuDef*%
%ADD17RoundRect,0.100000X-0.637500X-0.100000X0.637500X-0.100000X0.637500X0.100000X-0.637500X0.100000X0*%
%TD*%
%TA.AperFunction,SMDPad,CuDef*%
%ADD18RoundRect,0.100000X0.625000X0.100000X-0.625000X0.100000X-0.625000X-0.100000X0.625000X-0.100000X0*%
%TD*%
%TA.AperFunction,SMDPad,CuDef*%
%ADD19RoundRect,0.250000X-0.337500X-0.475000X0.337500X-0.475000X0.337500X0.475000X-0.337500X0.475000X0*%
%TD*%
%TA.AperFunction,SMDPad,CuDef*%
%ADD20RoundRect,0.250000X0.350000X0.450000X-0.350000X0.450000X-0.350000X-0.450000X0.350000X-0.450000X0*%
%TD*%
%TA.AperFunction,SMDPad,CuDef*%
%ADD21RoundRect,0.250000X0.450000X-0.350000X0.450000X0.350000X-0.450000X0.350000X-0.450000X-0.350000X0*%
%TD*%
%TA.AperFunction,SMDPad,CuDef*%
%ADD22RoundRect,0.250000X-0.475000X0.337500X-0.475000X-0.337500X0.475000X-0.337500X0.475000X0.337500X0*%
%TD*%
%TA.AperFunction,SMDPad,CuDef*%
%ADD23RoundRect,0.150000X0.150000X-0.587500X0.150000X0.587500X-0.150000X0.587500X-0.150000X-0.587500X0*%
%TD*%
%TA.AperFunction,ComponentPad*%
%ADD24R,1.700000X1.700000*%
%TD*%
%TA.AperFunction,ComponentPad*%
%ADD25O,1.700000X1.700000*%
%TD*%
%TA.AperFunction,SMDPad,CuDef*%
%ADD26RoundRect,0.150000X-0.150000X0.512500X-0.150000X-0.512500X0.150000X-0.512500X0.150000X0.512500X0*%
%TD*%
%TA.AperFunction,SMDPad,CuDef*%
%ADD27RoundRect,0.250000X0.337500X0.475000X-0.337500X0.475000X-0.337500X-0.475000X0.337500X-0.475000X0*%
%TD*%
%TA.AperFunction,SMDPad,CuDef*%
%ADD28RoundRect,0.243600X0.771400X-0.901400X0.771400X0.901400X-0.771400X0.901400X-0.771400X-0.901400X0*%
%TD*%
%TA.AperFunction,SMDPad,CuDef*%
%ADD29RoundRect,0.091200X0.288800X-0.608800X0.288800X0.608800X-0.288800X0.608800X-0.288800X-0.608800X0*%
%TD*%
%TA.AperFunction,SMDPad,CuDef*%
%ADD30RoundRect,0.190000X0.190000X-0.510000X0.190000X0.510000X-0.190000X0.510000X-0.190000X-0.510000X0*%
%TD*%
%TA.AperFunction,SMDPad,CuDef*%
%ADD31RoundRect,0.243600X-0.771400X0.901400X-0.771400X-0.901400X0.771400X-0.901400X0.771400X0.901400X0*%
%TD*%
%TA.AperFunction,SMDPad,CuDef*%
%ADD32RoundRect,0.091200X-0.288800X0.608800X-0.288800X-0.608800X0.288800X-0.608800X0.288800X0.608800X0*%
%TD*%
%TA.AperFunction,SMDPad,CuDef*%
%ADD33RoundRect,0.190000X-0.190000X0.510000X-0.190000X-0.510000X0.190000X-0.510000X0.190000X0.510000X0*%
%TD*%
%TA.AperFunction,SMDPad,CuDef*%
%ADD34RoundRect,0.250000X-0.450000X0.350000X-0.450000X-0.350000X0.450000X-0.350000X0.450000X0.350000X0*%
%TD*%
%TA.AperFunction,SMDPad,CuDef*%
%ADD35RoundRect,0.250000X0.475000X-0.337500X0.475000X0.337500X-0.475000X0.337500X-0.475000X-0.337500X0*%
%TD*%
%TA.AperFunction,SMDPad,CuDef*%
%ADD36RoundRect,0.150000X-0.825000X-0.150000X0.825000X-0.150000X0.825000X0.150000X-0.825000X0.150000X0*%
%TD*%
%TA.AperFunction,ViaPad*%
%ADD37C,0.600000*%
%TD*%
%TA.AperFunction,Conductor*%
%ADD38C,1.000000*%
%TD*%
%TA.AperFunction,Conductor*%
%ADD39C,0.600000*%
%TD*%
%TA.AperFunction,Conductor*%
%ADD40C,0.400000*%
%TD*%
%TA.AperFunction,Conductor*%
%ADD41C,0.700000*%
%TD*%
%TA.AperFunction,Conductor*%
%ADD42C,0.300000*%
%TD*%
%TA.AperFunction,Conductor*%
%ADD43C,0.500000*%
%TD*%
G04 APERTURE END LIST*
D10*
%TO.P,U4,8,IN+*%
%TO.N,Net-(U4-IN+)*%
X87645000Y-82870000D03*
%TO.P,U4,7,IN-*%
%TO.N,Net-(U4-IN-)*%
X87645000Y-81600000D03*
%TO.P,U4,6,GND*%
%TO.N,GND*%
X87645000Y-80330000D03*
%TO.P,U4,5,VS*%
%TO.N,V5+*%
X87645000Y-79060000D03*
%TO.P,U4,4,SCL*%
%TO.N,SCL*%
X92595000Y-79060000D03*
%TO.P,U4,3,SDA*%
%TO.N,SDA*%
X92595000Y-80330000D03*
%TO.P,U4,2,A0*%
%TO.N,V5+*%
X92595000Y-81600000D03*
%TO.P,U4,1,A1*%
%TO.N,GND*%
X92595000Y-82870000D03*
%TD*%
D11*
%TO.P,R5,1*%
%TO.N,V5+*%
X91700000Y-74575000D03*
%TO.P,R5,2*%
%TO.N,SDA*%
X93700000Y-74575000D03*
%TD*%
%TO.P,R4,1*%
%TO.N,V5+*%
X91740000Y-76955000D03*
%TO.P,R4,2*%
%TO.N,SCL*%
X93740000Y-76955000D03*
%TD*%
D12*
%TO.P,BT1,1,+*%
%TO.N,LITH*%
X136300000Y-42400000D03*
%TO.P,BT1,2,-*%
%TO.N,Net-(BT1--)*%
X63400000Y-42400000D03*
%TD*%
D13*
%TO.P,L1,1,1*%
%TO.N,Net-(SW1-A)*%
X124450000Y-60550000D03*
%TO.P,L1,2,2*%
%TO.N,Net-(U2-SWITCH)*%
X133950000Y-60550000D03*
%TD*%
D14*
%TO.P,SW1,1,A*%
%TO.N,Net-(SW1-A)*%
X143550000Y-75600000D03*
%TO.P,SW1,2,B*%
%TO.N,Net-(SW1-B)*%
X143550000Y-78100000D03*
%TO.P,SW1,3*%
%TO.N,N/C*%
X143550000Y-80600000D03*
%TO.P,SW1,4*%
X150550000Y-75600000D03*
%TO.P,SW1,5*%
X150550000Y-78100000D03*
%TO.P,SW1,6*%
X150550000Y-80600000D03*
%TD*%
D15*
%TO.P,SW2,1,A*%
%TO.N,V5+*%
X68200000Y-81000000D03*
%TO.P,SW2,2,B*%
%TO.N,Net-(SW2-B)*%
X68200000Y-78500000D03*
%TO.P,SW2,3*%
%TO.N,N/C*%
X68200000Y-76000000D03*
%TO.P,SW2,4*%
X61200000Y-81000000D03*
%TO.P,SW2,5*%
X61200000Y-78500000D03*
%TO.P,SW2,6*%
X61200000Y-76000000D03*
%TD*%
D16*
%TO.P,BATT_1,1,+*%
%TO.N,+ALK*%
X117660000Y-63500000D03*
%TO.P,BATT_1,2,-*%
%TO.N,GND*%
X62600000Y-63500000D03*
%TD*%
D11*
%TO.P,R1,1*%
%TO.N,Net-(U1-IN+)*%
X104660000Y-73690000D03*
%TO.P,R1,2*%
%TO.N,Net-(C2-Pad1)*%
X106660000Y-73690000D03*
%TD*%
D17*
%TO.P,U3,1,A*%
%TO.N,MPPC*%
X134487500Y-72625000D03*
%TO.P,U3,2,W*%
X134487500Y-73275000D03*
%TO.P,U3,3,B*%
%TO.N,GND*%
X134487500Y-73925000D03*
%TO.P,U3,4,VDD*%
%TO.N,V5+*%
X134487500Y-74575000D03*
%TO.P,U3,5,~{SHDN}*%
%TO.N,unconnected-(U3-~{SHDN}-Pad5)*%
X134487500Y-75225000D03*
%TO.P,U3,6,SCL*%
%TO.N,SCL*%
X134487500Y-75875000D03*
%TO.P,U3,7,SDA*%
%TO.N,SDA*%
X134487500Y-76525000D03*
%TO.P,U3,8,AD0*%
%TO.N,GND*%
X140212500Y-76525000D03*
%TO.P,U3,9,AD1*%
X140212500Y-75875000D03*
%TO.P,U3,10,GND*%
X140212500Y-75225000D03*
%TO.P,U3,11,VSS*%
X140212500Y-74575000D03*
%TO.P,U3,12,O2*%
%TO.N,unconnected-(U3-O2-Pad12)*%
X140212500Y-73925000D03*
%TO.P,U3,13,VLOG*%
%TO.N,V5+*%
X140212500Y-73275000D03*
%TO.P,U3,14,O1*%
%TO.N,unconnected-(U3-O1-Pad14)*%
X140212500Y-72625000D03*
%TD*%
D18*
%TO.P,U2,1,FB*%
%TO.N,Net-(U2-FB)*%
X127400000Y-75225000D03*
%TO.P,U2,2,LDO*%
%TO.N,Net-(U2-LDO)*%
X127400000Y-74575000D03*
%TO.P,U2,3,FBLDO*%
%TO.N,GND*%
X127400000Y-73925000D03*
%TO.P,U2,4,~{SHDN}*%
%TO.N,SHDN*%
X127400000Y-73275000D03*
%TO.P,U2,5,MPPC*%
%TO.N,MPPC*%
X127400000Y-72625000D03*
%TO.P,U2,6,GND*%
%TO.N,GND*%
X127400000Y-71975000D03*
%TO.P,U2,7,GND*%
X123100000Y-71975000D03*
%TO.P,U2,8,VIN*%
%TO.N,Net-(SW1-A)*%
X123100000Y-72625000D03*
%TO.P,U2,9,SWITCH*%
%TO.N,Net-(U2-SWITCH)*%
X123100000Y-73275000D03*
%TO.P,U2,10,~{PGOOD}*%
%TO.N,unconnected-(U2-~{PGOOD}-Pad10)*%
X123100000Y-73925000D03*
%TO.P,U2,11,VOUT*%
%TO.N,V5+*%
X123100000Y-74575000D03*
%TO.P,U2,12,AUX*%
%TO.N,Net-(U2-AUX)*%
X123100000Y-75225000D03*
%TD*%
D19*
%TO.P,C3,1*%
%TO.N,GND*%
X117462500Y-74587500D03*
%TO.P,C3,2*%
%TO.N,V5+*%
X119537500Y-74587500D03*
%TD*%
D20*
%TO.P,R12,1*%
%TO.N,GND*%
X145725000Y-39700000D03*
%TO.P,R12,2*%
%TO.N,Net-(U5-CS)*%
X143725000Y-39700000D03*
%TD*%
D21*
%TO.P,R6,1*%
%TO.N,V5+*%
X124200000Y-79175000D03*
%TO.P,R6,2*%
%TO.N,Net-(U2-FB)*%
X124200000Y-77175000D03*
%TD*%
D20*
%TO.P,R8,1*%
%TO.N,Net-(U4-IN+)*%
X84695000Y-82857500D03*
%TO.P,R8,2*%
%TO.N,Net-(C9-Pad2)*%
X82695000Y-82857500D03*
%TD*%
%TO.P,R9,1*%
%TO.N,Net-(U4-IN-)*%
X84695000Y-79220000D03*
%TO.P,R9,2*%
%TO.N,Net-(C9-Pad1)*%
X82695000Y-79220000D03*
%TD*%
D22*
%TO.P,C2,1*%
%TO.N,Net-(C2-Pad1)*%
X109610000Y-74452500D03*
%TO.P,C2,2*%
%TO.N,Net-(C2-Pad2)*%
X109610000Y-76527500D03*
%TD*%
D23*
%TO.P,Q1,1,G*%
%TO.N,Net-(Q1-G)*%
X142150000Y-35537500D03*
%TO.P,Q1,2,S*%
%TO.N,GND*%
X144050000Y-35537500D03*
%TO.P,Q1,3,D*%
%TO.N,Net-(Q1-D)*%
X143100000Y-33662500D03*
%TD*%
D22*
%TO.P,C9,1*%
%TO.N,Net-(C9-Pad1)*%
X79142500Y-79857500D03*
%TO.P,C9,2*%
%TO.N,Net-(C9-Pad2)*%
X79142500Y-81932500D03*
%TD*%
%TO.P,C5,1*%
%TO.N,Net-(U2-AUX)*%
X121700000Y-77175000D03*
%TO.P,C5,2*%
%TO.N,GND*%
X121700000Y-79250000D03*
%TD*%
D24*
%TO.P,J2,1,Pin_1*%
%TO.N,V5+*%
X119585000Y-87175000D03*
D25*
%TO.P,J2,2,Pin_2*%
%TO.N,GND*%
X122125000Y-87175000D03*
%TO.P,J2,3,Pin_3*%
%TO.N,SDA*%
X124665000Y-87175000D03*
%TO.P,J2,4,Pin_4*%
%TO.N,SCL*%
X127205000Y-87175000D03*
%TO.P,J2,5,Pin_5*%
%TO.N,SHDN*%
X129745000Y-87175000D03*
%TO.P,J2,6,Pin_6*%
%TO.N,LITH*%
X132285000Y-87175000D03*
%TD*%
D11*
%TO.P,R2,1*%
%TO.N,Net-(U1-IN-)*%
X104560000Y-77340000D03*
%TO.P,R2,2*%
%TO.N,Net-(C2-Pad2)*%
X106560000Y-77340000D03*
%TD*%
D26*
%TO.P,U5,1,OD*%
%TO.N,Net-(Q2-G)*%
X144050000Y-42275000D03*
%TO.P,U5,2,CS*%
%TO.N,Net-(U5-CS)*%
X143100000Y-42275000D03*
%TO.P,U5,3,OC*%
%TO.N,Net-(Q1-G)*%
X142150000Y-42275000D03*
%TO.P,U5,4,TD*%
%TO.N,unconnected-(U5-TD-Pad4)*%
X142150000Y-44550000D03*
%TO.P,U5,5,VCC*%
%TO.N,Net-(U5-VCC)*%
X143100000Y-44550000D03*
%TO.P,U5,6,GND*%
%TO.N,Net-(BT1--)*%
X144050000Y-44550000D03*
%TD*%
D27*
%TO.P,C4,1*%
%TO.N,Net-(SW1-A)*%
X125162500Y-69925000D03*
%TO.P,C4,2*%
%TO.N,GND*%
X123087500Y-69925000D03*
%TD*%
D23*
%TO.P,Q2,1,G*%
%TO.N,Net-(Q2-G)*%
X146225000Y-44362500D03*
%TO.P,Q2,2,S*%
%TO.N,Net-(BT1--)*%
X148125000Y-44362500D03*
%TO.P,Q2,3,D*%
%TO.N,Net-(Q1-D)*%
X147175000Y-42487500D03*
%TD*%
D22*
%TO.P,C7,1*%
%TO.N,Net-(U2-LDO)*%
X129600000Y-74600000D03*
%TO.P,C7,2*%
%TO.N,GND*%
X129600000Y-76675000D03*
%TD*%
%TO.P,C6,1*%
%TO.N,V5+*%
X132300000Y-74612500D03*
%TO.P,C6,2*%
%TO.N,GND*%
X132300000Y-76687500D03*
%TD*%
D28*
%TO.P,R10,1,1*%
%TO.N,Net-(SW2-B)*%
X74055000Y-81475000D03*
D29*
%TO.P,R10,2,2*%
%TO.N,Net-(C9-Pad2)*%
X75960000Y-81920000D03*
D30*
%TO.P,R10,3,3*%
%TO.N,Net-(C9-Pad1)*%
X73420000Y-75060000D03*
D28*
%TO.P,R10,4,4*%
%TO.N,LITH*%
X75325000Y-75505000D03*
%TD*%
D31*
%TO.P,R3,1,1*%
%TO.N,+ALK*%
X114715000Y-74885000D03*
D32*
%TO.P,R3,2,2*%
%TO.N,Net-(C2-Pad1)*%
X112810000Y-74440000D03*
D33*
%TO.P,R3,3,3*%
%TO.N,Net-(C2-Pad2)*%
X115350000Y-81300000D03*
D31*
%TO.P,R3,4,4*%
%TO.N,Net-(SW1-B)*%
X113445000Y-80855000D03*
%TD*%
D34*
%TO.P,R7,1*%
%TO.N,Net-(U2-FB)*%
X126800000Y-77175000D03*
%TO.P,R7,2*%
%TO.N,GND*%
X126800000Y-79175000D03*
%TD*%
D11*
%TO.P,R11,1*%
%TO.N,Net-(U5-VCC)*%
X143612500Y-50225000D03*
%TO.P,R11,2*%
%TO.N,LITH*%
X145612500Y-50225000D03*
%TD*%
D35*
%TO.P,C8,1*%
%TO.N,V5+*%
X87607500Y-77057500D03*
%TO.P,C8,2*%
%TO.N,GND*%
X87607500Y-74982500D03*
%TD*%
D19*
%TO.P,C1,1*%
%TO.N,V5+*%
X101915000Y-79697500D03*
%TO.P,C1,2*%
%TO.N,GND*%
X103990000Y-79697500D03*
%TD*%
D36*
%TO.P,U1,1,A1*%
%TO.N,GND*%
X96860000Y-73690000D03*
%TO.P,U1,2,A0*%
X96860000Y-74960000D03*
%TO.P,U1,3,SDA*%
%TO.N,SDA*%
X96860000Y-76230000D03*
%TO.P,U1,4,SCL*%
%TO.N,SCL*%
X96860000Y-77500000D03*
%TO.P,U1,5,VS*%
%TO.N,V5+*%
X101810000Y-77500000D03*
%TO.P,U1,6,GND*%
%TO.N,GND*%
X101810000Y-76230000D03*
%TO.P,U1,7,IN-*%
%TO.N,Net-(U1-IN-)*%
X101810000Y-74960000D03*
%TO.P,U1,8,IN+*%
%TO.N,Net-(U1-IN+)*%
X101810000Y-73690000D03*
%TD*%
D19*
%TO.P,C10,1*%
%TO.N,Net-(U5-VCC)*%
X143575000Y-47825000D03*
%TO.P,C10,2*%
%TO.N,Net-(BT1--)*%
X145650000Y-47825000D03*
%TD*%
D37*
%TO.N,SDA*%
X98790000Y-80330000D03*
%TO.N,GND*%
X137000979Y-72675519D03*
X125600000Y-73900000D03*
X95455000Y-82870000D03*
X145725000Y-36725000D03*
X132300000Y-78700000D03*
X123100000Y-71300000D03*
X128250000Y-77950000D03*
X141800000Y-74600000D03*
X121700000Y-80500000D03*
X117450000Y-73162500D03*
X103300000Y-76250000D03*
X87605000Y-72810000D03*
X129575000Y-71475000D03*
X106000000Y-79700000D03*
X85905000Y-80330000D03*
X141800000Y-75850000D03*
%TO.N,Net-(SW1-B)*%
X140500000Y-78100000D03*
X113450000Y-82800000D03*
%TO.N,SDA*%
X98716293Y-76207381D03*
%TO.N,SHDN*%
X132550000Y-73325000D03*
X137975000Y-75300000D03*
%TO.N,SCL*%
X99850000Y-77500000D03*
%TD*%
D38*
%TO.N,LITH*%
X75325000Y-74360001D02*
X75325000Y-75505000D01*
X74204999Y-73240000D02*
X75325000Y-74360001D01*
X64580000Y-74860000D02*
X66200000Y-73240000D01*
X66880000Y-89200000D02*
X64580000Y-86900000D01*
X64580000Y-86900000D02*
X64580000Y-74860000D01*
X130260000Y-89200000D02*
X66880000Y-89200000D01*
X66200000Y-73240000D02*
X74204999Y-73240000D01*
X132285000Y-87175000D02*
X130260000Y-89200000D01*
%TO.N,V5+*%
X90050000Y-87110000D02*
X90050000Y-77057500D01*
X87607500Y-77057500D02*
X90050000Y-77057500D01*
X90050000Y-87110000D02*
X73970000Y-87110000D01*
D39*
%TO.N,SCL*%
X93740000Y-79065000D02*
X93735000Y-79060000D01*
X93735000Y-79060000D02*
X92595000Y-79060000D01*
X93740000Y-76955000D02*
X93740000Y-79065000D01*
D40*
%TO.N,SDA*%
X95100000Y-74825000D02*
X94850000Y-74575000D01*
X95100000Y-75850000D02*
X95100000Y-74825000D01*
X94850000Y-74575000D02*
X93700000Y-74575000D01*
%TO.N,SCL*%
X95150000Y-76950000D02*
X95145000Y-76955000D01*
X95145000Y-76955000D02*
X93740000Y-76955000D01*
X95700000Y-77500000D02*
X95150000Y-76950000D01*
X96860000Y-77500000D02*
X95700000Y-77500000D01*
D38*
%TO.N,V5+*%
X91740000Y-74615000D02*
X91700000Y-74575000D01*
X91740000Y-76955000D02*
X91740000Y-74615000D01*
X90050000Y-77057500D02*
X91637500Y-77057500D01*
X91637500Y-77057500D02*
X91740000Y-76955000D01*
D39*
X87607500Y-79022500D02*
X87645000Y-79060000D01*
X87607500Y-77057500D02*
X87607500Y-79022500D01*
%TO.N,SDA*%
X92595000Y-80330000D02*
X98790000Y-80330000D01*
X92595000Y-80330000D02*
X91620001Y-80330000D01*
%TO.N,V5+*%
X100012500Y-81600000D02*
X92595000Y-81600000D01*
X101915000Y-79697500D02*
X100012500Y-81600000D01*
D41*
X70190000Y-81000000D02*
X70970000Y-81780000D01*
D38*
X70970000Y-81780000D02*
X70970000Y-84110000D01*
D39*
X68200000Y-81000000D02*
X70190000Y-81000000D01*
D38*
X73970000Y-87110000D02*
X70970000Y-84110000D01*
X101915000Y-87110000D02*
X90050000Y-87110000D01*
D39*
%TO.N,Net-(SW2-B)*%
X74055000Y-79385000D02*
X74055000Y-81475000D01*
X74060000Y-79380000D02*
X74055000Y-79385000D01*
X73180000Y-78500000D02*
X74060000Y-79380000D01*
X68200000Y-78500000D02*
X73180000Y-78500000D01*
%TO.N,GND*%
X132300000Y-78700000D02*
X132300000Y-76687500D01*
D40*
X135751498Y-73925000D02*
X137000979Y-72675519D01*
X134487500Y-73925000D02*
X135751498Y-73925000D01*
D38*
%TO.N,LITH*%
X141075000Y-52525000D02*
X136300000Y-47750000D01*
X145612500Y-52525000D02*
X141075000Y-52525000D01*
X136300000Y-47750000D02*
X136300000Y-42400000D01*
%TO.N,+ALK*%
X114715000Y-66445000D02*
X114715000Y-74885000D01*
X117655000Y-63505000D02*
X114715000Y-66445000D01*
%TO.N,Net-(BT1--)*%
X67125000Y-32075000D02*
X63400000Y-35800000D01*
X63400000Y-35800000D02*
X63400000Y-42400000D01*
X146525000Y-32075000D02*
X67125000Y-32075000D01*
X148650000Y-34200000D02*
X146525000Y-32075000D01*
X148650000Y-42600000D02*
X148650000Y-34200000D01*
D41*
%TO.N,Net-(SW1-B)*%
X140500000Y-78100000D02*
X143550000Y-78100000D01*
D38*
%TO.N,LITH*%
X132360000Y-87250000D02*
X132285000Y-87175000D01*
X143075000Y-87250000D02*
X132360000Y-87250000D01*
X147000000Y-83325000D02*
X143075000Y-87250000D01*
X147000000Y-53912500D02*
X147000000Y-83325000D01*
X145612500Y-52525000D02*
X147000000Y-53912500D01*
D42*
%TO.N,GND*%
X141800000Y-75300000D02*
X141800000Y-75850000D01*
X140212500Y-75875000D02*
X141775000Y-75875000D01*
D40*
X128425000Y-76675000D02*
X129600000Y-76675000D01*
D39*
X92595000Y-82870000D02*
X95455000Y-82870000D01*
X87645000Y-80330000D02*
X85905000Y-80330000D01*
X123087500Y-71287500D02*
X123100000Y-71300000D01*
D42*
X141800000Y-76523301D02*
X141801699Y-76525000D01*
D40*
X129575000Y-71475000D02*
X129075000Y-71975000D01*
D42*
X141800000Y-75850000D02*
X141800000Y-76523301D01*
D39*
X144537500Y-35537500D02*
X144050000Y-35537500D01*
D40*
X128250000Y-79000000D02*
X128075000Y-79175000D01*
D39*
X100200000Y-76230000D02*
X101810000Y-76230000D01*
X96860000Y-74960000D02*
X98930000Y-74960000D01*
D40*
X129075000Y-71975000D02*
X127400000Y-71975000D01*
D39*
X98700000Y-73730000D02*
X98660000Y-73690000D01*
D40*
X128075000Y-79175000D02*
X126800000Y-79175000D01*
D39*
X145725000Y-36725000D02*
X145725000Y-39700000D01*
D42*
X87607500Y-72812500D02*
X87605000Y-72810000D01*
X105997500Y-79697500D02*
X106000000Y-79700000D01*
D39*
X117450000Y-74575000D02*
X117462500Y-74587500D01*
X105097500Y-79697500D02*
X105997500Y-79697500D01*
D42*
X140212500Y-75225000D02*
X141725000Y-75225000D01*
D39*
X98930000Y-74960000D02*
X100200000Y-76230000D01*
D40*
X127400000Y-73925000D02*
X125600000Y-73925000D01*
D42*
X86035000Y-80330000D02*
X86055000Y-80310000D01*
D40*
X128250000Y-77950000D02*
X128250000Y-79000000D01*
D39*
X145725000Y-39700000D02*
X145775000Y-39650000D01*
X145725000Y-36725000D02*
X144537500Y-35537500D01*
D40*
X123100000Y-71975000D02*
X123100000Y-71300000D01*
X125600000Y-73925000D02*
X125600000Y-73900000D01*
X121700000Y-79250000D02*
X121700000Y-80500000D01*
D39*
X98660000Y-73690000D02*
X96860000Y-73690000D01*
D42*
X103280000Y-76230000D02*
X103300000Y-76250000D01*
X141800000Y-74600000D02*
X141800000Y-75300000D01*
D39*
X101810000Y-76230000D02*
X103280000Y-76230000D01*
D42*
X141775000Y-75875000D02*
X141800000Y-75850000D01*
X140237500Y-74600000D02*
X141800000Y-74600000D01*
X141801699Y-76525000D02*
X140212500Y-76525000D01*
X141725000Y-75225000D02*
X141800000Y-75300000D01*
D39*
X98700000Y-73730000D02*
X98700000Y-74960000D01*
D42*
X140212500Y-74575000D02*
X140237500Y-74600000D01*
D39*
X87607500Y-73712500D02*
X87607500Y-72812500D01*
D42*
X85905000Y-80330000D02*
X86035000Y-80330000D01*
D39*
X123087500Y-69925000D02*
X123087500Y-71287500D01*
D42*
X87607500Y-74982500D02*
X87832500Y-74982500D01*
D40*
X128250000Y-76850000D02*
X128425000Y-76675000D01*
D39*
X87607500Y-74982500D02*
X87607500Y-73712500D01*
D40*
X128250000Y-78150000D02*
X128250000Y-77950000D01*
X128250000Y-77950000D02*
X128250000Y-76850000D01*
D39*
X103990000Y-79697500D02*
X105097500Y-79697500D01*
X117450000Y-73162500D02*
X117450000Y-74575000D01*
D38*
%TO.N,LITH*%
X145612500Y-50225000D02*
X145612500Y-52525000D01*
D39*
%TO.N,Net-(BT1--)*%
X145650000Y-47825000D02*
X145650000Y-46100000D01*
X144050000Y-45700000D02*
X144450000Y-46100000D01*
D41*
X148125000Y-44362500D02*
X148125000Y-43125000D01*
D39*
X144050000Y-44550000D02*
X144050000Y-45700000D01*
D41*
X148125000Y-43125000D02*
X148650000Y-42600000D01*
D39*
X145200000Y-46100000D02*
X145650000Y-46100000D01*
X148125000Y-45500000D02*
X148125000Y-44362500D01*
X144450000Y-46100000D02*
X145200000Y-46100000D01*
X145650000Y-46100000D02*
X147525000Y-46100000D01*
X147525000Y-46100000D02*
X148125000Y-45500000D01*
D38*
%TO.N,V5+*%
X124200000Y-80100000D02*
X122800000Y-81500000D01*
X101915000Y-79697500D02*
X101915000Y-87110000D01*
D43*
X119537500Y-74587500D02*
X119550000Y-74600000D01*
D40*
X119550000Y-74575000D02*
X119537500Y-74587500D01*
X138225000Y-73275000D02*
X136925000Y-74575000D01*
D38*
X119585000Y-87175000D02*
X101850000Y-87175000D01*
X119637500Y-81500000D02*
X119537500Y-81400000D01*
D40*
X134487500Y-74575000D02*
X132337500Y-74575000D01*
D38*
X124200000Y-79175000D02*
X124200000Y-80100000D01*
X101915000Y-87110000D02*
X101850000Y-87175000D01*
X122800000Y-81500000D02*
X119637500Y-81500000D01*
D40*
X132337500Y-74575000D02*
X132300000Y-74612500D01*
X136925000Y-74575000D02*
X134487500Y-74575000D01*
D38*
X119537500Y-86386500D02*
X119550000Y-86399000D01*
X119537500Y-81400000D02*
X119537500Y-86386500D01*
X119537500Y-74975000D02*
X119537500Y-81400000D01*
D42*
X134450000Y-74612500D02*
X134487500Y-74575000D01*
D39*
X101810000Y-77500000D02*
X101810000Y-79592500D01*
D40*
X123100000Y-74575000D02*
X119550000Y-74575000D01*
X140212500Y-73275000D02*
X138225000Y-73275000D01*
D42*
%TO.N,Net-(C2-Pad1)*%
X112797500Y-74452500D02*
X112810000Y-74440000D01*
X109610000Y-74452500D02*
X112797500Y-74452500D01*
X107690000Y-73690000D02*
X108452500Y-74452500D01*
X106660000Y-73690000D02*
X107690000Y-73690000D01*
X108452500Y-74452500D02*
X109610000Y-74452500D01*
%TO.N,Net-(C2-Pad2)*%
X112727500Y-76527500D02*
X115350000Y-79150000D01*
X115350000Y-79150000D02*
X115350000Y-81300000D01*
X109610000Y-76527500D02*
X108472500Y-76527500D01*
X108472500Y-76527500D02*
X107660000Y-77340000D01*
X107660000Y-77340000D02*
X106560000Y-77340000D01*
X109610000Y-76527500D02*
X112727500Y-76527500D01*
D41*
%TO.N,Net-(SW1-B)*%
X113445000Y-80855000D02*
X113445000Y-82795000D01*
X113445000Y-82795000D02*
X113450000Y-82800000D01*
D40*
%TO.N,Net-(U2-AUX)*%
X122250000Y-75225000D02*
X123100000Y-75225000D01*
X121700000Y-77175000D02*
X121700000Y-75775000D01*
X121700000Y-75775000D02*
X122250000Y-75225000D01*
D42*
%TO.N,Net-(U2-LDO)*%
X129575000Y-74575000D02*
X129600000Y-74600000D01*
D40*
X127400000Y-74575000D02*
X129575000Y-74575000D01*
D42*
%TO.N,Net-(C9-Pad1)*%
X79142500Y-79857500D02*
X76407500Y-79857500D01*
X80757500Y-79857500D02*
X81395000Y-79220000D01*
X73402500Y-75077500D02*
X73420000Y-75060000D01*
X81395000Y-79220000D02*
X82695000Y-79220000D01*
X73402500Y-76852500D02*
X73402500Y-75077500D01*
X79142500Y-79857500D02*
X80757500Y-79857500D01*
X76407500Y-79857500D02*
X73402500Y-76852500D01*
%TO.N,Net-(C9-Pad2)*%
X75972500Y-81932500D02*
X75960000Y-81920000D01*
X79142500Y-81932500D02*
X75972500Y-81932500D01*
X79142500Y-81932500D02*
X80577500Y-81932500D01*
X80577500Y-81932500D02*
X81502500Y-82857500D01*
X81502500Y-82857500D02*
X82695000Y-82857500D01*
D40*
%TO.N,Net-(U5-VCC)*%
X143100000Y-44550000D02*
X143100000Y-46000000D01*
X143100000Y-46000000D02*
X143575000Y-46475000D01*
D39*
X143612500Y-47862500D02*
X143575000Y-47825000D01*
X143612500Y-50225000D02*
X143612500Y-47862500D01*
D40*
X143575000Y-46475000D02*
X143575000Y-47825000D01*
X143150000Y-44600000D02*
X143100000Y-44550000D01*
D41*
%TO.N,SDA*%
X98693674Y-76230000D02*
X98716293Y-76207381D01*
D39*
X96860000Y-76230000D02*
X98693674Y-76230000D01*
D42*
X96900000Y-76270000D02*
X96860000Y-76230000D01*
%TO.N,SHDN*%
X132500000Y-73275000D02*
X127400000Y-73275000D01*
X132550000Y-73325000D02*
X132500000Y-73275000D01*
%TO.N,SCL*%
X92545000Y-79110000D02*
X92595000Y-79060000D01*
D39*
X99850000Y-77500000D02*
X96860000Y-77500000D01*
D40*
%TO.N,Net-(U2-SWITCH)*%
X124425000Y-73275000D02*
X127000000Y-70700000D01*
X123100000Y-73275000D02*
X124425000Y-73275000D01*
D41*
X127000000Y-70700000D02*
X128550000Y-69150000D01*
D40*
X128550000Y-69150000D02*
X128550000Y-69100000D01*
D39*
%TO.N,Net-(Q1-D)*%
X147175000Y-42312500D02*
X147175000Y-36300000D01*
X144537500Y-33662500D02*
X143100000Y-33662500D01*
X147175000Y-36300000D02*
X144537500Y-33662500D01*
%TO.N,Net-(Q1-G)*%
X142150000Y-35537500D02*
X142150000Y-42275000D01*
%TO.N,Net-(Q2-G)*%
X146225000Y-42925000D02*
X145575000Y-42275000D01*
X145575000Y-42275000D02*
X144050000Y-42275000D01*
X146225000Y-44362500D02*
X146225000Y-42925000D01*
%TO.N,Net-(U1-IN+)*%
X101810000Y-73690000D02*
X104660000Y-73690000D01*
%TO.N,Net-(U1-IN-)*%
X104560000Y-76090000D02*
X104560000Y-77340000D01*
X103430000Y-74960000D02*
X104560000Y-76090000D01*
X101810000Y-74960000D02*
X103430000Y-74960000D01*
D38*
%TO.N,Net-(SW1-A)*%
X143600000Y-72950000D02*
X141800000Y-71150000D01*
X124450000Y-56500000D02*
X124450000Y-60550000D01*
X141800000Y-57150000D02*
X139725000Y-55075000D01*
X139725000Y-55075000D02*
X125875000Y-55075000D01*
D40*
X123100000Y-72625000D02*
X124124999Y-72625000D01*
X125175000Y-69937500D02*
X125162500Y-69925000D01*
D38*
X141800000Y-71150000D02*
X141800000Y-57150000D01*
X125175000Y-68406250D02*
X125187500Y-68393750D01*
D40*
X124124999Y-72625000D02*
X125175000Y-71574999D01*
D38*
X125175000Y-69543750D02*
X125175000Y-68406250D01*
D40*
X125175000Y-71574999D02*
X125175000Y-69937500D01*
D38*
X125875000Y-55075000D02*
X124450000Y-56500000D01*
X143600000Y-75350000D02*
X143600000Y-72950000D01*
D40*
%TO.N,Net-(U2-FB)*%
X127400000Y-75225000D02*
X125075000Y-75225000D01*
X124200000Y-76100000D02*
X124200000Y-77175000D01*
D38*
X124200000Y-77175000D02*
X126800000Y-77175000D01*
D40*
X125075000Y-75225000D02*
X124200000Y-76100000D01*
D39*
%TO.N,Net-(U4-IN+)*%
X84707500Y-82870000D02*
X84695000Y-82857500D01*
X87645000Y-82870000D02*
X84707500Y-82870000D01*
%TO.N,Net-(U4-IN-)*%
X85825000Y-81600000D02*
X84695000Y-80470000D01*
X84695000Y-80470000D02*
X84695000Y-79220000D01*
X87645000Y-81600000D02*
X85825000Y-81600000D01*
%TO.N,Net-(U5-CS)*%
X143100000Y-42275000D02*
X143100000Y-41425000D01*
X143725000Y-40800000D02*
X143725000Y-39700000D01*
X143100000Y-41425000D02*
X143725000Y-40800000D01*
D40*
%TO.N,MPPC*%
X127400000Y-72625000D02*
X134487500Y-72625000D01*
X134487500Y-72625000D02*
X134487500Y-73275000D01*
D41*
%TO.N,V5+*%
X124400000Y-80350000D02*
X124200000Y-80150000D01*
X130200000Y-80350000D02*
X127500000Y-80350000D01*
X130950000Y-79600000D02*
X130200000Y-80350000D01*
X130950000Y-75150000D02*
X130950000Y-79600000D01*
X124200000Y-80150000D02*
X124200000Y-79175000D01*
X132300000Y-74612500D02*
X131487500Y-74612500D01*
X131487500Y-74612500D02*
X130950000Y-75150000D01*
X127500000Y-80350000D02*
X124400000Y-80350000D01*
D40*
%TO.N,SDA*%
X124665000Y-85510000D02*
X124665000Y-87175000D01*
X124700000Y-81875000D02*
X124700000Y-85475000D01*
X125450000Y-81125000D02*
X124700000Y-81875000D01*
X135500000Y-81125000D02*
X125450000Y-81125000D01*
X136550000Y-77500000D02*
X136550000Y-80075000D01*
X135575000Y-76525000D02*
X136550000Y-77500000D01*
X124700000Y-85475000D02*
X124665000Y-85510000D01*
X136550000Y-80075000D02*
X135500000Y-81125000D01*
X134487500Y-76525000D02*
X135575000Y-76525000D01*
%TO.N,SCL*%
X127205000Y-82170000D02*
X127205000Y-87175000D01*
X127649000Y-81726000D02*
X127205000Y-82170000D01*
X135999000Y-81726000D02*
X127649000Y-81726000D01*
X137275000Y-80450000D02*
X135999000Y-81726000D01*
X137275000Y-77150000D02*
X137275000Y-80450000D01*
X134487500Y-75875000D02*
X136000000Y-75875000D01*
X136000000Y-75875000D02*
X137275000Y-77150000D01*
D42*
%TO.N,SHDN*%
X130625000Y-84025000D02*
X129745000Y-84905000D01*
X137950000Y-75325000D02*
X137950000Y-81950000D01*
X137950000Y-81950000D02*
X135875000Y-84025000D01*
X129745000Y-84905000D02*
X129745000Y-87175000D01*
X137975000Y-75300000D02*
X137950000Y-75325000D01*
X135875000Y-84025000D02*
X130625000Y-84025000D01*
D40*
%TO.N,SDA*%
X95480000Y-76230000D02*
X95100000Y-75850000D01*
X96860000Y-76230000D02*
X95480000Y-76230000D01*
%TD*%
%TA.AperFunction,Conductor*%
%TO.N,Net-(SW1-A)*%
G36*
X128643039Y-58619685D02*
G01*
X128688794Y-58672489D01*
X128700000Y-58724000D01*
X128700000Y-66142837D01*
X128680315Y-66209876D01*
X128651603Y-66241123D01*
X125684877Y-68523171D01*
X125619738Y-68548443D01*
X125606012Y-68548842D01*
X124746876Y-68526233D01*
X124680378Y-68504792D01*
X124665670Y-68493057D01*
X122357307Y-66345235D01*
X122321636Y-66285157D01*
X122317790Y-66256367D01*
X122201937Y-58725906D01*
X122220588Y-58658573D01*
X122272682Y-58612011D01*
X122325922Y-58600000D01*
X128576000Y-58600000D01*
X128643039Y-58619685D01*
G37*
%TD.AperFunction*%
%TD*%
%TA.AperFunction,Conductor*%
%TO.N,Net-(U2-SWITCH)*%
G36*
X136143039Y-58619685D02*
G01*
X136188794Y-58672489D01*
X136200000Y-58724000D01*
X136200000Y-66482751D01*
X136180315Y-66549790D01*
X136143637Y-66586680D01*
X133061425Y-68592564D01*
X133037230Y-68604776D01*
X126768700Y-70949493D01*
X126699013Y-70954543D01*
X126637659Y-70921115D01*
X126604116Y-70859823D01*
X126609036Y-70790127D01*
X126625119Y-70760221D01*
X129700000Y-66550000D01*
X129700000Y-58724000D01*
X129719685Y-58656961D01*
X129772489Y-58611206D01*
X129824000Y-58600000D01*
X136076000Y-58600000D01*
X136143039Y-58619685D01*
G37*
%TD.AperFunction*%
%TD*%
M02*
