M48
; DRILL file {KiCad 9.0.0} date 2025-03-15T23:12:26-0700
; FORMAT={-:-/ absolute / inch / decimal}
; #@! TF.CreationDate,2025-03-15T23:12:26-07:00
; #@! TF.GenerationSoftware,Kicad,Pcbnew,9.0.0
; #@! TF.FileFunction,Plated,1,2,PTH
FMAT,2
INCH
; #@! TA.AperFunction,Plated,PTH,ViaDrill
T1C0.0118
; #@! TA.AperFunction,Plated,PTH,ComponentDrill
T2C0.0256
; #@! TA.AperFunction,Plated,PTH,ComponentDrill
T3C0.0394
; #@! TA.AperFunction,Plated,PTH,ComponentDrill
T4C0.0472
%
G90
G05
T1
X3.3821Y-3.1626
X3.449Y-2.8665
X3.7581Y-3.2626
X3.8865Y-3.0003
X3.8894Y-3.1626
X3.9311Y-3.0512
X4.0669Y-3.002
X4.1732Y-3.1378
X4.4665Y-3.2598
X4.624Y-2.8804
X4.7913Y-3.1693
X4.8465Y-2.8071
X4.9449Y-2.9094
X5.0492Y-3.0689
X5.1014Y-2.814
X5.2087Y-3.0984
X5.2185Y-2.8868
X5.3937Y-2.8612
X5.4321Y-2.9646
X5.5315Y-3.0748
X5.5827Y-2.937
X5.5827Y-2.9862
X5.7372Y-1.4459
T2
X2.4646Y-2.5
X4.6323Y-2.5
T3
X4.7081Y-3.4321
X4.8081Y-3.4321
X4.9081Y-3.4321
X5.0081Y-3.4321
X5.1081Y-3.4321
X5.2081Y-3.4321
T4
X2.4961Y-1.6693
X5.3661Y-1.6693
M30
