%TF.GenerationSoftware,KiCad,Pcbnew,9.0.0*%
%TF.CreationDate,2025-03-15T23:12:27-07:00*%
%TF.ProjectId,Joule-Thief_R6,4a6f756c-652d-4546-9869-65665f52362e,5*%
%TF.SameCoordinates,Original*%
%TF.FileFunction,Legend,Top*%
%TF.FilePolarity,Positive*%
%FSLAX46Y46*%
G04 Gerber Fmt 4.6, Leading zero omitted, Abs format (unit mm)*
G04 Created by KiCad (PCBNEW 9.0.0) date 2025-03-15 23:12:27*
%MOMM*%
%LPD*%
G01*
G04 APERTURE LIST*
%ADD10C,0.375000*%
%ADD11C,0.160000*%
%ADD12C,0.120000*%
%ADD13C,0.100000*%
G04 APERTURE END LIST*
D10*
X148213357Y-70467575D02*
X150356214Y-70467575D01*
X150356214Y-70467575D02*
X150784785Y-70539004D01*
X150784785Y-70539004D02*
X151070500Y-70681861D01*
X151070500Y-70681861D02*
X151213357Y-70896147D01*
X151213357Y-70896147D02*
X151213357Y-71039004D01*
X148213357Y-69467575D02*
X148213357Y-69181861D01*
X148213357Y-69181861D02*
X148356214Y-69039004D01*
X148356214Y-69039004D02*
X148641928Y-68896147D01*
X148641928Y-68896147D02*
X149213357Y-68824718D01*
X149213357Y-68824718D02*
X150213357Y-68824718D01*
X150213357Y-68824718D02*
X150784785Y-68896147D01*
X150784785Y-68896147D02*
X151070500Y-69039004D01*
X151070500Y-69039004D02*
X151213357Y-69181861D01*
X151213357Y-69181861D02*
X151213357Y-69467575D01*
X151213357Y-69467575D02*
X151070500Y-69610433D01*
X151070500Y-69610433D02*
X150784785Y-69753290D01*
X150784785Y-69753290D02*
X150213357Y-69824718D01*
X150213357Y-69824718D02*
X149213357Y-69824718D01*
X149213357Y-69824718D02*
X148641928Y-69753290D01*
X148641928Y-69753290D02*
X148356214Y-69610433D01*
X148356214Y-69610433D02*
X148213357Y-69467575D01*
X148213357Y-68181861D02*
X150641928Y-68181861D01*
X150641928Y-68181861D02*
X150927642Y-68110432D01*
X150927642Y-68110432D02*
X151070500Y-68039004D01*
X151070500Y-68039004D02*
X151213357Y-67896146D01*
X151213357Y-67896146D02*
X151213357Y-67610432D01*
X151213357Y-67610432D02*
X151070500Y-67467575D01*
X151070500Y-67467575D02*
X150927642Y-67396146D01*
X150927642Y-67396146D02*
X150641928Y-67324718D01*
X150641928Y-67324718D02*
X148213357Y-67324718D01*
X151213357Y-65896146D02*
X151213357Y-66610432D01*
X151213357Y-66610432D02*
X148213357Y-66610432D01*
X149641928Y-65396146D02*
X149641928Y-64896146D01*
X151213357Y-64681860D02*
X151213357Y-65396146D01*
X151213357Y-65396146D02*
X148213357Y-65396146D01*
X148213357Y-65396146D02*
X148213357Y-64681860D01*
X148213357Y-63110431D02*
X148213357Y-62253289D01*
X151213357Y-62681860D02*
X148213357Y-62681860D01*
X151213357Y-61753289D02*
X148213357Y-61753289D01*
X149641928Y-61753289D02*
X149641928Y-60896146D01*
X151213357Y-60896146D02*
X148213357Y-60896146D01*
X151213357Y-60181860D02*
X148213357Y-60181860D01*
X149641928Y-59467574D02*
X149641928Y-58967574D01*
X151213357Y-58753288D02*
X151213357Y-59467574D01*
X151213357Y-59467574D02*
X148213357Y-59467574D01*
X148213357Y-59467574D02*
X148213357Y-58753288D01*
X149641928Y-57610431D02*
X149641928Y-58110431D01*
X151213357Y-58110431D02*
X148213357Y-58110431D01*
X148213357Y-58110431D02*
X148213357Y-57396145D01*
X151213357Y-54824717D02*
X149784785Y-55324717D01*
X151213357Y-55681860D02*
X148213357Y-55681860D01*
X148213357Y-55681860D02*
X148213357Y-55110431D01*
X148213357Y-55110431D02*
X148356214Y-54967574D01*
X148356214Y-54967574D02*
X148499071Y-54896145D01*
X148499071Y-54896145D02*
X148784785Y-54824717D01*
X148784785Y-54824717D02*
X149213357Y-54824717D01*
X149213357Y-54824717D02*
X149499071Y-54896145D01*
X149499071Y-54896145D02*
X149641928Y-54967574D01*
X149641928Y-54967574D02*
X149784785Y-55110431D01*
X149784785Y-55110431D02*
X149784785Y-55681860D01*
X148213357Y-53896145D02*
X148213357Y-53753288D01*
X148213357Y-53753288D02*
X148356214Y-53610431D01*
X148356214Y-53610431D02*
X148499071Y-53539003D01*
X148499071Y-53539003D02*
X148784785Y-53467574D01*
X148784785Y-53467574D02*
X149356214Y-53396145D01*
X149356214Y-53396145D02*
X150070500Y-53396145D01*
X150070500Y-53396145D02*
X150641928Y-53467574D01*
X150641928Y-53467574D02*
X150927642Y-53539003D01*
X150927642Y-53539003D02*
X151070500Y-53610431D01*
X151070500Y-53610431D02*
X151213357Y-53753288D01*
X151213357Y-53753288D02*
X151213357Y-53896145D01*
X151213357Y-53896145D02*
X151070500Y-54039003D01*
X151070500Y-54039003D02*
X150927642Y-54110431D01*
X150927642Y-54110431D02*
X150641928Y-54181860D01*
X150641928Y-54181860D02*
X150070500Y-54253288D01*
X150070500Y-54253288D02*
X149356214Y-54253288D01*
X149356214Y-54253288D02*
X148784785Y-54181860D01*
X148784785Y-54181860D02*
X148499071Y-54110431D01*
X148499071Y-54110431D02*
X148356214Y-54039003D01*
X148356214Y-54039003D02*
X148213357Y-53896145D01*
X136653852Y-84846928D02*
X137796710Y-85275500D01*
X137796710Y-85275500D02*
X136653852Y-85704071D01*
X139653853Y-84846928D02*
X138510995Y-85275500D01*
X138510995Y-85275500D02*
X139653853Y-85704071D01*
X140368138Y-84846928D02*
X141510996Y-85275500D01*
X141510996Y-85275500D02*
X140368138Y-85704071D01*
X142439567Y-84346928D02*
X142439567Y-84704071D01*
X142082424Y-84561214D02*
X142439567Y-84704071D01*
X142439567Y-84704071D02*
X142796710Y-84561214D01*
X142225281Y-84989785D02*
X142439567Y-84704071D01*
X142439567Y-84704071D02*
X142653853Y-84989785D01*
D11*
X94363095Y-78629299D02*
X94363095Y-79438822D01*
X94363095Y-79438822D02*
X94410714Y-79534060D01*
X94410714Y-79534060D02*
X94458333Y-79581680D01*
X94458333Y-79581680D02*
X94553571Y-79629299D01*
X94553571Y-79629299D02*
X94744047Y-79629299D01*
X94744047Y-79629299D02*
X94839285Y-79581680D01*
X94839285Y-79581680D02*
X94886904Y-79534060D01*
X94886904Y-79534060D02*
X94934523Y-79438822D01*
X94934523Y-79438822D02*
X94934523Y-78629299D01*
X95839285Y-78962632D02*
X95839285Y-79629299D01*
X95601190Y-78581680D02*
X95363095Y-79295965D01*
X95363095Y-79295965D02*
X95982142Y-79295965D01*
X89608333Y-74904299D02*
X89275000Y-74428108D01*
X89036905Y-74904299D02*
X89036905Y-73904299D01*
X89036905Y-73904299D02*
X89417857Y-73904299D01*
X89417857Y-73904299D02*
X89513095Y-73951918D01*
X89513095Y-73951918D02*
X89560714Y-73999537D01*
X89560714Y-73999537D02*
X89608333Y-74094775D01*
X89608333Y-74094775D02*
X89608333Y-74237632D01*
X89608333Y-74237632D02*
X89560714Y-74332870D01*
X89560714Y-74332870D02*
X89513095Y-74380489D01*
X89513095Y-74380489D02*
X89417857Y-74428108D01*
X89417857Y-74428108D02*
X89036905Y-74428108D01*
X90513095Y-73904299D02*
X90036905Y-73904299D01*
X90036905Y-73904299D02*
X89989286Y-74380489D01*
X89989286Y-74380489D02*
X90036905Y-74332870D01*
X90036905Y-74332870D02*
X90132143Y-74285251D01*
X90132143Y-74285251D02*
X90370238Y-74285251D01*
X90370238Y-74285251D02*
X90465476Y-74332870D01*
X90465476Y-74332870D02*
X90513095Y-74380489D01*
X90513095Y-74380489D02*
X90560714Y-74475727D01*
X90560714Y-74475727D02*
X90560714Y-74713822D01*
X90560714Y-74713822D02*
X90513095Y-74809060D01*
X90513095Y-74809060D02*
X90465476Y-74856680D01*
X90465476Y-74856680D02*
X90370238Y-74904299D01*
X90370238Y-74904299D02*
X90132143Y-74904299D01*
X90132143Y-74904299D02*
X90036905Y-74856680D01*
X90036905Y-74856680D02*
X89989286Y-74809060D01*
X89558333Y-76304299D02*
X89225000Y-75828108D01*
X88986905Y-76304299D02*
X88986905Y-75304299D01*
X88986905Y-75304299D02*
X89367857Y-75304299D01*
X89367857Y-75304299D02*
X89463095Y-75351918D01*
X89463095Y-75351918D02*
X89510714Y-75399537D01*
X89510714Y-75399537D02*
X89558333Y-75494775D01*
X89558333Y-75494775D02*
X89558333Y-75637632D01*
X89558333Y-75637632D02*
X89510714Y-75732870D01*
X89510714Y-75732870D02*
X89463095Y-75780489D01*
X89463095Y-75780489D02*
X89367857Y-75828108D01*
X89367857Y-75828108D02*
X88986905Y-75828108D01*
X90415476Y-75637632D02*
X90415476Y-76304299D01*
X90177381Y-75256680D02*
X89939286Y-75970965D01*
X89939286Y-75970965D02*
X90558333Y-75970965D01*
X99064285Y-42330489D02*
X99207142Y-42378108D01*
X99207142Y-42378108D02*
X99254761Y-42425727D01*
X99254761Y-42425727D02*
X99302380Y-42520965D01*
X99302380Y-42520965D02*
X99302380Y-42663822D01*
X99302380Y-42663822D02*
X99254761Y-42759060D01*
X99254761Y-42759060D02*
X99207142Y-42806680D01*
X99207142Y-42806680D02*
X99111904Y-42854299D01*
X99111904Y-42854299D02*
X98730952Y-42854299D01*
X98730952Y-42854299D02*
X98730952Y-41854299D01*
X98730952Y-41854299D02*
X99064285Y-41854299D01*
X99064285Y-41854299D02*
X99159523Y-41901918D01*
X99159523Y-41901918D02*
X99207142Y-41949537D01*
X99207142Y-41949537D02*
X99254761Y-42044775D01*
X99254761Y-42044775D02*
X99254761Y-42140013D01*
X99254761Y-42140013D02*
X99207142Y-42235251D01*
X99207142Y-42235251D02*
X99159523Y-42282870D01*
X99159523Y-42282870D02*
X99064285Y-42330489D01*
X99064285Y-42330489D02*
X98730952Y-42330489D01*
X99588095Y-41854299D02*
X100159523Y-41854299D01*
X99873809Y-42854299D02*
X99873809Y-41854299D01*
X101016666Y-42854299D02*
X100445238Y-42854299D01*
X100730952Y-42854299D02*
X100730952Y-41854299D01*
X100730952Y-41854299D02*
X100635714Y-41997156D01*
X100635714Y-41997156D02*
X100540476Y-42092394D01*
X100540476Y-42092394D02*
X100445238Y-42140013D01*
X137033333Y-56854299D02*
X136557143Y-56854299D01*
X136557143Y-56854299D02*
X136557143Y-55854299D01*
X137890476Y-56854299D02*
X137319048Y-56854299D01*
X137604762Y-56854299D02*
X137604762Y-55854299D01*
X137604762Y-55854299D02*
X137509524Y-55997156D01*
X137509524Y-55997156D02*
X137414286Y-56092394D01*
X137414286Y-56092394D02*
X137319048Y-56140013D01*
X147716667Y-85056680D02*
X147859524Y-85104299D01*
X147859524Y-85104299D02*
X148097619Y-85104299D01*
X148097619Y-85104299D02*
X148192857Y-85056680D01*
X148192857Y-85056680D02*
X148240476Y-85009060D01*
X148240476Y-85009060D02*
X148288095Y-84913822D01*
X148288095Y-84913822D02*
X148288095Y-84818584D01*
X148288095Y-84818584D02*
X148240476Y-84723346D01*
X148240476Y-84723346D02*
X148192857Y-84675727D01*
X148192857Y-84675727D02*
X148097619Y-84628108D01*
X148097619Y-84628108D02*
X147907143Y-84580489D01*
X147907143Y-84580489D02*
X147811905Y-84532870D01*
X147811905Y-84532870D02*
X147764286Y-84485251D01*
X147764286Y-84485251D02*
X147716667Y-84390013D01*
X147716667Y-84390013D02*
X147716667Y-84294775D01*
X147716667Y-84294775D02*
X147764286Y-84199537D01*
X147764286Y-84199537D02*
X147811905Y-84151918D01*
X147811905Y-84151918D02*
X147907143Y-84104299D01*
X147907143Y-84104299D02*
X148145238Y-84104299D01*
X148145238Y-84104299D02*
X148288095Y-84151918D01*
X148621429Y-84104299D02*
X148859524Y-85104299D01*
X148859524Y-85104299D02*
X149050000Y-84390013D01*
X149050000Y-84390013D02*
X149240476Y-85104299D01*
X149240476Y-85104299D02*
X149478572Y-84104299D01*
X150383333Y-85104299D02*
X149811905Y-85104299D01*
X150097619Y-85104299D02*
X150097619Y-84104299D01*
X150097619Y-84104299D02*
X150002381Y-84247156D01*
X150002381Y-84247156D02*
X149907143Y-84342394D01*
X149907143Y-84342394D02*
X149811905Y-84390013D01*
X63416667Y-85306680D02*
X63559524Y-85354299D01*
X63559524Y-85354299D02*
X63797619Y-85354299D01*
X63797619Y-85354299D02*
X63892857Y-85306680D01*
X63892857Y-85306680D02*
X63940476Y-85259060D01*
X63940476Y-85259060D02*
X63988095Y-85163822D01*
X63988095Y-85163822D02*
X63988095Y-85068584D01*
X63988095Y-85068584D02*
X63940476Y-84973346D01*
X63940476Y-84973346D02*
X63892857Y-84925727D01*
X63892857Y-84925727D02*
X63797619Y-84878108D01*
X63797619Y-84878108D02*
X63607143Y-84830489D01*
X63607143Y-84830489D02*
X63511905Y-84782870D01*
X63511905Y-84782870D02*
X63464286Y-84735251D01*
X63464286Y-84735251D02*
X63416667Y-84640013D01*
X63416667Y-84640013D02*
X63416667Y-84544775D01*
X63416667Y-84544775D02*
X63464286Y-84449537D01*
X63464286Y-84449537D02*
X63511905Y-84401918D01*
X63511905Y-84401918D02*
X63607143Y-84354299D01*
X63607143Y-84354299D02*
X63845238Y-84354299D01*
X63845238Y-84354299D02*
X63988095Y-84401918D01*
X64321429Y-84354299D02*
X64559524Y-85354299D01*
X64559524Y-85354299D02*
X64750000Y-84640013D01*
X64750000Y-84640013D02*
X64940476Y-85354299D01*
X64940476Y-85354299D02*
X65178572Y-84354299D01*
X65511905Y-84449537D02*
X65559524Y-84401918D01*
X65559524Y-84401918D02*
X65654762Y-84354299D01*
X65654762Y-84354299D02*
X65892857Y-84354299D01*
X65892857Y-84354299D02*
X65988095Y-84401918D01*
X65988095Y-84401918D02*
X66035714Y-84449537D01*
X66035714Y-84449537D02*
X66083333Y-84544775D01*
X66083333Y-84544775D02*
X66083333Y-84640013D01*
X66083333Y-84640013D02*
X66035714Y-84782870D01*
X66035714Y-84782870D02*
X65464286Y-85354299D01*
X65464286Y-85354299D02*
X66083333Y-85354299D01*
X85026309Y-63430489D02*
X85169166Y-63478108D01*
X85169166Y-63478108D02*
X85216785Y-63525727D01*
X85216785Y-63525727D02*
X85264404Y-63620965D01*
X85264404Y-63620965D02*
X85264404Y-63763822D01*
X85264404Y-63763822D02*
X85216785Y-63859060D01*
X85216785Y-63859060D02*
X85169166Y-63906680D01*
X85169166Y-63906680D02*
X85073928Y-63954299D01*
X85073928Y-63954299D02*
X84692976Y-63954299D01*
X84692976Y-63954299D02*
X84692976Y-62954299D01*
X84692976Y-62954299D02*
X85026309Y-62954299D01*
X85026309Y-62954299D02*
X85121547Y-63001918D01*
X85121547Y-63001918D02*
X85169166Y-63049537D01*
X85169166Y-63049537D02*
X85216785Y-63144775D01*
X85216785Y-63144775D02*
X85216785Y-63240013D01*
X85216785Y-63240013D02*
X85169166Y-63335251D01*
X85169166Y-63335251D02*
X85121547Y-63382870D01*
X85121547Y-63382870D02*
X85026309Y-63430489D01*
X85026309Y-63430489D02*
X84692976Y-63430489D01*
X85645357Y-63668584D02*
X86121547Y-63668584D01*
X85550119Y-63954299D02*
X85883452Y-62954299D01*
X85883452Y-62954299D02*
X86216785Y-63954299D01*
X86407262Y-62954299D02*
X86978690Y-62954299D01*
X86692976Y-63954299D02*
X86692976Y-62954299D01*
X87169167Y-62954299D02*
X87740595Y-62954299D01*
X87454881Y-63954299D02*
X87454881Y-62954299D01*
X87835834Y-64049537D02*
X88597738Y-64049537D01*
X89359643Y-63954299D02*
X88788215Y-63954299D01*
X89073929Y-63954299D02*
X89073929Y-62954299D01*
X89073929Y-62954299D02*
X88978691Y-63097156D01*
X88978691Y-63097156D02*
X88883453Y-63192394D01*
X88883453Y-63192394D02*
X88788215Y-63240013D01*
X106783333Y-75804299D02*
X106450000Y-75328108D01*
X106211905Y-75804299D02*
X106211905Y-74804299D01*
X106211905Y-74804299D02*
X106592857Y-74804299D01*
X106592857Y-74804299D02*
X106688095Y-74851918D01*
X106688095Y-74851918D02*
X106735714Y-74899537D01*
X106735714Y-74899537D02*
X106783333Y-74994775D01*
X106783333Y-74994775D02*
X106783333Y-75137632D01*
X106783333Y-75137632D02*
X106735714Y-75232870D01*
X106735714Y-75232870D02*
X106688095Y-75280489D01*
X106688095Y-75280489D02*
X106592857Y-75328108D01*
X106592857Y-75328108D02*
X106211905Y-75328108D01*
X107735714Y-75804299D02*
X107164286Y-75804299D01*
X107450000Y-75804299D02*
X107450000Y-74804299D01*
X107450000Y-74804299D02*
X107354762Y-74947156D01*
X107354762Y-74947156D02*
X107259524Y-75042394D01*
X107259524Y-75042394D02*
X107164286Y-75090013D01*
X133438095Y-70654299D02*
X133438095Y-71463822D01*
X133438095Y-71463822D02*
X133485714Y-71559060D01*
X133485714Y-71559060D02*
X133533333Y-71606680D01*
X133533333Y-71606680D02*
X133628571Y-71654299D01*
X133628571Y-71654299D02*
X133819047Y-71654299D01*
X133819047Y-71654299D02*
X133914285Y-71606680D01*
X133914285Y-71606680D02*
X133961904Y-71559060D01*
X133961904Y-71559060D02*
X134009523Y-71463822D01*
X134009523Y-71463822D02*
X134009523Y-70654299D01*
X134390476Y-70654299D02*
X135009523Y-70654299D01*
X135009523Y-70654299D02*
X134676190Y-71035251D01*
X134676190Y-71035251D02*
X134819047Y-71035251D01*
X134819047Y-71035251D02*
X134914285Y-71082870D01*
X134914285Y-71082870D02*
X134961904Y-71130489D01*
X134961904Y-71130489D02*
X135009523Y-71225727D01*
X135009523Y-71225727D02*
X135009523Y-71463822D01*
X135009523Y-71463822D02*
X134961904Y-71559060D01*
X134961904Y-71559060D02*
X134914285Y-71606680D01*
X134914285Y-71606680D02*
X134819047Y-71654299D01*
X134819047Y-71654299D02*
X134533333Y-71654299D01*
X134533333Y-71654299D02*
X134438095Y-71606680D01*
X134438095Y-71606680D02*
X134390476Y-71559060D01*
X128488095Y-69904299D02*
X128488095Y-70713822D01*
X128488095Y-70713822D02*
X128535714Y-70809060D01*
X128535714Y-70809060D02*
X128583333Y-70856680D01*
X128583333Y-70856680D02*
X128678571Y-70904299D01*
X128678571Y-70904299D02*
X128869047Y-70904299D01*
X128869047Y-70904299D02*
X128964285Y-70856680D01*
X128964285Y-70856680D02*
X129011904Y-70809060D01*
X129011904Y-70809060D02*
X129059523Y-70713822D01*
X129059523Y-70713822D02*
X129059523Y-69904299D01*
X129488095Y-69999537D02*
X129535714Y-69951918D01*
X129535714Y-69951918D02*
X129630952Y-69904299D01*
X129630952Y-69904299D02*
X129869047Y-69904299D01*
X129869047Y-69904299D02*
X129964285Y-69951918D01*
X129964285Y-69951918D02*
X130011904Y-69999537D01*
X130011904Y-69999537D02*
X130059523Y-70094775D01*
X130059523Y-70094775D02*
X130059523Y-70190013D01*
X130059523Y-70190013D02*
X130011904Y-70332870D01*
X130011904Y-70332870D02*
X129440476Y-70904299D01*
X129440476Y-70904299D02*
X130059523Y-70904299D01*
X117183333Y-76696560D02*
X117135714Y-76744180D01*
X117135714Y-76744180D02*
X116992857Y-76791799D01*
X116992857Y-76791799D02*
X116897619Y-76791799D01*
X116897619Y-76791799D02*
X116754762Y-76744180D01*
X116754762Y-76744180D02*
X116659524Y-76648941D01*
X116659524Y-76648941D02*
X116611905Y-76553703D01*
X116611905Y-76553703D02*
X116564286Y-76363227D01*
X116564286Y-76363227D02*
X116564286Y-76220370D01*
X116564286Y-76220370D02*
X116611905Y-76029894D01*
X116611905Y-76029894D02*
X116659524Y-75934656D01*
X116659524Y-75934656D02*
X116754762Y-75839418D01*
X116754762Y-75839418D02*
X116897619Y-75791799D01*
X116897619Y-75791799D02*
X116992857Y-75791799D01*
X116992857Y-75791799D02*
X117135714Y-75839418D01*
X117135714Y-75839418D02*
X117183333Y-75887037D01*
X117516667Y-75791799D02*
X118135714Y-75791799D01*
X118135714Y-75791799D02*
X117802381Y-76172751D01*
X117802381Y-76172751D02*
X117945238Y-76172751D01*
X117945238Y-76172751D02*
X118040476Y-76220370D01*
X118040476Y-76220370D02*
X118088095Y-76267989D01*
X118088095Y-76267989D02*
X118135714Y-76363227D01*
X118135714Y-76363227D02*
X118135714Y-76601322D01*
X118135714Y-76601322D02*
X118088095Y-76696560D01*
X118088095Y-76696560D02*
X118040476Y-76744180D01*
X118040476Y-76744180D02*
X117945238Y-76791799D01*
X117945238Y-76791799D02*
X117659524Y-76791799D01*
X117659524Y-76791799D02*
X117564286Y-76744180D01*
X117564286Y-76744180D02*
X117516667Y-76696560D01*
X143207142Y-38529299D02*
X142873809Y-38053108D01*
X142635714Y-38529299D02*
X142635714Y-37529299D01*
X142635714Y-37529299D02*
X143016666Y-37529299D01*
X143016666Y-37529299D02*
X143111904Y-37576918D01*
X143111904Y-37576918D02*
X143159523Y-37624537D01*
X143159523Y-37624537D02*
X143207142Y-37719775D01*
X143207142Y-37719775D02*
X143207142Y-37862632D01*
X143207142Y-37862632D02*
X143159523Y-37957870D01*
X143159523Y-37957870D02*
X143111904Y-38005489D01*
X143111904Y-38005489D02*
X143016666Y-38053108D01*
X143016666Y-38053108D02*
X142635714Y-38053108D01*
X144159523Y-38529299D02*
X143588095Y-38529299D01*
X143873809Y-38529299D02*
X143873809Y-37529299D01*
X143873809Y-37529299D02*
X143778571Y-37672156D01*
X143778571Y-37672156D02*
X143683333Y-37767394D01*
X143683333Y-37767394D02*
X143588095Y-37815013D01*
X144540476Y-37624537D02*
X144588095Y-37576918D01*
X144588095Y-37576918D02*
X144683333Y-37529299D01*
X144683333Y-37529299D02*
X144921428Y-37529299D01*
X144921428Y-37529299D02*
X145016666Y-37576918D01*
X145016666Y-37576918D02*
X145064285Y-37624537D01*
X145064285Y-37624537D02*
X145111904Y-37719775D01*
X145111904Y-37719775D02*
X145111904Y-37815013D01*
X145111904Y-37815013D02*
X145064285Y-37957870D01*
X145064285Y-37957870D02*
X144492857Y-38529299D01*
X144492857Y-38529299D02*
X145111904Y-38529299D01*
X124033333Y-82104299D02*
X123700000Y-81628108D01*
X123461905Y-82104299D02*
X123461905Y-81104299D01*
X123461905Y-81104299D02*
X123842857Y-81104299D01*
X123842857Y-81104299D02*
X123938095Y-81151918D01*
X123938095Y-81151918D02*
X123985714Y-81199537D01*
X123985714Y-81199537D02*
X124033333Y-81294775D01*
X124033333Y-81294775D02*
X124033333Y-81437632D01*
X124033333Y-81437632D02*
X123985714Y-81532870D01*
X123985714Y-81532870D02*
X123938095Y-81580489D01*
X123938095Y-81580489D02*
X123842857Y-81628108D01*
X123842857Y-81628108D02*
X123461905Y-81628108D01*
X124890476Y-81104299D02*
X124700000Y-81104299D01*
X124700000Y-81104299D02*
X124604762Y-81151918D01*
X124604762Y-81151918D02*
X124557143Y-81199537D01*
X124557143Y-81199537D02*
X124461905Y-81342394D01*
X124461905Y-81342394D02*
X124414286Y-81532870D01*
X124414286Y-81532870D02*
X124414286Y-81913822D01*
X124414286Y-81913822D02*
X124461905Y-82009060D01*
X124461905Y-82009060D02*
X124509524Y-82056680D01*
X124509524Y-82056680D02*
X124604762Y-82104299D01*
X124604762Y-82104299D02*
X124795238Y-82104299D01*
X124795238Y-82104299D02*
X124890476Y-82056680D01*
X124890476Y-82056680D02*
X124938095Y-82009060D01*
X124938095Y-82009060D02*
X124985714Y-81913822D01*
X124985714Y-81913822D02*
X124985714Y-81675727D01*
X124985714Y-81675727D02*
X124938095Y-81580489D01*
X124938095Y-81580489D02*
X124890476Y-81532870D01*
X124890476Y-81532870D02*
X124795238Y-81485251D01*
X124795238Y-81485251D02*
X124604762Y-81485251D01*
X124604762Y-81485251D02*
X124509524Y-81532870D01*
X124509524Y-81532870D02*
X124461905Y-81580489D01*
X124461905Y-81580489D02*
X124414286Y-81675727D01*
X82438333Y-81564299D02*
X82105000Y-81088108D01*
X81866905Y-81564299D02*
X81866905Y-80564299D01*
X81866905Y-80564299D02*
X82247857Y-80564299D01*
X82247857Y-80564299D02*
X82343095Y-80611918D01*
X82343095Y-80611918D02*
X82390714Y-80659537D01*
X82390714Y-80659537D02*
X82438333Y-80754775D01*
X82438333Y-80754775D02*
X82438333Y-80897632D01*
X82438333Y-80897632D02*
X82390714Y-80992870D01*
X82390714Y-80992870D02*
X82343095Y-81040489D01*
X82343095Y-81040489D02*
X82247857Y-81088108D01*
X82247857Y-81088108D02*
X81866905Y-81088108D01*
X83009762Y-80992870D02*
X82914524Y-80945251D01*
X82914524Y-80945251D02*
X82866905Y-80897632D01*
X82866905Y-80897632D02*
X82819286Y-80802394D01*
X82819286Y-80802394D02*
X82819286Y-80754775D01*
X82819286Y-80754775D02*
X82866905Y-80659537D01*
X82866905Y-80659537D02*
X82914524Y-80611918D01*
X82914524Y-80611918D02*
X83009762Y-80564299D01*
X83009762Y-80564299D02*
X83200238Y-80564299D01*
X83200238Y-80564299D02*
X83295476Y-80611918D01*
X83295476Y-80611918D02*
X83343095Y-80659537D01*
X83343095Y-80659537D02*
X83390714Y-80754775D01*
X83390714Y-80754775D02*
X83390714Y-80802394D01*
X83390714Y-80802394D02*
X83343095Y-80897632D01*
X83343095Y-80897632D02*
X83295476Y-80945251D01*
X83295476Y-80945251D02*
X83200238Y-80992870D01*
X83200238Y-80992870D02*
X83009762Y-80992870D01*
X83009762Y-80992870D02*
X82914524Y-81040489D01*
X82914524Y-81040489D02*
X82866905Y-81088108D01*
X82866905Y-81088108D02*
X82819286Y-81183346D01*
X82819286Y-81183346D02*
X82819286Y-81373822D01*
X82819286Y-81373822D02*
X82866905Y-81469060D01*
X82866905Y-81469060D02*
X82914524Y-81516680D01*
X82914524Y-81516680D02*
X83009762Y-81564299D01*
X83009762Y-81564299D02*
X83200238Y-81564299D01*
X83200238Y-81564299D02*
X83295476Y-81516680D01*
X83295476Y-81516680D02*
X83343095Y-81469060D01*
X83343095Y-81469060D02*
X83390714Y-81373822D01*
X83390714Y-81373822D02*
X83390714Y-81183346D01*
X83390714Y-81183346D02*
X83343095Y-81088108D01*
X83343095Y-81088108D02*
X83295476Y-81040489D01*
X83295476Y-81040489D02*
X83200238Y-80992870D01*
X82438333Y-78014299D02*
X82105000Y-77538108D01*
X81866905Y-78014299D02*
X81866905Y-77014299D01*
X81866905Y-77014299D02*
X82247857Y-77014299D01*
X82247857Y-77014299D02*
X82343095Y-77061918D01*
X82343095Y-77061918D02*
X82390714Y-77109537D01*
X82390714Y-77109537D02*
X82438333Y-77204775D01*
X82438333Y-77204775D02*
X82438333Y-77347632D01*
X82438333Y-77347632D02*
X82390714Y-77442870D01*
X82390714Y-77442870D02*
X82343095Y-77490489D01*
X82343095Y-77490489D02*
X82247857Y-77538108D01*
X82247857Y-77538108D02*
X81866905Y-77538108D01*
X82914524Y-78014299D02*
X83105000Y-78014299D01*
X83105000Y-78014299D02*
X83200238Y-77966680D01*
X83200238Y-77966680D02*
X83247857Y-77919060D01*
X83247857Y-77919060D02*
X83343095Y-77776203D01*
X83343095Y-77776203D02*
X83390714Y-77585727D01*
X83390714Y-77585727D02*
X83390714Y-77204775D01*
X83390714Y-77204775D02*
X83343095Y-77109537D01*
X83343095Y-77109537D02*
X83295476Y-77061918D01*
X83295476Y-77061918D02*
X83200238Y-77014299D01*
X83200238Y-77014299D02*
X83009762Y-77014299D01*
X83009762Y-77014299D02*
X82914524Y-77061918D01*
X82914524Y-77061918D02*
X82866905Y-77109537D01*
X82866905Y-77109537D02*
X82819286Y-77204775D01*
X82819286Y-77204775D02*
X82819286Y-77442870D01*
X82819286Y-77442870D02*
X82866905Y-77538108D01*
X82866905Y-77538108D02*
X82914524Y-77585727D01*
X82914524Y-77585727D02*
X83009762Y-77633346D01*
X83009762Y-77633346D02*
X83200238Y-77633346D01*
X83200238Y-77633346D02*
X83295476Y-77585727D01*
X83295476Y-77585727D02*
X83343095Y-77538108D01*
X83343095Y-77538108D02*
X83390714Y-77442870D01*
X109433333Y-78509060D02*
X109385714Y-78556680D01*
X109385714Y-78556680D02*
X109242857Y-78604299D01*
X109242857Y-78604299D02*
X109147619Y-78604299D01*
X109147619Y-78604299D02*
X109004762Y-78556680D01*
X109004762Y-78556680D02*
X108909524Y-78461441D01*
X108909524Y-78461441D02*
X108861905Y-78366203D01*
X108861905Y-78366203D02*
X108814286Y-78175727D01*
X108814286Y-78175727D02*
X108814286Y-78032870D01*
X108814286Y-78032870D02*
X108861905Y-77842394D01*
X108861905Y-77842394D02*
X108909524Y-77747156D01*
X108909524Y-77747156D02*
X109004762Y-77651918D01*
X109004762Y-77651918D02*
X109147619Y-77604299D01*
X109147619Y-77604299D02*
X109242857Y-77604299D01*
X109242857Y-77604299D02*
X109385714Y-77651918D01*
X109385714Y-77651918D02*
X109433333Y-77699537D01*
X109814286Y-77699537D02*
X109861905Y-77651918D01*
X109861905Y-77651918D02*
X109957143Y-77604299D01*
X109957143Y-77604299D02*
X110195238Y-77604299D01*
X110195238Y-77604299D02*
X110290476Y-77651918D01*
X110290476Y-77651918D02*
X110338095Y-77699537D01*
X110338095Y-77699537D02*
X110385714Y-77794775D01*
X110385714Y-77794775D02*
X110385714Y-77890013D01*
X110385714Y-77890013D02*
X110338095Y-78032870D01*
X110338095Y-78032870D02*
X109766667Y-78604299D01*
X109766667Y-78604299D02*
X110385714Y-78604299D01*
X145804761Y-33949537D02*
X145709523Y-33901918D01*
X145709523Y-33901918D02*
X145614285Y-33806680D01*
X145614285Y-33806680D02*
X145471428Y-33663822D01*
X145471428Y-33663822D02*
X145376190Y-33616203D01*
X145376190Y-33616203D02*
X145280952Y-33616203D01*
X145328571Y-33854299D02*
X145233333Y-33806680D01*
X145233333Y-33806680D02*
X145138095Y-33711441D01*
X145138095Y-33711441D02*
X145090476Y-33520965D01*
X145090476Y-33520965D02*
X145090476Y-33187632D01*
X145090476Y-33187632D02*
X145138095Y-32997156D01*
X145138095Y-32997156D02*
X145233333Y-32901918D01*
X145233333Y-32901918D02*
X145328571Y-32854299D01*
X145328571Y-32854299D02*
X145519047Y-32854299D01*
X145519047Y-32854299D02*
X145614285Y-32901918D01*
X145614285Y-32901918D02*
X145709523Y-32997156D01*
X145709523Y-32997156D02*
X145757142Y-33187632D01*
X145757142Y-33187632D02*
X145757142Y-33520965D01*
X145757142Y-33520965D02*
X145709523Y-33711441D01*
X145709523Y-33711441D02*
X145614285Y-33806680D01*
X145614285Y-33806680D02*
X145519047Y-33854299D01*
X145519047Y-33854299D02*
X145328571Y-33854299D01*
X146709523Y-33854299D02*
X146138095Y-33854299D01*
X146423809Y-33854299D02*
X146423809Y-32854299D01*
X146423809Y-32854299D02*
X146328571Y-32997156D01*
X146328571Y-32997156D02*
X146233333Y-33092394D01*
X146233333Y-33092394D02*
X146138095Y-33140013D01*
X78975833Y-78569060D02*
X78928214Y-78616680D01*
X78928214Y-78616680D02*
X78785357Y-78664299D01*
X78785357Y-78664299D02*
X78690119Y-78664299D01*
X78690119Y-78664299D02*
X78547262Y-78616680D01*
X78547262Y-78616680D02*
X78452024Y-78521441D01*
X78452024Y-78521441D02*
X78404405Y-78426203D01*
X78404405Y-78426203D02*
X78356786Y-78235727D01*
X78356786Y-78235727D02*
X78356786Y-78092870D01*
X78356786Y-78092870D02*
X78404405Y-77902394D01*
X78404405Y-77902394D02*
X78452024Y-77807156D01*
X78452024Y-77807156D02*
X78547262Y-77711918D01*
X78547262Y-77711918D02*
X78690119Y-77664299D01*
X78690119Y-77664299D02*
X78785357Y-77664299D01*
X78785357Y-77664299D02*
X78928214Y-77711918D01*
X78928214Y-77711918D02*
X78975833Y-77759537D01*
X79452024Y-78664299D02*
X79642500Y-78664299D01*
X79642500Y-78664299D02*
X79737738Y-78616680D01*
X79737738Y-78616680D02*
X79785357Y-78569060D01*
X79785357Y-78569060D02*
X79880595Y-78426203D01*
X79880595Y-78426203D02*
X79928214Y-78235727D01*
X79928214Y-78235727D02*
X79928214Y-77854775D01*
X79928214Y-77854775D02*
X79880595Y-77759537D01*
X79880595Y-77759537D02*
X79832976Y-77711918D01*
X79832976Y-77711918D02*
X79737738Y-77664299D01*
X79737738Y-77664299D02*
X79547262Y-77664299D01*
X79547262Y-77664299D02*
X79452024Y-77711918D01*
X79452024Y-77711918D02*
X79404405Y-77759537D01*
X79404405Y-77759537D02*
X79356786Y-77854775D01*
X79356786Y-77854775D02*
X79356786Y-78092870D01*
X79356786Y-78092870D02*
X79404405Y-78188108D01*
X79404405Y-78188108D02*
X79452024Y-78235727D01*
X79452024Y-78235727D02*
X79547262Y-78283346D01*
X79547262Y-78283346D02*
X79737738Y-78283346D01*
X79737738Y-78283346D02*
X79832976Y-78235727D01*
X79832976Y-78235727D02*
X79880595Y-78188108D01*
X79880595Y-78188108D02*
X79928214Y-78092870D01*
X121533333Y-82309060D02*
X121485714Y-82356680D01*
X121485714Y-82356680D02*
X121342857Y-82404299D01*
X121342857Y-82404299D02*
X121247619Y-82404299D01*
X121247619Y-82404299D02*
X121104762Y-82356680D01*
X121104762Y-82356680D02*
X121009524Y-82261441D01*
X121009524Y-82261441D02*
X120961905Y-82166203D01*
X120961905Y-82166203D02*
X120914286Y-81975727D01*
X120914286Y-81975727D02*
X120914286Y-81832870D01*
X120914286Y-81832870D02*
X120961905Y-81642394D01*
X120961905Y-81642394D02*
X121009524Y-81547156D01*
X121009524Y-81547156D02*
X121104762Y-81451918D01*
X121104762Y-81451918D02*
X121247619Y-81404299D01*
X121247619Y-81404299D02*
X121342857Y-81404299D01*
X121342857Y-81404299D02*
X121485714Y-81451918D01*
X121485714Y-81451918D02*
X121533333Y-81499537D01*
X122438095Y-81404299D02*
X121961905Y-81404299D01*
X121961905Y-81404299D02*
X121914286Y-81880489D01*
X121914286Y-81880489D02*
X121961905Y-81832870D01*
X121961905Y-81832870D02*
X122057143Y-81785251D01*
X122057143Y-81785251D02*
X122295238Y-81785251D01*
X122295238Y-81785251D02*
X122390476Y-81832870D01*
X122390476Y-81832870D02*
X122438095Y-81880489D01*
X122438095Y-81880489D02*
X122485714Y-81975727D01*
X122485714Y-81975727D02*
X122485714Y-82213822D01*
X122485714Y-82213822D02*
X122438095Y-82309060D01*
X122438095Y-82309060D02*
X122390476Y-82356680D01*
X122390476Y-82356680D02*
X122295238Y-82404299D01*
X122295238Y-82404299D02*
X122057143Y-82404299D01*
X122057143Y-82404299D02*
X121961905Y-82356680D01*
X121961905Y-82356680D02*
X121914286Y-82309060D01*
X132876666Y-84304299D02*
X132876666Y-85018584D01*
X132876666Y-85018584D02*
X132829047Y-85161441D01*
X132829047Y-85161441D02*
X132733809Y-85256680D01*
X132733809Y-85256680D02*
X132590952Y-85304299D01*
X132590952Y-85304299D02*
X132495714Y-85304299D01*
X133305238Y-84399537D02*
X133352857Y-84351918D01*
X133352857Y-84351918D02*
X133448095Y-84304299D01*
X133448095Y-84304299D02*
X133686190Y-84304299D01*
X133686190Y-84304299D02*
X133781428Y-84351918D01*
X133781428Y-84351918D02*
X133829047Y-84399537D01*
X133829047Y-84399537D02*
X133876666Y-84494775D01*
X133876666Y-84494775D02*
X133876666Y-84590013D01*
X133876666Y-84590013D02*
X133829047Y-84732870D01*
X133829047Y-84732870D02*
X133257619Y-85304299D01*
X133257619Y-85304299D02*
X133876666Y-85304299D01*
X107283333Y-79554299D02*
X106950000Y-79078108D01*
X106711905Y-79554299D02*
X106711905Y-78554299D01*
X106711905Y-78554299D02*
X107092857Y-78554299D01*
X107092857Y-78554299D02*
X107188095Y-78601918D01*
X107188095Y-78601918D02*
X107235714Y-78649537D01*
X107235714Y-78649537D02*
X107283333Y-78744775D01*
X107283333Y-78744775D02*
X107283333Y-78887632D01*
X107283333Y-78887632D02*
X107235714Y-78982870D01*
X107235714Y-78982870D02*
X107188095Y-79030489D01*
X107188095Y-79030489D02*
X107092857Y-79078108D01*
X107092857Y-79078108D02*
X106711905Y-79078108D01*
X107664286Y-78649537D02*
X107711905Y-78601918D01*
X107711905Y-78601918D02*
X107807143Y-78554299D01*
X107807143Y-78554299D02*
X108045238Y-78554299D01*
X108045238Y-78554299D02*
X108140476Y-78601918D01*
X108140476Y-78601918D02*
X108188095Y-78649537D01*
X108188095Y-78649537D02*
X108235714Y-78744775D01*
X108235714Y-78744775D02*
X108235714Y-78840013D01*
X108235714Y-78840013D02*
X108188095Y-78982870D01*
X108188095Y-78982870D02*
X107616667Y-79554299D01*
X107616667Y-79554299D02*
X108235714Y-79554299D01*
X141063095Y-45679299D02*
X141063095Y-46488822D01*
X141063095Y-46488822D02*
X141110714Y-46584060D01*
X141110714Y-46584060D02*
X141158333Y-46631680D01*
X141158333Y-46631680D02*
X141253571Y-46679299D01*
X141253571Y-46679299D02*
X141444047Y-46679299D01*
X141444047Y-46679299D02*
X141539285Y-46631680D01*
X141539285Y-46631680D02*
X141586904Y-46584060D01*
X141586904Y-46584060D02*
X141634523Y-46488822D01*
X141634523Y-46488822D02*
X141634523Y-45679299D01*
X142586904Y-45679299D02*
X142110714Y-45679299D01*
X142110714Y-45679299D02*
X142063095Y-46155489D01*
X142063095Y-46155489D02*
X142110714Y-46107870D01*
X142110714Y-46107870D02*
X142205952Y-46060251D01*
X142205952Y-46060251D02*
X142444047Y-46060251D01*
X142444047Y-46060251D02*
X142539285Y-46107870D01*
X142539285Y-46107870D02*
X142586904Y-46155489D01*
X142586904Y-46155489D02*
X142634523Y-46250727D01*
X142634523Y-46250727D02*
X142634523Y-46488822D01*
X142634523Y-46488822D02*
X142586904Y-46584060D01*
X142586904Y-46584060D02*
X142539285Y-46631680D01*
X142539285Y-46631680D02*
X142444047Y-46679299D01*
X142444047Y-46679299D02*
X142205952Y-46679299D01*
X142205952Y-46679299D02*
X142110714Y-46631680D01*
X142110714Y-46631680D02*
X142063095Y-46584060D01*
X126758333Y-69884060D02*
X126710714Y-69931680D01*
X126710714Y-69931680D02*
X126567857Y-69979299D01*
X126567857Y-69979299D02*
X126472619Y-69979299D01*
X126472619Y-69979299D02*
X126329762Y-69931680D01*
X126329762Y-69931680D02*
X126234524Y-69836441D01*
X126234524Y-69836441D02*
X126186905Y-69741203D01*
X126186905Y-69741203D02*
X126139286Y-69550727D01*
X126139286Y-69550727D02*
X126139286Y-69407870D01*
X126139286Y-69407870D02*
X126186905Y-69217394D01*
X126186905Y-69217394D02*
X126234524Y-69122156D01*
X126234524Y-69122156D02*
X126329762Y-69026918D01*
X126329762Y-69026918D02*
X126472619Y-68979299D01*
X126472619Y-68979299D02*
X126567857Y-68979299D01*
X126567857Y-68979299D02*
X126710714Y-69026918D01*
X126710714Y-69026918D02*
X126758333Y-69074537D01*
X127615476Y-69312632D02*
X127615476Y-69979299D01*
X127377381Y-68931680D02*
X127139286Y-69645965D01*
X127139286Y-69645965D02*
X127758333Y-69645965D01*
X147404761Y-47649537D02*
X147309523Y-47601918D01*
X147309523Y-47601918D02*
X147214285Y-47506680D01*
X147214285Y-47506680D02*
X147071428Y-47363822D01*
X147071428Y-47363822D02*
X146976190Y-47316203D01*
X146976190Y-47316203D02*
X146880952Y-47316203D01*
X146928571Y-47554299D02*
X146833333Y-47506680D01*
X146833333Y-47506680D02*
X146738095Y-47411441D01*
X146738095Y-47411441D02*
X146690476Y-47220965D01*
X146690476Y-47220965D02*
X146690476Y-46887632D01*
X146690476Y-46887632D02*
X146738095Y-46697156D01*
X146738095Y-46697156D02*
X146833333Y-46601918D01*
X146833333Y-46601918D02*
X146928571Y-46554299D01*
X146928571Y-46554299D02*
X147119047Y-46554299D01*
X147119047Y-46554299D02*
X147214285Y-46601918D01*
X147214285Y-46601918D02*
X147309523Y-46697156D01*
X147309523Y-46697156D02*
X147357142Y-46887632D01*
X147357142Y-46887632D02*
X147357142Y-47220965D01*
X147357142Y-47220965D02*
X147309523Y-47411441D01*
X147309523Y-47411441D02*
X147214285Y-47506680D01*
X147214285Y-47506680D02*
X147119047Y-47554299D01*
X147119047Y-47554299D02*
X146928571Y-47554299D01*
X147738095Y-46649537D02*
X147785714Y-46601918D01*
X147785714Y-46601918D02*
X147880952Y-46554299D01*
X147880952Y-46554299D02*
X148119047Y-46554299D01*
X148119047Y-46554299D02*
X148214285Y-46601918D01*
X148214285Y-46601918D02*
X148261904Y-46649537D01*
X148261904Y-46649537D02*
X148309523Y-46744775D01*
X148309523Y-46744775D02*
X148309523Y-46840013D01*
X148309523Y-46840013D02*
X148261904Y-46982870D01*
X148261904Y-46982870D02*
X147690476Y-47554299D01*
X147690476Y-47554299D02*
X148309523Y-47554299D01*
X129433333Y-78559060D02*
X129385714Y-78606680D01*
X129385714Y-78606680D02*
X129242857Y-78654299D01*
X129242857Y-78654299D02*
X129147619Y-78654299D01*
X129147619Y-78654299D02*
X129004762Y-78606680D01*
X129004762Y-78606680D02*
X128909524Y-78511441D01*
X128909524Y-78511441D02*
X128861905Y-78416203D01*
X128861905Y-78416203D02*
X128814286Y-78225727D01*
X128814286Y-78225727D02*
X128814286Y-78082870D01*
X128814286Y-78082870D02*
X128861905Y-77892394D01*
X128861905Y-77892394D02*
X128909524Y-77797156D01*
X128909524Y-77797156D02*
X129004762Y-77701918D01*
X129004762Y-77701918D02*
X129147619Y-77654299D01*
X129147619Y-77654299D02*
X129242857Y-77654299D01*
X129242857Y-77654299D02*
X129385714Y-77701918D01*
X129385714Y-77701918D02*
X129433333Y-77749537D01*
X129766667Y-77654299D02*
X130433333Y-77654299D01*
X130433333Y-77654299D02*
X130004762Y-78654299D01*
X132133333Y-80109060D02*
X132085714Y-80156680D01*
X132085714Y-80156680D02*
X131942857Y-80204299D01*
X131942857Y-80204299D02*
X131847619Y-80204299D01*
X131847619Y-80204299D02*
X131704762Y-80156680D01*
X131704762Y-80156680D02*
X131609524Y-80061441D01*
X131609524Y-80061441D02*
X131561905Y-79966203D01*
X131561905Y-79966203D02*
X131514286Y-79775727D01*
X131514286Y-79775727D02*
X131514286Y-79632870D01*
X131514286Y-79632870D02*
X131561905Y-79442394D01*
X131561905Y-79442394D02*
X131609524Y-79347156D01*
X131609524Y-79347156D02*
X131704762Y-79251918D01*
X131704762Y-79251918D02*
X131847619Y-79204299D01*
X131847619Y-79204299D02*
X131942857Y-79204299D01*
X131942857Y-79204299D02*
X132085714Y-79251918D01*
X132085714Y-79251918D02*
X132133333Y-79299537D01*
X132990476Y-79204299D02*
X132800000Y-79204299D01*
X132800000Y-79204299D02*
X132704762Y-79251918D01*
X132704762Y-79251918D02*
X132657143Y-79299537D01*
X132657143Y-79299537D02*
X132561905Y-79442394D01*
X132561905Y-79442394D02*
X132514286Y-79632870D01*
X132514286Y-79632870D02*
X132514286Y-80013822D01*
X132514286Y-80013822D02*
X132561905Y-80109060D01*
X132561905Y-80109060D02*
X132609524Y-80156680D01*
X132609524Y-80156680D02*
X132704762Y-80204299D01*
X132704762Y-80204299D02*
X132895238Y-80204299D01*
X132895238Y-80204299D02*
X132990476Y-80156680D01*
X132990476Y-80156680D02*
X133038095Y-80109060D01*
X133038095Y-80109060D02*
X133085714Y-80013822D01*
X133085714Y-80013822D02*
X133085714Y-79775727D01*
X133085714Y-79775727D02*
X133038095Y-79680489D01*
X133038095Y-79680489D02*
X132990476Y-79632870D01*
X132990476Y-79632870D02*
X132895238Y-79585251D01*
X132895238Y-79585251D02*
X132704762Y-79585251D01*
X132704762Y-79585251D02*
X132609524Y-79632870D01*
X132609524Y-79632870D02*
X132561905Y-79680489D01*
X132561905Y-79680489D02*
X132514286Y-79775727D01*
X77412142Y-75164299D02*
X77078809Y-74688108D01*
X76840714Y-75164299D02*
X76840714Y-74164299D01*
X76840714Y-74164299D02*
X77221666Y-74164299D01*
X77221666Y-74164299D02*
X77316904Y-74211918D01*
X77316904Y-74211918D02*
X77364523Y-74259537D01*
X77364523Y-74259537D02*
X77412142Y-74354775D01*
X77412142Y-74354775D02*
X77412142Y-74497632D01*
X77412142Y-74497632D02*
X77364523Y-74592870D01*
X77364523Y-74592870D02*
X77316904Y-74640489D01*
X77316904Y-74640489D02*
X77221666Y-74688108D01*
X77221666Y-74688108D02*
X76840714Y-74688108D01*
X78364523Y-75164299D02*
X77793095Y-75164299D01*
X78078809Y-75164299D02*
X78078809Y-74164299D01*
X78078809Y-74164299D02*
X77983571Y-74307156D01*
X77983571Y-74307156D02*
X77888333Y-74402394D01*
X77888333Y-74402394D02*
X77793095Y-74450013D01*
X78983571Y-74164299D02*
X79078809Y-74164299D01*
X79078809Y-74164299D02*
X79174047Y-74211918D01*
X79174047Y-74211918D02*
X79221666Y-74259537D01*
X79221666Y-74259537D02*
X79269285Y-74354775D01*
X79269285Y-74354775D02*
X79316904Y-74545251D01*
X79316904Y-74545251D02*
X79316904Y-74783346D01*
X79316904Y-74783346D02*
X79269285Y-74973822D01*
X79269285Y-74973822D02*
X79221666Y-75069060D01*
X79221666Y-75069060D02*
X79174047Y-75116680D01*
X79174047Y-75116680D02*
X79078809Y-75164299D01*
X79078809Y-75164299D02*
X78983571Y-75164299D01*
X78983571Y-75164299D02*
X78888333Y-75116680D01*
X78888333Y-75116680D02*
X78840714Y-75069060D01*
X78840714Y-75069060D02*
X78793095Y-74973822D01*
X78793095Y-74973822D02*
X78745476Y-74783346D01*
X78745476Y-74783346D02*
X78745476Y-74545251D01*
X78745476Y-74545251D02*
X78793095Y-74354775D01*
X78793095Y-74354775D02*
X78840714Y-74259537D01*
X78840714Y-74259537D02*
X78888333Y-74211918D01*
X78888333Y-74211918D02*
X78983571Y-74164299D01*
X110883333Y-82104299D02*
X110550000Y-81628108D01*
X110311905Y-82104299D02*
X110311905Y-81104299D01*
X110311905Y-81104299D02*
X110692857Y-81104299D01*
X110692857Y-81104299D02*
X110788095Y-81151918D01*
X110788095Y-81151918D02*
X110835714Y-81199537D01*
X110835714Y-81199537D02*
X110883333Y-81294775D01*
X110883333Y-81294775D02*
X110883333Y-81437632D01*
X110883333Y-81437632D02*
X110835714Y-81532870D01*
X110835714Y-81532870D02*
X110788095Y-81580489D01*
X110788095Y-81580489D02*
X110692857Y-81628108D01*
X110692857Y-81628108D02*
X110311905Y-81628108D01*
X111216667Y-81104299D02*
X111835714Y-81104299D01*
X111835714Y-81104299D02*
X111502381Y-81485251D01*
X111502381Y-81485251D02*
X111645238Y-81485251D01*
X111645238Y-81485251D02*
X111740476Y-81532870D01*
X111740476Y-81532870D02*
X111788095Y-81580489D01*
X111788095Y-81580489D02*
X111835714Y-81675727D01*
X111835714Y-81675727D02*
X111835714Y-81913822D01*
X111835714Y-81913822D02*
X111788095Y-82009060D01*
X111788095Y-82009060D02*
X111740476Y-82056680D01*
X111740476Y-82056680D02*
X111645238Y-82104299D01*
X111645238Y-82104299D02*
X111359524Y-82104299D01*
X111359524Y-82104299D02*
X111264286Y-82056680D01*
X111264286Y-82056680D02*
X111216667Y-82009060D01*
X128933333Y-79854299D02*
X128600000Y-79378108D01*
X128361905Y-79854299D02*
X128361905Y-78854299D01*
X128361905Y-78854299D02*
X128742857Y-78854299D01*
X128742857Y-78854299D02*
X128838095Y-78901918D01*
X128838095Y-78901918D02*
X128885714Y-78949537D01*
X128885714Y-78949537D02*
X128933333Y-79044775D01*
X128933333Y-79044775D02*
X128933333Y-79187632D01*
X128933333Y-79187632D02*
X128885714Y-79282870D01*
X128885714Y-79282870D02*
X128838095Y-79330489D01*
X128838095Y-79330489D02*
X128742857Y-79378108D01*
X128742857Y-79378108D02*
X128361905Y-79378108D01*
X129266667Y-78854299D02*
X129933333Y-78854299D01*
X129933333Y-78854299D02*
X129504762Y-79854299D01*
X147357142Y-50279299D02*
X147023809Y-49803108D01*
X146785714Y-50279299D02*
X146785714Y-49279299D01*
X146785714Y-49279299D02*
X147166666Y-49279299D01*
X147166666Y-49279299D02*
X147261904Y-49326918D01*
X147261904Y-49326918D02*
X147309523Y-49374537D01*
X147309523Y-49374537D02*
X147357142Y-49469775D01*
X147357142Y-49469775D02*
X147357142Y-49612632D01*
X147357142Y-49612632D02*
X147309523Y-49707870D01*
X147309523Y-49707870D02*
X147261904Y-49755489D01*
X147261904Y-49755489D02*
X147166666Y-49803108D01*
X147166666Y-49803108D02*
X146785714Y-49803108D01*
X148309523Y-50279299D02*
X147738095Y-50279299D01*
X148023809Y-50279299D02*
X148023809Y-49279299D01*
X148023809Y-49279299D02*
X147928571Y-49422156D01*
X147928571Y-49422156D02*
X147833333Y-49517394D01*
X147833333Y-49517394D02*
X147738095Y-49565013D01*
X149261904Y-50279299D02*
X148690476Y-50279299D01*
X148976190Y-50279299D02*
X148976190Y-49279299D01*
X148976190Y-49279299D02*
X148880952Y-49422156D01*
X148880952Y-49422156D02*
X148785714Y-49517394D01*
X148785714Y-49517394D02*
X148690476Y-49565013D01*
X85458333Y-75159060D02*
X85410714Y-75206680D01*
X85410714Y-75206680D02*
X85267857Y-75254299D01*
X85267857Y-75254299D02*
X85172619Y-75254299D01*
X85172619Y-75254299D02*
X85029762Y-75206680D01*
X85029762Y-75206680D02*
X84934524Y-75111441D01*
X84934524Y-75111441D02*
X84886905Y-75016203D01*
X84886905Y-75016203D02*
X84839286Y-74825727D01*
X84839286Y-74825727D02*
X84839286Y-74682870D01*
X84839286Y-74682870D02*
X84886905Y-74492394D01*
X84886905Y-74492394D02*
X84934524Y-74397156D01*
X84934524Y-74397156D02*
X85029762Y-74301918D01*
X85029762Y-74301918D02*
X85172619Y-74254299D01*
X85172619Y-74254299D02*
X85267857Y-74254299D01*
X85267857Y-74254299D02*
X85410714Y-74301918D01*
X85410714Y-74301918D02*
X85458333Y-74349537D01*
X86029762Y-74682870D02*
X85934524Y-74635251D01*
X85934524Y-74635251D02*
X85886905Y-74587632D01*
X85886905Y-74587632D02*
X85839286Y-74492394D01*
X85839286Y-74492394D02*
X85839286Y-74444775D01*
X85839286Y-74444775D02*
X85886905Y-74349537D01*
X85886905Y-74349537D02*
X85934524Y-74301918D01*
X85934524Y-74301918D02*
X86029762Y-74254299D01*
X86029762Y-74254299D02*
X86220238Y-74254299D01*
X86220238Y-74254299D02*
X86315476Y-74301918D01*
X86315476Y-74301918D02*
X86363095Y-74349537D01*
X86363095Y-74349537D02*
X86410714Y-74444775D01*
X86410714Y-74444775D02*
X86410714Y-74492394D01*
X86410714Y-74492394D02*
X86363095Y-74587632D01*
X86363095Y-74587632D02*
X86315476Y-74635251D01*
X86315476Y-74635251D02*
X86220238Y-74682870D01*
X86220238Y-74682870D02*
X86029762Y-74682870D01*
X86029762Y-74682870D02*
X85934524Y-74730489D01*
X85934524Y-74730489D02*
X85886905Y-74778108D01*
X85886905Y-74778108D02*
X85839286Y-74873346D01*
X85839286Y-74873346D02*
X85839286Y-75063822D01*
X85839286Y-75063822D02*
X85886905Y-75159060D01*
X85886905Y-75159060D02*
X85934524Y-75206680D01*
X85934524Y-75206680D02*
X86029762Y-75254299D01*
X86029762Y-75254299D02*
X86220238Y-75254299D01*
X86220238Y-75254299D02*
X86315476Y-75206680D01*
X86315476Y-75206680D02*
X86363095Y-75159060D01*
X86363095Y-75159060D02*
X86410714Y-75063822D01*
X86410714Y-75063822D02*
X86410714Y-74873346D01*
X86410714Y-74873346D02*
X86363095Y-74778108D01*
X86363095Y-74778108D02*
X86315476Y-74730489D01*
X86315476Y-74730489D02*
X86220238Y-74682870D01*
X103933333Y-81809060D02*
X103885714Y-81856680D01*
X103885714Y-81856680D02*
X103742857Y-81904299D01*
X103742857Y-81904299D02*
X103647619Y-81904299D01*
X103647619Y-81904299D02*
X103504762Y-81856680D01*
X103504762Y-81856680D02*
X103409524Y-81761441D01*
X103409524Y-81761441D02*
X103361905Y-81666203D01*
X103361905Y-81666203D02*
X103314286Y-81475727D01*
X103314286Y-81475727D02*
X103314286Y-81332870D01*
X103314286Y-81332870D02*
X103361905Y-81142394D01*
X103361905Y-81142394D02*
X103409524Y-81047156D01*
X103409524Y-81047156D02*
X103504762Y-80951918D01*
X103504762Y-80951918D02*
X103647619Y-80904299D01*
X103647619Y-80904299D02*
X103742857Y-80904299D01*
X103742857Y-80904299D02*
X103885714Y-80951918D01*
X103885714Y-80951918D02*
X103933333Y-80999537D01*
X104885714Y-81904299D02*
X104314286Y-81904299D01*
X104600000Y-81904299D02*
X104600000Y-80904299D01*
X104600000Y-80904299D02*
X104504762Y-81047156D01*
X104504762Y-81047156D02*
X104409524Y-81142394D01*
X104409524Y-81142394D02*
X104314286Y-81190013D01*
X96363095Y-78629299D02*
X96363095Y-79438822D01*
X96363095Y-79438822D02*
X96410714Y-79534060D01*
X96410714Y-79534060D02*
X96458333Y-79581680D01*
X96458333Y-79581680D02*
X96553571Y-79629299D01*
X96553571Y-79629299D02*
X96744047Y-79629299D01*
X96744047Y-79629299D02*
X96839285Y-79581680D01*
X96839285Y-79581680D02*
X96886904Y-79534060D01*
X96886904Y-79534060D02*
X96934523Y-79438822D01*
X96934523Y-79438822D02*
X96934523Y-78629299D01*
X97934523Y-79629299D02*
X97363095Y-79629299D01*
X97648809Y-79629299D02*
X97648809Y-78629299D01*
X97648809Y-78629299D02*
X97553571Y-78772156D01*
X97553571Y-78772156D02*
X97458333Y-78867394D01*
X97458333Y-78867394D02*
X97363095Y-78915013D01*
X147282142Y-48884060D02*
X147234523Y-48931680D01*
X147234523Y-48931680D02*
X147091666Y-48979299D01*
X147091666Y-48979299D02*
X146996428Y-48979299D01*
X146996428Y-48979299D02*
X146853571Y-48931680D01*
X146853571Y-48931680D02*
X146758333Y-48836441D01*
X146758333Y-48836441D02*
X146710714Y-48741203D01*
X146710714Y-48741203D02*
X146663095Y-48550727D01*
X146663095Y-48550727D02*
X146663095Y-48407870D01*
X146663095Y-48407870D02*
X146710714Y-48217394D01*
X146710714Y-48217394D02*
X146758333Y-48122156D01*
X146758333Y-48122156D02*
X146853571Y-48026918D01*
X146853571Y-48026918D02*
X146996428Y-47979299D01*
X146996428Y-47979299D02*
X147091666Y-47979299D01*
X147091666Y-47979299D02*
X147234523Y-48026918D01*
X147234523Y-48026918D02*
X147282142Y-48074537D01*
X148234523Y-48979299D02*
X147663095Y-48979299D01*
X147948809Y-48979299D02*
X147948809Y-47979299D01*
X147948809Y-47979299D02*
X147853571Y-48122156D01*
X147853571Y-48122156D02*
X147758333Y-48217394D01*
X147758333Y-48217394D02*
X147663095Y-48265013D01*
X148853571Y-47979299D02*
X148948809Y-47979299D01*
X148948809Y-47979299D02*
X149044047Y-48026918D01*
X149044047Y-48026918D02*
X149091666Y-48074537D01*
X149091666Y-48074537D02*
X149139285Y-48169775D01*
X149139285Y-48169775D02*
X149186904Y-48360251D01*
X149186904Y-48360251D02*
X149186904Y-48598346D01*
X149186904Y-48598346D02*
X149139285Y-48788822D01*
X149139285Y-48788822D02*
X149091666Y-48884060D01*
X149091666Y-48884060D02*
X149044047Y-48931680D01*
X149044047Y-48931680D02*
X148948809Y-48979299D01*
X148948809Y-48979299D02*
X148853571Y-48979299D01*
X148853571Y-48979299D02*
X148758333Y-48931680D01*
X148758333Y-48931680D02*
X148710714Y-48884060D01*
X148710714Y-48884060D02*
X148663095Y-48788822D01*
X148663095Y-48788822D02*
X148615476Y-48598346D01*
X148615476Y-48598346D02*
X148615476Y-48360251D01*
X148615476Y-48360251D02*
X148663095Y-48169775D01*
X148663095Y-48169775D02*
X148710714Y-48074537D01*
X148710714Y-48074537D02*
X148758333Y-48026918D01*
X148758333Y-48026918D02*
X148853571Y-47979299D01*
D12*
%TO.C,U4*%
X93060000Y-83760000D02*
X92580000Y-83760000D01*
X92820000Y-83430000D01*
X93060000Y-83760000D01*
G36*
X93060000Y-83760000D02*
G01*
X92580000Y-83760000D01*
X92820000Y-83430000D01*
X93060000Y-83760000D01*
G37*
X90120000Y-78405000D02*
X88170000Y-78405000D01*
X90120000Y-78405000D02*
X92070000Y-78405000D01*
X90120000Y-83525000D02*
X88170000Y-83525000D01*
X90120000Y-83525000D02*
X92070000Y-83525000D01*
%TO.C,R5*%
X92472936Y-73840000D02*
X92927064Y-73840000D01*
X92472936Y-75310000D02*
X92927064Y-75310000D01*
%TO.C,R4*%
X92512936Y-76220000D02*
X92967064Y-76220000D01*
X92512936Y-77690000D02*
X92967064Y-77690000D01*
%TO.C,BT1*%
D13*
X60850000Y-31800000D02*
X138850000Y-31800000D01*
X138850000Y-53000000D01*
X60850000Y-53000000D01*
X60850000Y-31800000D01*
%TO.C,L1*%
X123300000Y-58550000D02*
X123300000Y-55250000D01*
X123300000Y-62550000D02*
X123300000Y-65850000D01*
X123300000Y-65850000D02*
X135100000Y-65850000D01*
X135100000Y-55250000D02*
X123300000Y-55250000D01*
X135100000Y-58550000D02*
X135100000Y-55250000D01*
X135100000Y-62550000D02*
X135100000Y-65850000D01*
%TO.C,SW1*%
X148800000Y-73500000D02*
X145200000Y-73500000D01*
X145200000Y-82700000D01*
X148800000Y-82700000D01*
X148800000Y-73500000D01*
%TO.C,SW2*%
X62950000Y-83100000D02*
X66550000Y-83100000D01*
X66550000Y-73900000D01*
X62950000Y-73900000D01*
X62950000Y-83100000D01*
%TO.C,BATT_1*%
X60700000Y-55000000D02*
X119700000Y-55000000D01*
X119700000Y-72000000D01*
X60700000Y-72000000D01*
X60700000Y-55000000D01*
D12*
%TO.C,R1*%
X105432936Y-72955000D02*
X105887064Y-72955000D01*
X105432936Y-74425000D02*
X105887064Y-74425000D01*
%TO.C,U3*%
X137350000Y-71965000D02*
X135150000Y-71965000D01*
X137350000Y-71965000D02*
X139550000Y-71965000D01*
X137350000Y-77185000D02*
X135150000Y-77185000D01*
X137350000Y-77185000D02*
X139550000Y-77185000D01*
X134450000Y-72165000D02*
X134210000Y-71835000D01*
X134690000Y-71835000D01*
X134450000Y-72165000D01*
G36*
X134450000Y-72165000D02*
G01*
X134210000Y-71835000D01*
X134690000Y-71835000D01*
X134450000Y-72165000D01*
G37*
%TO.C,U2*%
X125250000Y-71470500D02*
X123750000Y-71470500D01*
X125250000Y-71470500D02*
X126750000Y-71470500D01*
X125250000Y-75729500D02*
X123750000Y-75729500D01*
X125250000Y-75729500D02*
X126750000Y-75729500D01*
X127677500Y-76015000D02*
X127197500Y-76015000D01*
X127437500Y-75685000D01*
X127677500Y-76015000D01*
G36*
X127677500Y-76015000D02*
G01*
X127197500Y-76015000D01*
X127437500Y-75685000D01*
X127677500Y-76015000D01*
G37*
%TO.C,C3*%
X118238748Y-73852500D02*
X118761252Y-73852500D01*
X118238748Y-75322500D02*
X118761252Y-75322500D01*
%TO.C,R12*%
X144952064Y-38965000D02*
X144497936Y-38965000D01*
X144952064Y-40435000D02*
X144497936Y-40435000D01*
%TO.C,R6*%
X123465000Y-78402064D02*
X123465000Y-77947936D01*
X124935000Y-78402064D02*
X124935000Y-77947936D01*
%TO.C,R8*%
X83922064Y-83592500D02*
X83467936Y-83592500D01*
X83922064Y-82122500D02*
X83467936Y-82122500D01*
%TO.C,R9*%
X83922064Y-79955000D02*
X83467936Y-79955000D01*
X83922064Y-78485000D02*
X83467936Y-78485000D01*
%TO.C,C2*%
X108875000Y-75228748D02*
X108875000Y-75751252D01*
X110345000Y-75228748D02*
X110345000Y-75751252D01*
%TO.C,Q1*%
X141540000Y-34600000D02*
X141540000Y-33950000D01*
X141540000Y-34600000D02*
X141540000Y-35250000D01*
X144660000Y-34600000D02*
X144660000Y-33950000D01*
X144660000Y-34600000D02*
X144660000Y-35250000D01*
X141590000Y-35762500D02*
X141260000Y-36002500D01*
X141260000Y-35522500D01*
X141590000Y-35762500D01*
G36*
X141590000Y-35762500D02*
G01*
X141260000Y-36002500D01*
X141260000Y-35522500D01*
X141590000Y-35762500D01*
G37*
%TO.C,C9*%
X79877500Y-80633748D02*
X79877500Y-81156252D01*
X78407500Y-80633748D02*
X78407500Y-81156252D01*
%TO.C,C5*%
X120965000Y-77951248D02*
X120965000Y-78473752D01*
X122435000Y-77951248D02*
X122435000Y-78473752D01*
%TO.C,J2*%
X118255000Y-85845000D02*
X119585000Y-85845000D01*
X118255000Y-87175000D02*
X118255000Y-85845000D01*
X120855000Y-85845000D02*
X133615000Y-85845000D01*
X120855000Y-88505000D02*
X120855000Y-85845000D01*
X120855000Y-88505000D02*
X133615000Y-88505000D01*
X133615000Y-88505000D02*
X133615000Y-85845000D01*
%TO.C,R2*%
X105332936Y-76605000D02*
X105787064Y-76605000D01*
X105332936Y-78075000D02*
X105787064Y-78075000D01*
%TO.C,U5*%
X141540000Y-43412500D02*
X141540000Y-42612500D01*
X141540000Y-43412500D02*
X141540000Y-44212500D01*
X144660000Y-43412500D02*
X144660000Y-42612500D01*
X144660000Y-43412500D02*
X144660000Y-44212500D01*
X144940000Y-42352500D02*
X144610000Y-42112500D01*
X144940000Y-41872500D01*
X144940000Y-42352500D01*
G36*
X144940000Y-42352500D02*
G01*
X144610000Y-42112500D01*
X144940000Y-41872500D01*
X144940000Y-42352500D01*
G37*
%TO.C,C4*%
X124386252Y-69190000D02*
X123863748Y-69190000D01*
X124386252Y-70660000D02*
X123863748Y-70660000D01*
%TO.C,Q2*%
X145615000Y-43425000D02*
X145615000Y-42775000D01*
X145615000Y-43425000D02*
X145615000Y-44075000D01*
X148735000Y-43425000D02*
X148735000Y-42775000D01*
X148735000Y-43425000D02*
X148735000Y-44075000D01*
X145665000Y-44587500D02*
X145335000Y-44827500D01*
X145335000Y-44347500D01*
X145665000Y-44587500D01*
G36*
X145665000Y-44587500D02*
G01*
X145335000Y-44827500D01*
X145335000Y-44347500D01*
X145665000Y-44587500D01*
G37*
%TO.C,C7*%
X128865000Y-75376248D02*
X128865000Y-75898752D01*
X130335000Y-75376248D02*
X130335000Y-75898752D01*
%TO.C,C6*%
X131565000Y-75388748D02*
X131565000Y-75911252D01*
X133035000Y-75388748D02*
X133035000Y-75911252D01*
%TO.C,R10*%
X76390000Y-80990000D02*
X76390000Y-76820000D01*
X72990000Y-80160000D02*
X72990000Y-75960000D01*
%TO.C,R3*%
X112380000Y-75370000D02*
X112380000Y-79540000D01*
X115780000Y-76200000D02*
X115780000Y-80400000D01*
%TO.C,R7*%
X126065000Y-77947936D02*
X126065000Y-78402064D01*
X127535000Y-77947936D02*
X127535000Y-78402064D01*
%TO.C,R11*%
X144385436Y-49490000D02*
X144839564Y-49490000D01*
X144385436Y-50960000D02*
X144839564Y-50960000D01*
%TO.C,C8*%
X86872500Y-76281252D02*
X86872500Y-75758748D01*
X88342500Y-76281252D02*
X88342500Y-75758748D01*
%TO.C,C1*%
X102691248Y-78962500D02*
X103213752Y-78962500D01*
X102691248Y-80432500D02*
X103213752Y-80432500D01*
%TO.C,U1*%
X99335000Y-73035000D02*
X97385000Y-73035000D01*
X99335000Y-73035000D02*
X101285000Y-73035000D01*
X99335000Y-78155000D02*
X97385000Y-78155000D01*
X99335000Y-78155000D02*
X101285000Y-78155000D01*
X96635000Y-73130000D02*
X96395000Y-72800000D01*
X96875000Y-72800000D01*
X96635000Y-73130000D01*
G36*
X96635000Y-73130000D02*
G01*
X96395000Y-72800000D01*
X96875000Y-72800000D01*
X96635000Y-73130000D01*
G37*
%TO.C,C10*%
X144351248Y-47090000D02*
X144873752Y-47090000D01*
X144351248Y-48560000D02*
X144873752Y-48560000D01*
%TD*%
M02*
