%TF.GenerationSoftware,KiCad,Pcbnew,9.0.0*%
%TF.CreationDate,2025-03-15T23:12:27-07:00*%
%TF.ProjectId,Joule-Thief_R6,4a6f756c-652d-4546-9869-65665f52362e,5*%
%TF.SameCoordinates,Original*%
%TF.FileFunction,Paste,Top*%
%TF.FilePolarity,Positive*%
%FSLAX46Y46*%
G04 Gerber Fmt 4.6, Leading zero omitted, Abs format (unit mm)*
G04 Created by KiCad (PCBNEW 9.0.0) date 2025-03-15 23:12:27*
%MOMM*%
%LPD*%
G01*
G04 APERTURE LIST*
G04 Aperture macros list*
%AMRoundRect*
0 Rectangle with rounded corners*
0 $1 Rounding radius*
0 $2 $3 $4 $5 $6 $7 $8 $9 X,Y pos of 4 corners*
0 Add a 4 corners polygon primitive as box body*
4,1,4,$2,$3,$4,$5,$6,$7,$8,$9,$2,$3,0*
0 Add four circle primitives for the rounded corners*
1,1,$1+$1,$2,$3*
1,1,$1+$1,$4,$5*
1,1,$1+$1,$6,$7*
1,1,$1+$1,$8,$9*
0 Add four rect primitives between the rounded corners*
20,1,$1+$1,$2,$3,$4,$5,0*
20,1,$1+$1,$4,$5,$6,$7,0*
20,1,$1+$1,$6,$7,$8,$9,0*
20,1,$1+$1,$8,$9,$2,$3,0*%
G04 Aperture macros list end*
%ADD10RoundRect,0.150000X0.825000X0.150000X-0.825000X0.150000X-0.825000X-0.150000X0.825000X-0.150000X0*%
%ADD11RoundRect,0.250000X-0.350000X-0.450000X0.350000X-0.450000X0.350000X0.450000X-0.350000X0.450000X0*%
%ADD12RoundRect,0.525000X1.475000X-1.225000X1.475000X1.225000X-1.475000X1.225000X-1.475000X-1.225000X0*%
%ADD13RoundRect,0.090000X-0.660000X-0.210000X0.660000X-0.210000X0.660000X0.210000X-0.660000X0.210000X0*%
%ADD14RoundRect,0.090000X0.660000X0.210000X-0.660000X0.210000X-0.660000X-0.210000X0.660000X-0.210000X0*%
%ADD15RoundRect,0.100000X-0.637500X-0.100000X0.637500X-0.100000X0.637500X0.100000X-0.637500X0.100000X0*%
%ADD16RoundRect,0.100000X0.625000X0.100000X-0.625000X0.100000X-0.625000X-0.100000X0.625000X-0.100000X0*%
%ADD17RoundRect,0.250000X-0.337500X-0.475000X0.337500X-0.475000X0.337500X0.475000X-0.337500X0.475000X0*%
%ADD18RoundRect,0.250000X0.350000X0.450000X-0.350000X0.450000X-0.350000X-0.450000X0.350000X-0.450000X0*%
%ADD19RoundRect,0.250000X0.450000X-0.350000X0.450000X0.350000X-0.450000X0.350000X-0.450000X-0.350000X0*%
%ADD20RoundRect,0.250000X-0.475000X0.337500X-0.475000X-0.337500X0.475000X-0.337500X0.475000X0.337500X0*%
%ADD21RoundRect,0.150000X0.150000X-0.587500X0.150000X0.587500X-0.150000X0.587500X-0.150000X-0.587500X0*%
%ADD22RoundRect,0.150000X-0.150000X0.512500X-0.150000X-0.512500X0.150000X-0.512500X0.150000X0.512500X0*%
%ADD23RoundRect,0.250000X0.337500X0.475000X-0.337500X0.475000X-0.337500X-0.475000X0.337500X-0.475000X0*%
%ADD24RoundRect,0.243600X0.771400X-0.901400X0.771400X0.901400X-0.771400X0.901400X-0.771400X-0.901400X0*%
%ADD25RoundRect,0.091200X0.288800X-0.608800X0.288800X0.608800X-0.288800X0.608800X-0.288800X-0.608800X0*%
%ADD26RoundRect,0.190000X0.190000X-0.510000X0.190000X0.510000X-0.190000X0.510000X-0.190000X-0.510000X0*%
%ADD27RoundRect,0.243600X-0.771400X0.901400X-0.771400X-0.901400X0.771400X-0.901400X0.771400X0.901400X0*%
%ADD28RoundRect,0.091200X-0.288800X0.608800X-0.288800X-0.608800X0.288800X-0.608800X0.288800X0.608800X0*%
%ADD29RoundRect,0.190000X-0.190000X0.510000X-0.190000X-0.510000X0.190000X-0.510000X0.190000X0.510000X0*%
%ADD30RoundRect,0.250000X-0.450000X0.350000X-0.450000X-0.350000X0.450000X-0.350000X0.450000X0.350000X0*%
%ADD31RoundRect,0.250000X0.475000X-0.337500X0.475000X0.337500X-0.475000X0.337500X-0.475000X-0.337500X0*%
%ADD32RoundRect,0.150000X-0.825000X-0.150000X0.825000X-0.150000X0.825000X0.150000X-0.825000X0.150000X0*%
G04 APERTURE END LIST*
D10*
%TO.C,U4*%
X87645000Y-82870000D03*
X87645000Y-81600000D03*
X87645000Y-80330000D03*
X87645000Y-79060000D03*
X92595000Y-79060000D03*
X92595000Y-80330000D03*
X92595000Y-81600000D03*
X92595000Y-82870000D03*
%TD*%
D11*
%TO.C,R5*%
X91700000Y-74575000D03*
X93700000Y-74575000D03*
%TD*%
%TO.C,R4*%
X91740000Y-76955000D03*
X93740000Y-76955000D03*
%TD*%
D12*
%TO.C,L1*%
X124450000Y-60550000D03*
X133950000Y-60550000D03*
%TD*%
D13*
%TO.C,SW1*%
X143550000Y-75600000D03*
X143550000Y-78100000D03*
X143550000Y-80600000D03*
X150550000Y-75600000D03*
X150550000Y-78100000D03*
X150550000Y-80600000D03*
%TD*%
D14*
%TO.C,SW2*%
X68200000Y-81000000D03*
X68200000Y-78500000D03*
X68200000Y-76000000D03*
X61200000Y-81000000D03*
X61200000Y-78500000D03*
X61200000Y-76000000D03*
%TD*%
D11*
%TO.C,R1*%
X104660000Y-73690000D03*
X106660000Y-73690000D03*
%TD*%
D15*
%TO.C,U3*%
X134487500Y-72625000D03*
X134487500Y-73275000D03*
X134487500Y-73925000D03*
X134487500Y-74575000D03*
X134487500Y-75225000D03*
X134487500Y-75875000D03*
X134487500Y-76525000D03*
X140212500Y-76525000D03*
X140212500Y-75875000D03*
X140212500Y-75225000D03*
X140212500Y-74575000D03*
X140212500Y-73925000D03*
X140212500Y-73275000D03*
X140212500Y-72625000D03*
%TD*%
D16*
%TO.C,U2*%
X127400000Y-75225000D03*
X127400000Y-74575000D03*
X127400000Y-73925000D03*
X127400000Y-73275000D03*
X127400000Y-72625000D03*
X127400000Y-71975000D03*
X123100000Y-71975000D03*
X123100000Y-72625000D03*
X123100000Y-73275000D03*
X123100000Y-73925000D03*
X123100000Y-74575000D03*
X123100000Y-75225000D03*
%TD*%
D17*
%TO.C,C3*%
X117462500Y-74587500D03*
X119537500Y-74587500D03*
%TD*%
D18*
%TO.C,R12*%
X145725000Y-39700000D03*
X143725000Y-39700000D03*
%TD*%
D19*
%TO.C,R6*%
X124200000Y-79175000D03*
X124200000Y-77175000D03*
%TD*%
D18*
%TO.C,R8*%
X84695000Y-82857500D03*
X82695000Y-82857500D03*
%TD*%
%TO.C,R9*%
X84695000Y-79220000D03*
X82695000Y-79220000D03*
%TD*%
D20*
%TO.C,C2*%
X109610000Y-74452500D03*
X109610000Y-76527500D03*
%TD*%
D21*
%TO.C,Q1*%
X142150000Y-35537500D03*
X144050000Y-35537500D03*
X143100000Y-33662500D03*
%TD*%
D20*
%TO.C,C9*%
X79142500Y-79857500D03*
X79142500Y-81932500D03*
%TD*%
%TO.C,C5*%
X121700000Y-77175000D03*
X121700000Y-79250000D03*
%TD*%
D11*
%TO.C,R2*%
X104560000Y-77340000D03*
X106560000Y-77340000D03*
%TD*%
D22*
%TO.C,U5*%
X144050000Y-42275000D03*
X143100000Y-42275000D03*
X142150000Y-42275000D03*
X142150000Y-44550000D03*
X143100000Y-44550000D03*
X144050000Y-44550000D03*
%TD*%
D23*
%TO.C,C4*%
X125162500Y-69925000D03*
X123087500Y-69925000D03*
%TD*%
D21*
%TO.C,Q2*%
X146225000Y-44362500D03*
X148125000Y-44362500D03*
X147175000Y-42487500D03*
%TD*%
D20*
%TO.C,C7*%
X129600000Y-74600000D03*
X129600000Y-76675000D03*
%TD*%
%TO.C,C6*%
X132300000Y-74612500D03*
X132300000Y-76687500D03*
%TD*%
D24*
%TO.C,R10*%
X74055000Y-81475000D03*
D25*
X75960000Y-81920000D03*
D26*
X73420000Y-75060000D03*
D24*
X75325000Y-75505000D03*
%TD*%
D27*
%TO.C,R3*%
X114715000Y-74885000D03*
D28*
X112810000Y-74440000D03*
D29*
X115350000Y-81300000D03*
D27*
X113445000Y-80855000D03*
%TD*%
D30*
%TO.C,R7*%
X126800000Y-77175000D03*
X126800000Y-79175000D03*
%TD*%
D11*
%TO.C,R11*%
X143612500Y-50225000D03*
X145612500Y-50225000D03*
%TD*%
D31*
%TO.C,C8*%
X87607500Y-77057500D03*
X87607500Y-74982500D03*
%TD*%
D17*
%TO.C,C1*%
X101915000Y-79697500D03*
X103990000Y-79697500D03*
%TD*%
D32*
%TO.C,U1*%
X96860000Y-73690000D03*
X96860000Y-74960000D03*
X96860000Y-76230000D03*
X96860000Y-77500000D03*
X101810000Y-77500000D03*
X101810000Y-76230000D03*
X101810000Y-74960000D03*
X101810000Y-73690000D03*
%TD*%
D17*
%TO.C,C10*%
X143575000Y-47825000D03*
X145650000Y-47825000D03*
%TD*%
M02*
